<?xml version="1.0" encoding="UTF-8" standalone="no"?>
<svg
   xmlns:dc="http://purl.org/dc/elements/1.1/"
   xmlns:cc="http://creativecommons.org/ns#"
   xmlns:rdf="http://www.w3.org/1999/02/22-rdf-syntax-ns#"
   xmlns:svg="http://www.w3.org/2000/svg"
   xmlns="http://www.w3.org/2000/svg"
   xmlns:sodipodi="http://sodipodi.sourceforge.net/DTD/sodipodi-0.dtd"
   xmlns:inkscape="http://www.inkscape.org/namespaces/inkscape"
   width="24"
   height="24"
   viewBox="0 0 24 24"
   version="1.1"
   id="svg7"
   sodipodi:docname="document-save-all.svg"
   inkscape:version="0.92.4 (5da689c313, 2019-01-14)">
  <metadata
     id="metadata11">
    <rdf:RDF>
      <cc:Work
         rdf:about="">
        <dc:format>image/svg+xml</dc:format>
        <dc:type
           rdf:resource="http://purl.org/dc/dcmitype/StillImage" />
        <dc:title />
      </cc:Work>
    </rdf:RDF>
  </metadata>
  <sodipodi:namedview
     pagecolor="#ffffff"
     bordercolor="#666666"
     borderopacity="1"
     objecttolerance="10"
     gridtolerance="10"
     guidetolerance="10"
     inkscape:pageopacity="0"
     inkscape:pageshadow="2"
     inkscape:window-width="1366"
     inkscape:window-height="682"
     id="namedview9"
     showgrid="false"
     inkscape:zoom="9.8333333"
     inkscape:cx="-3.227775"
     inkscape:cy="11.186441"
     inkscape:window-x="0"
     inkscape:window-y="0"
     inkscape:window-maximized="1"
     inkscape:current-layer="svg7" />
  <defs
     id="defs3">
    <style
       id="current-color-scheme"
       type="text/css">
   .ColorScheme-Text { color:#5c616c; } .ColorScheme-Highlight { color:#5294e2; }
  </style>
  </defs>
  <g
     id="g825"
     transform="translate(-5.1864409,-2.338983)"
     style="fill:#d3dae3;fill-opacity:1">
    <path
       style="fill:#d3dae3;fill-opacity:1"
       d="m 10.175423,7.3389831 c -0.5500003,0 -1.0000003,0.45 -1.0000003,1 V 19.338983 l 2.0000003,2 h 4.964269 l 0.03573,-2 v 0 0 0 -4 0 c -1.648189,-0.120559 -1.648189,-0.120559 0,0 l 0.135593,-1.067797 -4.135593,0.0678 v 5 h -1 V 9.3389831 h 10 l 0.07197,4.9647159 1.880053,2e-6 0.04798,-5.9647179 c 0.0044,-0.5499826 -0.45,-1 -1,-1 z"
       id="path2"
       inkscape:connector-curvature="0"
       sodipodi:nodetypes="ssccccccccccccccccccsss" />
    <path
       sodipodi:nodetypes="ssssssssscccccccccccccc"
       inkscape:connector-curvature="0"
       id="path5"
       d="m 18.072459,14.369044 c -0.4924,0 -0.875,0.35565 -0.875,0.84375 v 5.21875 c 0,0.488 0.3826,0.84375 0.875,0.84375 h 6.25 c 0.492,0 0.875,-0.35575 0.875,-0.84375 v -5.21875 c 0,-0.4881 -0.383,-0.84375 -0.875,-0.84375 z m 1.126953,0.949219 h 4 v 5 h -1 v -2 h -2 v 2 h -1 z m 1,1 v 1 h 2 v -1 z"
       class="ColorScheme-Text"
       style="color:#444444;fill:#d3dae3;fill-opacity:1" />
  </g>
</svg>
