<?xml version="1.0" encoding="UTF-8" standalone="no"?>
<svg
   xmlns:dc="http://purl.org/dc/elements/1.1/"
   xmlns:cc="http://creativecommons.org/ns#"
   xmlns:rdf="http://www.w3.org/1999/02/22-rdf-syntax-ns#"
   xmlns:svg="http://www.w3.org/2000/svg"
   xmlns="http://www.w3.org/2000/svg"
   xmlns:sodipodi="http://sodipodi.sourceforge.net/DTD/sodipodi-0.dtd"
   xmlns:inkscape="http://www.inkscape.org/namespaces/inkscape"
   width="512"
   height="512"
   version="1.1"
   viewBox="0 0 384 384"
   id="svg26"
   sodipodi:docname="accessories-dictionary.svg"
   inkscape:version="0.92.4 (5da689c313, 2019-01-14)">
  <metadata
     id="metadata30">
    <rdf:RDF>
      <cc:Work
         rdf:about="">
        <dc:format>image/svg+xml</dc:format>
        <dc:type
           rdf:resource="http://purl.org/dc/dcmitype/StillImage" />
        <dc:title></dc:title>
      </cc:Work>
    </rdf:RDF>
  </metadata>
  <sodipodi:namedview
     pagecolor="#ffffff"
     bordercolor="#666666"
     borderopacity="1"
     objecttolerance="10"
     gridtolerance="10"
     guidetolerance="10"
     inkscape:pageopacity="0"
     inkscape:pageshadow="2"
     inkscape:window-width="1366"
     inkscape:window-height="682"
     id="namedview28"
     showgrid="false"
     inkscape:zoom="1.3037281"
     inkscape:cx="296.28221"
     inkscape:cy="301.83677"
     inkscape:window-x="0"
     inkscape:window-y="0"
     inkscape:window-maximized="1"
     inkscape:current-layer="svg26" />
  <defs
     id="defs10">
    <clipPath
       id="clipPath4">
      <rect
         width="384"
         height="384"
         id="rect2" />
    </clipPath>
    <clipPath
       id="clipPath8">
      <rect
         width="384"
         height="384"
         id="rect6" />
    </clipPath>
  </defs>
  <path
     d="M 68.524694,54.527292 H 331.75 c 5.73811,0 10.38884,4.764977 10.38884,10.64209 V 371.15459 c 0,5.88082 -4.65085,10.64527 -10.38884,10.64527 H 68.524694 c -5.738075,0 -10.392941,-4.76498 -10.392941,-10.64527 V 65.169382 c 0,-5.876689 4.654866,-10.64209 10.392941,-10.64209 z"
     id="path12"
     style="fill:#cc0000;stroke-width:1;fill-opacity:1"
     inkscape:connector-curvature="0" />
  <path
     d="M 68.520573,25.437432 H 331.7459 c 5.73807,0 10.38882,4.764977 10.38882,10.645264 V 342.06791 c 0,5.87669 -4.65085,10.64208 -10.38882,10.64208 H 68.520573 c -5.738074,0 -10.388819,-4.76497 -10.388819,-10.64208 V 36.082696 c 0,-5.880815 4.650846,-10.645264 10.388819,-10.645264 z"
     id="path14"
     style="fill:#cc0000;fill-opacity:1;stroke-width:1"
     inkscape:connector-curvature="0" />
  <path
     d="m 68.520573,25.437432 c -5.754155,0 -10.388819,4.748473 -10.388819,10.645264 V 371.16199 c 0,5.82296 4.517971,10.51356 10.171517,10.63363 H 104.47137 V 25.440606 Z"
     id="path16"
     style="fill:#990000;stroke-width:1;fill-opacity:1"
     inkscape:connector-curvature="0" />
  <path
     d="m 342.13265,342.06791 c 0,5.89732 -4.63477,10.64208 -10.38881,10.64208 H 68.518511 c -1.224124,0 -2.395881,-0.22315 -3.487131,-0.61989 v 21.81634 c 1.09125,0.39674 2.263008,0.62403 3.487131,0.62403 H 331.74384 c 5.75817,0 10.39295,-4.74847 10.39295,-10.64526 z"
     id="path18"
     inkscape:connector-curvature="0"
     style="fill:#ffffff;stroke-width:1" />
  <path
     d="m 58.131755,334.13315 v 7.93476 c 0,0.0503 0.007,0.0987 0.0077,0.14878 l -0.0061,21.00567 6.900269,10.68413 -0.0056,-21.82532 c 1.092976,0.40025 2.265351,0.6292 3.492699,0.6292 H 331.74861 c 5.7381,0 10.38931,-4.76547 10.38931,-10.64209 v -7.93475 c 0,5.87663 -4.65083,10.64208 -10.38931,10.64208 H 68.520702 c -5.738102,0 -10.389335,-4.76546 -10.389335,-10.64208 z m 0.0014,29.0888 v 7.93476 c 0,5.87664 4.650845,10.64208 10.389333,10.64208 H 331.75053 c 5.7381,0 10.38934,-4.76553 10.38934,-10.64208 v -7.93476 c 0,5.87664 -4.65085,11.37527 -10.38934,11.37527 H 68.522633 c -1.189925,0 -2.423997,-0.26399 -3.488674,-0.69121 z"
     id="path22"
     style="opacity:0.3;fill:#000000;fill-opacity:1;stroke-width:0.99997509"
     inkscape:connector-curvature="0" />
  <path
     d="m 68.521085,25.437961 c -5.7381,0 -10.389332,4.764502 -10.389332,10.645264 v 7.934752 c 0,-5.880842 4.650847,-10.645264 10.389332,-10.645264 H 331.74901 c 5.73808,0 10.38931,4.764502 10.38931,10.645264 v -7.934752 c 0,-5.880842 -4.65085,-10.645264 -10.38931,-10.645264 z"
     id="path24"
     inkscape:connector-curvature="0"
     style="opacity:0.3;fill:#ffffff;stroke-width:0.99997509" />
</svg>
