<?xml version="1.0" encoding="UTF-8" standalone="no"?>
<svg
   xmlns:dc="http://purl.org/dc/elements/1.1/"
   xmlns:cc="http://creativecommons.org/ns#"
   xmlns:rdf="http://www.w3.org/1999/02/22-rdf-syntax-ns#"
   xmlns:svg="http://www.w3.org/2000/svg"
   xmlns="http://www.w3.org/2000/svg"
   xmlns:xlink="http://www.w3.org/1999/xlink"
   xmlns:sodipodi="http://sodipodi.sourceforge.net/DTD/sodipodi-0.dtd"
   xmlns:inkscape="http://www.inkscape.org/namespaces/inkscape"
   width="512"
   height="512"
   version="1.1"
   viewBox="0 0 384 384"
   id="svg22"
   sodipodi:docname="accessories-text-editor.svg"
   inkscape:version="0.92.4 (5da689c313, 2019-01-14)">
  <metadata
     id="metadata28">
    <rdf:RDF>
      <cc:Work
         rdf:about="">
        <dc:format>image/svg+xml</dc:format>
        <dc:type
           rdf:resource="http://purl.org/dc/dcmitype/StillImage" />
      </cc:Work>
    </rdf:RDF>
  </metadata>
  <defs
     id="defs26">
    <linearGradient
       inkscape:collect="always"
       id="linearGradient924">
      <stop
         style="stop-color:#ffffff;stop-opacity:1;"
         offset="0"
         id="stop920" />
      <stop
         style="stop-color:#ffffff;stop-opacity:0;"
         offset="1"
         id="stop922" />
    </linearGradient>
    <linearGradient
       inkscape:collect="always"
       id="linearGradient892">
      <stop
         style="stop-color:#000000;stop-opacity:1;"
         offset="0"
         id="stop888" />
      <stop
         style="stop-color:#000000;stop-opacity:0;"
         offset="1"
         id="stop890" />
    </linearGradient>
    <linearGradient
       inkscape:collect="always"
       xlink:href="#linearGradient892"
       id="linearGradient894"
       x1="195.51483"
       y1="364.47458"
       x2="194.18008"
       y2="336.81357"
       gradientUnits="userSpaceOnUse" />
    <linearGradient
       inkscape:collect="always"
       xlink:href="#linearGradient924"
       id="linearGradient926"
       x1="180.87076"
       y1="18.711864"
       x2="180.34958"
       y2="46.372883"
       gradientUnits="userSpaceOnUse" />
  </defs>
  <sodipodi:namedview
     pagecolor="#ffffff"
     bordercolor="#666666"
     borderopacity="1"
     objecttolerance="10"
     gridtolerance="10"
     guidetolerance="10"
     inkscape:pageopacity="0"
     inkscape:pageshadow="2"
     inkscape:window-width="1366"
     inkscape:window-height="682"
     id="namedview24"
     showgrid="false"
     inkscape:zoom="3.6875"
     inkscape:cx="203.61254"
     inkscape:cy="16.202261"
     inkscape:window-x="0"
     inkscape:window-y="0"
     inkscape:window-maximized="1"
     inkscape:current-layer="svg22" />
  <rect
     style="opacity:1;fill:#f0f0f0;fill-opacity:1;stroke:none;stroke-width:7.49999809;stroke-linecap:round;stroke-linejoin:round;stroke-miterlimit:4;stroke-dasharray:none;stroke-opacity:1;paint-order:stroke fill markers"
     id="rect837"
     width="287.77576"
     height="352.5"
     x="48.112129"
     y="15.75"
     rx="21.279659"
     ry="21.279661" />
  <rect
     style="opacity:0.4;fill:none;fill-opacity:1;stroke:url(#linearGradient926);stroke-width:7.49999952;stroke-linecap:round;stroke-linejoin:round;stroke-miterlimit:4;stroke-dasharray:none;stroke-opacity:1;paint-order:stroke fill markers"
     id="rect837-3-3"
     width="280.67017"
     height="345"
     x="51.664917"
     y="19.5"
     rx="21.279659"
     ry="21.279661" />
  <rect
     style="opacity:0.4;fill:none;fill-opacity:1;stroke:url(#linearGradient894);stroke-width:7.49999952;stroke-linecap:round;stroke-linejoin:round;stroke-miterlimit:4;stroke-dasharray:none;stroke-opacity:1;paint-order:stroke fill markers"
     id="rect837-3"
     width="280.67017"
     height="345"
     x="51.664917"
     y="27"
     rx="21.279659"
     ry="21.279661" />
  <path
     inkscape:connector-curvature="0"
     style="fill:#000000;fill-opacity:0.39215686;stroke-width:0.9999997"
     d="m 111.78122,199.52774 v 17.38889 h 169.27984 v -17.38889 z m 0,0"
     id="path27-6" />
  <path
     inkscape:connector-curvature="0"
     style="fill:#000000;fill-opacity:0.39215686;stroke-width:0.9999997"
     d="m 111.78122,247.1944 v 17.38889 H 281.06106 V 247.1944 Z m 0,0"
     id="path27-6-2" />
  <path
     inkscape:connector-curvature="0"
     style="fill:#000000;fill-opacity:0.39215686;stroke-width:0.99999958"
     d="m 111.78122,88.13885 v 16.23305 h 80.54237 V 88.13885 Z m 0,0"
     id="path23-9" />
  <path
     inkscape:connector-curvature="0"
     style="fill:#000000;fill-opacity:0.39215686;stroke-width:0.9999997"
     d="m 111.78122,224.11107 v 17.38889 h 169.27984 v -17.38889 z m 0,0"
     id="path27-6-2-1" />
  <path
     inkscape:connector-curvature="0"
     style="fill:#000000;fill-opacity:0.39215686;stroke-width:0.9999997"
     d="m 111.78122,176.44441 v 17.38888 h 169.27984 v -17.38888 z m 0,0"
     id="path27-6-27" />
  <path
     inkscape:connector-curvature="0"
     style="fill:#000000;fill-opacity:0.39215686;stroke-width:0.9999997"
     d="m 111.78122,151.86107 v 17.38889 h 169.27984 v -17.38889 z m 0,0"
     id="path27-6-27-0" />
  <g
     transform="translate(12,4.5)"
     stroke-width=".9375"
     id="g20">
    <path
       d="m372 289.5c0 49.706-40.294 90-90 90s-90-40.294-90-90 40.294-90 90-90 90 40.294 90 90z"
       fill-rule="evenodd"
       opacity=".3"
       id="path12" />
    <path
       d="m372 282c0 49.706-40.294 90-90 90s-90-40.294-90-90 40.294-90 90-90 90 40.294 90 90z"
       fill="#d41717"
       fill-rule="evenodd"
       id="path14" />
    <path
       d="m237 314.45v20.047h20.047l50.629-50.629-20.047-20.047zm88.411-48.252c2.1203-2.1203 2.1203-5.4638 0-7.5842l-12.532-12.528c-2.1203-2.1203-5.4602-2.1203-7.5805 0l-10.474 10.539 20.047 20.05z"
       opacity=".3"
       id="path16" />
    <path
       d="m237 306.95v20.047h20.047l50.629-50.629-20.047-20.047zm88.411-48.252c2.1203-2.1203 2.1203-5.4638 0-7.5842l-12.532-12.528c-2.1203-2.1203-5.4602-2.1203-7.5805 0l-10.474 10.539 20.047 20.05z"
       fill="#fff"
       id="path18" />
  </g>
</svg>
