<?xml version="1.0" encoding="UTF-8" standalone="no"?>
<svg
   xmlns:dc="http://purl.org/dc/elements/1.1/"
   xmlns:cc="http://creativecommons.org/ns#"
   xmlns:rdf="http://www.w3.org/1999/02/22-rdf-syntax-ns#"
   xmlns:svg="http://www.w3.org/2000/svg"
   xmlns="http://www.w3.org/2000/svg"
   xmlns:sodipodi="http://sodipodi.sourceforge.net/DTD/sodipodi-0.dtd"
   xmlns:inkscape="http://www.inkscape.org/namespaces/inkscape"
   width="512"
   height="512"
   version="1.1"
   viewBox="0 0 384 384"
   id="svg26"
   sodipodi:docname="contact.svg"
   inkscape:version="0.92.4 (5da689c313, 2019-01-14)">
  <metadata
     id="metadata30">
    <rdf:RDF>
      <cc:Work
         rdf:about="">
        <dc:format>image/svg+xml</dc:format>
        <dc:type
           rdf:resource="http://purl.org/dc/dcmitype/StillImage" />
      </cc:Work>
    </rdf:RDF>
  </metadata>
  <sodipodi:namedview
     pagecolor="#ffffff"
     bordercolor="#666666"
     borderopacity="1"
     objecttolerance="10"
     gridtolerance="10"
     guidetolerance="10"
     inkscape:pageopacity="0"
     inkscape:pageshadow="2"
     inkscape:window-width="1366"
     inkscape:window-height="682"
     id="namedview28"
     showgrid="false"
     inkscape:zoom="1.0664062"
     inkscape:cx="256"
     inkscape:cy="197.07341"
     inkscape:window-x="0"
     inkscape:window-y="0"
     inkscape:window-maximized="1"
     inkscape:current-layer="svg26" />
  <defs
     id="defs10">
    <clipPath
       id="clipPath4">
      <rect
         width="384"
         height="384"
         id="rect2" />
    </clipPath>
    <clipPath
       id="clipPath8">
      <rect
         width="384"
         height="384"
         id="rect6" />
    </clipPath>
  </defs>
  <path
     d="M 60.406725,45.527292 H 340.83374 c 6.11309,0 11.06774,4.764977 11.06774,10.64209 V 362.15459 c 0,5.88082 -4.95478,10.64527 -11.06774,10.64527 H 60.406725 c -6.113055,0 -11.072116,-4.76498 -11.072116,-10.64527 V 56.169382 c 0,-5.876689 4.959061,-10.64209 11.072116,-10.64209 z"
     id="path12"
     style="fill:#0066cc;stroke-width:0.99999994"
     inkscape:connector-curvature="0" />
  <path
     d="M 60.402335,16.437432 H 340.82936 c 6.11306,0 11.06774,4.764977 11.06774,10.645264 V 333.06791 c 0,5.87669 -4.95478,10.64208 -11.06774,10.64208 H 60.402335 c -6.113056,0 -11.067724,-4.76497 -11.067724,-10.64208 V 27.082696 c 0,-5.880815 4.954777,-10.645264 11.067724,-10.645264 z"
     id="path14"
     style="fill:#0066cc;fill-opacity:1;stroke-width:0.99999994"
     inkscape:connector-curvature="0" />
  <path
     d="m 60.402335,16.437432 c -6.130188,0 -11.067724,4.748473 -11.067724,10.645264 V 362.16199 c 0,5.82296 4.813219,10.51356 10.836221,10.63363 H 98.702505 V 16.440606 Z"
     id="path16"
     style="fill:#003399;stroke-width:0.99999994"
     inkscape:connector-curvature="0" />
  <path
     d="m 351.89489,333.06791 c 0,5.89732 -4.93765,10.64208 -11.06772,10.64208 H 60.400139 c -1.304121,0 -2.552452,-0.22315 -3.715015,-0.61989 v 21.81634 c 1.162563,0.39674 2.410895,0.62403 3.715015,0.62403 H 340.82717 c 6.13447,0 11.07213,-4.74847 11.07213,-10.64526 z"
     id="path18"
     inkscape:connector-curvature="0"
     style="fill:#ffffff;stroke-width:0.99999994" />
  <path
     d="m 49.334612,325.13315 v 7.93476 c 0,0.0503 0.0074,0.0987 0.0082,0.14878 l -0.0064,21.00567 7.351201,10.68413 -0.0059,-21.82532 c 1.164399,0.40025 2.413389,0.6292 3.720945,0.6292 H 340.83225 c 6.11309,0 11.06825,-4.76547 11.06825,-10.64209 v -7.93475 c 0,5.87663 -4.95476,10.64208 -11.06825,10.64208 H 60.402472 c -6.113084,0 -11.068275,-4.76546 -11.068275,-10.64208 z m 0.0015,29.0888 v 7.93476 c 0,5.87664 4.954777,10.64208 11.068273,10.64208 H 340.83431 c 6.11307,0 11.06827,-4.76553 11.06827,-10.64208 v -7.93476 c 0,5.87664 -4.95479,11.37527 -11.06827,11.37527 H 60.404531 c -1.267688,0 -2.582406,-0.26399 -3.716658,-0.69121 z"
     id="path22"
     style="opacity:0.3;fill:#000000;fill-opacity:1;stroke-width:0.99997509"
     inkscape:connector-curvature="0" />
  <path
     d="m 60.402881,16.437961 c -6.113083,0 -11.068272,4.764502 -11.068272,10.645264 v 7.934752 c 0,-5.880842 4.954779,-10.645264 11.068272,-10.645264 H 340.83268 c 6.11306,0 11.06824,4.764502 11.06824,10.645264 v -7.934752 c 0,-5.880842 -4.95477,-10.645264 -11.06824,-10.645264 z"
     id="path24"
     inkscape:connector-curvature="0"
     style="opacity:0.3;fill:#ffffff;stroke-width:0.99997509" />
  <path
     d="m 239.86817,198.23443 c -1.01208,-0.30714 -7.40524,-2.99057 -3.40987,-14.29557 h -0.0609 c 10.41394,-9.98429 18.37256,-26.05043 18.37256,-41.86757 C 254.77001,117.74986 237.39599,105 217.2035,105 c -20.20512,0 -37.48373,12.74386 -37.48373,37.07129 0,15.88243 7.91403,32.01357 18.39206,41.97428 4.08408,9.97243 -3.21918,13.67372 -4.74599,14.18886 C 179.12958,202.51986 140.40138,223.88529 141.0141,255 h 153.00675 c 0.68335,-29.72343 -29.95032,-49.02486 -54.15522,-56.76557 z"
     id="path34"
     style="fill:#ffffff;fill-opacity:1;stroke-width:0.65899688"
     inkscape:connector-curvature="0" />
</svg>
