<?xml version="1.0" encoding="UTF-8" standalone="no"?>
<svg
   xmlns:dc="http://purl.org/dc/elements/1.1/"
   xmlns:cc="http://creativecommons.org/ns#"
   xmlns:rdf="http://www.w3.org/1999/02/22-rdf-syntax-ns#"
   xmlns:svg="http://www.w3.org/2000/svg"
   xmlns="http://www.w3.org/2000/svg"
   xmlns:xlink="http://www.w3.org/1999/xlink"
   xmlns:sodipodi="http://sodipodi.sourceforge.net/DTD/sodipodi-0.dtd"
   xmlns:inkscape="http://www.inkscape.org/namespaces/inkscape"
   width="512"
   height="512"
   version="1.1"
   viewBox="0 0 384 384"
   id="svg16"
   sodipodi:docname="2402_msiexec.0.svg"
   inkscape:version="0.92.4 (5da689c313, 2019-01-14)">
  <metadata
     id="metadata20">
    <rdf:RDF>
      <cc:Work
         rdf:about="">
        <dc:format>image/svg+xml</dc:format>
        <dc:type
           rdf:resource="http://purl.org/dc/dcmitype/StillImage" />
      </cc:Work>
    </rdf:RDF>
  </metadata>
  <sodipodi:namedview
     pagecolor="#ffffff"
     bordercolor="#666666"
     borderopacity="1"
     objecttolerance="10"
     gridtolerance="10"
     guidetolerance="10"
     inkscape:pageopacity="0"
     inkscape:pageshadow="2"
     inkscape:window-width="1366"
     inkscape:window-height="682"
     id="namedview18"
     showgrid="false"
     inkscape:zoom="0.4609375"
     inkscape:cx="46.644068"
     inkscape:cy="256"
     inkscape:window-x="0"
     inkscape:window-y="0"
     inkscape:window-maximized="1"
     inkscape:current-layer="svg16" />
  <defs
     id="defs6">
    <linearGradient
       inkscape:collect="always"
       id="linearGradient973">
      <stop
         style="stop-color:#eeeeee;stop-opacity:1"
         offset="0"
         id="stop969" />
      <stop
         style="stop-color:#b3b3b3;stop-opacity:1"
         offset="1"
         id="stop971" />
    </linearGradient>
    <clipPath
       id="clipPath4">
      <rect
         width="384"
         height="384"
         id="rect2" />
    </clipPath>
    <radialGradient
       inkscape:collect="always"
       xlink:href="#linearGradient973"
       id="radialGradient975"
       cx="192"
       cy="192"
       fx="192"
       fy="192"
       r="165.18467"
       gradientTransform="matrix(1,0,0,0.99937846,0,0.11933531)"
       gradientUnits="userSpaceOnUse" />
  </defs>
  <path
     d="m 105.05311,347.67328 c -2.2266,-2.39059 -3.82029,-6.7656 -3.79689,-10.44099 0.008,-1.89451 1.96089,-8.36331 5.5781,-18.492 3.0625,-8.57029 5.6055,-16.35199 5.6562,-17.293 0.0664,-1.24611 -1.4219,-3.082 -5.49611,-6.7773 -3.07419,-2.7891 -7.539086,-7.36719 -9.92189,-10.176 -2.386699,-2.8125 -4.996099,-5.39061 -5.804699,-5.73049 -0.90625,-0.38282 -7.5625,1.54299 -17.379,5.03119 -8.749999,3.10941 -17.152,5.74221 -18.667999,5.85161 -3.1172,0.23047 -8.976598,-2.00001 -11.483998,-4.37111 -1.992199,-1.8867 -16.573999,-37.18401 -16.894999,-40.89801 -0.31641,-3.68359 2.2422,-9.23829 5.4727,-11.89099 1.472701,-1.20701 9.437499,-5.2539 17.698997,-8.9883 8.8945,-4.02339 15.266,-7.37109 15.620999,-8.207 0.328131,-0.77734 0.402341,-4.42189 0.164061,-8.10159 -0.238281,-3.67581 -0.21484,-10.055 0.0547,-14.176 0.265631,-4.1172 0.0859,-7.97271 -0.40234,-8.56251 -0.48828,-0.58984 -7.574199,-4.35159 -15.741999,-8.35939 -9.499995,-4.6602 -15.753995,-8.12111 -17.362995,-9.6016 -3.0586,-2.8203 -5.3438,-9.0117 -4.582,-12.434 0.30469,-1.3867 4.2539,-10.96901 8.7656,-21.28901 l 8.2109,-18.762 3.320297,-1.80079 c 5.863299,-3.1758 7.8711,-2.89449 26.641,3.7344 10.624999,3.7539 17.202998,5.74609 17.948999,5.4414 0.64844,-0.26562 3.7109,-3.168 6.800803,-6.44531 3.093693,-3.27729 7.605493,-7.64839 10.026993,-9.70699 2.4219,-2.0586 4.6445,-4.3203 4.94529,-5.0195 0.29688,-0.70312 -1.77739,-7.8672 -4.60939,-15.917998 -2.832,-8.046903 -5.46881,-15.914003 -5.86331,-17.477003 -1.1055,-4.3984 -0.20702,-8.8789 2.50001,-12.496 2.043,-2.7305 4.1211,-3.80079 20.57,-10.586 10.062,-4.1484 19.734,-7.6523 21.492,-7.7852 4.082,-0.30469 9.418,1.9297 12.023,5.0352 1.0976,1.3086 5.0469,9.082 8.7812,17.281 3.73049,8.1953 7.0976,15.312 7.48049,15.816 0.40626,0.52734 4.18361,0.76562 8.9922,0.56641 4.56251,-0.1875 11.238,-0.11719 14.836,0.15625 4.8789,0.37109 6.9258,0.15234 8.0508,-0.85547 0.82422,-0.74219 4.793,-8.0273 8.8164,-16.191 7.73441,-15.695 9.3633,-18.004 14.148,-20.062 5.32421,-2.2852 7.57811,-1.7031 28.10201,7.2695 l 18.69499,8.1758 2.11331,3.1914 c 3.63669,5.4883 3.3633,7.832 -3.0312,26.230002 -3.09771,8.910199 -5.75781,16.936999 -5.91411,17.843999 -0.22266,1.2774 0.96484,2.7852 5.25,6.6758 3.0469,2.7656 7.7461,7.6211 10.441,10.793 2.69531,3.168 5.17189,5.8789 5.5078,6.0234 0.33593,0.14062 7.8633,-2.32421 16.72999,-5.47661 8.86721,-3.1524 17.562,-5.84769 19.328,-5.9922 4.168,-0.33594 9.2383,1.83201 12.20301,5.2227 1.41019,1.60941 5.10549,9.63671 9.42579,20.47701 7.42191,18.602 7.80861,20.535 5.3008,26.47299 -1.7695,4.20311 -4.80859,6.1641 -21.145,13.66401 -8.88669,4.0781 -16.27299,7.6953 -16.418,8.0391 -0.14844,0.34766 -0.082,4.5977 0.14063,9.45309 0.22656,4.8516 0.14062,11.48001 -0.1914,14.727 -0.41408,4.0312 -0.23439,6.2812 0.55467,7.1016 0.64063,0.66016 8.1562,4.6953 16.70301,8.96481 16.96099,8.47269 19.46499,10.37899 20.64499,15.72699 1.1133,5.0547 0.20313,8.1055 -8.082,26.98 l -7.9258,18.05499 -3.41799,2.12891 c -6.09771,3.7969 -7.17971,3.66801 -27.04301,-3.26561 -9.70699,-3.38668 -17.88299,-6.06249 -18.17199,-5.94529 -0.28907,0.11719 -2.7422,2.6367 -5.4492,5.6016 -2.71089,2.96481 -7.5312,7.60551 -10.719,10.312 -3.1836,2.70699 -5.87109,5.3906 -5.9727,5.957 -0.10155,0.57032 2.2969,8.0234 5.332,16.566 3.03521,8.5391 5.6328,17.242 5.7774,19.33999 0.30468,4.45311 -1.168,8.41021 -4.25779,11.43001 -2.72661,2.66409 -35.59401,16.27299 -40.14501,16.62099 -3.80469,0.29297 -9.5664,-1.94529 -12.23,-4.74999 -1.0195,-1.07421 -5.0703,-8.9844 -9,-17.578 -3.9297,-8.5938 -7.65229,-15.84401 -8.2773,-16.109 -0.62109,-0.26563 -4.8516,-0.34767 -9.3984,-0.1836 -4.5469,0.16406 -11.14099,0.0586 -14.64799,-0.23047 -4.84761,-0.40235 -6.6094,-0.21093 -7.3438,0.80077 -0.53516,0.73047 -4.4453,8.21481 -8.69531,16.63301 -9.3438,18.52 -10.94899,20.27299 -19.008,20.82 -2.33589,0.16015 -5.5938,-1.02341 -21.691,-7.875 -14.25,-6.06641 -19.371,-8.52341 -20.664,-9.9102 z m 63.80101,-72.75799 c 17.859,5.457 35.03899,4.6953 52.36298,-2.3242 13.203,-5.3516 23.598,-13.22999 32.766,-24.82799 5.74611,-7.27341 13.43801,-25.453 14.69901,-34.746 3.82809,-28.199 -6.3789,-54.484 -28.19901,-72.621 -5.082,-4.2227 -6.59379,-5.0625 -17.90599,-9.91411 -10.836,-4.64839 -13.18001,-5.4141 -19.062,-6.2109 -29.37099,-3.97269 -58.47299,8.64451 -75.10199,32.56201 -14.941,21.488 -17.91801,48.62499 -8.0352,73.22699 5.1758,12.883 14.055,24.48801 25.344,33.12499 3.2188,2.46482 8.04299,5.35551 15.094,9.05081 0.5625,0.29298 4.1797,1.5 8.0391,2.6797 z m -4.9688,-37.08999 c -15.961,-12.535 -22.074,-33.23401 -15.391,-52.109 4.6719,-13.19501 13.426,-22.324 26.418,-27.551 23.66399,-9.5195 50.29298,1.5898 59.77699,24.93 7.81249,19.227 2.92189,39.789 -12.61301,53.07 -13.23399,11.31199 -29.99998,14.191 -46.42999,7.97269 -5.5938,-2.11719 -8.20699,-3.51949 -11.76199,-6.31251 z m 27.738,-9.2812 c 5.77339,0.24999 15.91399,-2.75391 20.56999,-6.78521 3.28911,-2.8438 4.00779,-3.9492 6.68361,-10.258 2.84379,-6.7148 1.10939,-7.35159 0.60936,-12.57 -1.0117,-10.53499 -6.06639,-17.80099 -15.59001,-22.41799 -7.65228,-3.707 -13.03498,-4.0352 -20.86698,-1.2695 -9.9336,3.5078 -16.637,11.39499 -18.14101,21.33999 -1.30469,8.6133 0.67579,15.672 6.24611,22.27 5.19139,6.1562 11.883,9.3242 20.488,9.6914 z"
     id="path8-3-6"
     inkscape:connector-curvature="0"
     style="fill:#000000;fill-opacity:0.58823529;stroke:none;stroke-width:7.5;stroke-miterlimit:4;stroke-dasharray:none;stroke-opacity:0.58823529" />
  <path
     d="m 105.05312,338.67329 c -2.2266,-2.3906 -3.8203,-6.7656 -3.7969,-10.441 0.008,-1.8945 1.9609,-8.3633 5.5781,-18.492 3.0625,-8.5703 5.6055,-16.352 5.6562,-17.293 0.0664,-1.2461 -1.4219,-3.082 -5.4961,-6.7773 -3.0742,-2.7891 -7.539097,-7.3672 -9.921897,-10.176 -2.3867,-2.8125 -4.9961,-5.3906 -5.8047,-5.7305 -0.90625,-0.38282 -7.5625,1.543 -17.379,5.0312 -8.75,3.1094 -17.152,5.7422 -18.668,5.8516 -3.1172,0.23047 -8.9766,-2 -11.484,-4.3711 -1.9922,-1.8867 -16.574,-37.184 -16.895,-40.898 -0.31641,-3.6836 2.2422,-9.2383 5.4727,-11.891 1.4727,-1.207 9.4375,-5.2539 17.699,-8.9883 8.8945,-4.0234 15.266,-7.3711 15.621,-8.207 0.32813,-0.77734 0.40234,-4.4219 0.16406,-8.1016 -0.23828,-3.6758 -0.21484,-10.055 0.05469,-14.176 0.26563,-4.1172 0.08594,-7.9727 -0.40234,-8.5625 -0.48828,-0.58985 -7.5742,-4.3516 -15.742,-8.3594 -9.5,-4.6602 -15.754,-8.1211 -17.363,-9.6016 -3.0586,-2.8203 -5.3438,-9.0117 -4.582,-12.434 0.30469,-1.3867 4.2539,-10.969 8.7656,-21.289 l 8.2109,-18.762 3.3203,-1.8008 c 5.8633,-3.1758 7.8711,-2.8945 26.641,3.7344 10.625,3.7539 17.203,5.7461 17.949,5.4414 0.64844,-0.26562 3.7109,-3.168 6.8008,-6.4453 3.093697,-3.2773 7.605497,-7.6484 10.026997,-9.707 2.4219,-2.0586 4.6445,-4.3203 4.9453,-5.0195 0.29687,-0.70312 -1.7774,-7.8672 -4.6094,-15.918 -2.832,-8.0469 -5.4688,-15.914 -5.8633,-17.477 -1.1055,-4.3984 -0.20703,-8.8789 2.5,-12.496 2.043,-2.7305 4.1211,-3.8008 20.57,-10.586 10.062,-4.1484 19.734,-7.6523 21.492,-7.7852 4.082,-0.30469 9.418,1.9297 12.023,5.0352 1.0976,1.3086 5.0469,9.082 8.7812,17.281 3.7305,8.1953 7.0976,15.312 7.4805,15.816 0.40625,0.52734 4.1836,0.76562 8.9922,0.56641 4.5625,-0.1875 11.238,-0.11719 14.836,0.15625 4.8789,0.37109 6.9258,0.15234 8.0508,-0.85547 0.82422,-0.74219 4.793,-8.0273 8.8164,-16.191 7.7344,-15.695 9.3633,-18.004 14.148,-20.062 5.3242,-2.2852 7.5781,-1.7031 28.102,7.2695 l 18.695,8.1758 2.1133,3.1914 c 3.6367,5.4883 3.3633,7.832 -3.0312,26.23 -3.0977,8.9102 -5.7578,16.937 -5.9141,17.844 -0.22266,1.2774 0.96484,2.7852 5.25,6.6758 3.0469,2.7656 7.7461,7.6211 10.441,10.793 2.6953,3.168 5.1719,5.8789 5.5078,6.0234 0.33593,0.14062 7.8633,-2.3242 16.73,-5.4766 8.8672,-3.1524 17.562,-5.8477 19.328,-5.9922 4.168,-0.33594 9.2383,1.832 12.203,5.2227 1.4102,1.6094 5.1055,9.6367 9.4258,20.477 7.4219,18.602 7.8086,20.535 5.3008,26.473 -1.7695,4.2031 -4.8086,6.1641 -21.145,13.664 -8.8867,4.0781 -16.273,7.6953 -16.418,8.0391 -0.14844,0.34766 -0.082,4.5977 0.14062,9.4531 0.22657,4.8516 0.14063,11.48 -0.1914,14.727 -0.41407,4.0312 -0.23438,6.2812 0.55468,7.1016 0.64063,0.66016 8.1562,4.6953 16.703,8.9648 16.961,8.4727 19.465,10.379 20.645,15.727 1.1133,5.0547 0.20313,8.1055 -8.082,26.98 l -7.9258,18.055 -3.418,2.1289 c -6.0977,3.7969 -7.1797,3.668 -27.043,-3.2656 -9.707,-3.3867 -17.883,-6.0625 -18.172,-5.9453 -0.28907,0.11719 -2.7422,2.6367 -5.4492,5.6016 -2.7109,2.9648 -7.5312,7.6055 -10.719,10.312 -3.1836,2.707 -5.8711,5.3906 -5.9727,5.957 -0.10156,0.57032 2.2969,8.0234 5.332,16.566 3.0352,8.5391 5.6328,17.242 5.7774,19.34 0.30468,4.4531 -1.168,8.4102 -4.2578,11.43 -2.7266,2.6641 -35.594,16.273 -40.145,16.621 -3.8047,0.29296 -9.5664,-1.9453 -12.23,-4.75 -1.0195,-1.0742 -5.0703,-8.9844 -9,-17.578 -3.9297,-8.5938 -7.6523,-15.844 -8.2773,-16.109 -0.62109,-0.26563 -4.8516,-0.34766 -9.3984,-0.1836 -4.5469,0.16406 -11.141,0.0586 -14.648,-0.23047 -4.8476,-0.40234 -6.6094,-0.21093 -7.3438,0.80078 -0.53515,0.73047 -4.4453,8.2148 -8.6953,16.633 -9.3438,18.52 -10.949,20.273 -19.008,20.82 -2.3359,0.16016 -5.5938,-1.0234 -21.691,-7.875 -14.25,-6.0664 -19.371,-8.5234 -20.664,-9.9102 z m 63.801,-72.758 c 17.859,5.457 35.039,4.6953 52.363,-2.3242 13.203,-5.3516 23.598,-13.23 32.766,-24.828 5.7461,-7.2734 13.438,-25.453 14.699,-34.746 3.8281,-28.199 -6.3789,-54.484 -28.199,-72.621 -5.082,-4.2227 -6.5938,-5.0625 -17.906,-9.9141 -10.836,-4.6484 -13.18,-5.4141 -19.062,-6.2109 -29.371,-3.9727 -58.473,8.6445 -75.102,32.562 -14.941,21.488 -17.918,48.625 -8.0352,73.227 5.1758,12.883 14.055,24.488 25.344,33.125 3.2188,2.4648 8.043,5.3555 15.094,9.0508 0.5625,0.29297 4.1797,1.5 8.0391,2.6797 z m -4.9688,-37.09 c -15.961,-12.535 -22.074,-33.234 -15.391,-52.109 4.6719,-13.195 13.426,-22.324 26.418,-27.551 23.664,-9.5195 50.293,1.5898 59.777,24.93 7.8125,19.227 2.9219,39.789 -12.613,53.07 -13.234,11.312 -30,14.191 -46.43,7.9727 -5.5938,-2.1172 -8.207,-3.5195 -11.762,-6.3125 z m 27.738,-9.2812 c 5.7734,0.25 15.914,-2.7539 20.57,-6.7852 3.2891,-2.8438 4.0078,-3.9492 6.6836,-10.258 2.8438,-6.7148 1.1094,-7.3516 0.60937,-12.57 -1.0117,-10.535 -6.0664,-17.801 -15.59,-22.418 -7.6523,-3.707 -13.035,-4.0352 -20.867,-1.2695 -9.9336,3.5078 -16.637,11.395 -18.141,21.34 -1.3047,8.6133 0.67578,15.672 6.2461,22.27 5.1914,6.1562 11.883,9.3242 20.488,9.6914 z"
     id="path8"
     inkscape:connector-curvature="0"
     style="fill:url(#radialGradient975);fill-opacity:1" />
  <path
     d="m 105.08064,338.67595 c -2.2266,-2.39059 -3.82029,-6.7656 -3.79689,-10.44099 0.008,-1.89451 1.96089,-8.36331 5.5781,-18.492 3.0625,-8.5703 5.6055,-16.352 5.6562,-17.293 0.0664,-1.24611 -1.4219,-3.082 -5.49611,-6.7773 -3.07419,-2.7891 -7.539089,-7.3672 -9.921889,-10.176 -2.3867,-2.8125 -4.9961,-5.39061 -5.8047,-5.7305 -0.90625,-0.38282 -7.5625,1.543 -17.379,5.0312 -8.75,3.1094 -17.152,5.7422 -18.668,5.8516 -3.1172,0.23047 -8.976598,-2 -11.483998,-4.3711 -1.992199,-1.8867 -16.573999,-37.18401 -16.894999,-40.89801 -0.31641,-3.68359 2.2422,-9.23829 5.4727,-11.89099 1.4727,-1.20701 9.437499,-5.2539 17.698997,-8.9883 8.8945,-4.0234 15.266,-7.3711 15.621,-8.207 0.32813,-0.77734 0.40234,-4.4219 0.16406,-8.1016 -0.23828,-3.6758 -0.21484,-10.055 0.0547,-14.176 0.26563,-4.1172 0.0859,-7.9727 -0.40234,-8.5625 -0.48828,-0.58985 -7.5742,-4.3516 -15.742,-8.3594 -9.499997,-4.6602 -15.753997,-8.1211 -17.362997,-9.6016 -3.0586,-2.8203 -5.3438,-9.0117 -4.582,-12.434 0.30469,-1.3867 4.2539,-10.969 8.7656,-21.289 l 8.2109,-18.762 3.320297,-1.80079 c 5.8633,-3.1758 7.8711,-2.8945 26.641,3.7344 10.625,3.7539 17.203,5.74609 17.949,5.4414 0.64844,-0.26562 3.7109,-3.168 6.8008,-6.44531 3.093699,-3.27729 7.605499,-7.648394 10.026999,-9.706994 2.4219,-2.0586 4.6445,-4.3203 4.94529,-5.0195 0.29688,-0.70312 -1.77739,-7.8672 -4.60939,-15.917999 -2.832,-8.0469 -5.46881,-15.914 -5.86331,-17.477 -1.1055,-4.3984 -0.20702,-8.8789 2.50001,-12.496 2.043,-2.730504 4.1211,-3.800794 20.57,-10.586004 10.062,-4.1484 19.734,-7.6523 21.492,-7.7852 4.082,-0.30469 9.418,1.9297 12.023,5.0352 1.0976,1.3086 5.0469,9.082 8.7812,17.281004 3.7305,8.1953 7.0976,15.312 7.4805,15.816 0.40625,0.52734 4.1836,0.76562 8.9922,0.566409 4.5625,-0.1875 11.238,-0.117189 14.836,0.156251 4.8789,0.371089 6.9258,0.15234 8.0508,-0.85547 0.82422,-0.742191 4.79299,-8.0273 8.8164,-16.191 7.7344,-15.695004 9.3633,-18.004004 14.148,-20.062004 5.3242,-2.2852 7.5781,-1.7031 28.102,7.2695 l 18.695,8.175804 2.1133,3.1914 c 3.63669,5.4883 3.3633,7.832 -3.0312,26.229999 -3.09771,8.9102 -5.75781,16.937 -5.91411,17.844 -0.22266,1.2774 0.96485,2.7852 5.25,6.6758 3.04691,2.765604 7.74611,7.621104 10.44101,10.793004 2.6953,3.168 5.17189,5.8789 5.5078,6.0234 0.33593,0.14062 7.8633,-2.32421 16.72999,-5.47661 8.86721,-3.1524 17.562,-5.84769 19.328,-5.9922 4.168,-0.33594 9.2383,1.83201 12.20301,5.2227 1.41019,1.60941 5.10549,9.6367 9.42579,20.477 7.42191,18.602 7.80861,20.535 5.3008,26.473 -1.7695,4.2031 -4.80859,6.1641 -21.145,13.664 -8.88669,4.0781 -16.27299,7.6953 -16.418,8.0391 -0.14844,0.34766 -0.082,4.5977 0.14063,9.4531 0.22656,4.8516 0.14062,11.48 -0.1914,14.727 -0.41408,4.0312 -0.23439,6.2812 0.55467,7.1016 0.64063,0.66016 8.1562,4.6953 16.70301,8.9648 16.96099,8.4727 19.46499,10.379 20.64499,15.727 1.1133,5.0547 0.20313,8.1055 -8.082,26.98 l -7.9258,18.05499 -3.41799,2.12891 c -6.09771,3.7969 -7.17971,3.668 -27.04301,-3.26561 -9.70699,-3.38669 -17.88299,-6.06249 -18.172,-5.94529 -0.28906,0.11719 -2.74219,2.6367 -5.4492,5.6016 -2.71089,2.9648 -7.5312,7.6055 -10.719,10.312 -3.1836,2.70699 -5.87109,5.3906 -5.9727,5.957 -0.10155,0.57032 2.29691,8.0234 5.33201,16.566 3.0352,8.5391 5.6328,17.242 5.7774,19.33999 0.30468,4.45311 -1.16801,8.41021 -4.2578,11.43001 -2.72661,2.66409 -35.59401,16.27299 -40.14501,16.62099 -3.80469,0.29297 -9.5664,-1.94529 -12.22999,-4.74999 -1.01951,-1.07421 -5.0703,-8.9844 -9,-17.578 -3.9297,-8.5938 -7.6523,-15.84401 -8.2773,-16.109 -0.62109,-0.26563 -4.8516,-0.34767 -9.3984,-0.1836 -4.5469,0.16406 -11.141,0.0586 -14.648,-0.23047 -4.8476,-0.40235 -6.6094,-0.21093 -7.3438,0.80077 -0.53515,0.73047 -4.4453,8.21481 -8.6953,16.63301 -9.3438,18.52 -10.949,20.27299 -19.008,20.82 -2.3359,0.16015 -5.5938,-1.02341 -21.69101,-7.875 -14.25,-6.06641 -19.371,-8.52341 -20.664,-9.9102 z m 63.80101,-72.75799 c 17.859,5.457 35.039,4.6953 52.36299,-2.3242 13.203,-5.3516 23.598,-13.23 32.766,-24.828 5.74611,-7.2734 13.43801,-25.453 14.69901,-34.746 3.82809,-28.199 -6.3789,-54.484 -28.19901,-72.621 -5.082,-4.2227 -6.59379,-5.0625 -17.90599,-9.9141 -10.836,-4.64839 -13.18001,-5.4141 -19.062,-6.2109 -29.371,-3.97269 -58.473,8.6445 -75.102,32.562 -14.941,21.488 -17.91801,48.625 -8.0352,73.227 5.1758,12.883 14.055,24.488 25.344,33.12499 3.2188,2.46481 8.043,5.35551 15.094,9.05081 0.5625,0.29297 4.1797,1.5 8.0391,2.6797 z m -4.9688,-37.09 c -15.961,-12.535 -22.074,-33.234 -15.391,-52.109 4.6719,-13.195 13.426,-22.324 26.418,-27.551 23.664,-9.5195 50.29299,1.5898 59.777,24.93 7.81249,19.227 2.92189,39.789 -12.61301,53.07 -13.23399,11.312 -29.99999,14.191 -46.42999,7.9727 -5.5938,-2.1172 -8.207,-3.5195 -11.762,-6.31251 z m 27.738,-9.2812 c 5.7734,0.25 15.914,-2.7539 20.57,-6.7852 3.2891,-2.8438 4.00779,-3.9492 6.6836,-10.258 2.8438,-6.7148 1.1094,-7.3516 0.60937,-12.57 -1.0117,-10.535 -6.0664,-17.801 -15.59001,-22.418 -7.65229,-3.707 -13.03499,-4.0352 -20.86699,-1.2695 -9.9336,3.5078 -16.637,11.395 -18.141,21.34 -1.3047,8.6133 0.67578,15.672 6.2461,22.27 5.1914,6.1562 11.883,9.3242 20.488,9.6914 z"
     id="path8-3"
     inkscape:connector-curvature="0"
     style="fill:none;fill-opacity:1;stroke:#000000;stroke-width:7.5;stroke-miterlimit:4;stroke-dasharray:none;stroke-opacity:0.58823529" />
</svg>
