<?xml version="1.0" encoding="UTF-8" standalone="no"?>
<svg
   xmlns:dc="http://purl.org/dc/elements/1.1/"
   xmlns:cc="http://creativecommons.org/ns#"
   xmlns:rdf="http://www.w3.org/1999/02/22-rdf-syntax-ns#"
   xmlns:svg="http://www.w3.org/2000/svg"
   xmlns="http://www.w3.org/2000/svg"
   xmlns:sodipodi="http://sodipodi.sourceforge.net/DTD/sodipodi-0.dtd"
   xmlns:inkscape="http://www.inkscape.org/namespaces/inkscape"
   width="512"
   height="512"
   version="1.1"
   viewBox="0 0 384 384"
   id="svg54"
   sodipodi:docname="applications-interfacedesign.svg"
   inkscape:version="0.92.4 (5da689c313, 2019-01-14)">
  <metadata
     id="metadata58">
    <rdf:RDF>
      <cc:Work
         rdf:about="">
        <dc:format>image/svg+xml</dc:format>
        <dc:type
           rdf:resource="http://purl.org/dc/dcmitype/StillImage" />
      </cc:Work>
    </rdf:RDF>
  </metadata>
  <sodipodi:namedview
     pagecolor="#ffffff"
     bordercolor="#666666"
     borderopacity="1"
     objecttolerance="10"
     gridtolerance="10"
     guidetolerance="10"
     inkscape:pageopacity="0"
     inkscape:pageshadow="2"
     inkscape:window-width="1366"
     inkscape:window-height="682"
     id="namedview56"
     showgrid="false"
     inkscape:zoom="1.84375"
     inkscape:cx="177.07274"
     inkscape:cy="395.19775"
     inkscape:window-x="0"
     inkscape:window-y="0"
     inkscape:window-maximized="1"
     inkscape:current-layer="svg54" />
  <defs
     id="defs16">
    <filter
       id="alpha"
       x="0%"
       y="0%"
       width="100%"
       height="100%">
      <feColorMatrix
         in="SourceGraphic"
         values="0 0 0 0 1 0 0 0 0 1 0 0 0 0 1 0 0 0 1 0"
         id="feColorMatrix2" />
    </filter>
    <mask
       id="b">
      <g
         filter="url(#alpha)"
         id="g7">
        <rect
           width="384"
           height="384"
           fill-opacity=".2"
           id="rect5" />
      </g>
    </mask>
    <clipPath
       id="c">
      <rect
         width="384"
         height="384"
         id="rect10" />
    </clipPath>
    <g
       id="a"
       clip-path="url(#c)">
      <path
         d="m70.398 252.6h243.2c7.0703 0 12.797 6.2344 12.797 13.93v5.7383c0 7.6914-5.7266 13.93-12.797 13.93h-243.2c-7.0703 0-12.797-6.2383-12.797-13.93v-5.7383c0-7.6953 5.7266-13.93 12.797-13.93z"
         id="path13" />
    </g>
  </defs>
  <path
     transform="scale(.75)"
     d="m54.4 51c-15.08 0-27.4 12.205-27.4 27.219v350.54c0 15.024 12.326 27.223 27.4 27.223h403.21c15.071 0 27.391-12.2 27.391-27.223v-329.76h-0.00586v-20.781c0-15.014-12.32-27.219-27.4-27.219z"
     color="#000000"
     color-rendering="auto"
     dominant-baseline="auto"
     image-rendering="auto"
     opacity=".2"
     shape-rendering="auto"
     solid-color="#000000"
     style="font-feature-settings:normal;font-variant-alternates:normal;font-variant-caps:normal;font-variant-ligatures:normal;font-variant-numeric:normal;font-variant-position:normal;isolation:auto;mix-blend-mode:normal;shape-padding:0;text-decoration-color:#000000;text-decoration-line:none;text-decoration-style:solid;text-indent:0;text-orientation:mixed;text-transform:none;white-space:normal;fill:#c8c8c8;fill-opacity:1;opacity:1"
     id="path18" />
  <path
     d="m24 78v247.33c0 9.2422 7.4883 16.668 16.801 16.668h302.41c9.3086 0 16.793-7.4258 16.793-16.668v-247.33z"
     fill="#fff"
     id="path22"
     style="fill:#000000;fill-opacity:0" />
  <path
     d="m78 113.25c-11.968 0-21.75 9.7821-21.75 21.75s9.7821 21.75 21.75 21.75c11.968 0 21.75-9.7821 21.75-21.75s-9.7821-21.75-21.75-21.75z"
     color="#000000"
     color-rendering="auto"
     dominant-baseline="auto"
     image-rendering="auto"
     opacity=".3"
     shape-rendering="auto"
     solid-color="#000000"
     style="font-feature-settings:normal;font-variant-alternates:normal;font-variant-caps:normal;font-variant-ligatures:normal;font-variant-numeric:normal;font-variant-position:normal;isolation:auto;mix-blend-mode:normal;shape-padding:0;text-decoration-color:#000000;text-decoration-line:none;text-decoration-style:solid;text-indent:0;text-orientation:mixed;text-transform:none;white-space:normal"
     id="path24" />
  <path
     d="m40.801 42c-9.3164 0-16.801 7.4297-16.801 16.664v19.336h336v-19.336c0-9.2344-7.4844-16.664-16.801-16.664z"
     id="path26" />
  <path
     inkscape:connector-curvature="0"
     d="m 70.398,252.6 h 238.85999 c 6.9414,0 12.57,4.6696 12.57,10.431 v 4.2902 c 0,5.7613 -5.6289,10.431 -12.57,10.431 H 70.398 c -6.9414,0 -12.57,-4.6696 -12.57,-10.431 v -4.2902 c 0,-5.7613 5.6289,-10.431 12.57,-10.431 z"
     id="path30-3"
     style="fill:#646464;fill-opacity:1;stroke-width:0.99999994" />
  <path
     d="m 70.398,252.6 h 163.77919 c 4.75951,0 8.61888,4.6696 8.61888,10.431 v 4.2902 c 0,5.7613 -3.85957,10.431 -8.61888,10.431 H 70.398 c -4.759512,0 -8.618875,-4.6696 -8.618875,-10.431 v -4.2902 c 0,-5.7613 3.859569,-10.431 8.618875,-10.431 z"
     id="path30"
     style="fill:#2a61bf;fill-opacity:1;stroke-width:1"
     inkscape:connector-curvature="0" />
  <path
     d="m288 268.5c0 23.184-18.816 42-42 42s-42-18.816-42-42 18.816-42 42-42 42 18.816 42 42z"
     fill="#160000"
     fill-rule="evenodd"
     opacity=".3"
     id="path32" />
  <path
     d="m288 264c0 23.184-18.816 42-42 42s-42-18.816-42-42 18.816-42 42-42 42 18.816 42 42z"
     fill="#fff"
     fill-rule="evenodd"
     id="path34" />
  <path
     d="m96 132c0 9.9414-8.0586 18-18 18s-18-8.0586-18-18 8.0586-18 18-18 18 8.0586 18 18z"
     fill="#fff"
     stroke="#000"
     stroke-width="7.5"
     id="path36" />
  <path
     d="m137.66 173.25c-5.3418 0-9.4141 4.6652-9.4141 9.9375v23.625c0 5.2723 4.0723 9.9375 9.4141 9.9375h24.672c5.3418 0 9.4141-4.6652 9.4141-9.9375v-23.625c0-5.2723-4.0723-9.9375-9.4141-9.9375z"
     color="#000000"
     color-rendering="auto"
     dominant-baseline="auto"
     image-rendering="auto"
     opacity=".3"
     shape-rendering="auto"
     solid-color="#000000"
     style="font-feature-settings:normal;font-variant-alternates:normal;font-variant-caps:normal;font-variant-ligatures:normal;font-variant-numeric:normal;font-variant-position:normal;isolation:auto;mix-blend-mode:normal;shape-padding:0;text-decoration-color:#000000;text-decoration-line:none;text-decoration-style:solid;text-indent:0;text-orientation:mixed;text-transform:none;white-space:normal"
     id="path38" />
  <path
     d="m137.66 174h24.672c3.1289 0 5.6641 2.7695 5.6641 6.1875v23.625c0 3.418-2.5352 6.1875-5.6641 6.1875h-24.672c-3.1289 0-5.6641-2.7695-5.6641-6.1875v-23.625c0-3.418 2.5352-6.1875 5.6641-6.1875z"
     fill="#2a61bf"
     stroke="#fff"
     stroke-width="7.5"
     id="path40" />
  <path
     d="m78 173.25c-11.968 0-21.75 9.7821-21.75 21.75s9.7821 21.75 21.75 21.75c11.968 0 21.75-9.7821 21.75-21.75s-9.7821-21.75-21.75-21.75z"
     color="#000000"
     color-rendering="auto"
     dominant-baseline="auto"
     image-rendering="auto"
     opacity=".3"
     shape-rendering="auto"
     solid-color="#000000"
     style="font-feature-settings:normal;font-variant-alternates:normal;font-variant-caps:normal;font-variant-ligatures:normal;font-variant-numeric:normal;font-variant-position:normal;isolation:auto;mix-blend-mode:normal;shape-padding:0;text-decoration-color:#000000;text-decoration-line:none;text-decoration-style:solid;text-indent:0;text-orientation:mixed;text-transform:none;white-space:normal"
     id="path42" />
  <path
     d="m96 192c0 9.9414-8.0586 18-18 18s-18-8.0586-18-18 8.0586-18 18-18 18 8.0586 18 18z"
     fill="#2a61bf"
     stroke="#fff"
     stroke-width="7.5"
     id="path44" />
  <path
     d="m137.66 113.25c-5.3418 0-9.4141 4.6652-9.4141 9.9375v23.625c0 5.2723 4.0723 9.9375 9.4141 9.9375h24.672c5.3418 0 9.4141-4.6652 9.4141-9.9375v-23.625c0-5.2723-4.0723-9.9375-9.4141-9.9375z"
     color="#000000"
     color-rendering="auto"
     dominant-baseline="auto"
     image-rendering="auto"
     opacity=".3"
     shape-rendering="auto"
     solid-color="#000000"
     style="font-feature-settings:normal;font-variant-alternates:normal;font-variant-caps:normal;font-variant-ligatures:normal;font-variant-numeric:normal;font-variant-position:normal;isolation:auto;mix-blend-mode:normal;shape-padding:0;text-decoration-color:#000000;text-decoration-line:none;text-decoration-style:solid;text-indent:0;text-orientation:mixed;text-transform:none;white-space:normal"
     id="path46" />
  <path
     d="m137.66 114h24.672c3.1289 0 5.6641 2.7695 5.6641 6.1875v23.625c0 3.418-2.5352 6.1875-5.6641 6.1875h-24.672c-3.1289 0-5.6641-2.7695-5.6641-6.1875v-23.625c0-3.418 2.5352-6.1875 5.6641-6.1875z"
     fill="#fff"
     stroke="#000"
     stroke-width="7.5"
     id="path48" />
  <path
     transform="scale(.75)"
     d="m32 423.78v10c0 12.323 9.9837 22.225 22.4 22.225h403.21c12.411 0 22.391-9.9017 22.391-22.225v-10c0 12.323-9.9792 22.225-22.391 22.225h-403.21c-12.417 0-22.4-9.9017-22.4-22.225z"
     opacity=".3"
     stroke-width="1.3333"
     id="path50" />
  <path
     transform="scale(.75)"
     d="m328 296c-30.912 0-56 25.088-56 56 0 1.0065 0.0295 2.0065 0.08203 3 1.5608-29.519 26.012-53 55.918-53s54.357 23.481 55.918 53c0.05253-0.9935 0.08203-1.9935 0.08203-3 0-30.912-25.088-56-56-56z"
     fill-rule="evenodd"
     opacity=".1"
     stroke-width="1.3333"
     id="path52" />
</svg>
