<?xml version="1.0" encoding="UTF-8" standalone="no"?>
<svg
   xmlns:dc="http://purl.org/dc/elements/1.1/"
   xmlns:cc="http://creativecommons.org/ns#"
   xmlns:rdf="http://www.w3.org/1999/02/22-rdf-syntax-ns#"
   xmlns:svg="http://www.w3.org/2000/svg"
   xmlns="http://www.w3.org/2000/svg"
   xmlns:xlink="http://www.w3.org/1999/xlink"
   xmlns:sodipodi="http://sodipodi.sourceforge.net/DTD/sodipodi-0.dtd"
   xmlns:inkscape="http://www.inkscape.org/namespaces/inkscape"
   width="512"
   height="512"
   version="1.1"
   viewBox="0 0 384 384"
   id="svg79"
   sodipodi:docname="application-x-yarock.svg"
   inkscape:version="0.92.4 (5da689c313, 2019-01-14)">
  <metadata
     id="metadata83">
    <rdf:RDF>
      <cc:Work
         rdf:about="">
        <dc:format>image/svg+xml</dc:format>
        <dc:type
           rdf:resource="http://purl.org/dc/dcmitype/StillImage" />
      </cc:Work>
    </rdf:RDF>
  </metadata>
  <sodipodi:namedview
     pagecolor="#ffffff"
     bordercolor="#666666"
     borderopacity="1"
     objecttolerance="10"
     gridtolerance="10"
     guidetolerance="10"
     inkscape:pageopacity="0"
     inkscape:pageshadow="2"
     inkscape:window-width="1366"
     inkscape:window-height="682"
     id="namedview81"
     showgrid="false"
     inkscape:zoom="0.4609375"
     inkscape:cx="46.644068"
     inkscape:cy="256"
     inkscape:window-x="0"
     inkscape:window-y="0"
     inkscape:window-maximized="1"
     inkscape:current-layer="svg79" />
  <defs
     id="defs5">
    <linearGradient
       inkscape:collect="always"
       id="linearGradient894">
      <stop
         style="stop-color:#ff9025;stop-opacity:1"
         offset="0"
         id="stop890" />
      <stop
         style="stop-color:#fc7c00;stop-opacity:1"
         offset="1"
         id="stop892" />
    </linearGradient>
    <clipPath
       id="f">
      <rect
         width="384"
         height="384"
         id="rect2" />
    </clipPath>
    <linearGradient
       inkscape:collect="always"
       xlink:href="#linearGradient894"
       id="linearGradient896"
       x1="167.07204"
       y1="52.064789"
       x2="151.23151"
       y2="330.30209"
       gradientUnits="userSpaceOnUse" />
  </defs>
  <path
     d="m368.25 192c0 62.48-50.652 113.13-113.13 113.13-62.48 0-113.13-50.652-113.13-113.13s50.652-113.13 113.13-113.13c62.48 0 113.13 50.652 113.13 113.13z"
     fill="#333"
     id="path7" />
  <path
     d="m302.25 192c0 26.035-21.102 47.141-47.137 47.141s-47.141-21.105-47.141-47.141 21.105-47.141 47.141-47.141c26.035 0 47.137 21.105 47.137 47.141z"
     fill="#4b4b4b"
     id="path9" />
  <path
     d="m289.68 192c0 19.09-15.477 34.57-34.566 34.57-19.094 0-34.57-15.48-34.57-34.57s15.477-34.57 34.57-34.57c19.09 0 34.566 15.48 34.566 34.57z"
     fill="#1fa7ae"
     id="path11" />
  <path
     d="m258.26 192c0 1.7344-1.4062 3.1406-3.1406 3.1406s-3.1445-1.4062-3.1445-3.1406 1.4102-3.1445 3.1445-3.1445c1.7344 0 3.1406 1.4102 3.1406 3.1445z"
     fill="#333"
     id="path13" />
  <g
     fill="none"
     stroke="#4b4b4b"
     id="g63">
    <path
       transform="matrix(.55868 0 0 .55868 640.58 -157.45)"
       d="m-488.14 625.49c0 111.45-90.349 201.8-201.8 201.8-111.45 0-201.8-90.349-201.8-201.8s90.349-201.8 201.8-201.8c111.45 0 201.8 90.349 201.8 201.8z"
       stroke-width="1.125"
       id="path15" />
    <g
       stroke-width="1.125"
       id="g27">
      <path
         transform="matrix(.55868 0 0 .55868 640.58 -157.45)"
         d="m-499.39 625.49c0 105.24-85.315 190.55-190.55 190.55-105.24 0-190.55-85.308-190.55-190.55 0-105.24 85.308-190.55 190.55-190.55 105.23 0 190.55 85.308 190.55 190.55z"
         id="path17" />
      <path
         transform="matrix(.55868 0 0 .55868 640.58 -157.45)"
         d="m-505.01 625.49c0 102.13-82.798 184.93-184.93 184.93-102.13 0-184.93-82.798-184.93-184.93s82.798-184.93 184.93-184.93c102.13 0 184.93 82.798 184.93 184.93z"
         id="path19" />
      <path
         transform="matrix(.55868 0 0 .55868 640.58 -157.45)"
         d="m-510.64 625.49c0 99.026-80.274 179.3-179.3 179.3s-179.3-80.274-179.3-179.3 80.274-179.3 179.3-179.3 179.3 80.274 179.3 179.3z"
         id="path21" />
      <path
         transform="matrix(.55868 0 0 .55868 640.58 -157.45)"
         d="m-516.26 625.49c0 95.922-77.764 173.68-173.68 173.68-95.922 0-173.68-77.757-173.68-173.68s77.757-173.68 173.68-173.68c95.915 0 173.68 77.757 173.68 173.68z"
         id="path23" />
      <path
         transform="matrix(.55868 0 0 .55868 640.58 -157.45)"
         d="m-521.89 625.49c0 92.81-75.24 168.05-168.05 168.05s-168.05-75.24-168.05-168.05 75.24-168.05 168.05-168.05 168.05 75.24 168.05 168.05z"
         id="path25" />
    </g>
    <path
       transform="matrix(.55868 0 0 .55868 640.58 -157.45)"
       d="m-527.51 625.49c0 89.706-72.723 162.43-162.43 162.43-89.706 0-162.43-72.723-162.43-162.43 0-89.706 72.723-162.43 162.43-162.43 89.706 0 162.43 72.723 162.43 162.43z"
       stroke-width="5.625"
       id="path29" />
    <g
       stroke-width="1.125"
       id="g41">
      <path
         transform="matrix(.55868 0 0 .55868 640.58 -157.45)"
         d="m-533.14 625.49c0 86.601-70.198 156.8-156.8 156.8-86.601 0-156.8-70.198-156.8-156.8 0-86.601 70.198-156.8 156.8-156.8 86.601 0 156.8 70.198 156.8 156.8z"
         id="path31" />
      <path
         transform="matrix(.55868 0 0 .55868 640.58 -157.45)"
         d="m-538.76 625.49c0 83.49-67.688 151.18-151.18 151.18-83.49 0-151.18-67.688-151.18-151.18s67.688-151.18 151.18-151.18c83.49 0 151.18 67.688 151.18 151.18z"
         id="path33" />
      <path
         transform="matrix(.55868 0 0 .55868 640.58 -157.45)"
         d="m-544.39 625.49c0 80.386-65.164 145.55-145.55 145.55s-145.55-65.164-145.55-145.55 65.164-145.55 145.55-145.55 145.55 65.164 145.55 145.55z"
         id="path35" />
      <path
         transform="matrix(.55868 0 0 .55868 640.58 -157.45)"
         d="m-550.01 625.49c0 77.281-62.647 139.93-139.93 139.93-77.281 0-139.93-62.647-139.93-139.93s62.647-139.93 139.93-139.93c77.281 0 139.93 62.647 139.93 139.93z"
         id="path37" />
      <path
         transform="matrix(.55868 0 0 .55868 640.58 -157.45)"
         d="m-555.64 625.49c0 74.17-60.13 134.3-134.3 134.3-74.177 0-134.3-60.13-134.3-134.3s60.123-134.3 134.3-134.3c74.17 0 134.3 60.13 134.3 134.3z"
         id="path39" />
    </g>
    <path
       transform="matrix(.55868 0 0 .55868 640.58 -157.45)"
       d="m-561.26 625.49c0 71.065-57.613 128.68-128.68 128.68-71.065 0-128.68-57.613-128.68-128.68 0-71.065 57.613-128.68 128.68-128.68 71.065 0 128.68 57.613 128.68 128.68z"
       stroke-width="1.125"
       id="path43" />
    <path
       transform="matrix(.55868 0 0 .55868 640.58 -157.45)"
       d="m-566.89 625.49c0 67.961-55.089 123.05-123.05 123.05s-123.06-55.089-123.06-123.05 55.096-123.05 123.06-123.05c67.961 0 123.05 55.089 123.05 123.05z"
       stroke-width="5.625"
       id="path45" />
    <g
       stroke-width="1.125"
       id="g59">
      <path
         transform="matrix(.55868 0 0 .55868 640.58 -157.45)"
         d="m-572.51 625.49c0 64.857-52.579 117.43-117.43 117.43-64.857 0-117.43-52.572-117.43-117.43s52.572-117.43 117.43-117.43c64.85 0 117.43 52.572 117.43 117.43z"
         id="path47" />
      <path
         transform="matrix(.55868 0 0 .55868 640.58 -157.45)"
         d="m-578.14 625.49c0 61.745-50.055 111.81-111.8 111.81s-111.81-50.062-111.81-111.81 50.062-111.81 111.81-111.81 111.8 50.062 111.8 111.81z"
         id="path49" />
      <path
         transform="matrix(.55868 0 0 .55868 640.58 -157.45)"
         d="m-583.76 625.49c0 58.641-47.538 106.18-106.18 106.18-58.641 0-106.18-47.538-106.18-106.18s47.538-106.18 106.18-106.18c58.641 0 106.18 47.538 106.18 106.18z"
         id="path51" />
      <path
         transform="matrix(.55868 0 0 .55868 640.58 -157.45)"
         d="m-589.39 625.49c0 55.536-45.021 100.56-100.56 100.56-55.536 0-100.56-45.028-100.56-100.56 0-55.536 45.028-100.56 100.56-100.56 55.536 0 100.56 45.028 100.56 100.56z"
         id="path53" />
      <path
         transform="matrix(.55868 0 0 .55868 640.58 -157.45)"
         d="m-595.01 625.49c0 52.425-42.504 94.929-94.929 94.929-52.432 0-94.929-42.504-94.929-94.929s42.497-94.929 94.929-94.929c52.425 0 94.929 42.504 94.929 94.929z"
         id="path55" />
      <path
         transform="matrix(.55868 0 0 .55868 640.58 -157.45)"
         d="m-600.64 625.49c0 49.321-39.987 89.307-89.307 89.307-49.321 0-89.307-39.987-89.307-89.307 0-49.321 39.987-89.307 89.307-89.307 49.321 0 89.307 39.987 89.307 89.307z"
         id="path57" />
    </g>
    <path
       transform="matrix(.55868 0 0 .55868 640.58 -157.45)"
       d="m-490.25 625.49c0 110.28-89.405 199.69-199.69 199.69s-199.69-89.405-199.69-199.69 89.405-199.69 199.69-199.69 199.69 89.405 199.69 199.69z"
       stroke-width="5.625"
       id="path61" />
  </g>
  <path
     d="m57.621 65.05h218.57c20.641 0 37.371 14.485 37.371 32.353v189.19c0 17.867-16.73 32.349-37.371 32.349h-218.57c-20.641 0-37.371-14.482-37.371-32.349v-189.19c0-17.867 16.73-32.353 37.371-32.353z"
     opacity=".3"
     stroke-width=".93039"
     id="path65" />
  <g
     fill-rule="evenodd"
     id="g77">
    <path
       d="m53.121 45.344h218.57c20.641 0 37.371 16.734 37.371 37.375v218.56c0 20.641-16.73 37.371-37.371 37.371h-218.57c-20.641 0-37.371-16.73-37.371-37.371v-218.56c0-20.641 16.73-37.375 37.371-37.375z"
       fill="#fc7c00"
       id="path67"
       style="fill-opacity:1;fill:url(#linearGradient896)" />
    <path
       d="m162.96 132.58-0.40234 45.906-0.39844 45.902-3.3789-1.0977c-1.2812-0.41406-3.5938-0.92969-5.9062-1.3438-1.8086-0.44922-3.6641-0.67969-5.5273-0.69141-12.699 0-22.996 10.113-22.996 22.586 4e-3 12.473 10.297 22.582 22.996 22.582 0.58594 0 1.168-0.0234 1.7539-0.0703 5.793-0.26172 14.605-3.6289 17.457-10.133 2.4648-3.6758 3.7773-7.9805 3.7852-12.379-4e-3 -0.44531-0.0195-0.88672-0.0469-1.332l0.97656-33.715c0-22.746 0.60547-40.883 1.3789-41.359 1.8047-1.1172 13.188 11.852 17.18 19.574 2.1992 4.25 3.4141 10.312 4.082 20.41 0.89063 13.387 1.0859 14.055 2.875 9.8242 3.4219-8.0742 4.5-17.727 3.0156-26.957-1.7852-11.074-5.2031-17.906-14.211-28.387-7.8828-9.1758-10.984-14.48-13.605-23.273-1.4492-4.8633-2.5078-6.0469-5.4141-6.0469z"
       opacity=".3"
       id="path69" />
    <path
       d="m162.96 125.08-0.40234 45.906-0.39844 45.902-3.3789-1.0977c-1.2812-0.41406-3.5938-0.92969-5.9062-1.3438-1.8086-0.44922-3.6641-0.67969-5.5273-0.69141-12.699 0-22.996 10.113-22.996 22.586 0.003907 12.473 10.297 22.582 22.996 22.582 0.58594 0 1.168-0.023437 1.7539-0.070313 5.793-0.26172 14.605-3.6289 17.457-10.133 2.4648-3.6758 3.7773-7.9805 3.7852-12.379-0.003906-0.44531-0.019531-0.88672-0.046875-1.332l0.97656-33.715c0-22.746 0.60547-40.883 1.3789-41.359 1.8047-1.1172 13.188 11.852 17.18 19.574 2.1992 4.25 3.4141 10.312 4.082 20.41 0.89063 13.387 1.0859 14.055 2.875 9.8242 3.4219-8.0742 4.5-17.727 3.0156-26.957-1.7852-11.074-5.2031-17.906-14.211-28.387-7.8828-9.1758-10.984-14.48-13.605-23.273-1.4492-4.8633-2.5078-6.0469-5.4141-6.0469z"
       fill="#fff"
       id="path71" />
    <path
       transform="scale(.75)"
       d="m21 389.71v12c0 27.521 22.307 49.828 49.828 49.828h291.42c27.521 0 49.828-22.307 49.828-49.828v-12c0 27.521-22.307 49.828-49.828 49.828h-291.42c-27.521 0-49.828-22.307-49.828-49.828z"
       opacity=".3"
       stroke-width="1.3333"
       id="path73" />
    <path
       transform="scale(.75)"
       d="m70.828 60.459c-27.521 0-49.828 22.311-49.828 49.832v10c0-27.521 22.307-49.832 49.828-49.832h291.42c27.521 0 49.828 22.311 49.828 49.832v-10c1e-5 -27.521-22.307-49.832-49.828-49.832h-291.42z"
       fill="#fff"
       opacity=".3"
       stroke-width="1.3333"
       id="path75" />
  </g>
</svg>
