<?xml version="1.0" encoding="UTF-8" standalone="no"?>
<svg
   xmlns:dc="http://purl.org/dc/elements/1.1/"
   xmlns:cc="http://creativecommons.org/ns#"
   xmlns:rdf="http://www.w3.org/1999/02/22-rdf-syntax-ns#"
   xmlns:svg="http://www.w3.org/2000/svg"
   xmlns="http://www.w3.org/2000/svg"
   xmlns:sodipodi="http://sodipodi.sourceforge.net/DTD/sodipodi-0.dtd"
   xmlns:inkscape="http://www.inkscape.org/namespaces/inkscape"
   width="512"
   height="512"
   version="1.1"
   viewBox="0 0 384 384"
   id="svg32"
   sodipodi:docname="org.gnome.Gnote.svg"
   inkscape:version="0.92.4 (5da689c313, 2019-01-14)">
  <metadata
     id="metadata36">
    <rdf:RDF>
      <cc:Work
         rdf:about="">
        <dc:format>image/svg+xml</dc:format>
        <dc:type
           rdf:resource="http://purl.org/dc/dcmitype/StillImage" />
      </cc:Work>
    </rdf:RDF>
  </metadata>
  <sodipodi:namedview
     pagecolor="#ffffff"
     bordercolor="#666666"
     borderopacity="1"
     objecttolerance="10"
     gridtolerance="10"
     guidetolerance="10"
     inkscape:pageopacity="0"
     inkscape:pageshadow="2"
     inkscape:window-width="1366"
     inkscape:window-height="682"
     id="namedview34"
     showgrid="false"
     inkscape:zoom="0.65186406"
     inkscape:cx="-140.99001"
     inkscape:cy="214.02346"
     inkscape:window-x="0"
     inkscape:window-y="0"
     inkscape:window-maximized="1"
     inkscape:current-layer="svg32" />
  <defs
     id="defs6">
    <clipPath
       id="clipPath4">
      <rect
         width="384"
         height="384"
         id="rect2" />
    </clipPath>
  </defs>
  <path
     d="m 69.658553,24.78975 c -14.966217,0 -21.202812,10.050717 -21.202812,29.971051 V 339.17406 c 0,18.8684 6.803927,29.24356 21.770719,29.24356 h 167.9159 l 81.29427,-102.4646 V 52.685461 c 0,-19.920334 -7.36665,-27.888005 -22.33574,-27.888005 z"
     id="path8"
     inkscape:connector-curvature="0"
     style="fill:#ffd76b;fill-opacity:1;stroke-width:0.75" />
  <path
     d="m 261.78113,265.94454 c -14.97257,-1e-5 -27.09809,15.36892 -27.09809,34.15333 v 60.60716 H 70.22646 c -14.966216,0 -21.770719,-10.37515 -21.770719,-29.24356 v 7.70642 c 0,18.86841 6.803927,29.24357 21.770719,29.24357 h 164.45658 3.45932 v -4.36045 l 77.83494,-98.10277 h -54.19617 z"
     id="path10"
     inkscape:connector-curvature="0"
     style="opacity:0.3;stroke-width:0.75" />
  <path
     d="m 319.43663,265.94968 -81.29427,102.46768 v -68.31384 c 0,-18.78415 12.12535,-34.15281 27.0981,-34.15281 z"
     id="path12"
     inkscape:connector-curvature="0"
     style="fill:#fae694;stroke-width:0.99999988" />
  <rect
     style="opacity:1;fill:#f0af00;fill-opacity:1;stroke:none;stroke-width:0.75000006;stroke-linecap:round;stroke-linejoin:round;stroke-miterlimit:4;stroke-dasharray:none;stroke-opacity:1;paint-order:stroke fill markers"
     id="rect858"
     width="270.98087"
     height="69.159462"
     x="48.455738"
     y="28.582687"
     ry="24.840023"
     rx="24.840025" />
  <path
     d="m 69.658553,24.78975 c -14.966217,0 -21.202812,10.050717 -21.202812,29.971051 v 4.623853 c 0,-19.920333 6.236595,-29.97105 21.202812,-29.97105 H 297.09799 c 14.96968,0 22.33576,7.967671 22.33576,27.888004 v -4.623854 c 0,-19.920333 -7.36665,-27.888004 -22.33576,-27.888004 z"
     id="path30"
     inkscape:connector-curvature="0"
     style="opacity:0.5;fill:#ffffff;stroke-width:0.75" />
  <rect
     style="opacity:1;fill:#f0af00;fill-opacity:1;stroke:none;stroke-width:0.75;stroke-linecap:round;stroke-linejoin:round;stroke-miterlimit:4;stroke-dasharray:none;stroke-opacity:1;paint-order:stroke fill markers"
     id="rect858-6"
     width="270.98087"
     height="35.466389"
     x="48.455738"
     y="63.16243"
     ry="0"
     rx="0" />
</svg>
