<?xml version="1.0" encoding="UTF-8" standalone="no"?>
<svg
   xmlns:dc="http://purl.org/dc/elements/1.1/"
   xmlns:cc="http://creativecommons.org/ns#"
   xmlns:rdf="http://www.w3.org/1999/02/22-rdf-syntax-ns#"
   xmlns:svg="http://www.w3.org/2000/svg"
   xmlns="http://www.w3.org/2000/svg"
   xmlns:sodipodi="http://sodipodi.sourceforge.net/DTD/sodipodi-0.dtd"
   xmlns:inkscape="http://www.inkscape.org/namespaces/inkscape"
   width="512"
   height="512"
   version="1.1"
   viewBox="0 0 384 384"
   id="svg17"
   sodipodi:docname="brasero.svg"
   inkscape:version="0.92.4 (5da689c313, 2019-01-14)">
  <metadata
     id="metadata21">
    <rdf:RDF>
      <cc:Work
         rdf:about="">
        <dc:format>image/svg+xml</dc:format>
        <dc:type
           rdf:resource="http://purl.org/dc/dcmitype/StillImage" />
      </cc:Work>
    </rdf:RDF>
  </metadata>
  <sodipodi:namedview
     pagecolor="#ffffff"
     bordercolor="#666666"
     borderopacity="1"
     objecttolerance="10"
     gridtolerance="10"
     guidetolerance="10"
     inkscape:pageopacity="0"
     inkscape:pageshadow="2"
     inkscape:window-width="1366"
     inkscape:window-height="682"
     id="namedview19"
     showgrid="false"
     inkscape:zoom="0.4609375"
     inkscape:cx="27.118644"
     inkscape:cy="256"
     inkscape:window-x="0"
     inkscape:window-y="0"
     inkscape:window-maximized="1"
     inkscape:current-layer="svg17" />
  <defs
     id="defs7">
    <linearGradient
       id="a"
       x1="220.57"
       x2="375.23"
       y1="275.61"
       y2="222.36"
       gradientTransform="matrix(1.4679 0 0 -1.4679 -899.79 296.27)"
       gradientUnits="userSpaceOnUse">
      <stop
         stop-color="#fc3434"
         offset="0"
         id="stop2" />
      <stop
         stop-color="#d31818"
         offset="1"
         id="stop4" />
    </linearGradient>
  </defs>
  <path
     d="m192 33.059c-87.781 0-158.95 71.16-158.95 158.94s71.164 158.94 158.95 158.94c87.777 0 158.94-71.16 158.94-158.94s-71.164-158.94-158.94-158.94zm0 115.59c23.941 0 43.348 19.406 43.348 43.348 0 23.941-19.406 43.348-43.348 43.348-23.945 0-43.348-19.406-43.348-43.348 0-23.941 19.402-43.348 43.348-43.348z"
     fill="#e6e6e6"
     stroke="#ccc"
     stroke-width="1.9868"
     id="path9"
     style="stroke:#000000;stroke-opacity:0.58823532" />
  <path
     d="m255.94 181.06c3.9961 26.664-14.48 55.828-32.301 77.617-0.625-10.637-1.2891-17.973-6.8906-28.148-1.2578 19.316-16.051 35.062-20.055 54.418-5.4258 26.211 15.086 55.082 40.105 64.277 5.6641 2.082 18.246 4.7617 23.551 5.9102-10.449-7.9844-26.742-22.289-29.199-35.41-0.87109-2.9648-1.3125-6.0156-1.3203-9.082 0-19.668 17.543-35.609 39.188-35.609 21.641 0 39.184 15.941 39.184 35.609-4e-3 2.2656-0.24609 4.5274-0.72656 6.7539-0.87109 12.98-19.426 29.012-30.504 37.738h4.2578c2.957-1.0742 8.4844-2.3867 15.883-6.6016 91.43-52.121 21.578-127.1 9.5898-135.82 3.9961 8.7226 4.7539 23.488-3.3164 30.652-13.664-51.707-47.445-62.305-47.445-62.305z"
     opacity=".3"
     id="path11" />
  <path
     d="m192 124.14c-37.48 0-67.863 30.379-67.863 67.859s30.383 67.859 67.863 67.859c37.477 0 67.859-30.379 67.859-67.859s-30.383-67.859-67.859-67.859zm0 31.848c19.887 0 36.012 16.125 36.012 36.012s-16.125 36.012-36.012 36.012-36.016-16.125-36.016-36.012 16.129-36.012 36.016-36.012z"
     fill="#fff"
     stroke="#e6e6e6"
     stroke-width="3.5188"
     id="path13"
     style="stroke:#000000;stroke-opacity:0.58823532" />
  <path
     d="m255.94 173.56c3.9961 26.664-14.48 55.828-32.301 77.617-0.625-10.637-1.2891-17.973-6.8906-28.148-1.2578 19.316-16.051 35.062-20.055 54.418-5.4258 26.211 15.086 55.082 40.105 64.277 5.6641 2.082 18.246 4.7617 23.551 5.9102-10.449-7.9844-26.742-22.289-29.199-35.41-0.87109-2.9648-1.3125-6.0156-1.3203-9.082 0-19.668 17.543-35.609 39.188-35.609 21.641 0 39.184 15.941 39.184 35.609-4e-3 2.2656-0.24609 4.5274-0.72656 6.7539-0.87109 12.98-19.426 29.012-30.504 37.738h4.2578c2.957-1.0742 8.4844-2.3867 15.883-6.6016 91.43-52.121 21.578-127.1 9.5898-135.82 3.9961 8.7226 4.7539 23.488-3.3164 30.652-13.664-51.707-47.445-62.305-47.445-62.305z"
     fill="url(#a)"
     id="path15" />
</svg>
