<?xml version="1.0" encoding="UTF-8" standalone="no"?>
<svg
   xmlns:dc="http://purl.org/dc/elements/1.1/"
   xmlns:cc="http://creativecommons.org/ns#"
   xmlns:rdf="http://www.w3.org/1999/02/22-rdf-syntax-ns#"
   xmlns:svg="http://www.w3.org/2000/svg"
   xmlns="http://www.w3.org/2000/svg"
   xmlns:xlink="http://www.w3.org/1999/xlink"
   xmlns:sodipodi="http://sodipodi.sourceforge.net/DTD/sodipodi-0.dtd"
   xmlns:inkscape="http://www.inkscape.org/namespaces/inkscape"
   width="512"
   height="512"
   version="1.1"
   viewBox="0 0 384 384"
   id="svg329"
   sodipodi:docname="camera-photo.svg"
   inkscape:version="0.92.4 (5da689c313, 2019-01-14)">
  <metadata
     id="metadata333">
    <rdf:RDF>
      <cc:Work
         rdf:about="">
        <dc:format>image/svg+xml</dc:format>
        <dc:type
           rdf:resource="http://purl.org/dc/dcmitype/StillImage" />
      </cc:Work>
    </rdf:RDF>
  </metadata>
  <sodipodi:namedview
     pagecolor="#ffffff"
     bordercolor="#666666"
     borderopacity="1"
     objecttolerance="10"
     gridtolerance="10"
     guidetolerance="10"
     inkscape:pageopacity="0"
     inkscape:pageshadow="2"
     inkscape:window-width="1366"
     inkscape:window-height="682"
     id="namedview331"
     showgrid="false"
     inkscape:zoom="0.4609375"
     inkscape:cx="27.118644"
     inkscape:cy="256"
     inkscape:window-x="0"
     inkscape:window-y="0"
     inkscape:window-maximized="1"
     inkscape:current-layer="svg329" />
  <defs
     id="defs297">
    <linearGradient
       id="b"
       x1="-44"
       x2="-24"
       y1="-24"
       y2="-24"
       gradientTransform="matrix(2.3855 -2.4201 -2.4201 -2.3855 191.02 67.38)"
       gradientUnits="userSpaceOnUse">
      <stop
         stop-opacity="0"
         offset="0"
         id="stop2" />
      <stop
         offset="1"
         id="stop4" />
    </linearGradient>
    <g
       id="d"
       opacity=".3"
       lip-path="url(#clip3)">
      <path
         d="m152.85 144.27c-11.742 10.883-18.426 26.164-18.445 42.172 0 31.805 25.785 57.59 57.59 57.59 16.297-0.0234 31.82-6.9531 42.723-19.066z"
         fill="url(#b)"
         id="path7" />
    </g>
    <linearGradient
       id="c"
       x1="-44"
       x2="-24"
       y1="-24"
       y2="-24"
       gradientTransform="matrix(-2.4201 -2.3855 2.3855 -2.4201 191.02 67.38)"
       gradientUnits="userSpaceOnUse">
      <stop
         stop-opacity="0"
         offset="0"
         id="stop10" />
      <stop
         offset="1"
         id="stop12" />
    </linearGradient>
    <clipPath
       id="a">
      <rect
         width="384"
         height="384"
         id="rect15" />
    </clipPath>
    <g
       id="e"
       clip-path="url(#a)"
       opacity=".3">
      <path
         d="m230.4 143.61-80.684 81.852c10.887 11.816 26.215 18.551 42.281 18.57 31.805 0 57.586-25.785 57.59-57.59-0.0234-16.355-7-31.926-19.188-42.832z"
         fill="url(#c)"
         id="path18" />
    </g>
    <clipPath
       id="clipPath23">
      <rect
         width="384"
         height="384"
         id="rect21" />
    </clipPath>
    <clipPath
       id="clipPath27">
      <rect
         width="384"
         height="384"
         id="rect25" />
    </clipPath>
    <clipPath
       id="clipPath31">
      <rect
         width="384"
         height="384"
         id="rect29" />
    </clipPath>
    <clipPath
       id="clipPath35">
      <rect
         width="384"
         height="384"
         id="rect33" />
    </clipPath>
    <clipPath
       id="clipPath39">
      <rect
         width="384"
         height="384"
         id="rect37" />
    </clipPath>
    <clipPath
       id="clipPath43">
      <rect
         width="384"
         height="384"
         id="rect41" />
    </clipPath>
    <clipPath
       id="clipPath47">
      <rect
         width="384"
         height="384"
         id="rect45" />
    </clipPath>
    <clipPath
       id="clipPath51">
      <rect
         width="384"
         height="384"
         id="rect49" />
    </clipPath>
    <clipPath
       id="clipPath55">
      <rect
         width="384"
         height="384"
         id="rect53" />
    </clipPath>
    <clipPath
       id="clipPath59">
      <rect
         width="384"
         height="384"
         id="rect57" />
    </clipPath>
    <clipPath
       id="clipPath63">
      <rect
         width="384"
         height="384"
         id="rect61" />
    </clipPath>
    <clipPath
       id="clipPath67">
      <rect
         width="384"
         height="384"
         id="rect65" />
    </clipPath>
    <clipPath
       id="clipPath71">
      <rect
         width="384"
         height="384"
         id="rect69" />
    </clipPath>
    <clipPath
       id="clipPath75">
      <rect
         width="384"
         height="384"
         id="rect73" />
    </clipPath>
    <clipPath
       id="clipPath79">
      <rect
         width="384"
         height="384"
         id="rect77" />
    </clipPath>
    <clipPath
       id="clipPath83">
      <rect
         width="384"
         height="384"
         id="rect81" />
    </clipPath>
    <clipPath
       id="clipPath87">
      <rect
         width="384"
         height="384"
         id="rect85" />
    </clipPath>
    <clipPath
       id="clipPath91">
      <rect
         width="384"
         height="384"
         id="rect89" />
    </clipPath>
    <clipPath
       id="clipPath95">
      <rect
         width="384"
         height="384"
         id="rect93" />
    </clipPath>
    <clipPath
       id="clipPath99">
      <rect
         width="384"
         height="384"
         id="rect97" />
    </clipPath>
    <clipPath
       id="clipPath103">
      <rect
         width="384"
         height="384"
         id="rect101" />
    </clipPath>
    <clipPath
       id="clipPath107">
      <rect
         width="384"
         height="384"
         id="rect105" />
    </clipPath>
    <clipPath
       id="clipPath111">
      <rect
         width="384"
         height="384"
         id="rect109" />
    </clipPath>
    <clipPath
       id="clipPath115">
      <rect
         width="384"
         height="384"
         id="rect113" />
    </clipPath>
    <clipPath
       id="clipPath119">
      <rect
         width="384"
         height="384"
         id="rect117" />
    </clipPath>
    <clipPath
       id="clipPath123">
      <rect
         width="384"
         height="384"
         id="rect121" />
    </clipPath>
    <clipPath
       id="clipPath127">
      <rect
         width="384"
         height="384"
         id="rect125" />
    </clipPath>
    <clipPath
       id="clipPath131">
      <rect
         width="384"
         height="384"
         id="rect129" />
    </clipPath>
    <clipPath
       id="clipPath135">
      <rect
         width="384"
         height="384"
         id="rect133" />
    </clipPath>
    <clipPath
       id="clipPath139">
      <rect
         width="384"
         height="384"
         id="rect137" />
    </clipPath>
    <clipPath
       id="clipPath143">
      <rect
         width="384"
         height="384"
         id="rect141" />
    </clipPath>
    <clipPath
       id="clipPath147">
      <rect
         width="384"
         height="384"
         id="rect145" />
    </clipPath>
    <clipPath
       id="clipPath151">
      <rect
         width="384"
         height="384"
         id="rect149" />
    </clipPath>
    <clipPath
       id="clipPath155">
      <rect
         width="384"
         height="384"
         id="rect153" />
    </clipPath>
    <clipPath
       id="clipPath159">
      <rect
         width="384"
         height="384"
         id="rect157" />
    </clipPath>
    <clipPath
       id="clipPath163">
      <rect
         width="384"
         height="384"
         id="rect161" />
    </clipPath>
    <clipPath
       id="clipPath167">
      <rect
         width="384"
         height="384"
         id="rect165" />
    </clipPath>
    <clipPath
       id="clipPath171">
      <rect
         width="384"
         height="384"
         id="rect169" />
    </clipPath>
    <clipPath
       id="clipPath175">
      <rect
         width="384"
         height="384"
         id="rect173" />
    </clipPath>
    <clipPath
       id="clipPath179">
      <rect
         width="384"
         height="384"
         id="rect177" />
    </clipPath>
    <clipPath
       id="clipPath183">
      <rect
         width="384"
         height="384"
         id="rect181" />
    </clipPath>
    <clipPath
       id="clipPath187">
      <rect
         width="384"
         height="384"
         id="rect185" />
    </clipPath>
    <clipPath
       id="clipPath191">
      <rect
         width="384"
         height="384"
         id="rect189" />
    </clipPath>
    <clipPath
       id="clipPath195">
      <rect
         width="384"
         height="384"
         id="rect193" />
    </clipPath>
    <clipPath
       id="clipPath199">
      <rect
         width="384"
         height="384"
         id="rect197" />
    </clipPath>
    <clipPath
       id="clipPath203">
      <rect
         width="384"
         height="384"
         id="rect201" />
    </clipPath>
    <clipPath
       id="clipPath207">
      <rect
         width="384"
         height="384"
         id="rect205" />
    </clipPath>
    <clipPath
       id="clipPath211">
      <rect
         width="384"
         height="384"
         id="rect209" />
    </clipPath>
    <clipPath
       id="clipPath215">
      <rect
         width="384"
         height="384"
         id="rect213" />
    </clipPath>
    <clipPath
       id="clipPath219">
      <rect
         width="384"
         height="384"
         id="rect217" />
    </clipPath>
    <clipPath
       id="h">
      <path
         d="m111 119h177v23h-177z"
         id="path221" />
    </clipPath>
    <clipPath
       id="clipPath226">
      <path
         d="m368.64 199.88c0-93.234-75.602-168.75-168.75-168.75-93.152 0-168.75 75.516-168.75 168.75s75.598 168.75 168.75 168.75c93.148 0 168.75-75.516 168.75-168.75z"
         id="path224" />
    </clipPath>
    <clipPath
       id="g">
      <path
         d="m177 130h45v89h-45z"
         id="path228" />
    </clipPath>
    <clipPath
       id="clipPath233">
      <path
         d="m368.64 199.88c0-93.234-75.602-168.75-168.75-168.75-93.152 0-168.75 75.516-168.75 168.75s75.598 168.75 168.75 168.75c93.148 0 168.75-75.516 168.75-168.75z"
         id="path231" />
    </clipPath>
    <clipPath
       id="f">
      <path
         d="m111 207h177v89h-177z"
         id="path235" />
    </clipPath>
    <clipPath
       id="clipPath240">
      <path
         d="m368.64 199.88c0-93.234-75.602-168.75-168.75-168.75-93.152 0-168.75 75.516-168.75 168.75s75.598 168.75 168.75 168.75c93.148 0 168.75-75.516 168.75-168.75z"
         id="path238" />
    </clipPath>
    <clipPath
       id="i">
      <rect
         width="384"
         height="384"
         id="rect242" />
    </clipPath>
    <g
       clip-path="url(#i)"
       id="g251">
      <g
         clip-path="url(#h)"
         id="g245" />
      <g
         clip-path="url(#g)"
         id="g247" />
      <g
         clip-path="url(#f)"
         id="g249" />
    </g>
    <clipPath
       id="clipPath255">
      <rect
         width="384"
         height="384"
         id="rect253" />
    </clipPath>
    <clipPath
       id="clipPath259">
      <rect
         width="384"
         height="384"
         id="rect257" />
    </clipPath>
    <clipPath
       id="clipPath263">
      <rect
         width="384"
         height="384"
         id="rect261" />
    </clipPath>
    <clipPath
       id="clipPath267">
      <rect
         width="384"
         height="384"
         id="rect265" />
    </clipPath>
    <clipPath
       id="clipPath271">
      <rect
         width="384"
         height="384"
         id="rect269" />
    </clipPath>
    <clipPath
       id="clipPath275">
      <rect
         width="384"
         height="384"
         id="rect273" />
    </clipPath>
    <clipPath
       id="clipPath279">
      <rect
         width="384"
         height="384"
         id="rect277" />
    </clipPath>
    <clipPath
       id="clipPath283">
      <rect
         width="384"
         height="384"
         id="rect281" />
    </clipPath>
    <clipPath
       id="clipPath287">
      <rect
         width="384"
         height="384"
         id="rect285" />
    </clipPath>
    <clipPath
       id="clipPath291">
      <rect
         width="384"
         height="384"
         id="rect289" />
    </clipPath>
    <clipPath
       id="clipPath295">
      <rect
         width="384"
         height="384"
         id="rect293" />
    </clipPath>
  </defs>
  <path
     d="m80.572 54.441-1.123 1.5469-19.523 26.891h-25.988c-11.014 0-19.506 10.017-19.506 21.719v203.25c0 11.699 8.4926 21.715 19.506 21.715h316.12c11.013 0 19.506-10.016 19.506-21.715v-203.25c0-11.703-8.4925-21.719-19.506-21.719h-108.26l-20.646-28.438z"
     color="#000000"
     color-rendering="auto"
     dominant-baseline="auto"
     image-rendering="auto"
     opacity=".2"
     shape-rendering="auto"
     solid-color="#000000"
     style="font-feature-settings:normal;font-variant-alternates:normal;font-variant-caps:normal;font-variant-ligatures:normal;font-variant-numeric:normal;font-variant-position:normal;isolation:auto;mix-blend-mode:normal;shape-padding:0;text-decoration-color:#000000;text-decoration-line:none;text-decoration-style:solid;text-indent:0;text-orientation:mixed;text-transform:none;white-space:normal"
     id="path299" />
  <path
     d="m342.59 70.699h-39.082c-5.8789 0-10.648 4.7695-10.648 10.648v39.082c0 5.8828 4.7695 10.648 10.648 10.648h39.082c5.8828 0 10.648-4.7656 10.648-10.648v-39.082c0-5.8789-4.7656-10.648-10.648-10.648z"
     fill="#7f5430"
     style="fill:#272a34"
     id="path301" />
  <path
     transform="scale(.75)"
     d="m109.98 77.59-27.529 37.916h-37.199c-11.604 0-21.008 10.725-21.008 23.959l0.0039 141.32h463.51v-141.32c0-13.234-9.406-23.959-21.01-23.959h-146.89l-27.531-37.916z"
     fill="#fff"
     stroke-width="1.3333"
     id="path303"
     style="fill:#d2d2d2;fill-opacity:1" />
  <path
     d="M 82.485,56.691 61.83825,85.128 H 33.939 c -8.703,0 -15.7575,8.04375 -15.7575,17.96925 v 7.5 c 0,-9.9255 7.0542,-17.96925 15.7575,-17.96925 H 61.83825 L 82.485,64.191 H 219.24 l 20.64825,28.437 h 43.7385 c 3.04372,-4.44855 8.11725,-7.383525 13.90875,-7.5 H 239.88825 L 219.24,56.691 Z m 266.4,28.437 c 6.60547,0.133192 12.27525,3.9357 15.066,9.46425 -2.65942,-5.634825 -7.87875,-9.46425 -13.884,-9.46425 h -1.18215 z m 16.90575,16.85025 c 0.003,0.13817 0.0103,0.27559 0.0103,0.41456 v 7.2363 c 0.0149,0.32085 0.0234,0.64313 0.0234,0.96825 v -7.5 c 0,-0.37641 -0.0137,-0.7485 -0.0337,-1.11915 z"
     id="path305"
     style="opacity:0.4;fill:#ffffff;fill-opacity:1;stroke-width:0.99997497"
     inkscape:connector-curvature="0" />
  <path
     d="m365.82 210.59v97.254c0 9.9531-7.0273 17.965-15.758 17.965h-316.12c-8.7305 0-15.758-8.0117-15.758-17.965v-97.254z"
     fill="#0f2b5c"
     id="path307"
     style="fill:#363636;fill-opacity:1" />
  <path
     d="m49.301 210.42c0 56.812 46.059 102.87 102.87 102.87 56.812 0 102.87-46.055 102.87-102.87s-46.055-102.87-102.87-102.87c-56.812 0-102.87 46.059-102.87 102.87z"
     opacity=".3"
     id="path309" />
  <path
     d="m49.301 202.92c0 56.812 46.059 102.87 102.87 102.87 56.812 0 102.87-46.055 102.87-102.87s-46.055-102.87-102.87-102.87c-56.812 0-102.87 46.059-102.87 102.87z"
     id="path311" />
  <path
     d="m64.574 202.92c0 48.57 39.375 87.945 87.949 87.945 48.57 0 87.945-39.375 87.945-87.945s-39.375-87.949-87.945-87.949c-48.574 0-87.949 39.379-87.949 87.949z"
     fill="#2359b0"
     id="path313" />
  <path
     d="m297.89 86.619h50.629c9.5696 0 17.274 7.7041 17.274 17.274v204.64c0 9.5696-7.7041 17.274-17.274 17.274h-50.629c-9.5696 0-17.274-7.7041-17.274-17.274v-204.64c0-9.5696 7.7041-17.274 17.274-17.274z"
     fill="#fff"
     opacity=".1"
     style="paint-order:fill markers stroke"
     id="path315" />
  <path
     transform="scale(.75)"
     d="m397.19 115.49c-12.76 0-23.031 10.272-23.031 23.031v272.85c0 4.8479 1.4867 9.3344 4.0254 13.037h-332.94c-11.641 0-21.01-10.682-21.01-23.953v10c0 13.271 9.3692 23.953 21.01 23.953h421.5c11.641 0 21.01-10.682 21.01-23.953v-10c0 13.271-9.3692 23.953-21.01 23.953h-78.564c-2.5387-3.7027-4.0254-8.1892-4.0254-13.037v-272.85c0-12.759 10.272-23.031 23.031-23.031h-10z"
     opacity=".3"
     stroke-width="1.3333"
     id="path317" />
  <path
     d="m306.66 129.81c0 9.0547 7.3398 16.395 16.395 16.395 9.0508 0 16.391-7.3398 16.391-16.395 0-9.0547-7.3398-16.395-16.391-16.395-9.0547 0-16.395 7.3398-16.395 16.395z"
     fill-opacity=".99608"
     opacity=".3"
     id="path319" />
  <path
     d="m306.66 125.31c0 9.0547 7.3398 16.395 16.395 16.395 9.0508 0 16.391-7.3398 16.391-16.395 0-9.0547-7.3398-16.395-16.391-16.395-9.0547 0-16.395 7.3398-16.395 16.395z"
     fill="#b8174a"
     fill-opacity=".99608"
     id="path321"
     style="fill:#f20606;fill-opacity:0.99607998" />
  <use
     transform="matrix(1.1948 0 0 1.1948 -76.673 -19.59)"
     width="100%"
     height="100%"
     xlink:href="#d"
     id="use323" />
  <use
     transform="matrix(1.1948 0 0 1.1948 -76.673 -19.59)"
     width="100%"
     height="100%"
     xlink:href="#e"
     id="use325" />
  <path
     d="m198.61 151.99a13.589 13.589 0 0 0-13.589 13.589 13.589 13.589 0 0 0 13.589 13.588 13.589 13.589 0 0 0 13.589-13.588 13.589 13.589 0 0 0-13.589-13.589zm-25.927 23.116a7.1849 7.1849 0 0 0-7.1849 7.1849 7.1849 7.1849 0 0 0 7.1849 7.1849 7.1849 7.1849 0 0 0 7.1849-7.1849 7.1849 7.1849 0 0 0-7.1849-7.1849z"
     fill="#fff"
     opacity=".3"
     stroke-width=".50762"
     id="path327" />
</svg>
