<?xml version="1.0" encoding="UTF-8" standalone="no"?>
<svg
   xmlns:dc="http://purl.org/dc/elements/1.1/"
   xmlns:cc="http://creativecommons.org/ns#"
   xmlns:rdf="http://www.w3.org/1999/02/22-rdf-syntax-ns#"
   xmlns:svg="http://www.w3.org/2000/svg"
   xmlns="http://www.w3.org/2000/svg"
   xmlns:xlink="http://www.w3.org/1999/xlink"
   xmlns:sodipodi="http://sodipodi.sourceforge.net/DTD/sodipodi-0.dtd"
   xmlns:inkscape="http://www.inkscape.org/namespaces/inkscape"
   width="512"
   height="512"
   version="1.1"
   viewBox="0 0 384 384"
   id="svg28"
   sodipodi:docname="clock.svg"
   inkscape:version="0.92.4 (5da689c313, 2019-01-14)">
  <metadata
     id="metadata32">
    <rdf:RDF>
      <cc:Work
         rdf:about="">
        <dc:format>image/svg+xml</dc:format>
        <dc:type
           rdf:resource="http://purl.org/dc/dcmitype/StillImage" />
      </cc:Work>
    </rdf:RDF>
  </metadata>
  <sodipodi:namedview
     pagecolor="#ffffff"
     bordercolor="#666666"
     borderopacity="1"
     objecttolerance="10"
     gridtolerance="10"
     guidetolerance="10"
     inkscape:pageopacity="0"
     inkscape:pageshadow="2"
     inkscape:window-width="1366"
     inkscape:window-height="682"
     id="namedview30"
     showgrid="false"
     inkscape:zoom="0.4609375"
     inkscape:cx="46.644068"
     inkscape:cy="256"
     inkscape:window-x="0"
     inkscape:window-y="0"
     inkscape:window-maximized="1"
     inkscape:current-layer="svg28" />
  <defs
     id="defs6">
    <linearGradient
       inkscape:collect="always"
       id="linearGradient843">
      <stop
         style="stop-color:#ffffff;stop-opacity:1;"
         offset="0"
         id="stop839" />
      <stop
         style="stop-color:#f0f0f0;stop-opacity:1"
         offset="1"
         id="stop841" />
    </linearGradient>
    <clipPath
       id="clipPath4">
      <rect
         width="384"
         height="384"
         id="rect2" />
    </clipPath>
    <linearGradient
       inkscape:collect="always"
       xlink:href="#linearGradient843"
       id="linearGradient845"
       x1="46.721355"
       y1="37.870853"
       x2="347.0871"
       y2="347.02341"
       gradientUnits="userSpaceOnUse" />
  </defs>
  <path
     d="m360.75 199.5c0 93.199-75.551 168.75-168.75 168.75-93.195 0-168.75-75.551-168.75-168.75 0-93.195 75.551-168.75 168.75-168.75s168.75 75.551 168.75 168.75z"
     style="fill-rule:evenodd;opacity:.3"
     id="path8" />
  <path
     d="m360.75 192c0 93.199-75.551 168.75-168.75 168.75-93.195 0-168.75-75.551-168.75-168.75 0-93.195 75.551-168.75 168.75-168.75s168.75 75.551 168.75 168.75z"
     style="fill-rule:evenodd;fill:#f85200;fill-opacity:1"
     id="path10" />
  <path
     d="m345.46 190.82c0 83.844-67.969 151.81-151.81 151.81-83.844 0-151.81-67.969-151.81-151.81s67.969-151.81 151.81-151.81 151.81 67.969 151.81 151.81"
     style="fill-rule:evenodd;fill:url(#linearGradient845);fill-opacity:1"
     id="path12" />
  <path
     d="m276.3 103.13c-2.0784 0-4.1612 0.79932-5.748 2.3862l-80.127 80.127-6e-3 -6e-3v-1e-3l-71.682-63.33c-3.1045-2.7423-7.8554-2.453-10.598 0.65625-2.7466 3.1043-2.4516 7.8508 0.65625 10.597l71.678 63.328c1.4594 1.2919 3.2904 1.818 5.0947 1.7871 0.36652 0.69082 0.76181 1.3764 1.3447 1.9629l0.2622 0.26221h0.13477c3.1885 2.8329 8.0411 2.7958 11.096-0.25928l83.638-83.637c3.1704-3.1704 3.1704-8.317 0-11.487-1.5869-1.5869-3.6687-2.3862-5.7436-2.3862zm-88.03 104.63c-1.0823 0.0651-2.1035 0.67578-2.6748 1.7256l-51.195 94.285c-0.91406 1.6797-0.33252 3.8516 1.2964 4.8516 1.6289 1.0039 3.6914 0.4492 4.6055-1.2305l51.196-94.285c0.91406-1.6797 0.33106-3.8516-1.2978-4.8516-0.61084-0.37647-1.2813-0.53415-1.9307-0.49512z"
     color="#000000"
     color-rendering="auto"
     dominant-baseline="auto"
     image-rendering="auto"
     opacity=".3"
     shape-rendering="auto"
     solid-color="#000000"
     style="font-feature-settings:normal;font-variant-alternates:normal;font-variant-caps:normal;font-variant-ligatures:normal;font-variant-numeric:normal;font-variant-position:normal;isolation:auto;mix-blend-mode:normal;shape-padding:0;text-decoration-color:#000000;text-decoration-line:none;text-decoration-style:solid;text-indent:0;text-orientation:mixed;text-transform:none;white-space:normal"
     id="path16" />
  <path
     d="m276.39 96.562c-1.8516 0-3.6992 0.70703-5.1172 2.125l-80.762 80.762c-0.1836-0.21095-0.3789-0.41406-0.59375-0.60547l-71.68-63.328c-2.7461-2.4258-6.9141-2.1719-9.3398 0.57813-2.4297 2.7461-2.1719 6.9102 0.57813 9.3398l71.68 63.328c1.4297 1.2656 3.2461 1.7969 5 1.6289 0.35156 0.78125 0.83985 1.5156 1.4805 2.1602h4e-3c2.832 2.832 7.3945 2.832 10.227 0l83.637-83.637c2.832-2.832 2.832-7.3945 0-10.227-1.418-1.418-3.2656-2.125-5.1133-2.125z"
     fill="#fff"
     stroke="#e6e6e6"
     stroke-width="1.782"
     id="path18"
     style="fill:#323232;fill-opacity:1" />
  <path
     d="m134.49 296.31 51.195-94.285c0.91407-1.6797 2.9766-2.2344 4.6055-1.2305 1.6289 1 2.2109 3.1719 1.2969 4.8516l-51.195 94.285c-0.91406 1.6797-2.9766 2.2344-4.6055 1.2305-1.6289-1-2.2109-3.1719-1.2969-4.8516z"
     fill="#fd4747"
     id="path22" />
  <path
     d="m208.14 195.32c-4e-3 7.9922-6.4844 14.473-14.477 14.473-7.9961 0-14.477-6.4805-14.477-14.473-4e-3 -7.9961 6.4805-14.48 14.477-14.48 7.9961 0 14.48 6.4844 14.477 14.48"
     style="fill:#030000;opacity:.3"
     id="path24" />
  <path
     d="m208.14 190.82c-4e-3 7.9922-6.4844 14.473-14.477 14.473-7.9961 0-14.477-6.4805-14.477-14.473-4e-3 -7.9961 6.4805-14.48 14.477-14.48 7.9961 0 14.48 6.4844 14.477 14.48"
     fill="#e6e6e6"
     style="fill:#fff"
     id="path26" />
</svg>
