<?xml version="1.0" encoding="UTF-8" standalone="no"?>
<svg
   xmlns:dc="http://purl.org/dc/elements/1.1/"
   xmlns:cc="http://creativecommons.org/ns#"
   xmlns:rdf="http://www.w3.org/1999/02/22-rdf-syntax-ns#"
   xmlns:svg="http://www.w3.org/2000/svg"
   xmlns="http://www.w3.org/2000/svg"
   xmlns:xlink="http://www.w3.org/1999/xlink"
   xmlns:sodipodi="http://sodipodi.sourceforge.net/DTD/sodipodi-0.dtd"
   xmlns:inkscape="http://www.inkscape.org/namespaces/inkscape"
   width="512"
   height="512"
   version="1.1"
   viewBox="0 0 384 384"
   id="svg306"
   sodipodi:docname="color-picker.svg"
   inkscape:version="0.92.4 (5da689c313, 2019-01-14)">
  <metadata
     id="metadata310">
    <rdf:RDF>
      <cc:Work
         rdf:about="">
        <dc:format>image/svg+xml</dc:format>
        <dc:type
           rdf:resource="http://purl.org/dc/dcmitype/StillImage" />
        <dc:title></dc:title>
      </cc:Work>
    </rdf:RDF>
  </metadata>
  <sodipodi:namedview
     pagecolor="#ffffff"
     bordercolor="#666666"
     borderopacity="1"
     objecttolerance="10"
     gridtolerance="10"
     guidetolerance="10"
     inkscape:pageopacity="0"
     inkscape:pageshadow="2"
     inkscape:window-width="1366"
     inkscape:window-height="682"
     id="namedview308"
     showgrid="false"
     inkscape:zoom="0.4609375"
     inkscape:cx="548.88136"
     inkscape:cy="172.24555"
     inkscape:window-x="0"
     inkscape:window-y="0"
     inkscape:window-maximized="1"
     inkscape:current-layer="svg306" />
  <defs
     id="defs278">
    <clipPath
       id="clipPath4">
      <rect
         width="384"
         height="384"
         id="rect2" />
    </clipPath>
    <clipPath
       id="clipPath8">
      <rect
         width="384"
         height="384"
         id="rect6" />
    </clipPath>
    <clipPath
       id="clipPath12">
      <rect
         width="384"
         height="384"
         id="rect10" />
    </clipPath>
    <clipPath
       id="clipPath16">
      <rect
         width="384"
         height="384"
         id="rect14" />
    </clipPath>
    <clipPath
       id="clipPath20">
      <rect
         width="384"
         height="384"
         id="rect18" />
    </clipPath>
    <clipPath
       id="clipPath24">
      <rect
         width="384"
         height="384"
         id="rect22" />
    </clipPath>
    <clipPath
       id="clipPath28">
      <rect
         width="384"
         height="384"
         id="rect26" />
    </clipPath>
    <clipPath
       id="clipPath32">
      <rect
         width="384"
         height="384"
         id="rect30" />
    </clipPath>
    <clipPath
       id="clipPath36">
      <rect
         width="384"
         height="384"
         id="rect34" />
    </clipPath>
    <clipPath
       id="clipPath40">
      <rect
         width="384"
         height="384"
         id="rect38" />
    </clipPath>
    <clipPath
       id="clipPath44">
      <rect
         width="384"
         height="384"
         id="rect42" />
    </clipPath>
    <clipPath
       id="clipPath48">
      <rect
         width="384"
         height="384"
         id="rect46" />
    </clipPath>
    <clipPath
       id="clipPath52">
      <rect
         width="384"
         height="384"
         id="rect50" />
    </clipPath>
    <clipPath
       id="clipPath56">
      <rect
         width="384"
         height="384"
         id="rect54" />
    </clipPath>
    <clipPath
       id="clipPath60">
      <rect
         width="384"
         height="384"
         id="rect58" />
    </clipPath>
    <clipPath
       id="clipPath64">
      <rect
         width="384"
         height="384"
         id="rect62" />
    </clipPath>
    <clipPath
       id="clipPath68">
      <rect
         width="384"
         height="384"
         id="rect66" />
    </clipPath>
    <clipPath
       id="clipPath72">
      <rect
         width="384"
         height="384"
         id="rect70" />
    </clipPath>
    <clipPath
       id="clipPath76">
      <rect
         width="384"
         height="384"
         id="rect74" />
    </clipPath>
    <clipPath
       id="clipPath80">
      <rect
         width="384"
         height="384"
         id="rect78" />
    </clipPath>
    <clipPath
       id="clipPath84">
      <rect
         width="384"
         height="384"
         id="rect82" />
    </clipPath>
    <clipPath
       id="clipPath88">
      <rect
         width="384"
         height="384"
         id="rect86" />
    </clipPath>
    <clipPath
       id="clipPath92">
      <rect
         width="384"
         height="384"
         id="rect90" />
    </clipPath>
    <clipPath
       id="clipPath96">
      <rect
         width="384"
         height="384"
         id="rect94" />
    </clipPath>
    <clipPath
       id="clipPath100">
      <rect
         width="384"
         height="384"
         id="rect98" />
    </clipPath>
    <clipPath
       id="clipPath104">
      <rect
         width="384"
         height="384"
         id="rect102" />
    </clipPath>
    <clipPath
       id="clipPath108">
      <rect
         width="384"
         height="384"
         id="rect106" />
    </clipPath>
    <clipPath
       id="clipPath112">
      <rect
         width="384"
         height="384"
         id="rect110" />
    </clipPath>
    <clipPath
       id="clipPath116">
      <rect
         width="384"
         height="384"
         id="rect114" />
    </clipPath>
    <clipPath
       id="clipPath120">
      <rect
         width="384"
         height="384"
         id="rect118" />
    </clipPath>
    <clipPath
       id="clipPath124">
      <rect
         width="384"
         height="384"
         id="rect122" />
    </clipPath>
    <clipPath
       id="clipPath128">
      <rect
         width="384"
         height="384"
         id="rect126" />
    </clipPath>
    <clipPath
       id="clipPath132">
      <rect
         width="384"
         height="384"
         id="rect130" />
    </clipPath>
    <clipPath
       id="clipPath136">
      <rect
         width="384"
         height="384"
         id="rect134" />
    </clipPath>
    <clipPath
       id="clipPath140">
      <rect
         width="384"
         height="384"
         id="rect138" />
    </clipPath>
    <clipPath
       id="clipPath144">
      <rect
         width="384"
         height="384"
         id="rect142" />
    </clipPath>
    <clipPath
       id="clipPath148">
      <rect
         width="384"
         height="384"
         id="rect146" />
    </clipPath>
    <clipPath
       id="clipPath152">
      <rect
         width="384"
         height="384"
         id="rect150" />
    </clipPath>
    <clipPath
       id="clipPath156">
      <rect
         width="384"
         height="384"
         id="rect154" />
    </clipPath>
    <clipPath
       id="clipPath160">
      <rect
         width="384"
         height="384"
         id="rect158" />
    </clipPath>
    <clipPath
       id="clipPath164">
      <rect
         width="384"
         height="384"
         id="rect162" />
    </clipPath>
    <clipPath
       id="clipPath168">
      <rect
         width="384"
         height="384"
         id="rect166" />
    </clipPath>
    <clipPath
       id="clipPath172">
      <rect
         width="384"
         height="384"
         id="rect170" />
    </clipPath>
    <clipPath
       id="clipPath176">
      <rect
         width="384"
         height="384"
         id="rect174" />
    </clipPath>
    <clipPath
       id="clipPath180">
      <rect
         width="384"
         height="384"
         id="rect178" />
    </clipPath>
    <clipPath
       id="clipPath184">
      <rect
         width="384"
         height="384"
         id="rect182" />
    </clipPath>
    <clipPath
       id="clipPath188">
      <rect
         width="384"
         height="384"
         id="rect186" />
    </clipPath>
    <clipPath
       id="clipPath192">
      <rect
         width="384"
         height="384"
         id="rect190" />
    </clipPath>
    <clipPath
       id="clipPath196">
      <rect
         width="384"
         height="384"
         id="rect194" />
    </clipPath>
    <clipPath
       id="clipPath200">
      <rect
         width="384"
         height="384"
         id="rect198" />
    </clipPath>
    <clipPath
       id="c">
      <path
         d="m111 119h177v23h-177z"
         id="path202" />
    </clipPath>
    <clipPath
       id="clipPath207">
      <path
         d="m368.64 199.88c0-93.234-75.602-168.75-168.75-168.75-93.152 0-168.75 75.516-168.75 168.75s75.598 168.75 168.75 168.75c93.148 0 168.75-75.516 168.75-168.75z"
         id="path205" />
    </clipPath>
    <clipPath
       id="b">
      <path
         d="m177 130h45v89h-45z"
         id="path209" />
    </clipPath>
    <clipPath
       id="clipPath214">
      <path
         d="m368.64 199.88c0-93.234-75.602-168.75-168.75-168.75-93.152 0-168.75 75.516-168.75 168.75s75.598 168.75 168.75 168.75c93.148 0 168.75-75.516 168.75-168.75z"
         id="path212" />
    </clipPath>
    <clipPath
       id="a">
      <path
         d="m111 207h177v89h-177z"
         id="path216" />
    </clipPath>
    <clipPath
       id="clipPath221">
      <path
         d="m368.64 199.88c0-93.234-75.602-168.75-168.75-168.75-93.152 0-168.75 75.516-168.75 168.75s75.598 168.75 168.75 168.75c93.148 0 168.75-75.516 168.75-168.75z"
         id="path219" />
    </clipPath>
    <clipPath
       id="d">
      <rect
         width="384"
         height="384"
         id="rect223" />
    </clipPath>
    <g
       clip-path="url(#d)"
       id="g232">
      <g
         clip-path="url(#c)"
         id="g226" />
      <g
         clip-path="url(#b)"
         id="g228" />
      <g
         clip-path="url(#a)"
         id="g230" />
    </g>
    <clipPath
       id="clipPath236">
      <rect
         width="384"
         height="384"
         id="rect234" />
    </clipPath>
    <clipPath
       id="clipPath240">
      <rect
         width="384"
         height="384"
         id="rect238" />
    </clipPath>
    <clipPath
       id="clipPath244">
      <rect
         width="384"
         height="384"
         id="rect242" />
    </clipPath>
    <clipPath
       id="clipPath248">
      <rect
         width="384"
         height="384"
         id="rect246" />
    </clipPath>
    <clipPath
       id="clipPath252">
      <rect
         width="384"
         height="384"
         id="rect250" />
    </clipPath>
    <clipPath
       id="clipPath256">
      <rect
         width="384"
         height="384"
         id="rect254" />
    </clipPath>
    <clipPath
       id="clipPath260">
      <rect
         width="384"
         height="384"
         id="rect258" />
    </clipPath>
    <clipPath
       id="clipPath264">
      <rect
         width="384"
         height="384"
         id="rect262" />
    </clipPath>
    <clipPath
       id="clipPath268">
      <rect
         width="384"
         height="384"
         id="rect266" />
    </clipPath>
    <clipPath
       id="clipPath272">
      <rect
         width="384"
         height="384"
         id="rect270" />
    </clipPath>
    <clipPath
       id="clipPath276">
      <rect
         width="384"
         height="384"
         id="rect274" />
    </clipPath>
    <linearGradient
       gradientTransform="matrix(0.75000003,0,0,0.74999996,0.925595,3.4194)"
       inkscape:collect="always"
       xlink:href="#linearGradient1121"
       id="linearGradient1123"
       x1="23.146639"
       y1="13.31605"
       x2="41.560223"
       y2="38.935329"
       gradientUnits="userSpaceOnUse" />
    <linearGradient
       inkscape:collect="always"
       id="linearGradient1121">
      <stop
         style="stop-color:#ffffff;stop-opacity:1;"
         offset="0"
         id="stop1117" />
      <stop
         style="stop-color:#c8c8c8;stop-opacity:1"
         offset="1"
         id="stop1119" />
    </linearGradient>
  </defs>
  <path
     d="m 250.75,250.75 v 117.5 h 99.87609 c 9.76621,0 17.62391,-7.85803 17.62391,-17.62391 V 250.75 Z"
     id="path280"
     style="fill:#002238;fill-opacity:1;stroke-width:1"
     inkscape:connector-curvature="0" />
  <path
     d="M 133.25001,250.75 H 250.75 v 117.5 h -117.5 z"
     id="path282"
     style="fill:#002e4c;fill-opacity:1;stroke-width:1"
     inkscape:connector-curvature="0" />
  <path
     d="m 15.749996,250.75 v 99.87609 c 0,9.76621 7.862274,17.62391 17.623913,17.62391 h 99.876101 v -117.5 z"
     id="path284"
     style="fill:#003a60;fill-opacity:1;stroke-width:1"
     inkscape:connector-curvature="0" />
  <path
     d="m 15.749996,141.40972 v 117.5 H 368.25 v -117.5 h -235 z"
     id="path286"
     inkscape:connector-curvature="0"
     style="opacity:0.3;stroke-width:1" />
  <path
     d="M 15.749996,133.24999 H 133.25001 V 250.75 H 15.749996 Z"
     id="path288"
     style="fill:#005f9c;fill-opacity:1;stroke-width:1"
     inkscape:connector-curvature="0" />
  <path
     d="M 133.25001,133.24999 H 250.75 V 250.75 h -117.5 z"
     id="path290"
     style="fill:#005388;fill-opacity:1;stroke-width:1"
     inkscape:connector-curvature="0" />
  <path
     d="m 250.75,133.24999 h 117.5 V 250.75 h -117.5 z"
     id="path292"
     style="fill:#004774;fill-opacity:1;stroke-width:1"
     inkscape:connector-curvature="0" />
  <path
     d="m 33.374997,23.909718 c -9.761966,0 -17.625001,7.862818 -17.625001,17.625001 V 141.40972 H 368.25 V 41.534719 c 0,-9.761966 -7.86271,-17.625001 -17.625,-17.625001 H 133.25 Z"
     id="path294"
     inkscape:connector-curvature="0"
     style="opacity:0.3;stroke-width:1" />
  <path
     d="M 250.75,15.749996 V 133.24999 h 117.5 V 33.373909 c 0,-9.761966 -7.86227,-17.623913 -17.62391,-17.623913 z"
     id="path296"
     style="fill:#006bb0;fill-opacity:1;stroke-width:1"
     inkscape:connector-curvature="0" />
  <path
     d="M 133.25001,15.749996 H 250.75 V 133.24999 h -117.5 z"
     id="path298"
     style="fill:#0077c4;fill-opacity:1;stroke-width:1"
     inkscape:connector-curvature="0" />
  <path
     d="m 33.373909,15.749996 c -9.761966,0 -17.623913,7.862273 -17.623913,17.623913 V 133.24999 H 133.25001 V 15.749996 Z"
     id="path300"
     style="fill:#0083d7;fill-opacity:1;stroke-width:1"
     inkscape:connector-curvature="0" />
  <path
     d="m 33.374995,15.749996 c -9.762292,0 -17.625,7.86279 -17.625,17.625001 v 8.159722 c 0,-9.762292 7.86279,-17.625001 17.625,-17.625001 H 350.625 c 9.76229,0 17.625,7.862791 17.625,17.625001 v -8.159722 c 0,-9.762293 -7.8628,-17.625001 -17.625,-17.625001 z"
     id="path302"
     inkscape:connector-curvature="0"
     style="opacity:0.3;fill:#ffffff;stroke-width:0.99997503" />
  <path
     d="m 15.749995,342.46528 v 8.15972 c 0,9.76637 7.86279,17.625 17.625,17.625 H 350.625 c 9.76636,0 17.625,-7.85846 17.625,-17.625 v -8.15972 c 0,9.76637 -7.85855,17.625 -17.625,17.625 H 33.374995 c -9.762292,0 -17.625,-7.85854 -17.625,-17.625 z"
     id="path304"
     inkscape:connector-curvature="0"
     style="opacity:0.3;stroke-width:0.99997503" />
  <ellipse
     style="opacity:1;fill:#005388;fill-opacity:1;stroke:none;stroke-width:7.5;stroke-linecap:round;stroke-linejoin:round;stroke-miterlimit:4;stroke-dasharray:none;stroke-opacity:1;paint-order:stroke fill markers"
     id="path1131"
     cx="278.10394"
     cy="288.01382"
     rx="51.197166"
     ry="55.335854" />
  <path
     inkscape:connector-curvature="0"
     style="opacity:1;fill:url(#linearGradient1123);fill-opacity:1;stroke:#000000;stroke-width:0.75;stroke-miterlimit:4;stroke-dasharray:none;stroke-opacity:0.58823529"
     id="path40"
     d="m 318.80111,343.34967 c 31.28476,-22.25026 38.51486,-65.51985 16.14831,-96.64079 -1.71227,-2.3825 -3.57315,-4.56778 -5.52033,-6.66122 -36.4762,-40.57567 -120.58197,-57.423 -120.58197,-57.423 -1.52812,-0.3412 -2.76549,-0.34203 -3.85686,-0.20355 l -0.0587,0.008 -1.94776,0.62568 -1.22538,1.63101 -0.0252,0.05 c -0.48471,0.98282 -0.86276,2.17811 -1.05405,3.69634 0,0 -10.43066,84.22009 16.48284,131.61131 1.34975,2.47285 2.81221,4.91157 4.49547,7.25369 22.36881,31.10426 65.85598,38.30305 97.14074,16.05279 z M 252.25,250.75 c 20.08846,-14.28722 48.12704,-9.6512 62.48904,10.33227 14.36207,19.98347 9.70148,47.87566 -10.38697,62.16288 -20.08846,14.28722 -48.11706,9.64411 -62.47914,-10.33936 C 227.51094,292.92232 232.16155,265.03722 252.25,250.75 Z" />
</svg>
