<?xml version="1.0" encoding="UTF-8" standalone="no"?>
<svg
   xmlns:dc="http://purl.org/dc/elements/1.1/"
   xmlns:cc="http://creativecommons.org/ns#"
   xmlns:rdf="http://www.w3.org/1999/02/22-rdf-syntax-ns#"
   xmlns:svg="http://www.w3.org/2000/svg"
   xmlns="http://www.w3.org/2000/svg"
   xmlns:xlink="http://www.w3.org/1999/xlink"
   xmlns:sodipodi="http://sodipodi.sourceforge.net/DTD/sodipodi-0.dtd"
   xmlns:inkscape="http://www.inkscape.org/namespaces/inkscape"
   width="512"
   height="512"
   version="1.1"
   viewBox="0 0 384 384"
   id="svg22"
   sodipodi:docname="io.github.cloose.CuteMarkEd.svg"
   inkscape:version="0.92.4 (5da689c313, 2019-01-14)">
  <metadata
     id="metadata28">
    <rdf:RDF>
      <cc:Work
         rdf:about="">
        <dc:format>image/svg+xml</dc:format>
        <dc:type
           rdf:resource="http://purl.org/dc/dcmitype/StillImage" />
        <dc:title></dc:title>
      </cc:Work>
    </rdf:RDF>
  </metadata>
  <defs
     id="defs26">
    <linearGradient
       inkscape:collect="always"
       id="linearGradient924">
      <stop
         style="stop-color:#ffffff;stop-opacity:1;"
         offset="0"
         id="stop920" />
      <stop
         style="stop-color:#ffffff;stop-opacity:0;"
         offset="1"
         id="stop922" />
    </linearGradient>
    <linearGradient
       inkscape:collect="always"
       id="linearGradient892">
      <stop
         style="stop-color:#000000;stop-opacity:1;"
         offset="0"
         id="stop888" />
      <stop
         style="stop-color:#000000;stop-opacity:0;"
         offset="1"
         id="stop890" />
    </linearGradient>
    <linearGradient
       inkscape:collect="always"
       xlink:href="#linearGradient892"
       id="linearGradient894"
       x1="195.51483"
       y1="364.47458"
       x2="194.18008"
       y2="336.81357"
       gradientUnits="userSpaceOnUse" />
    <linearGradient
       inkscape:collect="always"
       xlink:href="#linearGradient924"
       id="linearGradient926"
       x1="180.87076"
       y1="18.711864"
       x2="180.34958"
       y2="46.372883"
       gradientUnits="userSpaceOnUse" />
  </defs>
  <sodipodi:namedview
     pagecolor="#ffffff"
     bordercolor="#666666"
     borderopacity="1"
     objecttolerance="10"
     gridtolerance="10"
     guidetolerance="10"
     inkscape:pageopacity="0"
     inkscape:pageshadow="2"
     inkscape:window-width="1366"
     inkscape:window-height="682"
     id="namedview24"
     showgrid="false"
     inkscape:zoom="2.6074563"
     inkscape:cx="191.89447"
     inkscape:cy="198.26641"
     inkscape:window-x="0"
     inkscape:window-y="0"
     inkscape:window-maximized="1"
     inkscape:current-layer="svg22" />
  <rect
     style="opacity:1;fill:#f0f0f0;fill-opacity:1;stroke:none;stroke-width:7.49999809;stroke-linecap:round;stroke-linejoin:round;stroke-miterlimit:4;stroke-dasharray:none;stroke-opacity:1;paint-order:stroke fill markers"
     id="rect837"
     width="287.77576"
     height="352.5"
     x="48.112129"
     y="15.75"
     rx="21.279659"
     ry="21.279661" />
  <rect
     style="opacity:0.4;fill:none;fill-opacity:1;stroke:url(#linearGradient926);stroke-width:7.49999952;stroke-linecap:round;stroke-linejoin:round;stroke-miterlimit:4;stroke-dasharray:none;stroke-opacity:1;paint-order:stroke fill markers"
     id="rect837-3-3"
     width="280.67017"
     height="345"
     x="51.664917"
     y="19.5"
     rx="21.279659"
     ry="21.279661" />
  <rect
     style="opacity:0.4;fill:none;fill-opacity:1;stroke:url(#linearGradient894);stroke-width:7.49999952;stroke-linecap:round;stroke-linejoin:round;stroke-miterlimit:4;stroke-dasharray:none;stroke-opacity:1;paint-order:stroke fill markers"
     id="rect837-3"
     width="280.67017"
     height="345"
     x="51.664917"
     y="27"
     rx="21.279659"
     ry="21.279661" />
  <path
     inkscape:connector-curvature="0"
     style="stroke-width:0.75"
     d="m 135.20339,146.93668 c -6.1875,0 -11.25,5.625 -11.25,11.25 v 67.5 c 0,5.625 5.0625,11.25 11.25,11.25 h 112.5 c 6.1875,0 11.25,-5.625 11.25,-11.25 v -67.5 c 0,-5.625 -5.0625,-11.25 -11.25,-11.25 z m 2.25,13.5 h 108 v 63 h -108 z m 9,9 v 45 h 13.5 v -25.198 l 11.25,11.25 11.25,-11.25 v 25.198 h 13.5 v -45 h -13.5 l -11.25,11.25 -11.25,-11.25 z m 67.5,0 v 27 h -9 l 11.25,18 h 9 l 11.25,-18 h -9 v -27 z"
     id="path12" />
  <g
     style="stroke-width:0.9375"
     transform="translate(9.9533917,7.5124752)"
     id="g22">
    <path
       style="opacity:0.3;fill-rule:evenodd"
       inkscape:connector-curvature="0"
       d="m 372,289.5 c 0,49.706 -40.294,90 -90,90 -49.706,0 -90,-40.294 -90,-90 0,-49.706 40.294,-90 90,-90 49.706,0 90,40.294 90,90 z"
       id="path14" />
    <path
       style="fill:#fda34a;fill-rule:evenodd"
       inkscape:connector-curvature="0"
       d="m 372,282 c 0,49.706 -40.294,90 -90,90 -49.706,0 -90,-40.294 -90,-90 0,-49.706 40.294,-90 90,-90 49.706,0 90,40.294 90,90 z"
       id="path16" />
    <path
       style="opacity:0.3"
       inkscape:connector-curvature="0"
       d="m 237,314.45 v 20.047 h 20.047 l 50.629,-50.629 -20.047,-20.047 z m 88.411,-48.252 c 2.1203,-2.1203 2.1203,-5.4638 0,-7.5842 l -12.532,-12.528 c -2.1203,-2.1203 -5.4602,-2.1203 -7.5805,0 l -10.474,10.539 20.047,20.05 z"
       id="path18" />
    <path
       style="fill:#ffffff"
       inkscape:connector-curvature="0"
       d="m 237,306.95 v 20.047 h 20.047 l 50.629,-50.629 -20.047,-20.047 z m 88.411,-48.252 c 2.1203,-2.1203 2.1203,-5.4638 0,-7.5842 l -12.532,-12.528 c -2.1203,-2.1203 -5.4602,-2.1203 -7.5805,0 l -10.474,10.539 20.047,20.05 z"
       id="path20" />
  </g>
</svg>
