<?xml version="1.0" encoding="UTF-8" standalone="no"?>
<svg
   xmlns:dc="http://purl.org/dc/elements/1.1/"
   xmlns:cc="http://creativecommons.org/ns#"
   xmlns:rdf="http://www.w3.org/1999/02/22-rdf-syntax-ns#"
   xmlns:svg="http://www.w3.org/2000/svg"
   xmlns="http://www.w3.org/2000/svg"
   xmlns:sodipodi="http://sodipodi.sourceforge.net/DTD/sodipodi-0.dtd"
   xmlns:inkscape="http://www.inkscape.org/namespaces/inkscape"
   width="512"
   height="512"
   version="1.1"
   viewBox="0 0 384 384"
   id="svg27"
   sodipodi:docname="deepin-launcher.svg"
   inkscape:version="0.92.4 (5da689c313, 2019-01-14)">
  <metadata
     id="metadata31">
    <rdf:RDF>
      <cc:Work
         rdf:about="">
        <dc:format>image/svg+xml</dc:format>
        <dc:type
           rdf:resource="http://purl.org/dc/dcmitype/StillImage" />
        <dc:title></dc:title>
      </cc:Work>
    </rdf:RDF>
  </metadata>
  <sodipodi:namedview
     pagecolor="#ffffff"
     bordercolor="#666666"
     borderopacity="1"
     objecttolerance="10"
     gridtolerance="10"
     guidetolerance="10"
     inkscape:pageopacity="0"
     inkscape:pageshadow="2"
     inkscape:window-width="1366"
     inkscape:window-height="682"
     id="namedview29"
     showgrid="false"
     inkscape:zoom="0.4609375"
     inkscape:cx="61.827418"
     inkscape:cy="256"
     inkscape:window-x="0"
     inkscape:window-y="0"
     inkscape:window-maximized="1"
     inkscape:current-layer="svg27" />
  <defs
     id="defs15">
    <clipPath
       id="clipPath4">
      <rect
         width="384"
         height="384"
         id="rect2" />
    </clipPath>
    <clipPath
       id="clipPath8">
      <rect
         width="384"
         height="384"
         id="rect6" />
    </clipPath>
    <linearGradient
       id="a"
       x1="105.51208"
       x2="456.32745"
       y1="330.3624"
       y2="-70.879669"
       gradientUnits="userSpaceOnUse">
      <stop
         stop-color="#e5e5e5"
         offset="0"
         id="stop10"
         style="stop-color:#fa006f;stop-opacity:1" />
      <stop
         stop-color="#fff"
         offset="1"
         id="stop12"
         style="stop-color:#ffff00;stop-opacity:1" />
    </linearGradient>
  </defs>
  <path
     d="m360 192c0-92.785-75.215-168-168-168-92.785 0-168 75.215-168 168 0 92.785 75.215 168 168 168 92.785 0 168-75.215 168-168z"
     fill="url(#a)"
     id="path17"
     style="fill:url(#a)" />
  <path
     d="m287.99 103.51s-28.793-0.80859-57.566 13.594c-8.7969 3.9961-18.391 10.391-26.387 18.387-12.926 12.93-33.012 36.73-48.828 55.969h-35.121l-15.992 23.984 27.121 7.332c0.0781 0.96875 0.33594 2.3359 1.0859 4.1836l-4.2109 9.2656s-1.6016 3.1992 10.391 15.992c12.793 12.801 16.793 11.191 16.793 11.191l9.9375-4.5078c1.4883 0.46483 2.5898 0.62109 3.3086 0.62109l7.5391 27.875 23.988-15.992v-36.195c19.371-15.664 43.145-35.348 55.969-47.754 7.9922-7.9961 14.391-17.59 19.18-26.387 13.582-28.773 12.793-57.559 12.793-57.559zm-55.969 71.957c-8.8008 0-15.992-7.1953-15.992-15.988 0-8.8047 7.1914-15.992 15.992-15.992 8.7969 0 15.992 7.1875 15.992 15.992 0 8.793-7.2031 15.988-15.992 15.988zm-83.949 95.945c1.5976 0.80859 2.3984 1.5976 3.9961 2.3984-1.5976 1.6016-3.1992 4-4.8047 5.5976-18.398 18.391-51.164 15.992-51.164 15.992s-2.3984-32.789 15.992-51.164c1.5976-1.6055 3.9961-3.1914 5.5976-4.8047 0.79687 1.5976 1.5898 2.3984 2.3984 3.9961-11.992 15.184-10.395 38.379-10.395 38.379s23.18 1.5976 38.379-10.395z"
     opacity=".3"
     id="path19" />
  <path
     d="m287.99 96.007s-28.793-0.80859-57.566 13.594c-8.7969 3.9961-18.391 10.391-26.387 18.387-12.926 12.93-33.012 36.73-48.828 55.969h-35.121l-15.992 23.984 27.121 7.332c0.0781 0.96875 0.33594 2.3359 1.0859 4.1836l-4.2109 9.2656s-1.6016 3.1992 10.391 15.992c12.793 12.801 16.793 11.191 16.793 11.191l9.9375-4.5078c1.4883 0.46484 2.5898 0.62109 3.3086 0.62109l7.5391 27.875 23.988-15.992v-36.195c19.371-15.664 43.145-35.348 55.969-47.754 7.9922-7.9961 14.391-17.59 19.18-26.387 13.582-28.773 12.793-57.559 12.793-57.559zm-55.969 71.957c-8.8008 0-15.992-7.1953-15.992-15.988 0-8.8047 7.1914-15.992 15.992-15.992 8.7969 0 15.992 7.1875 15.992 15.992 0 8.793-7.2031 15.988-15.992 15.988zm-83.949 95.945c1.5976 0.80859 2.3984 1.5976 3.9961 2.3984-1.5976 1.6016-3.1992 4-4.8047 5.5976-18.398 18.391-51.164 15.992-51.164 15.992s-2.3984-32.789 15.992-51.164c1.5977-1.6055 3.9961-3.1914 5.5977-4.8047 0.79687 1.5977 1.5898 2.3984 2.3984 3.9961-11.992 15.184-10.395 38.379-10.395 38.379s23.18 1.5977 38.379-10.395z"
     fill="#4a4a4a"
     id="path21"
     style="fill:#ffffff;fill-opacity:1" />
  <path
     transform="scale(.75)"
     d="m32.062 251c-0.036438 1.6631-0.0625 3.3282-0.0625 5 0 123.71 100.29 224 224 224 123.71 0 224-100.29 224-224 0-1.6718-0.02606-3.3369-0.0625-5-2.66 121.4-101.9 219-223.94 219-122.04 0-221.28-97.597-223.94-219z"
     opacity=".3"
     stroke-width="1.3333"
     id="path23" />
  <path
     transform="scale(.75)"
     d="m256 32c-123.71 0-224 100.29-224 224 0 1.6718 0.026062 3.3369 0.0625 5 2.66-121.4 101.9-219 223.94-219 122.04 0 221.28 97.597 223.94 219 0.03644-1.6631 0.0625-3.3282 0.0625-5 0-123.71-100.29-224-224-224z"
     fill="#fff"
     opacity=".3"
     stroke-width="1.3333"
     id="path25" />
</svg>
