<?xml version="1.0" encoding="UTF-8" standalone="no"?>
<svg
   xmlns:dc="http://purl.org/dc/elements/1.1/"
   xmlns:cc="http://creativecommons.org/ns#"
   xmlns:rdf="http://www.w3.org/1999/02/22-rdf-syntax-ns#"
   xmlns:svg="http://www.w3.org/2000/svg"
   xmlns="http://www.w3.org/2000/svg"
   xmlns:sodipodi="http://sodipodi.sourceforge.net/DTD/sodipodi-0.dtd"
   xmlns:inkscape="http://www.inkscape.org/namespaces/inkscape"
   width="512"
   height="512"
   version="1.1"
   viewBox="0 0 384 384"
   id="svg26"
   sodipodi:docname="discord.svg"
   inkscape:version="0.92.4 (5da689c313, 2019-01-14)">
  <metadata
     id="metadata30">
    <rdf:RDF>
      <cc:Work
         rdf:about="">
        <dc:format>image/svg+xml</dc:format>
        <dc:type
           rdf:resource="http://purl.org/dc/dcmitype/StillImage" />
      </cc:Work>
    </rdf:RDF>
  </metadata>
  <sodipodi:namedview
     pagecolor="#ffffff"
     bordercolor="#666666"
     borderopacity="1"
     objecttolerance="10"
     gridtolerance="10"
     guidetolerance="10"
     inkscape:pageopacity="0"
     inkscape:pageshadow="2"
     inkscape:window-width="1366"
     inkscape:window-height="682"
     id="namedview28"
     showgrid="false"
     inkscape:zoom="0.4609375"
     inkscape:cx="27.118644"
     inkscape:cy="256"
     inkscape:window-x="0"
     inkscape:window-y="0"
     inkscape:window-maximized="1"
     inkscape:current-layer="svg26" />
  <defs
     id="defs14">
    <clipPath
       id="clipPath4">
      <rect
         width="384"
         height="384"
         id="rect2" />
    </clipPath>
    <clipPath
       id="clipPath8">
      <rect
         width="384"
         height="384"
         id="rect6" />
    </clipPath>
    <clipPath
       id="clipPath12">
      <rect
         width="384"
         height="384"
         id="rect10" />
    </clipPath>
  </defs>
  <path
     transform="scale(.75)"
     d="m99.023 31c-17.338 0-31.396 14.057-31.396 31.395v313.96c0 17.338 14.059 31.395 31.396 31.395h282.56l62.791 62.791v-94.186-10.467-303.49c0-17.338-14.059-31.395-31.396-31.395h-313.95z"
     fill="#2359b0"
     stroke-width="1.3081"
     id="path16"
     style="fill:#7289da;fill-opacity:1" />
  <path
     d="m166.26 101.39s-21.964-0.50205-45.207 17.645c-23.244 18.147-31.089 43.92-31.089 98.018 0 0 21.4 24.428 57.073 25.616 0 0 5.9786-7.4579 10.823-13.904-20.5-6.4462-28.253-19.852-28.253-19.852 17.56 12.103 41.674 17.74 62.392 18.058 20.718-0.31809 44.832-5.9556 62.392-18.058 0 0-7.753 13.406-28.253 19.852 4.8442 6.4462 10.823 13.904 10.823 13.904 35.672-1.1881 57.073-25.616 57.073-25.616 0-54.099-7.845-79.872-31.089-98.018-23.244-18.147-45.207-17.645-45.207-17.645l-1.6096 1.5943c29.054 8.6498 42.295 22.044 42.295 22.044s-3.5488-2.0388-9.5198-4.7522c-14.655-6.5841-33.358-11.037-56.904-11.037s-42.249 4.4533-56.904 11.037c-5.9709 2.7134-9.5198 4.7522-9.5198 4.7522s13.241-13.394 42.295-22.044c-0.36792-0.65918-1.6096-1.5943-1.6096-1.5943zm-5.6567 62.791c8.7725 0 15.851 8.7418 15.698 19.622 0 10.884-6.9252 19.622-15.698 19.622-8.6153 0-15.698-8.738-15.698-19.622 0-10.88 6.9252-19.622 15.698-19.622zm62.791 0c8.7724 0 15.698 8.7418 15.698 19.622 0 10.884-7.0824 19.622-15.698 19.622-8.7725 0-15.698-8.738-15.698-19.622-0.1533-10.88 6.9252-19.622 15.698-19.622z"
     opacity=".3"
     stroke-width=".9811"
     id="path18" />
  <path
     d="m166.26 93.89s-21.964-0.50205-45.207 17.645c-23.244 18.147-31.089 43.92-31.089 98.018 0 0 21.4 24.428 57.073 25.616 0 0 5.9786-7.4579 10.823-13.904-20.5-6.4462-28.253-19.852-28.253-19.852 17.56 12.103 41.674 17.74 62.392 18.058 20.718-0.31809 44.832-5.9556 62.392-18.058 0 0-7.753 13.406-28.253 19.852 4.8442 6.4462 10.823 13.904 10.823 13.904 35.672-1.188 57.073-25.616 57.073-25.616 0-54.099-7.845-79.872-31.089-98.018-23.244-18.147-45.207-17.645-45.207-17.645l-1.6096 1.5943c29.054 8.6498 42.295 22.044 42.295 22.044s-3.5488-2.0389-9.5198-4.7522c-14.655-6.5841-33.358-11.037-56.904-11.037s-42.249 4.4533-56.904 11.037c-5.9709 2.7134-9.5198 4.7522-9.5198 4.7522s13.241-13.394 42.295-22.044c-0.36792-0.65918-1.6096-1.5943-1.6096-1.5943zm-5.6567 62.791c8.7725 0 15.851 8.7418 15.698 19.622 0 10.884-6.9252 19.622-15.698 19.622-8.6153 0-15.698-8.738-15.698-19.622 0-10.88 6.9252-19.622 15.698-19.622zm62.791 0c8.7725 0 15.698 8.7418 15.698 19.622 0 10.884-7.0824 19.622-15.698 19.622-8.7725 0-15.698-8.738-15.698-19.622-0.15329-10.88 6.9252-19.622 15.698-19.622z"
     fill="#fff"
     stroke-width=".9811"
     id="path20" />
  <path
     transform="scale(.75)"
     d="m99.023 31c-17.338 0-31.396 14.057-31.396 31.395v10c0-17.338 14.059-31.395 31.396-31.395h313.95c17.338 0 31.396 14.057 31.396 31.395v-10c0-17.338-14.059-31.395-31.396-31.395h-313.95z"
     fill="#fff"
     opacity=".3"
     stroke-width="1.3081"
     id="path22" />
  <path
     transform="scale(.75)"
     d="m67.627 366.35v10c0 17.338 14.059 31.395 31.396 31.395h282.56l62.791 62.791v-10l-62.791-62.791h-282.56c-17.338 0-31.396-14.057-31.396-31.395z"
     opacity=".3"
     stroke-width="1.3081"
     id="path24" />
</svg>
