<?xml version="1.0" encoding="UTF-8" standalone="no"?>
<svg
   xmlns:dc="http://purl.org/dc/elements/1.1/"
   xmlns:cc="http://creativecommons.org/ns#"
   xmlns:rdf="http://www.w3.org/1999/02/22-rdf-syntax-ns#"
   xmlns:svg="http://www.w3.org/2000/svg"
   xmlns="http://www.w3.org/2000/svg"
   xmlns:sodipodi="http://sodipodi.sourceforge.net/DTD/sodipodi-0.dtd"
   xmlns:inkscape="http://www.inkscape.org/namespaces/inkscape"
   width="384pt"
   height="384pt"
   version="1.1"
   viewBox="0 0 384 384"
   id="svg148"
   sodipodi:docname="drive-multidisk.svg"
   inkscape:version="0.92.4 (5da689c313, 2019-01-14)">
  <metadata
     id="metadata152">
    <rdf:RDF>
      <cc:Work
         rdf:about="">
        <dc:format>image/svg+xml</dc:format>
        <dc:type
           rdf:resource="http://purl.org/dc/dcmitype/StillImage" />
      </cc:Work>
    </rdf:RDF>
  </metadata>
  <sodipodi:namedview
     pagecolor="#ffffff"
     bordercolor="#666666"
     borderopacity="1"
     objecttolerance="10"
     gridtolerance="10"
     guidetolerance="10"
     inkscape:pageopacity="0"
     inkscape:pageshadow="2"
     inkscape:window-width="1366"
     inkscape:window-height="682"
     id="namedview150"
     showgrid="false"
     inkscape:zoom="1.84375"
     inkscape:cx="269.18044"
     inkscape:cy="367.18711"
     inkscape:window-x="0"
     inkscape:window-y="0"
     inkscape:window-maximized="1"
     inkscape:current-layer="g146" />
  <defs
     id="defs62">
    <clipPath
       id="clipPath4">
      <rect
         width="384"
         height="384"
         id="rect2" />
    </clipPath>
    <clipPath
       id="clipPath8">
      <rect
         width="384"
         height="384"
         id="rect6" />
    </clipPath>
    <clipPath
       id="clipPath12">
      <rect
         width="384"
         height="384"
         id="rect10" />
    </clipPath>
    <clipPath
       id="clipPath16">
      <rect
         width="384"
         height="384"
         id="rect14" />
    </clipPath>
    <clipPath
       id="clipPath20">
      <rect
         width="384"
         height="384"
         id="rect18" />
    </clipPath>
    <clipPath
       id="clipPath24">
      <rect
         width="384"
         height="384"
         id="rect22" />
    </clipPath>
    <clipPath
       id="clipPath28">
      <rect
         width="384"
         height="384"
         id="rect26" />
    </clipPath>
    <clipPath
       id="clipPath32">
      <rect
         width="384"
         height="384"
         id="rect30" />
    </clipPath>
    <clipPath
       id="clipPath36">
      <rect
         width="384"
         height="384"
         id="rect34" />
    </clipPath>
    <clipPath
       id="clipPath40">
      <rect
         width="384"
         height="384"
         id="rect38" />
    </clipPath>
    <clipPath
       id="clipPath44">
      <rect
         width="384"
         height="384"
         id="rect42" />
    </clipPath>
    <clipPath
       id="clipPath48">
      <rect
         width="384"
         height="384"
         id="rect46" />
    </clipPath>
    <clipPath
       id="clipPath52">
      <rect
         width="384"
         height="384"
         id="rect50" />
    </clipPath>
    <clipPath
       id="clipPath56">
      <rect
         width="384"
         height="384"
         id="rect54" />
    </clipPath>
    <clipPath
       id="clipPath60">
      <rect
         width="384"
         height="384"
         id="rect58" />
    </clipPath>
  </defs>
  <g
     transform="matrix(.75516 0 0 .75516 47.011 85.59)"
     id="g90">
    <path
       d="m69.555 24.285c-8.7146 0-15.781 6.1914-15.781 13.828v2.5576c-0.0018 0.09687-0.0073 0.19275-0.0073 0.29004v303.88c0 8.7146 7.066 15.781 15.781 15.781h244.89c8.7146 0 15.781-7.066 15.781-15.781v-40.132c2e-3 -0.0851 7e-3 -0.16939 7e-3 -0.25488v-266.34c0-7.6366-7.0674-13.828-15.782-13.828z"
       opacity=".2"
       stroke="#000"
       stroke-width="7.5"
       id="path64" />
    <path
       d="m69.555 24.285h244.89c8.7148 0 15.781 7.0664 15.781 15.777v303.88c0 8.7148-7.0664 15.781-15.781 15.781h-244.89c-8.7148 0-15.781-7.0664-15.781-15.781v-303.88c0-8.7109 7.0664-15.777 15.781-15.777z"
       id="path66" />
    <g
       fill="#fff"
       id="g76"
       style="fill:#d2d2d2;fill-opacity:1">
      <path
         d="m74.383 329.47h116.23c2.3945 0 4.3359 1.9414 4.3359 4.3359v8.5664c0 2.3945-1.9414 4.3398-4.3359 4.3398h-116.23c-2.3984 0-4.3398-1.9453-4.3398-4.3398v-8.5664c0-2.3945 1.9414-4.3359 4.3398-4.3359z"
         id="path68"
         style="fill:#d2d2d2;fill-opacity:1" />
      <path
         d="m69.562 23.387h244.89c8.7148 0 15.781 6.1914 15.781 13.828v266.34c0 7.6406-7.0664 13.832-15.781 13.832h-244.89c-8.7148 0-15.781-6.1914-15.781-13.832v-266.34c0-7.6367 7.0664-13.828 15.781-13.828z"
         id="path70"
         style="fill:#d2d2d2;fill-opacity:1" />
      <path
         d="m275.97 338.06c0 4.2695-3.4609 7.7305-7.7305 7.7305-4.2734 0-7.7344-3.4609-7.7344-7.7305s3.4609-7.7305 7.7344-7.7305c4.2695 0 7.7305 3.4609 7.7305 7.7305z"
         id="path72"
         style="fill:#d2d2d2;fill-opacity:1" />
      <path
         d="m299.85 338.06c0 4.2695-3.4648 7.7305-7.7344 7.7305s-7.7305-3.4609-7.7305-7.7305 3.4609-7.7305 7.7305-7.7305 7.7344 3.4609 7.7344 7.7305z"
         id="path74"
         style="fill:#d2d2d2;fill-opacity:1" />
    </g>
    <path
       transform="scale(.75)"
       d="m350.6 227.18c0 52.24-42.349 94.589-94.589 94.589s-94.589-42.349-94.589-94.589 42.349-94.589 94.589-94.589 94.589 42.349 94.589 94.589zm0 0"
       fill="none"
       stroke="#000"
       stroke-linecap="round"
       stroke-linejoin="round"
       stroke-width="21.924"
       id="path78" />
    <path
       d="m192.01 98.725c-43.623 0-79.162 35.539-79.162 79.162s35.539 79.162 79.162 79.162 79.162-35.539 79.162-79.162-35.539-79.162-79.162-79.162zm0 16.441c34.736 0 62.721 27.984 62.721 62.721s-27.984 62.721-62.721 62.721c-34.736 0-62.721-27.984-62.721-62.721s27.984-62.721 62.721-62.721z"
       color="#000000"
       color-rendering="auto"
       dominant-baseline="auto"
       image-rendering="auto"
       opacity=".3"
       shape-rendering="auto"
       solid-color="#000000"
       style="font-feature-settings:normal;font-variant-alternates:normal;font-variant-caps:normal;font-variant-ligatures:normal;font-variant-numeric:normal;font-variant-position:normal;isolation:auto;mix-blend-mode:normal;shape-padding:0;text-decoration-color:#000000;text-decoration-line:none;text-decoration-style:solid;text-indent:0;text-orientation:mixed;text-transform:none;white-space:normal"
       id="path80" />
    <circle
       cx="316.31"
       cy="303.46"
       r="5.6089"
       opacity=".3"
       id="circle82" />
    <circle
       cx="67.882"
       cy="37.11"
       r="5.6089"
       opacity=".3"
       id="circle84" />
    <circle
       cx="316.31"
       cy="37.312"
       r="5.6089"
       opacity=".3"
       id="circle86" />
    <circle
       cx="67.711"
       cy="303.46"
       r="5.6089"
       opacity=".3"
       id="circle88" />
  </g>
  <g
     transform="matrix(.75516 0 0 .75516 47.011 46.666)"
     id="g118">
    <path
       d="m69.555 24.285c-8.7146 0-15.781 6.1914-15.781 13.828v2.5576c-0.0018 0.09687-0.0073 0.19275-0.0073 0.29004v303.88c0 8.7146 7.066 15.781 15.781 15.781h244.89c8.7146 0 15.781-7.066 15.781-15.781v-40.132c2e-3 -0.0851 7e-3 -0.16939 7e-3 -0.25488v-266.34c0-7.6366-7.0674-13.828-15.782-13.828z"
       opacity=".2"
       stroke="#000"
       stroke-width="7.5"
       id="path92" />
    <path
       d="m69.555 24.285h244.89c8.7148 0 15.781 7.0664 15.781 15.777v303.88c0 8.7148-7.0664 15.781-15.781 15.781h-244.89c-8.7148 0-15.781-7.0664-15.781-15.781v-303.88c0-8.7109 7.0664-15.777 15.781-15.777z"
       id="path94" />
    <g
       fill="#fff"
       id="g104"
       style="fill:#d2d2d2;fill-opacity:1">
      <path
         d="m74.383 329.47h116.23c2.3945 0 4.3359 1.9414 4.3359 4.3359v8.5664c0 2.3945-1.9414 4.3398-4.3359 4.3398h-116.23c-2.3984 0-4.3398-1.9453-4.3398-4.3398v-8.5664c0-2.3945 1.9414-4.3359 4.3398-4.3359z"
         id="path96"
         style="fill:#d2d2d2;fill-opacity:1" />
      <path
         d="m69.562 23.387h244.89c8.7148 0 15.781 6.1914 15.781 13.828v266.34c0 7.6406-7.0664 13.832-15.781 13.832h-244.89c-8.7148 0-15.781-6.1914-15.781-13.832v-266.34c0-7.6367 7.0664-13.828 15.781-13.828z"
         id="path98"
         style="fill:#d2d2d2;fill-opacity:1" />
      <path
         d="m275.97 338.06c0 4.2695-3.4609 7.7305-7.7305 7.7305-4.2734 0-7.7344-3.4609-7.7344-7.7305s3.4609-7.7305 7.7344-7.7305c4.2695 0 7.7305 3.4609 7.7305 7.7305z"
         id="path100"
         style="fill:#d2d2d2;fill-opacity:1" />
      <path
         d="m299.85 338.06c0 4.2695-3.4648 7.7305-7.7344 7.7305s-7.7305-3.4609-7.7305-7.7305 3.4609-7.7305 7.7305-7.7305 7.7344 3.4609 7.7344 7.7305z"
         id="path102"
         style="fill:#d2d2d2;fill-opacity:1" />
    </g>
    <path
       transform="scale(.75)"
       d="m350.6 227.18c0 52.24-42.349 94.589-94.589 94.589s-94.589-42.349-94.589-94.589 42.349-94.589 94.589-94.589 94.589 42.349 94.589 94.589zm0 0"
       fill="none"
       stroke="#000"
       stroke-linecap="round"
       stroke-linejoin="round"
       stroke-width="21.924"
       id="path106" />
    <path
       d="m192.01 98.725c-43.623 0-79.162 35.539-79.162 79.162s35.539 79.162 79.162 79.162 79.162-35.539 79.162-79.162-35.539-79.162-79.162-79.162zm0 16.441c34.736 0 62.721 27.984 62.721 62.721s-27.984 62.721-62.721 62.721c-34.736 0-62.721-27.984-62.721-62.721s27.984-62.721 62.721-62.721z"
       color="#000000"
       color-rendering="auto"
       dominant-baseline="auto"
       image-rendering="auto"
       opacity=".3"
       shape-rendering="auto"
       solid-color="#000000"
       style="font-feature-settings:normal;font-variant-alternates:normal;font-variant-caps:normal;font-variant-ligatures:normal;font-variant-numeric:normal;font-variant-position:normal;isolation:auto;mix-blend-mode:normal;shape-padding:0;text-decoration-color:#000000;text-decoration-line:none;text-decoration-style:solid;text-indent:0;text-orientation:mixed;text-transform:none;white-space:normal"
       id="path108" />
    <circle
       cx="316.31"
       cy="303.46"
       r="5.6089"
       opacity=".3"
       id="circle110" />
    <circle
       cx="67.882"
       cy="37.11"
       r="5.6089"
       opacity=".3"
       id="circle112" />
    <circle
       cx="316.31"
       cy="37.312"
       r="5.6089"
       opacity=".3"
       id="circle114" />
    <circle
       cx="67.711"
       cy="303.46"
       r="5.6089"
       opacity=".3"
       id="circle116" />
  </g>
  <g
     transform="matrix(.75516 0 0 .75516 47.011 7.7427)"
     id="g146">
    <path
       d="m69.555 24.285c-8.7146 0-15.781 6.1914-15.781 13.828v2.5576c-0.0018 0.09687-0.0073 0.19275-0.0073 0.29004v303.88c0 8.7146 7.066 15.781 15.781 15.781h244.89c8.7146 0 15.781-7.066 15.781-15.781v-40.132c2e-3 -0.0851 7e-3 -0.16939 7e-3 -0.25488v-266.34c0-7.6366-7.0674-13.828-15.782-13.828z"
       opacity=".2"
       stroke="#000"
       stroke-width="7.5"
       id="path120" />
    <path
       d="m69.555 24.285h244.89c8.7148 0 15.781 7.0664 15.781 15.777v303.88c0 8.7148-7.0664 15.781-15.781 15.781h-244.89c-8.7148 0-15.781-7.0664-15.781-15.781v-303.88c0-8.7109 7.0664-15.777 15.781-15.777z"
       id="path122" />
    <g
       fill="#fff"
       id="g132"
       style="fill:#d2d2d2;fill-opacity:1">
      <path
         d="m74.383 329.47h116.23c2.3945 0 4.3359 1.9414 4.3359 4.3359v8.5664c0 2.3945-1.9414 4.3398-4.3359 4.3398h-116.23c-2.3984 0-4.3398-1.9453-4.3398-4.3398v-8.5664c0-2.3945 1.9414-4.3359 4.3398-4.3359z"
         id="path124"
         style="fill:#d2d2d2;fill-opacity:1" />
      <path
         d="m69.562 23.387h244.89c8.7148 0 15.781 6.1914 15.781 13.828v266.34c0 7.6406-7.0664 13.832-15.781 13.832h-244.89c-8.7148 0-15.781-6.1914-15.781-13.832v-266.34c0-7.6367 7.0664-13.828 15.781-13.828z"
         id="path126"
         style="fill:#d2d2d2;fill-opacity:1" />
      <path
         d="m275.97 338.06c0 4.2695-3.4609 7.7305-7.7305 7.7305-4.2734 0-7.7344-3.4609-7.7344-7.7305s3.4609-7.7305 7.7344-7.7305c4.2695 0 7.7305 3.4609 7.7305 7.7305z"
         id="path128"
         style="fill:#d2d2d2;fill-opacity:1" />
      <path
         d="m299.85 338.06c0 4.2695-3.4648 7.7305-7.7344 7.7305s-7.7305-3.4609-7.7305-7.7305 3.4609-7.7305 7.7305-7.7305 7.7344 3.4609 7.7344 7.7305z"
         id="path130"
         style="fill:#d2d2d2;fill-opacity:1" />
    </g>
    <path
       d="m192.01 98.725c-43.623 0-79.162 35.539-79.162 79.162s35.539 79.162 79.162 79.162 79.162-35.539 79.162-79.162-35.539-79.162-79.162-79.162zm0 16.441c34.736 0 62.721 27.984 62.721 62.721s-27.984 62.721-62.721 62.721c-34.736 0-62.721-27.984-62.721-62.721s27.984-62.721 62.721-62.721z"
       color="#000000"
       color-rendering="auto"
       dominant-baseline="auto"
       image-rendering="auto"
       opacity=".3"
       shape-rendering="auto"
       solid-color="#000000"
       style="font-feature-settings:normal;font-variant-alternates:normal;font-variant-caps:normal;font-variant-ligatures:normal;font-variant-numeric:normal;font-variant-position:normal;isolation:auto;mix-blend-mode:normal;shape-padding:0;text-decoration-color:#000000;text-decoration-line:none;text-decoration-style:solid;text-indent:0;text-orientation:mixed;text-transform:none;white-space:normal;fill:#ffffff;fill-opacity:1"
       id="path136" />
    <path
       transform="scale(.75)"
       d="m350.6 227.18c0 52.24-42.349 94.589-94.589 94.589s-94.589-42.349-94.589-94.589 42.349-94.589 94.589-94.589 94.589 42.349 94.589 94.589zm0 0"
       fill="none"
       stroke="#000"
       stroke-linecap="round"
       stroke-linejoin="round"
       stroke-width="21.924"
       id="path134"
       style="fill:none;fill-opacity:1;stroke:#646464;stroke-opacity:1" />
    <circle
       cx="316.31"
       cy="303.46"
       r="5.6089"
       opacity=".3"
       id="circle138" />
    <circle
       cx="67.882"
       cy="37.11"
       r="5.6089"
       opacity=".3"
       id="circle140" />
    <circle
       cx="316.31"
       cy="37.312"
       r="5.6089"
       opacity=".3"
       id="circle142" />
    <circle
       cx="67.711"
       cy="303.46"
       r="5.6089"
       opacity=".3"
       id="circle144" />
  </g>
</svg>
