<?xml version="1.0" encoding="UTF-8" standalone="no"?>
<svg
   xmlns:dc="http://purl.org/dc/elements/1.1/"
   xmlns:cc="http://creativecommons.org/ns#"
   xmlns:rdf="http://www.w3.org/1999/02/22-rdf-syntax-ns#"
   xmlns:svg="http://www.w3.org/2000/svg"
   xmlns="http://www.w3.org/2000/svg"
   xmlns:xlink="http://www.w3.org/1999/xlink"
   xmlns:sodipodi="http://sodipodi.sourceforge.net/DTD/sodipodi-0.dtd"
   xmlns:inkscape="http://www.inkscape.org/namespaces/inkscape"
   width="384pt"
   height="384pt"
   version="1.1"
   viewBox="0 0 384 384"
   id="svg50"
   sodipodi:docname="drive-optical.svg"
   inkscape:version="0.92.4 (5da689c313, 2019-01-14)">
  <metadata
     id="metadata54">
    <rdf:RDF>
      <cc:Work
         rdf:about="">
        <dc:format>image/svg+xml</dc:format>
        <dc:type
           rdf:resource="http://purl.org/dc/dcmitype/StillImage" />
      </cc:Work>
    </rdf:RDF>
  </metadata>
  <sodipodi:namedview
     pagecolor="#ffffff"
     bordercolor="#666666"
     borderopacity="1"
     objecttolerance="10"
     gridtolerance="10"
     guidetolerance="10"
     inkscape:pageopacity="0"
     inkscape:pageshadow="2"
     inkscape:window-width="1366"
     inkscape:window-height="682"
     id="namedview52"
     showgrid="false"
     inkscape:zoom="0.921875"
     inkscape:cx="202.58644"
     inkscape:cy="240.58976"
     inkscape:window-x="0"
     inkscape:window-y="0"
     inkscape:window-maximized="1"
     inkscape:current-layer="svg50" />
  <defs
     id="defs22">
    <linearGradient
       inkscape:collect="always"
       id="linearGradient868">
      <stop
         style="stop-color:#ffffff;stop-opacity:1;"
         offset="0"
         id="stop864" />
      <stop
         style="stop-color:#c8c8c8;stop-opacity:1"
         offset="1"
         id="stop866" />
    </linearGradient>
    <clipPath
       id="clipPath4">
      <rect
         width="384"
         height="384"
         id="rect2" />
    </clipPath>
    <clipPath
       id="clipPath8">
      <rect
         width="384"
         height="384"
         id="rect6" />
    </clipPath>
    <clipPath
       id="clipPath12">
      <rect
         width="384"
         height="384"
         id="rect10" />
    </clipPath>
    <clipPath
       id="clipPath16">
      <rect
         width="384"
         height="384"
         id="rect14" />
    </clipPath>
    <clipPath
       id="clipPath20">
      <rect
         width="384"
         height="384"
         id="rect18" />
    </clipPath>
    <radialGradient
       inkscape:collect="always"
       xlink:href="#linearGradient868"
       id="radialGradient870"
       cx="192.00578"
       cy="343.7295"
       fx="192.00578"
       fy="343.7295"
       r="88.595863"
       gradientTransform="matrix(1,0,0,0.25966226,0,254.47592)"
       gradientUnits="userSpaceOnUse" />
  </defs>
  <g
     transform="translate(.0038 -3.2664)"
     id="g44">
    <path
       d="m69.555 24.285c-8.7146 0-15.781 6.1914-15.781 13.828v2.5576c-0.0018 0.09687-0.0073 0.19275-0.0073 0.29004v303.88c0 8.7146 7.066 15.781 15.781 15.781h244.89c8.7146 0 15.781-7.066 15.781-15.781v-40.132c2e-3 -0.0851 7e-3 -0.16939 7e-3 -0.25488v-266.34c0-7.6366-7.0674-13.828-15.782-13.828z"
       opacity=".2"
       stroke="#000"
       stroke-width="7.5"
       id="path24" />
    <path
       d="m69.555 24.285h244.89c8.7148 0 15.781 7.0664 15.781 15.777v303.88c0 8.7148-7.0664 15.781-15.781 15.781h-244.89c-8.7148 0-15.781-7.0664-15.781-15.781v-303.88c0-8.7109 7.0664-15.777 15.781-15.777z"
       id="path26" />
    <g
       fill="#fff"
       id="g30"
       style="fill:#d2d2d2;fill-opacity:1">
      <path
         d="m69.562 23.387h244.89c8.7148 0 15.781 6.1914 15.781 13.828v266.34c0 7.6406-7.0664 13.832-15.781 13.832h-244.89c-8.7148 0-15.781-6.1914-15.781-13.832v-266.34c0-7.6367 7.0664-13.828 15.781-13.828z"
         id="path28"
         style="fill:#d2d2d2;fill-opacity:1" />
    </g>
    <path
       d="m192.01 98.725c-43.623 0-79.162 35.539-79.162 79.162s35.539 79.162 79.162 79.162 79.162-35.539 79.162-79.162-35.539-79.162-79.162-79.162zm0 16.441c34.736 0 62.721 27.984 62.721 62.721s-27.984 62.721-62.721 62.721c-34.736 0-62.721-27.984-62.721-62.721s27.984-62.721 62.721-62.721z"
       color="#000000"
       color-rendering="auto"
       dominant-baseline="auto"
       image-rendering="auto"
       opacity=".3"
       shape-rendering="auto"
       solid-color="#000000"
       style="font-feature-settings:normal;font-variant-alternates:normal;font-variant-caps:normal;font-variant-ligatures:normal;font-variant-numeric:normal;font-variant-position:normal;isolation:auto;mix-blend-mode:normal;shape-padding:0;text-decoration-color:#000000;text-decoration-line:none;text-decoration-style:solid;text-indent:0;text-orientation:mixed;text-transform:none;white-space:normal;fill:#ffffff;fill-opacity:1"
       id="path34" />
    <path
       transform="scale(.75)"
       d="m350.6 227.18c0 52.24-42.349 94.589-94.589 94.589s-94.589-42.349-94.589-94.589 42.349-94.589 94.589-94.589 94.589 42.349 94.589 94.589zm0 0"
       fill="none"
       stroke="#000"
       stroke-linecap="round"
       stroke-linejoin="round"
       stroke-width="21.924"
       id="path32"
       style="stroke:#646464;stroke-opacity:1" />
    <circle
       cx="316.31"
       cy="303.46"
       r="5.6089"
       opacity=".3"
       id="circle36" />
    <circle
       cx="67.882"
       cy="37.11"
       r="5.6089"
       opacity=".3"
       id="circle38" />
    <circle
       cx="316.31"
       cy="37.312"
       r="5.6089"
       opacity=".3"
       id="circle40" />
    <circle
       cx="67.711"
       cy="303.46"
       r="5.6089"
       opacity=".3"
       id="circle42" />
  </g>
  <path
     d="m84.85 326.03h214.31c4.418 0 8 1.8828 8 4.2031v8.3008c0 2.3203-3.582 4.2031-8 4.2031h-214.31c-4.418 0-8-1.8828-8-4.2031v-8.3008c0-2.3203 3.582-4.2031 8-4.2031z"
     fill="#fff"
     id="path46"
     style="fill:#d2d2d2;fill-opacity:1" />
  <path
     d="m108.48 323.21c20.012 25.828 50.824 40.973 83.496 41.039 32.695-0.0508 63.527-15.195 83.555-41.039z"
     fill="#fff"
     stroke="#000"
     stroke-width="4.971"
     id="path48"
     style="fill-opacity:1;fill:url(#radialGradient870)" />
</svg>
