<?xml version="1.0" encoding="UTF-8" standalone="no"?>
<svg
   xmlns:dc="http://purl.org/dc/elements/1.1/"
   xmlns:cc="http://creativecommons.org/ns#"
   xmlns:rdf="http://www.w3.org/1999/02/22-rdf-syntax-ns#"
   xmlns:svg="http://www.w3.org/2000/svg"
   xmlns="http://www.w3.org/2000/svg"
   xmlns:sodipodi="http://sodipodi.sourceforge.net/DTD/sodipodi-0.dtd"
   xmlns:inkscape="http://www.inkscape.org/namespaces/inkscape"
   width="384pt"
   height="384pt"
   version="1.1"
   viewBox="0 0 384 384"
   id="svg26"
   sodipodi:docname="drive-removable-media.svg"
   inkscape:version="0.92.4 (5da689c313, 2019-01-14)">
  <metadata
     id="metadata32">
    <rdf:RDF>
      <cc:Work
         rdf:about="">
        <dc:format>image/svg+xml</dc:format>
        <dc:type
           rdf:resource="http://purl.org/dc/dcmitype/StillImage" />
      </cc:Work>
    </rdf:RDF>
  </metadata>
  <defs
     id="defs30" />
  <sodipodi:namedview
     pagecolor="#ffffff"
     bordercolor="#666666"
     borderopacity="1"
     objecttolerance="10"
     gridtolerance="10"
     guidetolerance="10"
     inkscape:pageopacity="0"
     inkscape:pageshadow="2"
     inkscape:window-width="1366"
     inkscape:window-height="682"
     id="namedview28"
     showgrid="false"
     inkscape:zoom="1.3037281"
     inkscape:cx="182.42467"
     inkscape:cy="284.63334"
     inkscape:window-x="0"
     inkscape:window-y="0"
     inkscape:window-maximized="1"
     inkscape:current-layer="svg26" />
  <g
     transform="translate(.0038 -.45332)"
     id="g18">
    <path
       d="m69.555 24.285c-8.7146 0-15.781 6.1914-15.781 13.828v2.5576c-0.0018 0.09687-0.0073 0.19275-0.0073 0.29004v303.88c0 8.7146 7.066 15.781 15.781 15.781h244.89c8.7146 0 15.781-7.066 15.781-15.781v-40.132c2e-3 -0.0851 7e-3 -0.16939 7e-3 -0.25488v-266.34c0-7.6366-7.0674-13.828-15.782-13.828z"
       opacity=".2"
       stroke="#000"
       stroke-width="7.5"
       id="path2" />
    <path
       d="m69.555 24.285h244.89c8.7148 0 15.781 7.0664 15.781 15.777v303.88c0 8.7148-7.0664 15.781-15.781 15.781h-244.89c-8.7148 0-15.781-7.0664-15.781-15.781v-303.88c0-8.7109 7.0664-15.777 15.781-15.777z"
       id="path4" />
    <g
       fill="#fff"
       id="g8"
       style="fill:#d2d2d2;fill-opacity:1">
      <path
         d="m69.562 23.387h244.89c8.7148 0 15.781 6.1914 15.781 13.828v266.34c0 7.6406-7.0664 13.832-15.781 13.832h-244.89c-8.7148 0-15.781-6.1914-15.781-13.832v-266.34c0-7.6367 7.0664-13.828 15.781-13.828z"
         id="path6"
         style="fill:#d2d2d2;fill-opacity:1" />
    </g>
    <circle
       cx="316.31"
       cy="303.46"
       r="5.6089"
       opacity=".3"
       id="circle10" />
    <circle
       cx="67.882"
       cy="37.11"
       r="5.6089"
       opacity=".3"
       id="circle12" />
    <circle
       cx="316.31"
       cy="37.312"
       r="5.6089"
       opacity=".3"
       id="circle14" />
    <circle
       cx="67.711"
       cy="303.46"
       r="5.6089"
       opacity=".3"
       id="circle16" />
  </g>
  <path
     inkscape:connector-curvature="0"
     d="m 192.01,121.29001 c -0.87441,0 -1.7531,0.37442 -2.4252,1.119 l -50.227,55.81799 c -1.241,1.3823 -1.3337,3.536 -0.27977,5.0366 h 105.87 c 1.0538,-1.5006 0.96228,-3.6544 -0.27861,-5.0366 l -50.232,-55.81799 c -0.67204,-0.74459 -1.5459,-1.119 -2.4241,-1.119 z M 145.173,199.329 c -3.7802,0 -6.8235,1.7 -6.8235,3.81161 v 22.345 c 0,2.1116 3.0433,3.815 6.8235,3.815 h 93.67101 c 3.7803,0 6.82339,-1.7034 6.82339,-3.815 v -22.345 c 0,-2.11161 -3.0432,-3.81161 -6.82339,-3.81161 z"
     stroke-miterlimit="2"
     id="path20-3"
     style="fill:none;stroke:#ffffff;stroke-width:11.55099964;stroke-linecap:round;stroke-linejoin:round;stroke-miterlimit:2;stroke-opacity:1;opacity:0.3" />
  <path
     d="m192.01 116.79c-0.87441 0-1.7531 0.37442-2.4252 1.119l-50.227 55.818c-1.241 1.3823-1.3337 3.536-0.27977 5.0366h105.87c1.0538-1.5006 0.96228-3.6544-0.27861-5.0366l-50.232-55.818c-0.67204-0.74459-1.5459-1.119-2.4241-1.119zm-46.837 78.039c-3.7802 0-6.8235 1.7-6.8235 3.8116v22.345c0 2.1116 3.0433 3.815 6.8235 3.815h93.671c3.7803 0 6.8234-1.7034 6.8234-3.815v-22.345c0-2.1116-3.0432-3.8116-6.8234-3.8116z"
     fill="#fff"
     stroke="#000"
     stroke-linecap="round"
     stroke-linejoin="round"
     stroke-miterlimit="2"
     stroke-width="11.551"
     id="path20"
     style="fill:none;stroke:#646464;stroke-opacity:1" />
  <path
     d="m131.19 194.47"
     fill="#fff"
     stroke="#000"
     stroke-linecap="round"
     stroke-linejoin="round"
     stroke-miterlimit="2"
     stroke-width="15"
     id="path24" />
</svg>
