<?xml version="1.0" encoding="UTF-8" standalone="no"?>
<svg
   xmlns:dc="http://purl.org/dc/elements/1.1/"
   xmlns:cc="http://creativecommons.org/ns#"
   xmlns:rdf="http://www.w3.org/1999/02/22-rdf-syntax-ns#"
   xmlns:svg="http://www.w3.org/2000/svg"
   xmlns="http://www.w3.org/2000/svg"
   xmlns:sodipodi="http://sodipodi.sourceforge.net/DTD/sodipodi-0.dtd"
   xmlns:inkscape="http://www.inkscape.org/namespaces/inkscape"
   width="512"
   height="512"
   version="1.1"
   viewBox="0 0 384 384"
   id="svg46"
   sodipodi:docname="org.gnome.Geary.svg"
   inkscape:version="0.92.4 (5da689c313, 2019-01-14)">
  <metadata
     id="metadata52">
    <rdf:RDF>
      <cc:Work
         rdf:about="">
        <dc:format>image/svg+xml</dc:format>
        <dc:type
           rdf:resource="http://purl.org/dc/dcmitype/StillImage" />
      </cc:Work>
    </rdf:RDF>
  </metadata>
  <defs
     id="defs50" />
  <sodipodi:namedview
     pagecolor="#ffffff"
     bordercolor="#666666"
     borderopacity="1"
     objecttolerance="10"
     gridtolerance="10"
     guidetolerance="10"
     inkscape:pageopacity="0"
     inkscape:pageshadow="2"
     inkscape:window-width="1366"
     inkscape:window-height="682"
     id="namedview48"
     showgrid="false"
     inkscape:zoom="1.3037281"
     inkscape:cx="88.05188"
     inkscape:cy="353.9526"
     inkscape:window-x="0"
     inkscape:window-y="0"
     inkscape:window-maximized="1"
     inkscape:current-layer="g44"
     showguides="false" />
  <g
     transform="translate(9.9848 8.2319)"
     id="g44">
    <path
       d="m 182.12195,15.018 c 0,0 -168.372379,114.42041 -167.339031,113.7049 l -0.0043,-0.0155 c -0.185591,0.11302 -0.362758,0.23624 -0.537657,0.3616 H 6.8025371 v 0.53816 l 3.8962469,2.5693 c -2.4266792,2.76013 -3.8977225,6.26 -3.8977225,10.11333 v 141.14986 c 0,23.14166 19.7506455,23.14166 25.0460235,23.14166 H 274.29357 l 30.07146,20.02 5.37804,-20.02 h 22.64402 c 0,0 25.04603,0 25.04603,-23.14166 v -141.1499 c 0,-2.48364 -0.61414,-4.8205 -1.69607,-6.90979 l 1.69607,-6.31377 h -7.2694 z"
       id="path4"
       style="fill:#d8ad00;fill-opacity:1;stroke-width:0.96624994"
       inkscape:connector-curvature="0" />
    <path
       d="m 318.06,62.382776 c 0,-7.958832 -3.8913,-11.936766 -11.678,-11.936766 H 57.642 c -7.7937,0 -11.678,3.970063 -11.678,11.936766 V 289.74147 c 0,21.66567 3.884,32.4985 11.678,32.4985 h 248.74 c 7.7937,0 11.678,-10.83283 11.678,-32.4985 z M 302.325,191.50182 H 62.895 v -9.55207 h 239.43 z m 0,19.39444 H 62.895 v -9.54839 h 239.43 z m 0,38.79602 H 62.895 v -9.54829 h 239.43 z m 0,19.3975 H 62.895 v -9.54829 h 239.43 z m 0,-38.79602 H 62.895 v -9.54829 h 239.43 z m 0,-58.19046 H 62.895 v -9.54839 h 239.43 z M 169.165,152.7058 H 62.895 v -9.54829 h 106.27 z M 62.895,288.48932 v -9.55207 h 239.43 v 9.55207 z"
       id="path6"
       inkscape:connector-curvature="0"
       style="opacity:0.2;fill:#ffffff;stroke:#000000;stroke-width:7.5" />
    <path
       d="m 318.06,62.382776 c 0,-7.958832 -3.8913,-11.936766 -11.678,-11.936766 H 57.642 c -7.7937,0 -11.678,3.970063 -11.678,11.936766 V 289.74147 c 0,21.66567 3.884,32.4985 11.678,32.4985 h 248.74 c 7.7937,0 11.678,-10.83283 11.678,-32.4985 z"
       id="path8"
       inkscape:connector-curvature="0"
       style="fill:#ffffff;stroke-width:0.94335002" />
    <g
       transform="matrix(0.94335,0,0,0.96425315,0.89215,20.080751)"
       id="g30"
       style="fill:#646464;fill-opacity:1;stroke-width:0.98910159">
      <path
         d="m 319.54,177.79 v -9.9062 H 65.73 v 9.9062 z"
         id="path10"
         style="fill:#646464;fill-opacity:1;stroke-width:0.98910159"
         inkscape:connector-curvature="0" />
      <path
         d="m 319.54,197.9 v -9.9024 H 65.73 V 197.9 Z"
         id="path12"
         style="fill:#646464;fill-opacity:1;stroke-width:0.98910159"
         inkscape:connector-curvature="0" />
      <path
         d="m 319.54,238.13 v -9.9023 H 65.73 v 9.9023 z"
         id="path14"
         style="fill:#646464;fill-opacity:1;stroke-width:0.98910159"
         inkscape:connector-curvature="0" />
      <path
         d="m 319.54,258.25 v -9.9023 H 65.73 v 9.9023 z"
         id="path16"
         style="fill:#646464;fill-opacity:1;stroke-width:0.98910159"
         inkscape:connector-curvature="0" />
      <path
         d="m 319.54,218.02 v -9.9023 H 65.73 v 9.9023 z"
         id="path18"
         style="fill:#646464;fill-opacity:1;stroke-width:0.98910159"
         inkscape:connector-curvature="0" />
      <path
         d="m 319.54,157.67 v -9.9024 H 65.73 v 9.9024 z"
         id="path20"
         style="fill:#646464;fill-opacity:1;stroke-width:0.98910159"
         inkscape:connector-curvature="0" />
      <path
         d="M 148.67,61.758 V 51.8557 H 65.729 v 9.9023 z"
         id="path22"
         style="fill:#646464;fill-opacity:1;stroke-width:0.98910159"
         inkscape:connector-curvature="0" />
      <path
         d="m 178.38,137.55 v -9.9023 H 65.73 v 9.9023 z"
         id="path24"
         style="fill:#646464;fill-opacity:1;stroke-width:0.98910159"
         inkscape:connector-curvature="0" />
      <path
         d="M 118.96,81.844 V 71.9417 H 65.73 v 9.9023 z"
         id="path26"
         style="fill:#646464;fill-opacity:1;stroke-width:0.98910159"
         inkscape:connector-curvature="0" />
      <path
         d="m 65.73,278.37 h 253.81 v -9.9062 H 65.73 Z"
         id="path28"
         style="fill:#646464;fill-opacity:1;stroke-width:0.98910159"
         inkscape:connector-curvature="0" />
    </g>
    <g
       id="g40"
       transform="matrix(1.0538234,0,0,1.0221584,-9.7968665,-0.33277515)"
       style="stroke-width:0.90892875">
      <path
         d="m 345.45,126.62 h 2.83 v 207.14 c 0,3.766 -0.90604,6.6247 -2.6269,8.4376 -2.0452,2.1888 -5.0235,3.2391 -9.0512,3.2391 h -309.17 c -3.1544,0 -5.6938,-0.64118 -7.6209,-1.9567 -2.6863,-1.8388 4.433,2.2493 4.433,-2.3938 z"
         id="path32"
         inkscape:connector-curvature="0"
         style="opacity:0.05;stroke-width:0.89693975" />
      <path
         d="m 22.825,126.62 h -7.0751 v 207.14 c 0,3.766 0.90604,6.6247 2.6269,8.4376 2.0452,2.1888 5.0235,3.2391 9.0511,3.2391 h 309.17 c 3.1544,0 5.6938,-0.64119 7.6209,-1.9567 2.6863,-1.8388 -0.18792,2.2493 -0.18792,-2.3938 z"
         id="path34"
         inkscape:connector-curvature="0"
         style="opacity:0.1;stroke-width:0.89693975" />
      <path
         d="m 348.28,127.13 v -0.52695 l -170.11,115.76 166.06,108.2 c 2.6863,-1.8388 4.0572,-5.0779 4.0572,-9.7212 z"
         id="path36"
         style="fill:#ffcc00;stroke-width:0.90892875"
         inkscape:connector-curvature="0" />
      <path
         d="m 336.6,352.51 c 3.1544,0 5.6933,-0.64118 7.6205,-1.9567 l -328.47,-223.42 v 213.71 c 0,3.766 0.9065,6.6255 2.6274,8.4385 2.0452,2.1888 5.0226,3.2391 9.0503,3.2391 z"
         style="fill:#ecbd00;fill-opacity:1;stroke-width:0.89693975;paint-order:markers fill stroke"
         id="path38"
         inkscape:connector-curvature="0" />
    </g>
    <path
       d="m 6.3920682,340.83303 v 7.23188 c 0,3.84945 0.9561914,6.77139 2.7723052,8.62477 2.1584066,2.2374 5.3015626,3.31077 9.5522056,3.31077 l 326.293861,-0.004 c 3.32752,0 6.00496,-0.65518 8.03872,-1.99873 l 0.006,0.004 c 2.835,-1.87955 4.28178,-5.19052 4.28178,-9.93661 v -7.23044 c -3e-4,4.74547 -1.4471,8.05635 -4.28178,9.93517 l -0.006,-0.004 c -2.03346,1.34342 -4.71088,1.99862 -8.03872,1.99862 l -326.293861,0.004 c -4.250643,0 -7.393799,-1.07347 -9.5522056,-3.31087 -1.816156,-1.85318 -2.7723052,-4.77512 -2.7723052,-8.62477 z"
       id="path42"
       inkscape:connector-curvature="0"
       style="opacity:0.3;stroke-width:0.94331998" />
  </g>
</svg>
