<?xml version="1.0" encoding="UTF-8" standalone="no"?>
<svg
   xmlns:dc="http://purl.org/dc/elements/1.1/"
   xmlns:cc="http://creativecommons.org/ns#"
   xmlns:rdf="http://www.w3.org/1999/02/22-rdf-syntax-ns#"
   xmlns:svg="http://www.w3.org/2000/svg"
   xmlns="http://www.w3.org/2000/svg"
   xmlns:sodipodi="http://sodipodi.sourceforge.net/DTD/sodipodi-0.dtd"
   xmlns:inkscape="http://www.inkscape.org/namespaces/inkscape"
   width="512"
   height="512"
   version="1.1"
   viewBox="0 0 384 384"
   id="svg26"
   sodipodi:docname="facebook-facebook.com.svg"
   inkscape:version="0.92.4 (5da689c313, 2019-01-14)">
  <metadata
     id="metadata30">
    <rdf:RDF>
      <cc:Work
         rdf:about="">
        <dc:format>image/svg+xml</dc:format>
        <dc:type
           rdf:resource="http://purl.org/dc/dcmitype/StillImage" />
      </cc:Work>
    </rdf:RDF>
  </metadata>
  <sodipodi:namedview
     pagecolor="#ffffff"
     bordercolor="#666666"
     borderopacity="1"
     objecttolerance="10"
     gridtolerance="10"
     guidetolerance="10"
     inkscape:pageopacity="0"
     inkscape:pageshadow="2"
     inkscape:window-width="1366"
     inkscape:window-height="682"
     id="namedview28"
     showgrid="false"
     inkscape:zoom="0.4609375"
     inkscape:cx="27.118644"
     inkscape:cy="256"
     inkscape:window-x="0"
     inkscape:window-y="0"
     inkscape:window-maximized="1"
     inkscape:current-layer="svg26" />
  <defs
     id="defs14">
    <clipPath
       id="clipPath4">
      <rect
         width="384"
         height="384"
         id="rect2" />
    </clipPath>
    <clipPath
       id="clipPath8">
      <rect
         width="384"
         height="384"
         id="rect6" />
    </clipPath>
    <clipPath
       id="clipPath12">
      <rect
         width="384"
         height="384"
         id="rect10" />
    </clipPath>
  </defs>
  <path
     d="m360 334.8v-285.59c0-13.918-11.281-25.199-25.199-25.199h-285.59c-13.918 0-25.199 11.281-25.199 25.199v285.59c0 13.918 11.281 25.199 25.199 25.199h285.59c13.918 0 25.199-11.281 25.199-25.199z"
     fill="#2861bf"
     id="path16"
     style="fill:#3b5998;fill-opacity:1" />
  <path
     d="m252 103.51s-48 0-48 47.996v48h-36v48h36v105h48v-105h42l6-48h-48v-36c0-12 12-12 12-12h36v-47.996z"
     opacity=".3"
     id="path18" />
  <path
     d="m252 96.012s-48 0-48 47.996v48h-36v48h36v120h48v-120h42l6-48h-48v-36c0-12 12-12 12-12h36v-47.996z"
     fill="#fff"
     id="path20" />
  <path
     transform="scale(.75)"
     d="m65.609 32.01c-18.557 0-33.6 15.042-33.6 33.6v10c0-18.557 15.042-33.6 33.6-33.6h380.79c18.557 0 33.6 15.042 33.6 33.6v-10c0-18.557-15.042-33.6-33.6-33.6h-380.79z"
     fill="#fff"
     opacity=".3"
     stroke-width="1.3333"
     id="path22" />
  <path
     transform="scale(.75)"
     d="m32.01 436.4v10c0 18.557 15.042 33.6 33.6 33.6h380.79c18.557 0 33.6-15.042 33.6-33.6v-10c0 18.557-15.042 33.6-33.6 33.6h-380.79c-18.557 0-33.6-15.042-33.6-33.6z"
     opacity=".3"
     stroke-width="1.3333"
     id="path24" />
</svg>
