<?xml version="1.0" encoding="UTF-8" standalone="no"?>
<svg
   xmlns:dc="http://purl.org/dc/elements/1.1/"
   xmlns:cc="http://creativecommons.org/ns#"
   xmlns:rdf="http://www.w3.org/1999/02/22-rdf-syntax-ns#"
   xmlns:svg="http://www.w3.org/2000/svg"
   xmlns="http://www.w3.org/2000/svg"
   xmlns:xlink="http://www.w3.org/1999/xlink"
   xmlns:sodipodi="http://sodipodi.sourceforge.net/DTD/sodipodi-0.dtd"
   xmlns:inkscape="http://www.inkscape.org/namespaces/inkscape"
   width="512"
   height="512"
   version="1.1"
   viewBox="0 0 384 384"
   id="svg38"
   sodipodi:docname="applications-fonts.svg"
   inkscape:version="0.92.4 (5da689c313, 2019-01-14)">
  <metadata
     id="metadata42">
    <rdf:RDF>
      <cc:Work
         rdf:about="">
        <dc:format>image/svg+xml</dc:format>
        <dc:type
           rdf:resource="http://purl.org/dc/dcmitype/StillImage" />
      </cc:Work>
    </rdf:RDF>
  </metadata>
  <sodipodi:namedview
     pagecolor="#ffffff"
     bordercolor="#666666"
     borderopacity="1"
     objecttolerance="10"
     gridtolerance="10"
     guidetolerance="10"
     inkscape:pageopacity="0"
     inkscape:pageshadow="2"
     inkscape:window-width="1366"
     inkscape:window-height="682"
     id="namedview40"
     showgrid="false"
     inkscape:zoom="0.4609375"
     inkscape:cx="-9.0639693"
     inkscape:cy="530.82652"
     inkscape:window-x="0"
     inkscape:window-y="0"
     inkscape:window-maximized="1"
     inkscape:current-layer="svg38" />
  <defs
     id="defs12">
    <linearGradient
       inkscape:collect="always"
       id="linearGradient853">
      <stop
         style="stop-color:#f0f0f0;stop-opacity:1;"
         offset="0"
         id="stop849" />
      <stop
         style="stop-color:#e6e6e6;stop-opacity:1"
         offset="1"
         id="stop851" />
    </linearGradient>
    <linearGradient
       id="c"
       x1="-51.604"
       x2="56.377"
       y1="199.91"
       y2="199.91"
       gradientTransform="matrix(-1 0 0 1 248.24 1.7258)"
       gradientUnits="userSpaceOnUse">
      <stop
         stop-color="#fff"
         offset="0"
         id="stop2" />
      <stop
         stop-color="#bebebe"
         offset="1"
         id="stop4" />
    </linearGradient>
    <linearGradient
       id="b"
       x1="-30.319"
       x2="56.377"
       y1="199.91"
       y2="199.91"
       gradientTransform="matrix(0 -1 -1 0 382.27 248.24)"
       gradientUnits="userSpaceOnUse">
      <stop
         stop-color="#fff"
         offset="0"
         id="stop7" />
      <stop
         stop-color="#bebebe"
         offset="1"
         id="stop9" />
    </linearGradient>
    <linearGradient
       inkscape:collect="always"
       xlink:href="#linearGradient853"
       id="linearGradient855"
       x1="198.97882"
       y1="35.798611"
       x2="181.76897"
       y2="357.96811"
       gradientUnits="userSpaceOnUse" />
  </defs>
  <path
     d="m 63.995,23.25 h 256.01 c 22.504,0 40.746,22.324 40.746,49.867 v 237.77 c 0,27.543 -18.242,49.867 -40.746,49.867 H 63.995 c -22.504,0 -40.746,-22.324 -40.746,-49.867 V 73.117 c 0,-27.543 18.242,-49.867 40.746,-49.867 z"
     id="path14"
     style="fill:url(#linearGradient855);fill-opacity:1"
     inkscape:connector-curvature="0" />
  <path
     d="m74.086 292.82v-183.18"
     fill="none"
     stroke="#0f2b5c"
     stroke-width="10.751"
     id="path18"
     style="stroke:#363636;stroke-opacity:1" />
  <path
     d="m52.586 271.32h259.3"
     fill="none"
     stroke="#0f2b5c"
     stroke-width="10.751"
     id="path22"
     style="stroke:#363636;stroke-opacity:1" />
  <g
     fill="#0f2b5c"
     id="g32"
     style="fill:#363636;fill-opacity:1">
    <path
       d="m310.61 297.44 26.18-26.18-26.18-26.18z"
       id="path24"
       style="fill:#363636;fill-opacity:1" />
    <path
       d="m99.566 112.74-26.18-26.18-26.18 26.18z"
       id="path26"
       style="fill:#363636;fill-opacity:1" />
    <path
       d="m156.43 159.39-19.015 51.563h38.1zm-7.9114-13.81h15.892l39.488 103.61h-14.574l-9.4382-26.58h-46.705l-9.4382 26.58h-14.782z"
       id="path28"
       style="fill:#363636;fill-opacity:1" />
    <path
       d="m253.73 210.12q-15.476 0-21.444 3.5393-5.9683 3.5393-5.9683 12.075 0 6.801 4.4415 10.826 4.5109 3.9557 12.214 3.9557 10.618 0 17.003-7.495 6.454-7.5644 6.454-20.056v-2.8453zm25.469-5.2743v44.346h-12.769v-11.798q-4.3721 7.0786-10.896 10.479-6.5235 3.3311-15.962 3.3311-11.937 0-19.015-6.6622-7.0092-6.7316-7.0092-17.974 0-13.116 8.7442-19.779 8.8136-6.6622 26.233-6.6622h17.905v-1.2492q0-8.8136-5.8295-13.602-5.7601-4.8579-16.239-4.8579-6.6622 0-12.978 1.5962-6.3153 1.5962-12.145 4.7885v-11.798q7.0092-2.7065 13.602-4.0251 6.5928-1.388 12.839-1.388 16.864 0 25.192 8.7442 8.3278 8.7442 8.3278 26.51z"
       id="path30"
       style="fill:#363636;fill-opacity:1" />
  </g>
  <path
     transform="scale(.75)"
     d="m31 404.51v10c0 36.724 24.323 66.49 54.328 66.49h341.34c30.005 0 54.328-29.766 54.328-66.49v-10c0 36.724-24.323 66.49-54.328 66.49h-341.34c-30.005 0-54.328-29.766-54.328-66.49z"
     opacity=".3"
     stroke-width="1.3333"
     id="path34" />
  <path
     d="M 63.996,24.75 C 41.49225,24.75 23.25,47.0745 23.25,74.6175 v 7.5 C 23.25,54.5745 41.49225,32.25 63.996,32.25 h 256.005 c 22.50375,0 40.746,22.3245 40.746,49.8675 v -7.5 c 0,-27.543 -18.24225,-49.8675 -40.746,-49.8675 z"
     id="path36"
     style="opacity:0.4;fill:#ffffff;fill-opacity:1;stroke-width:0.99997497"
     inkscape:connector-curvature="0" />
</svg>
