<?xml version="1.0" encoding="UTF-8" standalone="no"?>
<svg
   xmlns:dc="http://purl.org/dc/elements/1.1/"
   xmlns:cc="http://creativecommons.org/ns#"
   xmlns:rdf="http://www.w3.org/1999/02/22-rdf-syntax-ns#"
   xmlns:svg="http://www.w3.org/2000/svg"
   xmlns="http://www.w3.org/2000/svg"
   xmlns:sodipodi="http://sodipodi.sourceforge.net/DTD/sodipodi-0.dtd"
   xmlns:inkscape="http://www.inkscape.org/namespaces/inkscape"
   width="512"
   height="512"
   version="1.1"
   viewBox="0 0 384 384"
   id="svg32"
   sodipodi:docname="google-chrome.svg"
   inkscape:version="0.92.4 (5da689c313, 2019-01-14)">
  <metadata
     id="metadata38">
    <rdf:RDF>
      <cc:Work
         rdf:about="">
        <dc:format>image/svg+xml</dc:format>
        <dc:type
           rdf:resource="http://purl.org/dc/dcmitype/StillImage" />
      </cc:Work>
    </rdf:RDF>
  </metadata>
  <defs
     id="defs36" />
  <sodipodi:namedview
     pagecolor="#ffffff"
     bordercolor="#666666"
     borderopacity="1"
     objecttolerance="10"
     gridtolerance="10"
     guidetolerance="10"
     inkscape:pageopacity="0"
     inkscape:pageshadow="2"
     inkscape:window-width="1366"
     inkscape:window-height="682"
     id="namedview34"
     showgrid="false"
     inkscape:zoom="0.921875"
     inkscape:cx="204.51879"
     inkscape:cy="267.28809"
     inkscape:window-x="0"
     inkscape:window-y="0"
     inkscape:window-maximized="1"
     inkscape:current-layer="g16" />
  <path
     d="m192 30.75c-60.668 0-113.85 32.023-143.59 80.082-6e-3 0.0103-0.01268 0.0206-0.01905 0.0308-1.35e-4 6.2e-4 1.28e-4 7.4e-4 0 1e-3 -15.933 25.759-25.137 56.123-25.137 88.637 0 90.344 70.996 164.11 160.24 168.54 2.8164 0.13672 5.6562 0.21093 8.5078 0.21093 93.199 0 168.75-75.551 168.75-168.75 0-28.242-6.9497-54.855-19.211-78.246-28.207-53.797-84.582-90.504-149.54-90.504z"
     opacity=".3"
     id="path2" />
  <path
     d="m341.54 113.75c-236.36 188.83-118.18 94.414 0 0zl-136.62 0.0547 46.328 130.71-67.754 116.02c2.8164 0.13672 5.6562 0.21094 8.5078 0.21094 93.199 0 168.75-75.551 168.75-168.75 0-28.242-6.9492-54.855-19.211-78.246z"
     fill="#ffc62f"
     id="path4"
     style="fill:#f8ac2d;fill-opacity:1" />
  <path
     d="m192 23.25c-60.668 0-113.85 32.023-143.59 80.082l68.039 111.46 75.555-102.04c4.1094 0.0352 8.2109 0.38672 12.262 1.0547l137.28-0.0547c-28.207-53.797-84.582-90.504-149.54-90.504zm-143.61 80.113c-40.926 195.76-20.461 97.879 0 0z"
     fill="#d31818"
     id="path6"
     style="fill:#d74134;fill-opacity:1" />
  <path
     d="m48.406 103.33c-15.945 25.766-25.156 56.141-25.156 88.668 0 90.344 70.996 164.11 160.24 168.54l67.754-116.02c-15.02 16.973-36.582 26.703-59.246 26.73l-75.555-56.451z"
     fill="#0ba05d"
     id="path8"
     style="fill:#0f9d58;fill-opacity:1" />
  <g
     fill-opacity=".95296"
     id="g16"
     style="opacity:0.4">
    <path
       d="m341.55 113.71-111.48 35.843-28.72-35.761z"
       opacity=".3"
       id="path10"
       style="" />
    <path
       d="m48.277 103.34 88.685 76.472-15.556 43.148z"
       opacity=".3"
       id="path14"
       style="opacity:0.1" />
  </g>
  <path
     d="m271.25 199.5c0 43.766-35.48 79.246-79.246 79.246-43.766 0-79.246-35.48-79.246-79.246 0-43.766 35.48-79.246 79.246-79.246 43.766 0 79.246 35.48 79.246 79.246z"
     fill="#020202"
     opacity=".3"
     id="path18" />
  <path
     d="m271.25 192c0 43.766-35.48 79.246-79.246 79.246-43.766 0-79.246-35.48-79.246-79.246 0-43.766 35.48-79.246 79.246-79.246 43.766 0 79.246 35.48 79.246 79.246z"
     fill="#fff"
     id="path20" />
  <path
     d="m257.39 192c0 36.113-29.277 65.391-65.391 65.391s-65.391-29.277-65.391-65.391 29.277-65.391 65.391-65.391 65.391 29.277 65.391 65.391z"
     fill="#357aef"
     id="path22"
     style="fill:#4285f4;fill-opacity:1" />
  <g
     stroke-width="1.3333"
     id="g30">
    <path
       transform="scale(.75)"
       d="m256 31c-80.891 0-151.8 42.697-191.46 106.78l3.1211 5.1133c40.188-61.35 109.52-101.89 188.34-101.89 82.523 0 154.66 44.434 193.81 110.67l5.5723-0.00195c-37.609-71.729-112.78-120.67-199.38-120.67zm-191.48 106.82c-54.568 261.01-27.281 130.51 0 0zm0 10c-27.281 130.51-54.568 261.01 0 0z"
       fill="#fff"
       opacity=".3"
       id="path24" />
    <path
       transform="scale(.75)"
       d="m256 168.81c-48.151 0-87.188 39.036-87.188 87.188 0 1.6786 0.05287 3.3448 0.14648 5 2.5918-45.824 40.569-82.188 87.041-82.188s84.449 36.364 87.041 82.188c0.09361-1.6552 0.14648-3.3214 0.14648-5 0-48.151-39.036-87.188-87.188-87.188z"
       fill="#fff"
       opacity=".3"
       id="path26" />
    <path
       transform="scale(.75)"
       d="m168.96 251c-0.09361 1.6552-0.14648 3.3214-0.14648 5 0 48.151 39.036 87.188 87.188 87.188s87.188-39.036 87.188-87.188c0-1.6786-0.05287-3.3448-0.14648-5-2.5918 45.824-40.569 82.188-87.041 82.188-46.472 0-84.449-36.364-87.041-82.188z"
       fill="#111"
       opacity=".3"
       id="path28" />
  </g>
</svg>
