<?xml version="1.0" encoding="UTF-8" standalone="no"?>
<svg
   xmlns:dc="http://purl.org/dc/elements/1.1/"
   xmlns:cc="http://creativecommons.org/ns#"
   xmlns:rdf="http://www.w3.org/1999/02/22-rdf-syntax-ns#"
   xmlns:svg="http://www.w3.org/2000/svg"
   xmlns="http://www.w3.org/2000/svg"
   xmlns:xlink="http://www.w3.org/1999/xlink"
   xmlns:sodipodi="http://sodipodi.sourceforge.net/DTD/sodipodi-0.dtd"
   xmlns:inkscape="http://www.inkscape.org/namespaces/inkscape"
   width="512"
   height="512"
   version="1.1"
   viewBox="0 0 384 384"
   id="svg33"
   sodipodi:docname="inkscape.svg"
   inkscape:version="0.92.4 (5da689c313, 2019-01-14)">
  <metadata
     id="metadata37">
    <rdf:RDF>
      <cc:Work
         rdf:about="">
        <dc:format>image/svg+xml</dc:format>
        <dc:type
           rdf:resource="http://purl.org/dc/dcmitype/StillImage" />
      </cc:Work>
    </rdf:RDF>
  </metadata>
  <sodipodi:namedview
     pagecolor="#ffffff"
     bordercolor="#666666"
     borderopacity="1"
     objecttolerance="10"
     gridtolerance="10"
     guidetolerance="10"
     inkscape:pageopacity="0"
     inkscape:pageshadow="2"
     inkscape:window-width="1366"
     inkscape:window-height="682"
     id="namedview35"
     showgrid="false"
     inkscape:zoom="0.65186406"
     inkscape:cx="201.78346"
     inkscape:cy="207.68295"
     inkscape:window-x="0"
     inkscape:window-y="0"
     inkscape:window-maximized="1"
     inkscape:current-layer="g31" />
  <defs
     id="defs21">
    <linearGradient
       inkscape:collect="always"
       id="linearGradient836">
      <stop
         style="stop-color:#3c3c3c;stop-opacity:1"
         offset="0"
         id="stop832" />
      <stop
         style="stop-color:#000000;stop-opacity:1"
         offset="1"
         id="stop834" />
    </linearGradient>
    <linearGradient
       inkscape:collect="always"
       id="linearGradient871">
      <stop
         style="stop-color:#ffffff;stop-opacity:1;"
         offset="0"
         id="stop867" />
      <stop
         style="stop-color:#ffffff;stop-opacity:0;"
         offset="1"
         id="stop869" />
    </linearGradient>
    <linearGradient
       id="linear0"
       x1="64.902"
       x2="78.785"
       y1="53.311"
       y2="78.152"
       gradientTransform="matrix(3.453551,0,0,3.453422,-36.195656,-43.68082)"
       gradientUnits="userSpaceOnUse">
      <stop
         offset="0"
         style="stop-color:#3b3b3b;stop-opacity:1"
         id="stop2" />
      <stop
         offset="1"
         style="stop-color:#414141;stop-opacity:1"
         id="stop4" />
    </linearGradient>
    <filter
       id="alpha"
       width="100%"
       height="100%"
       x="0%"
       y="0%"
       filterUnits="objectBoundingBox">
      <feColorMatrix
         in="SourceGraphic"
         type="matrix"
         values="0 0 0 0 1 0 0 0 0 1 0 0 0 0 1 0 0 0 1 0"
         id="feColorMatrix7" />
    </filter>
    <mask
       id="mask0">
      <g
         filter="url(#alpha)"
         id="g12">
        <rect
           width="384"
           height="384"
           x="0"
           y="0"
           style="fill:rgb(0%,0%,0%);fill-opacity:0.301961"
           id="rect10" />
      </g>
    </mask>
    <clipPath
       id="clip1">
      <rect
         width="384"
         height="384"
         x="0"
         y="0"
         id="rect15" />
    </clipPath>
    <g
       id="surface5"
       clip-path="url(#clip1)">
      <path
         style="fill:rgb(0%,0%,0%)"
         d="M 25.25 190.425781 C 24.171875 196.769531 25.53125 202.992188 31.101562 207.507812 C 47.382812 213.488281 65.265625 211.421875 82.046875 215.269531 C 88.511719 217.003906 101.90625 225.113281 105.445312 233.410156 C 110.789062 223.183594 90.492188 210.03125 82.046875 207.769531 C 65.265625 203.921875 47.382812 205.988281 31.101562 200.007812 C 27.773438 197.308594 25.953125 194 25.25 190.425781 Z M 358.753906 192.730469 C 357.78125 199.949219 353.867188 206.503906 346.277344 209.929688 C 327.300781 220.589844 304.21875 222.660156 284.097656 228.050781 C 270.695312 231.640625 265.851562 237.632812 267.925781 247.214844 C 269.414062 241.839844 274.605469 238.09375 284.097656 235.550781 C 304.21875 230.160156 327.300781 228.089844 346.277344 217.429688 C 356.449219 212.835938 360.027344 202.625 358.753906 192.730469 Z M 68.90625 259.785156 C 66.933594 262.84375 67.417969 266.6875 72.230469 271.683594 C 88.617188 277.925781 106 280.378906 123.730469 280.378906 C 135.980469 280.378906 146.011719 285.53125 148.800781 292.191406 C 152.863281 282.339844 140.328125 272.878906 123.730469 272.878906 C 106 272.878906 88.617188 270.425781 72.230469 264.183594 C 70.710938 262.605469 69.621094 261.144531 68.90625 259.785156 Z M 356.863281 261.488281 C 354.519531 264.878906 349.117188 267.699219 341.167969 267.699219 C 337.164062 267.445312 333.164062 266.847656 329.296875 265.742188 C 326.953125 265.0625 325.242188 264.277344 324.050781 263.429688 C 320.539062 266.820312 320.648438 270.730469 329.296875 273.242188 C 333.164062 274.347656 337.164062 274.945312 341.167969 275.199219 C 354.941406 275.199219 361.101562 266.742188 356.863281 261.488281 Z M 284.605469 287.296875 C 283.539062 290.105469 280.964844 292.519531 276.136719 294.195312 C 259.898438 302.472656 239.863281 301.722656 225.058594 312.910156 C 223.359375 315.625 223.546875 318.5625 224.464844 321.535156 C 224.628906 321.15625 224.824219 320.78125 225.058594 320.410156 C 239.863281 309.222656 259.898438 309.972656 276.136719 301.695312 C 284.917969 298.648438 286.238281 293.160156 284.605469 287.296875 Z M 98.246094 302.769531 C 98.210938 302.8125 98.183594 302.851562 98.148438 302.894531 C 90.164062 306.96875 78.082031 313.902344 69.839844 307.441406 C 68.433594 309.351562 68.011719 311.65625 69.121094 314.339844 C 77.367188 321.816406 89.929688 314.585938 98.148438 310.394531 C 101.144531 306.882812 100.644531 304.359375 98.246094 302.769531 Z M 133.433594 314.085938 C 129.4375 321.019531 137.898438 328.992188 147.628906 329.722656 C 165.710938 330.710938 169.496094 350.152344 183.304688 357.238281 C 195.867188 361.183594 209.800781 357.699219 221.167969 351.78125 C 230.539062 349.140625 230.84375 344.71875 228.992188 339.660156 C 227.835938 341.5 225.449219 343.074219 221.167969 344.28125 C 209.800781 350.199219 195.867188 353.683594 183.304688 349.738281 C 169.496094 342.652344 165.710938 323.210938 147.628906 322.222656 C 141.402344 321.757812 135.691406 318.316406 133.433594 314.085938 Z M 133.433594 314.085938"
         id="path18" />
    </g>
    <linearGradient
       inkscape:collect="always"
       xlink:href="#linearGradient871"
       id="linearGradient873"
       x1="190.91304"
       y1="34.169491"
       x2="182.08203"
       y2="127.72266"
       gradientUnits="userSpaceOnUse" />
    <linearGradient
       inkscape:collect="always"
       xlink:href="#linearGradient836"
       id="linearGradient838"
       x1="195.18053"
       y1="28.572847"
       x2="183.30469"
       y2="349.73828"
       gradientUnits="userSpaceOnUse" />
  </defs>
  <g
     id="g31">
    <path
       style="fill:url(#linearGradient838);fill-opacity:1"
       d="M 183.304688 357.238281 C 169.496094 350.152344 165.707031 330.710938 147.628906 329.722656 C 135.324219 328.800781 125.023438 316.289062 139.429688 308.949219 C 160.460938 296.84375 145.625 280.375 123.730469 280.375 C 105.996094 280.375 88.617188 277.925781 72.230469 271.679688 C 56.058594 254.898438 88.753906 251.132812 99.367188 246.332031 C 118.941406 236.074219 92.097656 217.960938 82.046875 215.269531 C 65.265625 211.421875 47.382812 213.488281 31.101562 207.507812 C 18.011719 196.890625 28.113281 176.878906 38.6875 167.886719 C 81.578125 122.199219 124.785156 76.683594 170.488281 33.789062 C 182.96875 20.089844 207.058594 23.191406 217.875 37.441406 C 263.921875 83.574219 309.386719 130.347656 353.230469 178.582031 C 361.96875 190.703125 361.65625 210.488281 346.277344 217.429688 C 327.300781 228.089844 304.21875 230.160156 284.097656 235.550781 C 265.410156 240.558594 263.359375 250.222656 273.503906 267.792969 C 278.179688 275.898438 295.75 294.890625 276.136719 301.695312 C 259.898438 309.972656 239.863281 309.222656 225.054688 320.410156 C 218.21875 331.355469 241.933594 345.925781 221.167969 351.78125 C 209.800781 357.699219 195.867188 361.183594 183.304688 357.238281 Z M 152.433594 144.324219 C 153.097656 143.921875 151.488281 147.277344 151.757812 146.550781 Z M 69.121094 314.339844 C 62.460938 298.257812 110.636719 295.757812 98.148438 310.394531 C 89.929688 314.585938 77.367188 321.816406 69.121094 314.339844 Z M 329.296875 273.242188 C 308.59375 267.226562 336.742188 253.191406 346.699219 257.476562 C 364.804688 258.667969 360.421875 275.195312 341.167969 275.195312 C 337.164062 274.941406 333.164062 274.347656 329.296875 273.242188 Z M 329.296875 273.242188"
       id="path23" />
    <path
       style="fill:#ffffff;fill-opacity:1"
       d="M 190.21875 51.515625 C 180.144531 51.085938 173.175781 59.351562 166.5 65.660156 C 148.410156 83.761719 130.664062 102.300781 114.53125 122.183594 C 107.964844 127.328125 116.464844 131.636719 120.445312 134.730469 C 127.671875 139.734375 134.984375 144.878906 143.207031 148.105469 C 149.421875 146.566406 149.464844 136.855469 151.683594 131.5625 C 153.941406 124.054688 155.28125 116.242188 158.226562 108.957031 C 162.738281 110.527344 165.992188 118.769531 169.824219 123.28125 C 172.679688 127.5 177.984375 135.25 182.082031 127.722656 C 188.601562 120.890625 192.941406 112.011719 200.699219 106.398438 C 206.539062 106.820312 211.824219 110.941406 217.242188 113.234375 C 227.898438 118.613281 238.082031 125.109375 249.273438 129.332031 C 254.558594 129.125 257.996094 121.773438 256.074219 117.511719 C 238.042969 96.867188 220.015625 76.21875 201.988281 55.570312 C 198.570312 53.117188 194.445312 51.589844 190.21875 51.515625 Z M 190.21875 51.515625"
       id="path27" />
    <use
       mask="url(#mask0)"
       xlink:href="#surface5"
       id="use29" />
    <path
       inkscape:connector-curvature="0"
       style="fill:none;fill-opacity:1;stroke:url(#linearGradient873);stroke-width:7.5;stroke-miterlimit:4;stroke-dasharray:none;stroke-opacity:1;opacity:0.4"
       d="m 183.50636,353.57043 c -13.50133,-6.92442 -17.20608,-25.92265 -34.88193,-26.88841 -12.0309,-0.90086 -22.10247,-13.1274 -8.01679,-20.29992 20.56328,-11.82953 6.05747,-27.92288 -15.34988,-27.92288 -17.33977,0 -34.331957,-2.3934 -50.354047,-8.49711 -15.81202,-16.39873 16.15577,-20.07852 26.532877,-24.76987 19.13868,-10.02399 -7.107767,-27.72439 -16.934897,-30.35445 -16.40784,-3.75995 -33.89273,-1.74065 -49.8117,-7.58479 -12.79858,-10.37518 -2.92179,-29.93074 7.41714,-38.71795 41.93624,-44.64608 84.181847,-89.124203 128.868007,-131.040976 12.20275,-13.386951 35.75657,-10.356087 46.33229,3.569092 45.02226,45.081238 89.47545,90.788504 132.34361,137.923394 8.54384,11.8448 8.23829,31.17897 -6.79842,37.96215 -18.5543,10.41716 -41.12272,12.44029 -60.79609,17.70803 -18.27167,4.89366 -20.27683,14.33744 -10.35802,31.50725 4.57174,7.92071 21.75108,26.47997 2.57423,33.12955 -15.87696,8.08867 -35.4663,7.35577 -49.94538,18.28825 -6.68383,10.69582 16.50332,24.93401 -3.80024,30.656 -11.11425,5.78308 -24.73779,9.18803 -37.02076,5.33264 z M 153.3222,145.50964 c 0.64928,-0.39318 -0.92429,2.88581 -0.66075,2.17581 z m -81.458667,166.1402 c -6.51197,-15.71544 40.591837,-18.15846 28.381427,-3.85537 -8.035867,4.09587 -20.318827,11.16152 -28.381427,3.85537 z M 326.24999,271.48899 c -20.24244,-5.8785 7.27966,-19.59373 17.01513,-15.40626 17.70259,1.16426 13.4173,17.31486 -5.40818,17.31486 -3.91481,-0.24811 -7.82581,-0.82832 -11.60695,-1.9086 z m 0,0"
       id="path23-3" />
  </g>
</svg>
