<?xml version="1.0" encoding="UTF-8" standalone="no"?>
<svg
   xmlns:dc="http://purl.org/dc/elements/1.1/"
   xmlns:cc="http://creativecommons.org/ns#"
   xmlns:rdf="http://www.w3.org/1999/02/22-rdf-syntax-ns#"
   xmlns:svg="http://www.w3.org/2000/svg"
   xmlns="http://www.w3.org/2000/svg"
   xmlns:xlink="http://www.w3.org/1999/xlink"
   xmlns:sodipodi="http://sodipodi.sourceforge.net/DTD/sodipodi-0.dtd"
   xmlns:inkscape="http://www.inkscape.org/namespaces/inkscape"
   width="128"
   height="128"
   version="1.1"
   id="svg945"
   sodipodi:docname="instagram.svg"
   inkscape:version="0.92.4 (5da689c313, 2019-01-14)">
  <metadata
     id="metadata949">
    <rdf:RDF>
      <cc:Work
         rdf:about="">
        <dc:format>image/svg+xml</dc:format>
        <dc:type
           rdf:resource="http://purl.org/dc/dcmitype/StillImage" />
        <dc:title></dc:title>
      </cc:Work>
    </rdf:RDF>
  </metadata>
  <sodipodi:namedview
     pagecolor="#ffffff"
     bordercolor="#666666"
     borderopacity="1"
     objecttolerance="10"
     gridtolerance="10"
     guidetolerance="10"
     inkscape:pageopacity="0"
     inkscape:pageshadow="2"
     inkscape:window-width="1366"
     inkscape:window-height="682"
     id="namedview947"
     showgrid="false"
     inkscape:zoom="1.7878788"
     inkscape:cx="2.2372876"
     inkscape:cy="44.745763"
     inkscape:window-x="0"
     inkscape:window-y="0"
     inkscape:window-maximized="1"
     inkscape:current-layer="svg945" />
  <defs
     id="defs937">
    <linearGradient
       id="b">
      <stop
         offset="0"
         stop-color="#3771c8"
         id="stop919" />
      <stop
         stop-color="#3771c8"
         offset=".128"
         id="stop921" />
      <stop
         offset="1"
         stop-color="#60f"
         stop-opacity="0"
         id="stop923" />
    </linearGradient>
    <linearGradient
       id="a">
      <stop
         offset="0"
         stop-color="#fd5"
         id="stop926" />
      <stop
         offset=".1"
         stop-color="#fd5"
         id="stop928" />
      <stop
         offset=".5"
         stop-color="#ff543e"
         id="stop930" />
      <stop
         offset="1"
         stop-color="#c837ab"
         id="stop932" />
    </linearGradient>
    <radialGradient
       id="c"
       cx="158.429"
       cy="578.08801"
       r="65"
       xlink:href="#a"
       gradientUnits="userSpaceOnUse"
       gradientTransform="matrix(0,-1.98198,1.8439,0,-1030.398,455.00398)"
       fx="158.429"
       fy="578.08801" />
    <radialGradient
       id="d"
       cx="147.694"
       cy="473.45499"
       r="65"
       xlink:href="#b"
       gradientUnits="userSpaceOnUse"
       gradientTransform="matrix(0.17394,0.86872003,-3.5818,0.71718,1649.352,-457.49299)"
       fx="147.694"
       fy="473.45499" />
  </defs>
  <path
     d="m 64.018298,8.0000184 c -23.379493,0 -30.217102,0.024121 -31.546207,0.1344112 -4.797869,0.3989257 -7.783401,1.1545586 -11.03596,2.7743874 -2.506607,1.24503 -4.483466,2.688229 -6.434485,4.71129 -3.553181,3.68942 -5.7066237,8.228388 -6.4861693,13.623797 -0.3790063,2.619299 -0.4892619,3.153498 -0.5116583,16.532598 -0.00859,4.459699 0,10.328992 0,18.201535 0,23.366896 0.025835,30.199471 0.1378208,31.526357 0.3876199,4.669916 1.1197901,7.608006 2.6702678,10.821826 2.963138,6.15191 8.622383,10.77015 15.289441,12.49336 2.30849,0.59452 4.858166,0.9219 8.131397,1.07702 1.386818,0.0603 15.522012,0.1034 29.665822,0.1034 14.143808,0 28.287619,-0.0173 29.63998,-0.0862 3.790055,-0.17837 5.990872,-0.47388 8.424263,-1.10288 6.71013,-1.73184 12.26601,-6.28114 15.28944,-12.5192 1.52033,-3.13627 2.29126,-6.18637 2.64012,-10.612462 C 119.96811,94.714259 120,79.328466 120,63.963354 c 0,-15.367695 -0.0346,-30.725055 -0.11021,-31.690058 -0.35317,-4.49761 -1.12409,-7.521867 -2.69351,-10.718442 -1.28777,-2.616738 -2.71765,-4.570871 -4.79358,-6.568948 C 108.69792,11.446444 104.16707,9.2924164 98.767956,8.5135191 96.151967,8.1352727 95.630831,8.0232635 82.245032,8.0000001 Z"
     id="path939"
     inkscape:connector-curvature="0"
     style="fill:url(#c);stroke-width:0.99999994" />
  <path
     d="m 64.018298,8.0000184 c -23.379493,0 -30.217102,0.024121 -31.546207,0.1344112 -4.797869,0.3989257 -7.783401,1.1545586 -11.03596,2.7743874 -2.506607,1.24503 -4.483466,2.688229 -6.434485,4.71129 -3.553181,3.68942 -5.7066237,8.228388 -6.4861693,13.623797 -0.3790063,2.619299 -0.4892619,3.153498 -0.5116583,16.532598 -0.00859,4.459699 0,10.328992 0,18.201535 0,23.366896 0.025835,30.199471 0.1378208,31.526357 0.3876199,4.669916 1.1197901,7.608006 2.6702678,10.821826 2.963138,6.15191 8.622383,10.77015 15.289441,12.49336 2.30849,0.59452 4.858166,0.9219 8.131397,1.07702 1.386818,0.0603 15.522012,0.1034 29.665822,0.1034 14.143808,0 28.287619,-0.0173 29.63998,-0.0862 3.790055,-0.17837 5.990872,-0.47388 8.424263,-1.10288 6.71013,-1.73184 12.26601,-6.28114 15.28944,-12.5192 1.52033,-3.13627 2.29126,-6.18637 2.64012,-10.612462 C 119.96811,94.714259 120,79.328466 120,63.963354 c 0,-15.367695 -0.0346,-30.725055 -0.11021,-31.690058 -0.35317,-4.49761 -1.12409,-7.521867 -2.69351,-10.718442 -1.28777,-2.616738 -2.71765,-4.570871 -4.79358,-6.568948 C 108.69792,11.446444 104.16707,9.2924164 98.767956,8.5135191 96.151967,8.1352727 95.630831,8.0232635 82.245032,8.0000001 Z"
     id="path941"
     inkscape:connector-curvature="0"
     style="fill:url(#d);stroke-width:0.99999994" />
  <path
     d="m 63.992455,22.647411 c -11.228908,0 -12.638122,0.04911 -17.04837,0.249866 -4.401636,0.201618 -7.406118,0.898661 -10.035041,1.921393 -2.719367,1.056336 -5.026135,2.469379 -7.324287,4.769018 -2.299878,2.298779 -3.712536,4.606175 -4.772028,7.325419 -1.025039,2.630499 -1.722755,5.63666 -1.92087,10.037769 -0.197258,4.411451 -0.24894,5.821907 -0.24894,17.053871 0,11.231964 0.04996,12.637253 0.2498,17.048701 0.202425,4.402833 0.899278,7.408132 1.92087,10.03777 1.056911,2.720116 2.469568,5.0275 4.768583,7.326278 2.297292,2.300494 4.60406,3.716984 7.321704,4.773314 2.630644,1.02273 5.635989,1.71976 10.036764,1.92139 4.410249,0.20077 5.818599,0.24987 17.046649,0.24987 11.22977,0 12.634675,-0.0491 17.044926,-0.24987 4.401636,-0.20163 7.409568,-0.89866 10.040205,-1.92139 2.718511,-1.05633 5.021829,-2.47282 7.319125,-4.773314 2.299875,-2.298778 3.712535,-4.606162 4.772025,-7.325417 1.01643,-2.630499 1.71414,-5.636658 1.92088,-10.037768 0.1981,-4.411451 0.2498,-5.8176 0.2498,-17.049564 0,-11.231964 -0.0516,-12.64156 -0.2498,-17.053008 C 104.87771,42.548906 104.18,39.543606 103.16357,36.91397 102.10408,34.193863 100.69142,31.886467 98.391545,29.587688 96.091664,27.287185 93.79179,25.874144 91.069834,24.81867 88.434026,23.795938 85.42782,23.098895 81.026184,22.897277 76.615935,22.696521 75.21189,22.647411 63.979535,22.647411 Z m -3.709089,7.452935 c 1.100841,-0.0017 2.329165,0 3.709089,0 11.039407,0 12.347839,0.03964 16.707267,0.237807 4.031245,0.184385 6.219141,0.858163 7.676587,1.424242 1.92949,0.749602 3.305111,1.645677 4.751358,3.093184 1.447115,1.447508 2.342948,2.826085 3.094065,4.756093 0.565927,1.456125 1.240382,3.644617 1.423857,7.676957 0.198119,4.359751 0.241183,5.669401 0.241183,16.70664 0,11.03724 -0.04303,12.346888 -0.241183,16.706643 -0.184333,4.03234 -0.85793,6.220832 -1.423857,7.676955 -0.749392,1.930008 -1.64695,3.304276 -3.094065,4.750926 -1.447114,1.447501 -2.82101,2.343581 -4.751358,3.09318 -1.455722,0.56866 -3.645342,1.240718 -7.676587,1.425114 -4.358567,0.198169 -5.66786,0.241243 -16.707267,0.241243 -11.040266,0 -12.348699,-0.04298 -16.707267,-0.241243 -4.031242,-0.186116 -6.21914,-0.859892 -7.67745,-1.425974 -1.929484,-0.74961 -3.307687,-1.645679 -4.754801,-3.093179 -1.447114,-1.44752 -2.342945,-2.822647 -3.094066,-4.753515 -0.565925,-1.456123 -1.240384,-3.644615 -1.423856,-7.676956 -0.198117,-4.35975 -0.23774,-5.669401 -0.23774,-16.713532 0,-11.044134 0.03963,-12.346889 0.23774,-16.706642 0.184336,-4.03234 0.857931,-6.220833 1.423856,-7.67868 0.749399,-1.930009 1.646952,-3.308587 3.094066,-4.756092 1.447114,-1.447507 2.825317,-2.343585 4.754801,-3.094908 1.457449,-0.568663 3.646208,-1.240721 7.67745,-1.425967 3.814179,-0.172322 5.292303,-0.224018 12.998178,-0.232636 z m 25.779288,6.867042 c -2.739177,0 -4.961531,2.220374 -4.961531,4.961158 0,2.739922 2.222354,4.96288 4.961531,4.96288 2.73918,0 4.961531,-2.222958 4.961531,-4.96288 0,-2.739925 -2.222351,-4.962881 -4.961531,-4.962881 z m -22.070199,5.798643 c -11.725923,0 -21.232939,9.509603 -21.232939,21.238716 0,11.729115 9.507016,21.234408 21.232939,21.234408 11.725925,0 21.229497,-9.505293 21.229497,-21.234408 0,-11.729113 -9.504433,-21.238716 -21.230357,-21.238716 z m 0,7.452937 c 7.611127,0 13.782032,6.171721 13.782032,13.785779 0,7.613197 -6.170905,13.78578 -13.782032,13.78578 -7.611986,0 -13.782029,-6.172583 -13.782029,-13.78578 0,-7.614058 6.170043,-13.785779 13.782029,-13.785779 z"
     id="path943"
     inkscape:connector-curvature="0"
     style="fill:#ffffff;stroke-width:0.99999994" />
</svg>
