<?xml version="1.0" encoding="UTF-8" standalone="no"?>
<svg
   xmlns:dc="http://purl.org/dc/elements/1.1/"
   xmlns:cc="http://creativecommons.org/ns#"
   xmlns:rdf="http://www.w3.org/1999/02/22-rdf-syntax-ns#"
   xmlns:svg="http://www.w3.org/2000/svg"
   xmlns="http://www.w3.org/2000/svg"
   xmlns:xlink="http://www.w3.org/1999/xlink"
   xmlns:sodipodi="http://sodipodi.sourceforge.net/DTD/sodipodi-0.dtd"
   xmlns:inkscape="http://www.inkscape.org/namespaces/inkscape"
   width="512"
   height="512"
   version="1.1"
   viewBox="0 0 384 384"
   id="svg22"
   sodipodi:docname="io.elementary.code.svg"
   inkscape:version="0.92.4 (5da689c313, 2019-01-14)">
  <metadata
     id="metadata28">
    <rdf:RDF>
      <cc:Work
         rdf:about="">
        <dc:format>image/svg+xml</dc:format>
        <dc:type
           rdf:resource="http://purl.org/dc/dcmitype/StillImage" />
        <dc:title></dc:title>
      </cc:Work>
    </rdf:RDF>
  </metadata>
  <defs
     id="defs26">
    <linearGradient
       inkscape:collect="always"
       id="linearGradient924">
      <stop
         style="stop-color:#ffffff;stop-opacity:1;"
         offset="0"
         id="stop920" />
      <stop
         style="stop-color:#ffffff;stop-opacity:0;"
         offset="1"
         id="stop922" />
    </linearGradient>
    <linearGradient
       inkscape:collect="always"
       id="linearGradient892">
      <stop
         style="stop-color:#000000;stop-opacity:1;"
         offset="0"
         id="stop888" />
      <stop
         style="stop-color:#000000;stop-opacity:0;"
         offset="1"
         id="stop890" />
    </linearGradient>
    <linearGradient
       inkscape:collect="always"
       xlink:href="#linearGradient892"
       id="linearGradient894"
       x1="195.51483"
       y1="364.47458"
       x2="194.18008"
       y2="336.81357"
       gradientUnits="userSpaceOnUse" />
    <linearGradient
       inkscape:collect="always"
       xlink:href="#linearGradient924"
       id="linearGradient926"
       x1="180.87076"
       y1="18.711864"
       x2="180.34958"
       y2="46.372883"
       gradientUnits="userSpaceOnUse" />
  </defs>
  <sodipodi:namedview
     pagecolor="#ffffff"
     bordercolor="#666666"
     borderopacity="1"
     objecttolerance="10"
     gridtolerance="10"
     guidetolerance="10"
     inkscape:pageopacity="0"
     inkscape:pageshadow="2"
     inkscape:window-width="1366"
     inkscape:window-height="682"
     id="namedview24"
     showgrid="false"
     inkscape:zoom="0.65186406"
     inkscape:cx="263.3797"
     inkscape:cy="254.93875"
     inkscape:window-x="0"
     inkscape:window-y="0"
     inkscape:window-maximized="1"
     inkscape:current-layer="svg22" />
  <rect
     style="opacity:1;fill:#f0f0f0;fill-opacity:1;stroke:none;stroke-width:7.49999809;stroke-linecap:round;stroke-linejoin:round;stroke-miterlimit:4;stroke-dasharray:none;stroke-opacity:1;paint-order:stroke fill markers"
     id="rect837"
     width="287.77576"
     height="352.5"
     x="48.112129"
     y="15.75"
     rx="21.279659"
     ry="21.279661" />
  <rect
     style="opacity:0.4;fill:none;fill-opacity:1;stroke:url(#linearGradient926);stroke-width:7.49999952;stroke-linecap:round;stroke-linejoin:round;stroke-miterlimit:4;stroke-dasharray:none;stroke-opacity:1;paint-order:stroke fill markers"
     id="rect837-3-3"
     width="280.67017"
     height="345"
     x="51.664917"
     y="19.5"
     rx="21.279659"
     ry="21.279661" />
  <rect
     style="opacity:0.4;fill:none;fill-opacity:1;stroke:url(#linearGradient894);stroke-width:7.49999952;stroke-linecap:round;stroke-linejoin:round;stroke-miterlimit:4;stroke-dasharray:none;stroke-opacity:1;paint-order:stroke fill markers"
     id="rect837-3"
     width="280.67017"
     height="345"
     x="51.664917"
     y="27"
     rx="21.279659"
     ry="21.279661" />
  <path
     inkscape:connector-curvature="0"
     style="fill:#4a4a4a;stroke-width:0.99999994"
     d="m 174,137.8125 c -10.785,0 -22.707,1.9219 -28.125,5.25 -5.3672,3.2852 -7.875,8.3555 -7.875,15.375 v 15.375 c 0,4.1836 -1.9688,6.9297 -5.25,9 -3.2305,2.0234 -6.0391,3.375 -12.75,3.375 v 12 c 13.219,0 18,4.3789 18,12.75 v 13.125 c 0,7.6953 2.4805,13.453 7.5,16.875 5.0703,3.4648 17.02,5.16019 28.5,5.25 v -12.375 c -5.7148,-0.0898 -17.715,-1.1094 -20.25,-3 -2.5352,-1.8906 -3.75,-4.5586 -3.75,-8.25 v -14.25 c 0,-3.6797 -1.3672,-14.504 -12.75,-16.125 v -0.75 c 11.383,-1.7539 12.75,-10.48 12.75,-15.75 v -14.25 c 0,-3.6914 1.2148,-6.0312 3.75,-7.875 2.5859,-1.8906 14.586,-3.1484 20.25,-3.375 z m 36,0 v 12.375 c 5.66409,0.22656 17.664,1.4844 20.25,3.375 2.53519,1.8438 3.75,4.1836 3.75,7.875 v 14.25 c 0,5.2695 1.3672,13.996 12.75,15.75 v 0.75 c -11.383,1.6211 -12.75,12.445 -12.75,16.125 v 14.25 c 0,3.6914 -1.21481,6.3594 -3.75,8.25 -2.5352,1.8906 -14.535,2.9102 -20.25,3 v 12.375 c 11.48,-0.0898 23.43,-1.7852 28.5,-5.25 5.01949,-3.4219 7.5,-9.1797 7.5,-16.875 v -13.125 c 0,-8.3711 4.7812,-12.75 18,-12.75 v -12 c -6.7109,0 -9.5195,-1.3516 -12.75,-3.375 -3.2812,-2.0703 -5.25,-4.8164 -5.25,-9 v -15.375 c 0,-7.0195 -2.5078,-12.09 -7.875,-15.375 -5.418,-3.3281 -17.34,-5.25 -28.125,-5.25 z"
     id="path30" />
</svg>
