<?xml version="1.0" encoding="UTF-8" standalone="no"?>
<svg
   xmlns:dc="http://purl.org/dc/elements/1.1/"
   xmlns:cc="http://creativecommons.org/ns#"
   xmlns:rdf="http://www.w3.org/1999/02/22-rdf-syntax-ns#"
   xmlns:svg="http://www.w3.org/2000/svg"
   xmlns="http://www.w3.org/2000/svg"
   xmlns:sodipodi="http://sodipodi.sourceforge.net/DTD/sodipodi-0.dtd"
   xmlns:inkscape="http://www.inkscape.org/namespaces/inkscape"
   width="512"
   height="512"
   version="1.1"
   viewBox="0 0 384 384"
   id="svg16"
   sodipodi:docname="dvd9548.svg"
   inkscape:version="0.92.4 (5da689c313, 2019-01-14)">
  <metadata
     id="metadata22">
    <rdf:RDF>
      <cc:Work
         rdf:about="">
        <dc:format>image/svg+xml</dc:format>
        <dc:type
           rdf:resource="http://purl.org/dc/dcmitype/StillImage" />
      </cc:Work>
    </rdf:RDF>
  </metadata>
  <defs
     id="defs20" />
  <sodipodi:namedview
     pagecolor="#ffffff"
     bordercolor="#666666"
     borderopacity="1"
     objecttolerance="10"
     gridtolerance="10"
     guidetolerance="10"
     inkscape:pageopacity="0"
     inkscape:pageshadow="2"
     inkscape:window-width="1366"
     inkscape:window-height="682"
     id="namedview18"
     showgrid="false"
     inkscape:zoom="0.4609375"
     inkscape:cx="632.2684"
     inkscape:cy="256"
     inkscape:window-x="0"
     inkscape:window-y="0"
     inkscape:window-maximized="1"
     inkscape:current-layer="g6" />
  <g
     transform="translate(.005 .001)"
     id="g6">
    <path
       d="m192 33.059c-87.781 0-158.95 71.16-158.95 158.94s71.164 158.94 158.95 158.94c87.777 0 158.94-71.16 158.94-158.94s-71.164-158.94-158.94-158.94zm0 115.59c23.941 0 43.348 19.406 43.348 43.348 0 23.941-19.406 43.348-43.348 43.348-23.945 0-43.348-19.406-43.348-43.348 0-23.941 19.402-43.348 43.348-43.348z"
       fill="#e6e6e6"
       stroke="#ccc"
       stroke-width="1.9868"
       id="path2"
       style="stroke:#000000;stroke-opacity:0.58823532" />
    <path
       d="m192 124.14c-37.48 0-67.863 30.379-67.863 67.859s30.383 67.859 67.863 67.859c37.477 0 67.859-30.379 67.859-67.859s-30.383-67.859-67.859-67.859zm0 31.848c19.887 0 36.012 16.125 36.012 36.012s-16.125 36.012-36.012 36.012-36.016-16.125-36.016-36.012 16.129-36.012 36.016-36.012z"
       fill="#fff"
       stroke="#e6e6e6"
       stroke-width="3.5188"
       id="path4"
       style="stroke:#000000;stroke-opacity:0.58823532" />
  </g>
  <path
     d="m384 282c0 53.02-42.98 96-96 96s-96-42.98-96-96 42.98-96 96-96 96 42.98 96 96z"
     opacity=".3"
     id="path8" />
  <path
     d="m384 276c0 53.02-42.98 96-96 96s-96-42.98-96-96 42.98-96 96-96 96 42.98 96 96z"
     fill="#fd4747"
     id="path10" />
  <path
     d="m288 223.5c-33.137 0-60 26.863-60 60 0 33.137 26.863 60 60 60s60-26.863 60-60c0-33.137-26.863-60-60-60zm0 36c13.254 0 24 10.746 24 24s-10.746 24-24 24-24-10.746-24-24 10.746-24 24-24z"
     opacity=".3"
     id="path12" />
  <path
     d="m288 216c-33.137 0-60 26.863-60 60s26.863 60 60 60 60-26.863 60-60-26.863-60-60-60zm0 36c13.254 0 24 10.746 24 24s-10.746 24-24 24-24-10.746-24-24 10.746-24 24-24z"
     fill="#fff"
     id="path14" />
</svg>
