<?xml version="1.0" encoding="UTF-8" standalone="no"?>
<svg
   xmlns:dc="http://purl.org/dc/elements/1.1/"
   xmlns:cc="http://creativecommons.org/ns#"
   xmlns:rdf="http://www.w3.org/1999/02/22-rdf-syntax-ns#"
   xmlns:svg="http://www.w3.org/2000/svg"
   xmlns="http://www.w3.org/2000/svg"
   xmlns:sodipodi="http://sodipodi.sourceforge.net/DTD/sodipodi-0.dtd"
   xmlns:inkscape="http://www.inkscape.org/namespaces/inkscape"
   width="512"
   height="512"
   version="1.1"
   viewBox="0 0 384 384"
   id="svg56"
   sodipodi:docname="gtk3-widget-factory.svg"
   inkscape:version="0.92.4 (5da689c313, 2019-01-14)">
  <metadata
     id="metadata60">
    <rdf:RDF>
      <cc:Work
         rdf:about="">
        <dc:format>image/svg+xml</dc:format>
        <dc:type
           rdf:resource="http://purl.org/dc/dcmitype/StillImage" />
      </cc:Work>
    </rdf:RDF>
  </metadata>
  <sodipodi:namedview
     pagecolor="#ffffff"
     bordercolor="#666666"
     borderopacity="1"
     objecttolerance="10"
     gridtolerance="10"
     guidetolerance="10"
     inkscape:pageopacity="0"
     inkscape:pageshadow="2"
     inkscape:window-width="1366"
     inkscape:window-height="682"
     id="namedview58"
     showgrid="false"
     inkscape:zoom="1.0664062"
     inkscape:cx="256"
     inkscape:cy="282.20705"
     inkscape:window-x="0"
     inkscape:window-y="0"
     inkscape:window-maximized="1"
     inkscape:current-layer="svg56" />
  <defs
     id="defs16">
    <filter
       id="d"
       x="0"
       y="0"
       width="1"
       height="1">
      <feColorMatrix
         in="SourceGraphic"
         values="0 0 0 0 1 0 0 0 0 1 0 0 0 0 1 0 0 0 1 0"
         id="feColorMatrix2" />
    </filter>
    <mask
       id="b">
      <g
         filter="url(#d)"
         id="g7">
        <rect
           width="384"
           height="384"
           fill-opacity=".2"
           id="rect5" />
      </g>
    </mask>
    <clipPath
       id="c">
      <rect
         width="384"
         height="384"
         id="rect10" />
    </clipPath>
    <g
       id="a"
       clip-path="url(#c)">
      <path
         d="m70.398 252.6h243.2c7.0703 0 12.797 6.2344 12.797 13.93v5.7383c0 7.6914-5.7266 13.93-12.797 13.93h-243.2c-7.0703 0-12.797-6.2383-12.797-13.93v-5.7383c0-7.6953 5.7266-13.93 12.797-13.93z"
         id="path13" />
    </g>
  </defs>
  <path
     d="M 32.148585,68.415606 V 313.7551 c 0,9.16782 7.088746,16.53386 15.904546,16.53386 H 334.32738 c 8.81192,0 15.89698,-7.36604 15.89698,-16.53386 V 68.415606 Z"
     id="path22"
     style="fill:#f0f0f0;fill-opacity:1;stroke-width:1"
     inkscape:connector-curvature="0" />
  <path
     d="m 48.053131,32.705333 c -8.819304,0 -15.904546,8.535767 -15.904546,19.144787 V 74.064689 H 350.22057 V 51.85012 c 0,-10.609136 -7.08506,-19.144787 -15.90454,-19.144787 z"
     id="path24"
     style="fill:#8c8c8c;fill-opacity:1;stroke-width:1"
     inkscape:connector-curvature="0" />
  <path
     d="m 130.8077,107.42908 h 161.30793 c 4.68778,0 8.48921,4.63203 8.48921,10.34706 v 4.25567 c 0,5.71492 -3.80143,10.34704 -8.48921,10.34704 H 130.8077 c -4.68778,0 -8.48921,-4.63201 -8.48921,-10.34704 v -4.25567 c 0,-5.71495 3.80143,-10.34706 8.48921,-10.34706 z"
     id="path26"
     style="opacity:0.3;fill:#747474;fill-opacity:1;stroke-width:0.84463"
     inkscape:connector-curvature="0" />
  <path
     d="m 126.26987,107.42908 h 75.08238 c 2.18196,0 3.95138,4.63203 3.95138,10.34706 v 4.25567 c 0,5.71492 -1.76942,10.34704 -3.95138,10.34704 h -75.08238 c -2.18196,0 -3.95138,-4.63201 -3.95138,-10.34704 v -4.25567 c 0,-5.71495 1.76942,-10.34706 3.95138,-10.34706 z"
     id="path28"
     style="fill:#2861bf;fill-opacity:1;stroke-width:0.84463"
     inkscape:connector-curvature="0" />
  <path
     d="m 83.267296,164.38697 c -11.32942,0 -20.58948,9.70337 -20.58948,21.57496 0,11.87158 9.260154,21.57495 20.58948,21.57495 11.329422,0 20.589484,-9.70337 20.589484,-21.57495 0,-11.87159 -9.260157,-21.57496 -20.589484,-21.57496 z"
     dominant-baseline="auto"
     style="color:#000000;font-variant-ligatures:normal;font-variant-position:normal;font-variant-caps:normal;font-variant-numeric:normal;font-variant-alternates:normal;font-feature-settings:normal;text-indent:0;text-decoration:none;text-decoration-line:none;text-decoration-style:solid;text-decoration-color:#000000;text-transform:none;text-orientation:mixed;dominant-baseline:auto;white-space:normal;shape-padding:0;opacity:0.3;isolation:auto;mix-blend-mode:normal;solid-color:#000000;stroke-width:1;color-rendering:auto;image-rendering:auto;shape-rendering:auto"
     id="path30"
     inkscape:connector-curvature="0" />
  <path
     d="m 100.30687,181.49814 c 0,9.86139 -7.628619,17.85514 -17.039574,17.85514 -9.410954,0 -17.03957,-7.99375 -17.03957,-17.85514 0,-9.86139 7.628616,-17.85514 17.03957,-17.85514 9.410955,0 17.039574,7.99375 17.039574,17.85514 z"
     id="path32"
     inkscape:connector-curvature="0"
     style="fill:#2861bf;stroke:#ffffff;stroke-width:7.5" />
  <path
     d="m 71.589511,104.86984 c -5.056776,0 -8.91179,4.62767 -8.91179,9.85754 v 23.43485 c 0,5.22987 3.855014,9.85754 8.91179,9.85754 h 23.355572 c 5.056777,0 8.911787,-4.62767 8.911787,-9.85754 v -23.43485 c 0,-5.22987 -3.85501,-9.85754 -8.911787,-9.85754 z"
     dominant-baseline="auto"
     style="color:#000000;font-variant-ligatures:normal;font-variant-position:normal;font-variant-caps:normal;font-variant-numeric:normal;font-variant-alternates:normal;font-feature-settings:normal;text-indent:0;text-decoration:none;text-decoration-line:none;text-decoration-style:solid;text-decoration-color:#000000;text-transform:none;text-orientation:mixed;dominant-baseline:auto;white-space:normal;shape-padding:0;opacity:0.3;isolation:auto;mix-blend-mode:normal;solid-color:#000000;stroke-width:1;color-rendering:auto;image-rendering:auto;shape-rendering:auto"
     id="path34"
     inkscape:connector-curvature="0" />
  <path
     d="m 71.589511,104.12588 h 23.355572 c 2.96195,0 5.361877,2.74722 5.361877,6.1377 v 23.43487 c 0,3.39049 -2.399927,6.13771 -5.361877,6.13771 H 71.589511 c -2.961951,0 -5.36188,-2.74722 -5.36188,-6.13771 v -23.43487 c 0,-3.39048 2.399929,-6.1377 5.36188,-6.1377 z"
     id="path36"
     inkscape:connector-curvature="0"
     style="fill:#ffffff;stroke:#000000;stroke-width:7.5" />
  <path
     d="M 113.89119,81.389346 C 111.69101,81.28472 109.5869,82.3193 108.25573,84.156 100.60866,94.42468 92.628552,108.29218 85.029851,120.68364 l -9.052272,-16.27396 c -1.859964,-3.34783 -5.960915,-4.47539 -9.152143,-2.52254 -3.191228,1.94899 -4.270968,6.24237 -2.407312,9.5902 L 78.862,137.42284 c 1.161152,2.08071 3.257776,3.39048 5.554142,3.47182 2.296367,0.0776 4.474402,-1.08498 5.761174,-3.07663 9.399879,-14.61939 20.042324,-33.5131 28.620794,-45.03264 1.5827,-2.05751 1.92661,-4.874553 0.89118,-7.280731 -1.03543,-2.410146 -3.27993,-4.002725 -5.79819,-4.122753 z"
     id="path38"
     inkscape:connector-curvature="0"
     style="fill:#2861bf;fill-rule:evenodd;stroke-width:1" />
  <path
     d="m 83.267296,223.9041 c -11.32942,0 -20.58948,9.70337 -20.58948,21.57495 0,11.87168 9.260154,21.57495 20.58948,21.57495 11.329422,0 20.589484,-9.70337 20.589484,-21.57495 0,-11.87169 -9.260157,-21.57495 -20.589484,-21.57495 z"
     dominant-baseline="auto"
     style="color:#000000;font-variant-ligatures:normal;font-variant-position:normal;font-variant-caps:normal;font-variant-numeric:normal;font-variant-alternates:normal;font-feature-settings:normal;text-indent:0;text-decoration:none;text-decoration-line:none;text-decoration-style:solid;text-decoration-color:#000000;text-transform:none;text-orientation:mixed;dominant-baseline:auto;white-space:normal;shape-padding:0;opacity:0.3;isolation:auto;mix-blend-mode:normal;solid-color:#000000;stroke-width:1;color-rendering:auto;image-rendering:auto;shape-rendering:auto"
     id="path40"
     inkscape:connector-curvature="0" />
  <path
     d="m 100.30687,241.01527 c 0,9.86138 -7.628619,17.85512 -17.039574,17.85512 -9.410954,0 -17.03957,-7.99374 -17.03957,-17.85512 0,-9.8614 7.628616,-17.85515 17.03957,-17.85515 9.410955,0 17.039574,7.99375 17.039574,17.85515 z"
     id="path42"
     style="fill:#747474;fill-opacity:1;stroke:#ffffff;stroke-width:7.5"
     inkscape:connector-curvature="0" />
  <g
     id="g52"
     style="fill:#2861bf;fill-opacity:1;stroke-width:0.87162185"
     transform="matrix(0.94664281,0,0,0.991952,9.4291577,-5.9807954)">
    <path
       d="m 128.22,175.45 h 170.4 c 4.952,0 8.9677,4.6696 8.9677,10.431 v 4.2902 c 0,5.7613 -4.0157,10.431 -8.9677,10.431 h -170.4 c -4.952,0 -8.9677,-4.6696 -8.9677,-10.431 v -4.2902 c 0,-5.7613 4.0157,-10.431 8.9677,-10.431 z"
       id="path44"
       style="opacity:0.3;fill:#747474;fill-opacity:1;stroke-width:0.87162185"
       inkscape:connector-curvature="0" />
    <path
       d="m 125.06992,175.45 h 110.54373 c 3.21251,0 5.81762,4.6696 5.81762,10.431 v 4.2902 c 0,5.7613 -2.60511,10.431 -5.81762,10.431 H 125.06992 c -3.21251,0 -5.81762,-4.6696 -5.81762,-10.431 v -4.2902 c 0,-5.7613 2.60511,-10.431 5.81762,-10.431 z"
       id="path46"
       style="fill:#2861bf;fill-opacity:1;stroke-width:0.87162191"
       inkscape:connector-curvature="0" />
    <path
       d="m 128.22,235.45 h 170.4 c 4.952,0 8.9677,4.6696 8.9677,10.431 v 4.2902 c 0,5.7613 -4.0157,10.431 -8.9677,10.431 h -170.4 c -4.952,0 -8.9677,-4.6696 -8.9677,-10.431 v -4.2902 c 0,-5.7613 4.0157,-10.431 8.9677,-10.431 z"
       id="path48"
       style="opacity:0.3;fill:#747474;fill-opacity:1;stroke-width:0.87162185"
       inkscape:connector-curvature="0" />
    <path
       d="m 125.60407,235.45 h 120.69326 c 3.50747,0 6.35177,4.6696 6.35177,10.431 v 4.2902 c 0,5.7613 -2.8443,10.431 -6.35177,10.431 H 125.60407 c -3.50747,0 -6.35177,-4.6696 -6.35177,-10.431 v -4.2902 c 0,-5.7613 2.8443,-10.431 6.35177,-10.431 z"
       id="path50"
       style="fill:#2861bf;fill-opacity:1;stroke-width:0.87162185"
       inkscape:connector-curvature="0" />
  </g>
  <path
     d="m 32.148585,306.32043 v 7.43963 c 0,9.16787 7.088248,16.53461 15.903599,16.53461 H 334.32407 c 8.81158,0 15.89721,-7.36653 15.89721,-16.53461 v -7.43963 c 0,9.16786 -7.08505,16.53459 -15.89721,16.53459 H 48.052184 c -8.815848,0 -15.903599,-7.36651 -15.903599,-16.53459 z"
     id="path54"
     inkscape:connector-curvature="0"
     style="opacity:0.3;stroke-width:0.99997514" />
  <path
     inkscape:connector-curvature="0"
     style="fill:#2861bf;fill-rule:evenodd;stroke-width:1"
     d="m 113.11476,132.89863 c -2.20018,-0.10462 -4.30429,0.92995 -5.63546,2.76666 -7.647071,10.26867 -15.627174,24.13618 -23.225877,36.52763 l -9.052271,-16.27396 c -1.859964,-3.34784 -5.960915,-4.47539 -9.152143,-2.52253 -3.191227,1.94898 -4.270968,6.24234 -2.407313,9.59019 l 14.443876,25.9455 c 1.161153,2.08072 3.257777,3.39049 5.554143,3.47182 2.296366,0.0776 4.474402,-1.085 5.761174,-3.07663 9.399878,-14.61939 20.042321,-33.5131 28.620801,-45.03264 1.58269,-2.05751 1.92661,-4.87454 0.89117,-7.28074 -1.03543,-2.41014 -3.27992,-4.00271 -5.79818,-4.12274 z"
     id="path38-3" />
  <ellipse
     style="opacity:1;fill:#000000;fill-opacity:0.58823529;stroke:none;stroke-width:7.49999905;stroke-linecap:round;stroke-linejoin:round;stroke-miterlimit:4;stroke-dasharray:none;stroke-opacity:1;paint-order:stroke fill markers"
     id="path839-3"
     cx="245.64864"
     cy="245.25206"
     rx="29.819248"
     ry="31.246489" />
  <ellipse
     style="opacity:1;fill:#ffffff;fill-opacity:1;stroke:none;stroke-width:7.49999952;stroke-linecap:round;stroke-linejoin:round;stroke-miterlimit:4;stroke-dasharray:none;stroke-opacity:1;paint-order:stroke fill markers"
     id="path839"
     cx="245.64864"
     cy="241.19183"
     rx="29.819248"
     ry="31.246489" />
</svg>
