<?xml version="1.0" encoding="UTF-8" standalone="no"?>
<svg
   xmlns:dc="http://purl.org/dc/elements/1.1/"
   xmlns:cc="http://creativecommons.org/ns#"
   xmlns:rdf="http://www.w3.org/1999/02/22-rdf-syntax-ns#"
   xmlns:svg="http://www.w3.org/2000/svg"
   xmlns="http://www.w3.org/2000/svg"
   xmlns:xlink="http://www.w3.org/1999/xlink"
   xmlns:sodipodi="http://sodipodi.sourceforge.net/DTD/sodipodi-0.dtd"
   xmlns:inkscape="http://www.inkscape.org/namespaces/inkscape"
   width="512"
   height="512"
   version="1.1"
   viewBox="0 0 384 384"
   id="svg37"
   sodipodi:docname="lmms.svg"
   inkscape:version="0.92.4 (5da689c313, 2019-01-14)">
  <metadata
     id="metadata41">
    <rdf:RDF>
      <cc:Work
         rdf:about="">
        <dc:format>image/svg+xml</dc:format>
        <dc:type
           rdf:resource="http://purl.org/dc/dcmitype/StillImage" />
      </cc:Work>
    </rdf:RDF>
  </metadata>
  <sodipodi:namedview
     pagecolor="#ffffff"
     bordercolor="#666666"
     borderopacity="1"
     objecttolerance="10"
     gridtolerance="10"
     guidetolerance="10"
     inkscape:pageopacity="0"
     inkscape:pageshadow="2"
     inkscape:window-width="1366"
     inkscape:window-height="682"
     id="namedview39"
     showgrid="false"
     inkscape:zoom="0.4609375"
     inkscape:cx="317.3772"
     inkscape:cy="240.81356"
     inkscape:window-x="0"
     inkscape:window-y="0"
     inkscape:window-maximized="1"
     inkscape:current-layer="g35" />
  <defs
     id="defs27">
    <filter
       id="alpha"
       width="100%"
       height="100%"
       x="0%"
       y="0%"
       filterUnits="objectBoundingBox">
      <feColorMatrix
         in="SourceGraphic"
         type="matrix"
         values="0 0 0 0 1 0 0 0 0 1 0 0 0 0 1 0 0 0 1 0"
         id="feColorMatrix2" />
    </filter>
    <mask
       id="mask0">
      <g
         filter="url(#alpha)"
         id="g7">
        <rect
           width="384"
           height="384"
           x="0"
           y="0"
           style="fill:rgb(0%,0%,0%);fill-opacity:0.2"
           id="rect5" />
      </g>
    </mask>
    <clipPath
       id="clip1">
      <rect
         width="384"
         height="384"
         x="0"
         y="0"
         id="rect10" />
    </clipPath>
    <g
       id="surface5"
       clip-path="url(#clip1)">
      <path
         style="fill:rgb(100.000%,100.000%,100.000%)"
         d="M 192 48 L 40 140 L 40.015625 147.984375 L 192 56 L 344 152 L 344 144 Z M 40.160156 203.359375 L 40.003906 320 L 40.019531 320 L 40.160156 205.9375 Z M 96.003906 224 L 96.003906 232 L 144.003906 272 L 144.003906 264 Z M 280.003906 224 L 240.003906 264 L 240.003906 272 L 280.003906 232 Z M 280.003906 224"
         id="path13" />
    </g>
    <mask
       id="mask1">
      <g
         filter="url(#alpha)"
         id="g18">
        <rect
           width="384"
           height="384"
           x="0"
           y="0"
           style="fill:rgb(0%,0%,0%);fill-opacity:0.2"
           id="rect16" />
      </g>
    </mask>
    <clipPath
       id="clip2">
      <rect
         width="384"
         height="384"
         x="0"
         y="0"
         id="rect21" />
    </clipPath>
    <g
       id="surface8"
       clip-path="url(#clip2)">
      <path
         style="fill:rgb(0%,0%,0%)"
         d="M 192 112 L 96 176 L 96 184 L 192 120 L 280 184 L 280 176 Z M 40.015625 147.984375 L 40 148 L 40.15625 203.359375 L 40.15625 197.9375 Z M 40.015625 320 L 40 328 L 90.671875 352 L 144 328 L 144 320 L 90.671875 344 Z M 240 320 L 240 328 L 293.328125 352 L 344 328 L 344 320 L 293.328125 344 Z M 240 320"
         id="path24" />
    </g>
  </defs>
  <g
     id="g35">
    <path
       style="fill:#00c46a;fill-opacity:1"
       d="M 40 320 L 40.148438 197.9375 L 40 140 L 192 48 L 344 144 L 344 320 L 293.335938 344 L 240 320 L 240 264 L 280 224 L 280 176 L 192 112 L 96 176 L 96 224 L 144 264 L 144 320 L 90.667969 344 Z M 40 320"
       id="path29" />
    <use
       mask="url(#mask0)"
       xlink:href="#surface5"
       id="use31" />
    <use
       mask="url(#mask1)"
       xlink:href="#surface8"
       id="use33" />
  </g>
</svg>
