<?xml version="1.0" encoding="UTF-8" standalone="no"?>
<svg
   xmlns:dc="http://purl.org/dc/elements/1.1/"
   xmlns:cc="http://creativecommons.org/ns#"
   xmlns:rdf="http://www.w3.org/1999/02/22-rdf-syntax-ns#"
   xmlns:svg="http://www.w3.org/2000/svg"
   xmlns="http://www.w3.org/2000/svg"
   xmlns:sodipodi="http://sodipodi.sourceforge.net/DTD/sodipodi-0.dtd"
   xmlns:inkscape="http://www.inkscape.org/namespaces/inkscape"
   width="512"
   height="512"
   version="1.1"
   viewBox="0 0 384 384"
   id="svg38"
   sodipodi:docname="lollypop.svg"
   inkscape:version="0.92.4 (5da689c313, 2019-01-14)">
  <metadata
     id="metadata42">
    <rdf:RDF>
      <cc:Work
         rdf:about="">
        <dc:format>image/svg+xml</dc:format>
        <dc:type
           rdf:resource="http://purl.org/dc/dcmitype/StillImage" />
      </cc:Work>
    </rdf:RDF>
  </metadata>
  <sodipodi:namedview
     pagecolor="#ffffff"
     bordercolor="#666666"
     borderopacity="1"
     objecttolerance="10"
     gridtolerance="10"
     guidetolerance="10"
     inkscape:pageopacity="0"
     inkscape:pageshadow="2"
     inkscape:window-width="1366"
     inkscape:window-height="682"
     id="namedview40"
     showgrid="false"
     inkscape:zoom="0.4609375"
     inkscape:cx="189.83051"
     inkscape:cy="195.25424"
     inkscape:window-x="0"
     inkscape:window-y="0"
     inkscape:window-maximized="1"
     inkscape:current-layer="svg38" />
  <defs
     id="defs14">
    <clipPath
       id="clipPath4">
      <rect
         width="384"
         height="384"
         id="rect2" />
    </clipPath>
    <clipPath
       id="clipPath8">
      <rect
         width="384"
         height="384"
         id="rect6" />
    </clipPath>
    <clipPath
       id="clipPath12">
      <rect
         width="384"
         height="384"
         id="rect10" />
    </clipPath>
  </defs>
  <path
     d="m360.74 192c0 93.195-75.547 168.75-168.74 168.75-93.195 0-168.75-75.551-168.75-168.75 0-93.195 75.551-168.75 168.75-168.75 93.195 0 168.74 75.551 168.74 168.75z"
     fill="#fff"
     id="path16" />
  <g
     fill="#b8174a"
     fill-rule="evenodd"
     id="g26">
    <path
       d="m145.95 354.34s20.664 6.4062 46.047 6.4062c25.383 0 46.168-6.4062 46.168-6.4062 7.5234-8.9336 23.414-54.957 15.191-85.637-8.2188-30.684-23.008-46.023-38.348-76.703-15.344-30.684-23.012-53.691-23.012-76.703s30.762-76.785 46.078-85.629c0 0-20.551-6.4141-46.07-6.4141-25.523 0-46.031 6.3984-46.031 6.3984-15.379 8.9141-21.504 62.633-15.34 85.645 6.168 23.012 23.012 46.02 38.352 76.703 15.34 30.68 23.012 53.691 23.012 76.703 0 23.008-38.352 76.703-46.047 85.637z"
       id="path18"
       style="fill:#f5175c;fill-opacity:1" />
    <path
       d="m309.42 313.18s15.473-14 28.656-36.836c13.188-22.84 17.508-42.961 17.508-42.961-3.9766-10.984-35.855-47.98-66.539-56.203-30.68-8.2188-51.359-3.082-85.602-5.1367-34.238-2.0586-58.004-6.918-77.93-18.426-19.93-11.504-51.16-64.914-51.16-82.602 0 0-17.047 16.652-28.551 36.574-11.5 19.922-17.406 43.035-17.406 43.035 0.03516 17.777 43.426 49.969 66.434 56.137 23.012 6.1641 51.363 3.082 85.605 5.1367 34.238 2.0547 58.004 6.918 77.93 18.422 19.93 11.508 47.164 71.727 51.055 82.859z"
       id="path20"
       style="fill:#f5175c;fill-opacity:1" />
    <path
       d="m355.59 149.89s-6.5039-24.074-17.477-43.082c-10.973-19.004-29.27-36.562-29.27-36.562-11.504-2.0469-58.664 6.9844-81.125 29.445-22.457 22.457-28.348 42.937-47.25 71.562-18.898 28.625-34.992 46.773-54.922 58.277-19.926 11.508-82.047 11.801-97.367 2.957 0 0 3.9375 20.07 17.309 43.23 13.371 23.16 28.418 36.816 28.418 36.816 15.414 8.8594 65.48-13.016 82.324-29.859 16.844-16.848 28.352-42.941 47.25-71.566s34.992-46.773 54.922-58.277c19.926-11.508 85.602-5.1406 97.188-2.9414z"
       id="path22"
       style="fill:#f5175c;fill-opacity:1" />
    <path
       d="m238.02 192-76.703-53.691v107.38z"
       id="path24"
       style="fill:#f5175c;fill-opacity:1" />
  </g>
  <path
     d="m192 115.12c-46.602 0-84.375 37.777-84.375 84.375 0 46.598 37.773 84.375 84.375 84.375 46.598 0 84.372-37.777 84.372-84.375 0-46.598-37.774-84.375-84.372-84.375zm-30.683 30.684 76.702 53.691-76.702 53.692z"
     opacity=".3"
     id="path28" />
  <path
     transform="scale(.75)"
     d="m255.99 143.49c-62.135 0-112.5 50.37-112.5 112.5 0 62.13 50.365 112.5 112.5 112.5 62.13 0 112.5-50.37 112.5-112.5 0-62.13-50.366-112.5-112.5-112.5zm-40.91 40.912l102.27 71.588-102.27 71.59v-143.18z"
     fill="#fff"
     stroke-width="1.3333"
     id="path30" />
  <path
     transform="scale(.75)"
     d="m255.99 31c-124.26 0-224.99 100.73-224.99 224.99 0 1.6713 0.028195 3.3374 0.064453 5 2.6604-121.95 102.34-219.99 224.93-219.99 122.59 0 222.27 98.044 224.93 219.99 0.03626-1.6626 0.06446-3.3287 0.06446-5 0-124.26-100.73-224.99-224.99-224.99z"
     fill="#fff"
     opacity=".3"
     stroke-width="1.3333"
     id="path34" />
  <path
     transform="scale(.75)"
     d="m31.064 250.99c-0.036282 1.6632-0.064453 3.3282-0.064453 5 0 124.26 100.73 225 224.99 225 124.26 0 224.99-100.74 224.99-225 0-1.6718-0.02818-3.3368-0.06446-5-2.6594 121.95-102.34 220-224.93 220-122.59 0-222.27-98.045-224.93-220z"
     opacity=".3"
     stroke-width="1.3333"
     id="path36" />
</svg>
