<?xml version="1.0" encoding="UTF-8" standalone="no"?>
<svg
   xmlns:dc="http://purl.org/dc/elements/1.1/"
   xmlns:cc="http://creativecommons.org/ns#"
   xmlns:rdf="http://www.w3.org/1999/02/22-rdf-syntax-ns#"
   xmlns:svg="http://www.w3.org/2000/svg"
   xmlns="http://www.w3.org/2000/svg"
   xmlns:sodipodi="http://sodipodi.sourceforge.net/DTD/sodipodi-0.dtd"
   xmlns:inkscape="http://www.inkscape.org/namespaces/inkscape"
   width="512"
   height="512"
   version="1.1"
   viewBox="0 0 384 384"
   id="svg32"
   sodipodi:docname="com.makemkv.MakeMKV.svg"
   inkscape:version="0.92.4 (5da689c313, 2019-01-14)">
  <metadata
     id="metadata38">
    <rdf:RDF>
      <cc:Work
         rdf:about="">
        <dc:format>image/svg+xml</dc:format>
        <dc:type
           rdf:resource="http://purl.org/dc/dcmitype/StillImage" />
      </cc:Work>
    </rdf:RDF>
  </metadata>
  <defs
     id="defs36" />
  <sodipodi:namedview
     pagecolor="#ffffff"
     bordercolor="#666666"
     borderopacity="1"
     objecttolerance="10"
     gridtolerance="10"
     guidetolerance="10"
     inkscape:pageopacity="0"
     inkscape:pageshadow="2"
     inkscape:window-width="1366"
     inkscape:window-height="682"
     id="namedview34"
     showgrid="false"
     inkscape:zoom="0.4609375"
     inkscape:cx="27.118644"
     inkscape:cy="256"
     inkscape:window-x="0"
     inkscape:window-y="0"
     inkscape:window-maximized="1"
     inkscape:current-layer="g6" />
  <g
     transform="translate(.005 .001)"
     id="g6">
    <path
       d="m192 33.059c-87.781 0-158.95 71.16-158.95 158.94s71.164 158.94 158.95 158.94c87.777 0 158.94-71.16 158.94-158.94s-71.164-158.94-158.94-158.94zm0 115.59c23.941 0 43.348 19.406 43.348 43.348 0 23.941-19.406 43.348-43.348 43.348-23.945 0-43.348-19.406-43.348-43.348 0-23.941 19.402-43.348 43.348-43.348z"
       fill="#e6e6e6"
       stroke="#ccc"
       stroke-width="1.9868"
       id="path2"
       style="stroke:#000000;stroke-opacity:0.58823532" />
    <path
       d="m192 124.14c-37.48 0-67.863 30.379-67.863 67.859s30.383 67.859 67.863 67.859c37.477 0 67.859-30.379 67.859-67.859s-30.383-67.859-67.859-67.859zm0 31.848c19.887 0 36.012 16.125 36.012 36.012s-16.125 36.012-36.012 36.012-36.016-16.125-36.016-36.012 16.129-36.012 36.016-36.012z"
       fill="#fff"
       stroke="#e6e6e6"
       stroke-width="3.5188"
       id="path4"
       style="stroke:#000000;stroke-opacity:0.58823532" />
  </g>
  <g
     transform="translate(-4.9239)"
     id="g26">
    <rect
       x="75.541"
       y="237.4"
       width="242.77"
       height="120.81"
       rx="17.898"
       ry="17.898"
       fill="#0aa15c"
       style="paint-order:normal"
       id="rect8" />
    <g
       transform="matrix(1.1765 0 0 1.1765 -299.63 -201.23)"
       opacity=".3"
       stroke-width="1.792"
       aria-label="MKV"
       id="g16">
      <path
         d="m347.52 455.41h12.042v-27.955l10.322 20.286h9.3901l10.537-21.576v29.246h12.042v-49.746h-11.827l-14.838 29.031-15.698-29.031h-11.971z"
         id="path10" />
      <path
         d="m411.58 455.41h12.759v-24.586l15.77 24.586h16.63l-18.207-26.808 17.06-22.938h-14.981l-16.271 22.436v-22.436h-12.759z"
         id="path12" />
      <path
         d="m473.26 455.41h13.261l17.705-49.746h-12.831l-10.967 34.98-10.25-34.98h-14.479z"
         id="path14" />
    </g>
    <g
       transform="matrix(1.1765 0 0 1.1765 -299.63 -208.73)"
       fill="#fff"
       stroke-width="1.792"
       aria-label="MKV"
       id="g24">
      <path
         d="m347.52 455.41h12.042v-27.955l10.322 20.286h9.3901l10.537-21.576v29.246h12.042v-49.746h-11.827l-14.838 29.031-15.698-29.031h-11.971z"
         id="path18" />
      <path
         d="m411.58 455.41h12.759v-24.586l15.77 24.586h16.63l-18.207-26.808 17.06-22.938h-14.981l-16.271 22.436v-22.436h-12.759z"
         id="path20" />
      <path
         d="m473.26 455.41h13.261l17.705-49.746h-12.831l-10.967 34.98-10.25-34.98h-14.479z"
         id="path22" />
    </g>
  </g>
  <path
     transform="scale(.75)"
     d="m94.156 443.75v10c0 13.221 10.644 23.865 23.865 23.865h275.96c13.221 0 23.865-10.644 23.865-23.865v-10c0 13.221-10.644 23.865-23.865 23.865h-275.96c-13.221 0-23.865-10.644-23.865-23.865z"
     opacity=".3"
     style="paint-order:normal"
     id="path28" />
  <path
     transform="scale(.75)"
     d="m118.02 316.54c-13.221 0-23.865 10.642-23.865 23.863v10c0-13.221 10.644-23.863 23.865-23.863h275.96c13.221 0 23.865 10.642 23.865 23.863v-10c0-13.221-10.644-23.863-23.865-23.863h-275.96z"
     fill="#fff"
     opacity=".3"
     style="paint-order:normal"
     id="path30" />
</svg>
