<?xml version="1.0" encoding="UTF-8" standalone="no"?>
<svg
   xmlns:dc="http://purl.org/dc/elements/1.1/"
   xmlns:cc="http://creativecommons.org/ns#"
   xmlns:rdf="http://www.w3.org/1999/02/22-rdf-syntax-ns#"
   xmlns:svg="http://www.w3.org/2000/svg"
   xmlns="http://www.w3.org/2000/svg"
   xmlns:sodipodi="http://sodipodi.sourceforge.net/DTD/sodipodi-0.dtd"
   xmlns:inkscape="http://www.inkscape.org/namespaces/inkscape"
   width="384pt"
   height="384pt"
   version="1.1"
   viewBox="0 0 384 384"
   id="svg30"
   sodipodi:docname="dvd_unmount.svg"
   inkscape:version="0.92.4 (5da689c313, 2019-01-14)">
  <metadata
     id="metadata34">
    <rdf:RDF>
      <cc:Work
         rdf:about="">
        <dc:format>image/svg+xml</dc:format>
        <dc:type
           rdf:resource="http://purl.org/dc/dcmitype/StillImage" />
      </cc:Work>
    </rdf:RDF>
  </metadata>
  <sodipodi:namedview
     pagecolor="#ffffff"
     bordercolor="#666666"
     borderopacity="1"
     objecttolerance="10"
     gridtolerance="10"
     guidetolerance="10"
     inkscape:pageopacity="0"
     inkscape:pageshadow="2"
     inkscape:window-width="1366"
     inkscape:window-height="682"
     id="namedview32"
     showgrid="false"
     inkscape:zoom="0.4609375"
     inkscape:cx="43.990508"
     inkscape:cy="295.32313"
     inkscape:window-x="0"
     inkscape:window-y="0"
     inkscape:window-maximized="1"
     inkscape:current-layer="g24" />
  <defs
     id="defs16">
    <clipPath
       id="c">
      <path
         d="m111 119h177v23h-177z"
         id="path2" />
    </clipPath>
    <clipPath
       id="b">
      <path
         d="m177 130h45v89h-45z"
         id="path5" />
    </clipPath>
    <clipPath
       id="a">
      <path
         d="m111 207h177v89h-177z"
         id="path8" />
    </clipPath>
    <clipPath
       id="d">
      <rect
         width="384"
         height="384"
         id="rect11" />
    </clipPath>
    <g
       clip-path="url(#d)"
       id="g14" />
  </defs>
  <path
     d="m192 24.297c-92.617 0-167.7 75.086-167.7 167.7 0 92.617 75.086 167.7 167.7 167.7 92.617 0 167.7-75.086 167.7-167.7 0-92.617-75.086-167.7-167.7-167.7zm0 121.96c25.262 0 45.738 20.477 45.738 45.738s-20.477 45.738-45.738 45.738-45.738-20.477-45.738-45.738 20.477-45.738 45.738-45.738z"
     fill="#fbfbfb"
     opacity=".3"
     stroke="#000"
     stroke-width="7.5"
     id="path18" />
  <g
     fill="#fff"
     id="g24"
     style="fill:#e6e6e6;fill-opacity:1">
    <path
       d="m192 24.297c-92.617 0-167.7 75.086-167.7 167.7 0 92.617 75.086 167.7 167.7 167.7 92.617 0 167.7-75.086 167.7-167.7 0-92.617-75.086-167.7-167.7-167.7zm0 121.96c25.262 0 45.738 20.477 45.738 45.738s-20.477 45.738-45.738 45.738-45.738-20.477-45.738-45.738 20.477-45.738 45.738-45.738z"
       id="path20"
       style="fill:#e6e6e6;fill-opacity:1" />
    <path
       transform="matrix(.75 0 0 .75 0 288)"
       d="m256-223.47c-52.724 0-95.469 42.745-95.469 95.469s42.745 95.469 95.469 95.469 95.469-42.745 95.469-95.469-42.745-95.469-95.469-95.469zm0 44.807c27.979 0 50.661 22.682 50.661 50.661s-22.682 50.661-50.661 50.661-50.661-22.682-50.661-50.661 22.682-50.661 50.661-50.661z"
       fill="#f0f0f0"
       stroke="#333"
       stroke-width="10"
       id="path22"
       style="fill:#ffffff;fill-opacity:1;stroke:#000000;stroke-opacity:0.58823532" />
  </g>
  <path
     d="m295.68 91.634a17.609 17.609 0 0 0-17.61 17.61 17.609 17.609 0 0 0 17.61 17.609 17.609 17.609 0 0 0 17.61-17.609 17.609 17.609 0 0 0-17.61-17.61zm-33.599 29.956a9.3109 9.3109 0 0 0-9.3109 9.3109 9.3109 9.3109 0 0 0 9.3109 9.3109 9.3109 9.3109 0 0 0 9.3109-9.3109 9.3109 9.3109 0 0 0-9.3109-9.3109z"
     opacity=".1"
     stroke-width=".65783"
     id="path28"
     style="fill:#ffffff;fill-opacity:1;opacity:1" />
</svg>
