<?xml version="1.0" encoding="UTF-8" standalone="no"?>
<svg
   xmlns:dc="http://purl.org/dc/elements/1.1/"
   xmlns:cc="http://creativecommons.org/ns#"
   xmlns:rdf="http://www.w3.org/1999/02/22-rdf-syntax-ns#"
   xmlns:svg="http://www.w3.org/2000/svg"
   xmlns="http://www.w3.org/2000/svg"
   xmlns:sodipodi="http://sodipodi.sourceforge.net/DTD/sodipodi-0.dtd"
   xmlns:inkscape="http://www.inkscape.org/namespaces/inkscape"
   width="512"
   height="512"
   version="1"
   id="svg10"
   sodipodi:docname="nvidia.svg"
   inkscape:version="0.92.4 (5da689c313, 2019-01-14)">
  <metadata
     id="metadata16">
    <rdf:RDF>
      <cc:Work
         rdf:about="">
        <dc:format>image/svg+xml</dc:format>
        <dc:type
           rdf:resource="http://purl.org/dc/dcmitype/StillImage" />
        <dc:title></dc:title>
      </cc:Work>
    </rdf:RDF>
  </metadata>
  <defs
     id="defs14" />
  <sodipodi:namedview
     pagecolor="#ffffff"
     bordercolor="#666666"
     borderopacity="1"
     objecttolerance="10"
     gridtolerance="10"
     guidetolerance="10"
     inkscape:pageopacity="0"
     inkscape:pageshadow="2"
     inkscape:window-width="1366"
     inkscape:window-height="682"
     id="namedview12"
     showgrid="false"
     inkscape:zoom="0.61458333"
     inkscape:cx="122.57169"
     inkscape:cy="96.880592"
     inkscape:window-x="0"
     inkscape:window-y="0"
     inkscape:window-maximized="1"
     inkscape:current-layer="svg10" />
  <path
     style="opacity:0.2;stroke-width:0.99999988"
     d="m 214.8742,85.624395 0.29833,0.2068 c -26.07268,-1.57228 -53.0055,13.63885 -60.79267,44.085545 -70.429742,22.86602 -115.870929,70.15604 -115.870929,70.15604 -16.094258,15.86584 -21.662198,39.55626 -14.320354,60.93027 0,0 34.529827,101.8332 131.705953,137.71874 8.21873,23.56117 30.42316,39.36097 55.37661,39.40386 H 432.24983 C 464.6953,438.12265 490.99675,411.82096 491,379.37548 V 144.3748 C 490.997,111.92931 464.6953,85.627915 432.24983,85.624625 Z"
     id="path2"
     inkscape:connector-curvature="0" />
  <path
     style="fill:#4ca341;stroke-width:0.99999988"
     d="m 214.8742,73.874355 0.29833,0.2068 c -26.07268,-1.57227 -53.0055,13.63885 -60.79267,44.085545 -70.429742,22.86604 -115.870929,70.15593 -115.870929,70.15593 -16.094258,15.86583 -21.662198,39.55637 -14.320354,60.93038 0,0 34.529827,101.83308 131.705953,137.71862 8.21873,23.56117 30.42316,39.36109 55.37661,39.40398 H 432.24983 C 464.6953,426.37262 490.99675,400.07093 491,367.62545 V 132.62477 C 490.997,100.17928 464.6953,73.877885 432.24983,73.874595 Z"
     id="path4"
     inkscape:connector-curvature="0" />
  <path
     d="m 119.76317,239.65971 c 0,0 31.86962,-47.37496 95.5031,-52.2759 v -17.18795 c -70.48845,5.69877 -131.518129,65.84718 -131.518129,65.84718 0,0 34.568599,100.68487 131.518129,109.90396 V 327.67804 C 144.11982,318.65402 119.762,239.65854 119.762,239.65854 Z m 95.5031,51.6837 v 16.73088 c -53.76933,-9.65818 -68.6954,-65.97292 -68.6954,-65.97292 0,0 25.81718,-28.81461 68.6954,-33.4876 v 18.35943 c -0.027,0 -0.0447,-0.01 -0.0682,-0.01 -22.50484,-2.72096 -40.08524,18.46047 -40.08524,18.46047 0,0 9.85381,35.65783 40.16749,45.9203 m 0,-152.84444 v 31.7016 c 2.06907,-0.15863 4.13813,-0.29375 6.21847,-0.36542 80.13053,-2.72096 132.34064,66.21379 132.34064,66.21379 0,0 -59.96513,73.46472 -122.43536,73.46472 -5.72567,0 -11.08592,-0.53579 -16.12105,-1.43373 v 19.60375 c 4.30522,0.5499 8.76905,0.8742 13.42677,0.8742 58.13564,0 100.17844,-29.91323 140.88291,-65.31726 6.74969,5.44626 34.38177,18.69548 40.06291,24.4953 -38.70696,32.64982 -128.92137,58.96989 -180.05752,58.96989 -4.92961,0 -9.66405,-0.3008 -14.31742,-0.75318 v 27.54728 H 436.25186 V 138.49979 H 215.28072 Z m 0,70.12069 v -21.22996 c 2.0478,-0.1222 4.11122,-0.25498 6.21847,-0.32195 57.62217,-1.82361 95.42555,49.88946 95.42555,49.88946 0,0 -40.83136,57.13454 -84.61082,57.13454 -6.3006,0 -11.94978,-1.0199 -17.03402,-2.74245 v -64.37021 c 22.43199,2.73094 26.94753,12.71471 40.43304,35.36525 l 29.99431,-25.4823 c 0,0 -21.89501,-28.93211 -58.80539,-28.93211 -4.01205,-0.001 -7.85126,0.28318 -11.62114,0.68738"
     id="path6"
     inkscape:connector-curvature="0"
     style="fill:#262626;stroke-width:0.99999988" />
  <path
     style="opacity:0.2;fill:#ffffff;stroke-width:0.99999988"
     d="m 214.8742,73.874355 0.29833,0.2068 c -26.07268,-1.57227 -53.00548,13.63885 -60.79267,44.085545 -70.429736,22.86604 -115.870929,70.15593 -115.870929,70.15593 -12.73944,12.55867 -18.753428,30.01017 -17.120167,47.3444 1.420383,-13.24252 7.273317,-25.8872 17.120167,-35.59438 0,0 45.441193,-47.28989 115.870929,-70.15591 7.78719,-30.446695 34.71999,-45.657825 60.79267,-44.085545 l -0.29833,-0.2068 H 432.24983 C 464.6953,85.627395 490.99675,111.92908 491,144.37457 V 132.62452 C 490.997,100.17905 464.6953,73.877645 432.24983,73.874355 Z"
     id="path8"
     inkscape:connector-curvature="0" />
</svg>
