<?xml version="1.0" encoding="UTF-8" standalone="no"?>
<svg
   xmlns:dc="http://purl.org/dc/elements/1.1/"
   xmlns:cc="http://creativecommons.org/ns#"
   xmlns:rdf="http://www.w3.org/1999/02/22-rdf-syntax-ns#"
   xmlns:svg="http://www.w3.org/2000/svg"
   xmlns="http://www.w3.org/2000/svg"
   xmlns:xlink="http://www.w3.org/1999/xlink"
   xmlns:sodipodi="http://sodipodi.sourceforge.net/DTD/sodipodi-0.dtd"
   xmlns:inkscape="http://www.inkscape.org/namespaces/inkscape"
   width="512"
   height="512"
   version="1.1"
   viewBox="0 0 384 384"
   id="svg112"
   sodipodi:docname="gparted.svg"
   inkscape:version="0.92.4 (5da689c313, 2019-01-14)">
  <metadata
     id="metadata116">
    <rdf:RDF>
      <cc:Work
         rdf:about="">
        <dc:format>image/svg+xml</dc:format>
        <dc:type
           rdf:resource="http://purl.org/dc/dcmitype/StillImage" />
      </cc:Work>
    </rdf:RDF>
  </metadata>
  <sodipodi:namedview
     pagecolor="#ffffff"
     bordercolor="#666666"
     borderopacity="1"
     objecttolerance="10"
     gridtolerance="10"
     guidetolerance="10"
     inkscape:pageopacity="0"
     inkscape:pageshadow="2"
     inkscape:window-width="1366"
     inkscape:window-height="682"
     id="namedview114"
     showgrid="false"
     inkscape:zoom="0.65186406"
     inkscape:cx="95.209255"
     inkscape:cy="215.4525"
     inkscape:window-x="0"
     inkscape:window-y="0"
     inkscape:window-maximized="1"
     inkscape:current-layer="g110" />
  <defs
     id="defs66">
    <filter
       id="a"
       x="0%"
       y="0%"
       width="100%"
       height="100%">
      <feColorMatrix
         in="SourceGraphic"
         values="0 0 0 0 1 0 0 0 0 1 0 0 0 0 1 0 0 0 1 0"
         id="feColorMatrix2" />
    </filter>
    <mask
       id="m">
      <g
         filter="url(#a)"
         id="g7">
        <rect
           width="384"
           height="384"
           fill-opacity=".10196"
           id="rect5" />
      </g>
    </mask>
    <clipPath
       id="f">
      <rect
         width="384"
         height="384"
         id="rect10" />
    </clipPath>
    <g
       id="b"
       clip-path="url(#f)">
      <path
         transform="scale(.75)"
         d="m98.391 49.75c0 4.4792-3.6302 8.1094-8.1094 8.1094s-8.1094-3.6302-8.1094-8.1094 3.6302-8.1094 8.1094-8.1094 8.1094 3.6302 8.1094 8.1094zm0 0"
         stroke="#fff"
         stroke-linecap="round"
         stroke-linejoin="round"
         stroke-width=".99655"
         id="path13" />
    </g>
    <mask
       id="l">
      <g
         filter="url(#a)"
         id="g18">
        <rect
           width="384"
           height="384"
           fill-opacity=".10196"
           id="rect16" />
      </g>
    </mask>
    <clipPath
       id="g">
      <rect
         width="384"
         height="384"
         id="rect21" />
    </clipPath>
    <g
       id="e"
       clip-path="url(#g)">
      <path
         transform="scale(.75)"
         d="m429.85 49.75c0 4.4792-3.6302 8.1094-8.1094 8.1094-4.474 0-8.1042-3.6302-8.1042-8.1094s3.6302-8.1094 8.1042-8.1094c4.4792 0 8.1094 3.6302 8.1094 8.1094zm0 0"
         stroke="#fff"
         stroke-linecap="round"
         stroke-linejoin="round"
         stroke-width=".99655"
         id="path24" />
    </g>
    <mask
       id="k">
      <g
         filter="url(#a)"
         id="g29">
        <rect
           width="384"
           height="384"
           fill-opacity=".10196"
           id="rect27" />
      </g>
    </mask>
    <clipPath
       id="h">
      <rect
         width="384"
         height="384"
         id="rect32" />
    </clipPath>
    <g
       id="d"
       clip-path="url(#h)">
      <path
         transform="scale(.75)"
         d="m98.391 404.61c0 4.4792-3.6302 8.1094-8.1094 8.1094s-8.1094-3.6302-8.1094-8.1094 3.6302-8.1094 8.1094-8.1094 8.1094 3.6302 8.1094 8.1094zm0 0"
         stroke="#fff"
         stroke-linecap="round"
         stroke-linejoin="round"
         stroke-width=".99655"
         id="path35" />
    </g>
    <mask
       id="j">
      <g
         filter="url(#a)"
         id="g40">
        <rect
           width="384"
           height="384"
           fill-opacity=".10196"
           id="rect38" />
      </g>
    </mask>
    <clipPath
       id="i">
      <rect
         width="384"
         height="384"
         id="rect43" />
    </clipPath>
    <g
       id="c"
       clip-path="url(#i)">
      <path
         transform="scale(.75)"
         d="m429.85 404.61c0 4.4792-3.6302 8.1094-8.1094 8.1094-4.474 0-8.1042-3.6302-8.1042-8.1094s3.6302-8.1094 8.1042-8.1094c4.4792 0 8.1094 3.6302 8.1094 8.1094zm0 0"
         stroke="#fff"
         stroke-linecap="round"
         stroke-linejoin="round"
         stroke-width=".99655"
         id="path46" />
    </g>
    <clipPath
       id="clipPath51">
      <path
         d="m111 119h177v23h-177z"
         id="path49" />
    </clipPath>
    <clipPath
       id="clipPath55">
      <path
         d="m177 130h45v89h-45z"
         id="path53" />
    </clipPath>
    <clipPath
       id="clipPath59">
      <path
         d="m111 207h177v89h-177z"
         id="path57" />
    </clipPath>
    <clipPath
       id="n">
      <rect
         width="384"
         height="384"
         id="rect61" />
    </clipPath>
    <g
       clip-path="url(#n)"
       id="g64" />
  </defs>
  <g
     transform="translate(.0024 -.45382)"
     id="g90">
    <path
       d="m69.555 24.285c-8.7146 0-15.781 6.1914-15.781 13.828v2.6162c-0.0011 0.07737-0.0059 0.15381-0.0059 0.23144v303.88c0 8.7146 7.066 15.782 15.781 15.782h244.89c8.7146 0 15.781-7.0674 15.781-15.782v-40.131c2e-3 -0.0851 7e-3 -0.1694 7e-3 -0.25489v-266.34c0-7.6366-7.066-13.828-15.781-13.828z"
       opacity=".2"
       stroke="#000"
       stroke-width="7.5"
       id="path68" />
    <path
       d="m69.555 24.285h244.89c8.7148 0 15.781 7.0664 15.781 15.777v303.88c0 8.7148-7.0664 15.781-15.781 15.781h-244.89c-8.7148 0-15.781-7.0664-15.781-15.781v-303.88c0-8.7109 7.0664-15.777 15.781-15.777z"
       id="path70" />
    <g
       fill="#fff"
       id="g80"
       style="fill:#d2d2d2;fill-opacity:1">
      <path
         d="m74.383 329.47h116.23c2.3945 0 4.3359 1.9414 4.3359 4.3359v8.5664c0 2.3945-1.9414 4.3398-4.3359 4.3398h-116.23c-2.3984 0-4.3398-1.9453-4.3398-4.3398v-8.5664c0-2.3945 1.9414-4.3359 4.3398-4.3359z"
         id="path72"
         style="fill:#d2d2d2;fill-opacity:1" />
      <path
         d="m69.562 23.387h244.89c8.7148 0 15.781 6.1914 15.781 13.828v266.34c0 7.6406-7.0664 13.832-15.781 13.832h-244.89c-8.7148 0-15.781-6.1914-15.781-13.832v-266.34c0-7.6367 7.0664-13.828 15.781-13.828z"
         id="path74"
         style="fill:#d2d2d2;fill-opacity:1" />
      <path
         d="m275.97 338.06c0 4.2695-3.4609 7.7305-7.7305 7.7305-4.2734 0-7.7344-3.4609-7.7344-7.7305s3.4609-7.7305 7.7344-7.7305c4.2695 0 7.7305 3.4609 7.7305 7.7305z"
         id="path76"
         style="fill:#d2d2d2;fill-opacity:1" />
      <path
         d="m299.85 338.06c0 4.2695-3.4648 7.7305-7.7344 7.7305s-7.7305-3.4609-7.7305-7.7305 3.4609-7.7305 7.7305-7.7305 7.7344 3.4609 7.7344 7.7305z"
         id="path78"
         style="fill:#d2d2d2;fill-opacity:1" />
    </g>
    <use
       width="100%"
       height="100%"
       mask="url(#m)"
       xlink:href="#b"
       id="use82" />
    <use
       width="100%"
       height="100%"
       mask="url(#l)"
       xlink:href="#e"
       id="use84" />
    <use
       width="100%"
       height="100%"
       mask="url(#k)"
       xlink:href="#d"
       id="use86" />
    <use
       width="100%"
       height="100%"
       mask="url(#j)"
       xlink:href="#c"
       id="use88" />
  </g>
  <g
     transform="matrix(.69842 0 0 .69842 56.365 36.885)"
     id="g110">
    <path
       d="m183.29 197.74v132.02c36-0.0107 70.569-14.109 96.302-39.282z"
       style="fill:#2656a8;stroke-width:.91838"
       id="path92" />
    <path
       d="m280.87 178.22c0 53.891-43.687 97.578-97.578 97.578s-97.578-43.687-97.578-97.578 43.687-97.578 97.578-97.578 97.578 43.687 97.578 97.578z"
       style="fill:#fd3535;stroke-width:.91838"
       id="path94" />
    <path
       d="m183.29 183.96v132.02c36-0.0108 70.569-14.109 96.302-39.282z"
       style="fill:#367bf0;stroke-width:.91838"
       id="path96" />
    <path
       d="m183.29 37.026v160.72l108.69 104.66c29.597-29.115 46.271-68.89 46.288-110.4 0-85.592-69.385-154.98-154.98-154.98z"
       style="fill:#238819;stroke-width:0.91838;fill-opacity:1"
       id="path98" />
    <path
       d="m183.29 38.25v145.72l108.69 104.66c29.597-29.115 46.271-68.89 46.288-110.4 0-85.592-69.385-139.98-154.98-139.98z"
       style="fill:#23c224;stroke-width:0.91838;fill-opacity:1"
       id="path100" />
    <path
       d="m183.29 211.51-108.64 90.828-1e-6 13.776c28.954 28.553 67.968 44.581 108.64 44.632z"
       style="fill:#622e78;stroke-width:.91838"
       id="path102" />
    <path
       d="m183.29 197.74-108.64 104.6c28.954 28.553 67.968 44.581 108.64 44.632z"
       style="fill:#8a3fab;stroke-width:.91838"
       id="path104" />
    <path
       d="m45.732 197.74c1.4888 35.017 16.269 68.154 41.335 92.656l96.219-92.656 3e-3 -13.772-137.56-4e-3z"
       style="fill:#ffc730;stroke-width:.91838"
       id="path106" />
    <path
       d="m45.732 183.96c1.4888 35.017 16.269 68.154 41.335 92.656l96.219-92.656z"
       style="fill:#f8de68;stroke-width:.91838"
       id="path108" />
  </g>
</svg>
