<?xml version="1.0" encoding="UTF-8" standalone="no"?>
<svg
   xmlns:dc="http://purl.org/dc/elements/1.1/"
   xmlns:cc="http://creativecommons.org/ns#"
   xmlns:rdf="http://www.w3.org/1999/02/22-rdf-syntax-ns#"
   xmlns:svg="http://www.w3.org/2000/svg"
   xmlns="http://www.w3.org/2000/svg"
   xmlns:xlink="http://www.w3.org/1999/xlink"
   xmlns:sodipodi="http://sodipodi.sourceforge.net/DTD/sodipodi-0.dtd"
   xmlns:inkscape="http://www.inkscape.org/namespaces/inkscape"
   width="512"
   height="512"
   version="1.1"
   viewBox="0 0 384 384"
   id="svg20"
   sodipodi:docname="configuration_section.svg"
   inkscape:version="0.92.4 (5da689c313, 2019-01-14)">
  <metadata
     id="metadata26">
    <rdf:RDF>
      <cc:Work
         rdf:about="">
        <dc:format>image/svg+xml</dc:format>
        <dc:type
           rdf:resource="http://purl.org/dc/dcmitype/StillImage" />
        <dc:title />
      </cc:Work>
    </rdf:RDF>
  </metadata>
  <defs
     id="defs24">
    <linearGradient
       inkscape:collect="always"
       id="linearGradient837">
      <stop
         style="stop-color:#e6e6e6;stop-opacity:1"
         offset="0"
         id="stop833" />
      <stop
         style="stop-color:#dcdcdc;stop-opacity:1"
         offset="1"
         id="stop835" />
    </linearGradient>
    <linearGradient
       inkscape:collect="always"
       xlink:href="#linearGradient837"
       id="linearGradient839"
       x1="190.84322"
       y1="28.474577"
       x2="180.13983"
       y2="353.08475"
       gradientUnits="userSpaceOnUse" />
  </defs>
  <sodipodi:namedview
     pagecolor="#ffffff"
     bordercolor="#666666"
     borderopacity="1"
     objecttolerance="10"
     gridtolerance="10"
     guidetolerance="10"
     inkscape:pageopacity="0"
     inkscape:pageshadow="2"
     inkscape:window-width="1366"
     inkscape:window-height="682"
     id="namedview22"
     showgrid="false"
     inkscape:zoom="0.921875"
     inkscape:cx="77.361045"
     inkscape:cy="179.67952"
     inkscape:window-x="0"
     inkscape:window-y="0"
     inkscape:window-maximized="1"
     inkscape:current-layer="svg20" />
  <rect
     x="15.927967"
     y="18.368643"
     width="351.33054"
     height="344.00839"
     rx="18.409002"
     ry="18.409"
     style="fill:url(#linearGradient839);fill-opacity:1;stroke-width:1;paint-order:markers stroke fill"
     id="rect2" />
  <g
     transform="matrix(-0.81033991,0,0,0.79345156,347.18708,38.87766)"
     id="g14"
     style="stroke-width:0.9708035">
    <path
       d="m 106.49,108.76 c -50.137,0 -90.736,40.599 -90.736,90.736 0,50.137 40.599,90.736 90.736,90.736 h 171.03 c 50.137,0 90.736,-40.599 90.736,-90.736 0,-50.137 -40.599,-90.736 -90.736,-90.736 z"
       id="path4"
       inkscape:connector-curvature="0"
       style="opacity:0.1;fill:#dfdfdf;stroke-width:0.9708035" />
    <rect
       x="23.280001"
       y="108.8"
       width="337.42999"
       height="166.41"
       rx="79.927628"
       ry="81.62886"
       id="rect6"
       style="fill:#0066cc;stroke-width:0.9708035" />
    <path
       d="m 175.75,196.5 c 0,37.423 -30.315,67.738 -67.738,67.738 -37.418,0 -67.738,-30.315 -67.738,-67.738 0,-37.418 30.32,-67.738 67.738,-67.738 37.423,0 67.738,30.32 67.738,67.738"
       id="path8"
       inkscape:connector-curvature="0"
       style="opacity:0.3;stroke-width:0.9708035" />
    <path
       d="m 175.75,189 c 0,37.423 -30.315,67.738 -67.738,67.738 -37.418,0 -67.738,-30.315 -67.738,-67.738 0,-37.418 30.32,-67.738 67.738,-67.738 37.423,0 67.738,30.32 67.738,67.738"
       id="path10"
       inkscape:connector-curvature="0"
       style="fill:#ffffff;fill-opacity:1;stroke-width:0.9708035" />
    <path
       d="m 150.01,189 c 0,23.214 -18.784,41.998 -41.998,41.998 -23.214,0 -41.993,-18.784 -41.993,-41.998 0,-23.209 18.778,-41.993 41.993,-41.993 23.214,0 41.998,18.784 41.998,41.993"
       id="path12"
       inkscape:connector-curvature="0"
       style="opacity:1;fill:#ffffff;fill-opacity:1;stroke-width:0.9708035" />
  </g>
  <path
     d="m 35.091095,16.868644 c -10.616427,0 -19.163128,8.368576 -19.163128,18.763746 v 7.644632 c 0,-10.395168 8.546701,-18.763748 19.163128,-18.763748 H 348.09536 c 10.61643,0 19.16314,8.36858 19.16314,18.763748 V 35.63239 c 0,-10.39517 -8.54671,-18.763746 -19.16314,-18.763746 z"
     style="opacity:1;fill:#ffffff;stroke-width:0.75;paint-order:markers stroke fill"
     id="path16"
     inkscape:connector-curvature="0" />
  <path
     d="m 15.927967,332.97248 v 7.64464 c 0,10.39517 8.546701,18.76374 19.163128,18.76374 H 348.09536 c 10.61643,0 19.16314,-8.36857 19.16314,-18.76374 v -7.64464 c 0,10.39518 -8.54671,18.76375 -19.16314,18.76375 H 35.091095 c -10.616427,0 -19.163128,-8.36857 -19.163128,-18.76375 z"
     style="opacity:0.5;fill:#08090b;stroke-width:0.99997497;paint-order:markers stroke fill"
     id="path18"
     inkscape:connector-curvature="0" />
</svg>
