<?xml version="1.0" encoding="UTF-8" standalone="no"?>
<svg
   xmlns:dc="http://purl.org/dc/elements/1.1/"
   xmlns:cc="http://creativecommons.org/ns#"
   xmlns:rdf="http://www.w3.org/1999/02/22-rdf-syntax-ns#"
   xmlns:svg="http://www.w3.org/2000/svg"
   xmlns="http://www.w3.org/2000/svg"
   xmlns:xlink="http://www.w3.org/1999/xlink"
   xmlns:sodipodi="http://sodipodi.sourceforge.net/DTD/sodipodi-0.dtd"
   xmlns:inkscape="http://www.inkscape.org/namespaces/inkscape"
   width="512"
   height="512"
   version="1.1"
   viewBox="0 0 384 384"
   id="svg26"
   sodipodi:docname="preferences-system-search.svg"
   inkscape:version="0.92.4 (5da689c313, 2019-01-14)">
  <metadata
     id="metadata30">
    <rdf:RDF>
      <cc:Work
         rdf:about="">
        <dc:format>image/svg+xml</dc:format>
        <dc:type
           rdf:resource="http://purl.org/dc/dcmitype/StillImage" />
      </cc:Work>
    </rdf:RDF>
  </metadata>
  <sodipodi:namedview
     pagecolor="#ffffff"
     bordercolor="#666666"
     borderopacity="1"
     objecttolerance="10"
     gridtolerance="10"
     guidetolerance="10"
     inkscape:pageopacity="0"
     inkscape:pageshadow="2"
     inkscape:window-width="1366"
     inkscape:window-height="682"
     id="namedview28"
     showgrid="false"
     inkscape:zoom="0.4609375"
     inkscape:cx="46.644068"
     inkscape:cy="256"
     inkscape:window-x="0"
     inkscape:window-y="0"
     inkscape:window-maximized="1"
     inkscape:current-layer="svg26" />
  <defs
     id="defs14">
    <linearGradient
       inkscape:collect="always"
       id="linearGradient844">
      <stop
         style="stop-color:#05bdc7;stop-opacity:1"
         offset="0"
         id="stop840" />
      <stop
         style="stop-color:#2560d8;stop-opacity:1"
         offset="1"
         id="stop842" />
    </linearGradient>
    <clipPath
       id="clipPath4">
      <rect
         width="384"
         height="384"
         id="rect2" />
    </clipPath>
    <clipPath
       id="clipPath8">
      <rect
         width="384"
         height="384"
         id="rect6" />
    </clipPath>
    <clipPath
       id="clipPath12">
      <rect
         width="384"
         height="384"
         id="rect10" />
    </clipPath>
    <linearGradient
       inkscape:collect="always"
       xlink:href="#linearGradient844"
       id="linearGradient846"
       x1="23.25"
       y1="192"
       x2="360.75"
       y2="192"
       gradientUnits="userSpaceOnUse" />
  </defs>
  <path
     d="m360.75 192c0 93.199-75.551 168.75-168.75 168.75-93.199 0-168.75-75.551-168.75-168.75 0-93.199 75.551-168.75 168.75-168.75 93.199 0 168.75 75.551 168.75 168.75z"
     fill="#1ea6ae"
     id="path16"
     style="fill-opacity:1;fill:url(#linearGradient846)" />
  <path
     d="m237.43 226.79h-9.5586l-3.3906-3.2696c11.859-13.793 18.996-31.699 18.996-51.18-1e-5 -43.434-35.207-78.641-78.645-78.641-43.434 0-78.641 35.207-78.641 78.641 0 43.437 35.207 78.648 78.641 78.648 19.48 0 37.387-7.1406 51.18-18.996l3.2696 3.3867v9.5547l60.492 60.375 18.027-18.023zm-72.598 0c-30.125 0-54.445-24.32-54.445-54.449 0-30.125 24.32-54.445 54.445-54.445 30.129 0 54.449 24.32 54.449 54.445 0 30.129-24.32 54.449-54.449 54.449z"
     opacity=".3"
     id="path18" />
  <path
     d="m237.43 219.29h-9.5586l-3.3906-3.2695c11.859-13.793 18.996-31.699 18.996-51.18 0-43.434-35.207-78.641-78.645-78.641-43.434 0-78.641 35.207-78.641 78.641 0 43.438 35.207 78.648 78.641 78.648 19.48 0 37.387-7.1406 51.18-18.996l3.2695 3.3867v9.5547l60.492 60.375 18.027-18.023zm-72.598 0c-30.125 0-54.445-24.32-54.445-54.449 0-30.125 24.32-54.445 54.445-54.445 30.129 0 54.449 24.32 54.449 54.445 0 30.129-24.32 54.449-54.449 54.449z"
     fill="#fff"
     id="path20" />
  <path
     transform="scale(.75)"
     d="m31.064 251c-0.036282 1.6632-0.064453 3.3281-0.064453 5 0 124.27 100.73 225 225 225 124.27 0 225-100.73 225-225 0-1.6719-0.0282-3.3368-0.0645-5-2.6604 121.96-102.34 220-224.94 220-122.59 0-222.28-98.045-224.94-220z"
     opacity=".3"
     stroke-width="1.3333"
     id="path22" />
  <path
     transform="scale(.75)"
     d="m256 31c-124.27 0-225 100.73-225 225 0 1.6719 0.02817 3.3368 0.06445 5 2.6604-121.96 102.34-220 224.94-220 122.59 0 222.28 98.045 224.94 220 0.03628-1.6632 0.06445-3.3281 0.06445-5 0-124.27-100.73-225-225-225z"
     fill="#fff"
     opacity=".3"
     stroke-width="1.3333"
     id="path24" />
</svg>
