<?xml version="1.0" encoding="UTF-8" standalone="no"?>
<svg
   xmlns:dc="http://purl.org/dc/elements/1.1/"
   xmlns:cc="http://creativecommons.org/ns#"
   xmlns:rdf="http://www.w3.org/1999/02/22-rdf-syntax-ns#"
   xmlns:svg="http://www.w3.org/2000/svg"
   xmlns="http://www.w3.org/2000/svg"
   xmlns:xlink="http://www.w3.org/1999/xlink"
   xmlns:sodipodi="http://sodipodi.sourceforge.net/DTD/sodipodi-0.dtd"
   xmlns:inkscape="http://www.inkscape.org/namespaces/inkscape"
   width="512"
   height="512"
   version="1.1"
   viewBox="0 0 384 384"
   id="svg26"
   sodipodi:docname="preferences-web-browser-cache.svg"
   inkscape:version="0.92.4 (5da689c313, 2019-01-14)">
  <metadata
     id="metadata30">
    <rdf:RDF>
      <cc:Work
         rdf:about="">
        <dc:format>image/svg+xml</dc:format>
        <dc:type
           rdf:resource="http://purl.org/dc/dcmitype/StillImage" />
      </cc:Work>
    </rdf:RDF>
  </metadata>
  <sodipodi:namedview
     pagecolor="#ffffff"
     bordercolor="#666666"
     borderopacity="1"
     objecttolerance="10"
     gridtolerance="10"
     guidetolerance="10"
     inkscape:pageopacity="0"
     inkscape:pageshadow="2"
     inkscape:window-width="1366"
     inkscape:window-height="682"
     id="namedview28"
     showgrid="false"
     inkscape:zoom="0.65186406"
     inkscape:cx="161.93897"
     inkscape:cy="256.51412"
     inkscape:window-x="0"
     inkscape:window-y="0"
     inkscape:window-maximized="1"
     inkscape:current-layer="svg26" />
  <defs
     id="defs14">
    <linearGradient
       inkscape:collect="always"
       id="linearGradient844">
      <stop
         style="stop-color:#ffc119;stop-opacity:1"
         offset="0"
         id="stop840" />
      <stop
         style="stop-color:#f0b000;stop-opacity:1"
         offset="1"
         id="stop842" />
    </linearGradient>
    <clipPath
       id="clipPath4">
      <rect
         width="384"
         height="384"
         id="rect2" />
    </clipPath>
    <clipPath
       id="clipPath8">
      <rect
         width="384"
         height="384"
         id="rect6" />
    </clipPath>
    <clipPath
       id="clipPath12">
      <rect
         width="384"
         height="384"
         id="rect10" />
    </clipPath>
    <linearGradient
       inkscape:collect="always"
       xlink:href="#linearGradient844"
       id="linearGradient846"
       x1="192"
       y1="23.25"
       x2="190.4691"
       y2="356.52817"
       gradientUnits="userSpaceOnUse" />
  </defs>
  <path
     d="m360.75 192c0-93.199-75.551-168.75-168.75-168.75-93.199 0-168.75 75.551-168.75 168.75 0 93.199 75.551 168.75 168.75 168.75 93.199 0 168.75-75.551 168.75-168.75z"
     fill="#ffc72e"
     id="path16"
     style="fill-opacity:1;fill:url(#linearGradient846)" />
  <path
     d="m199.67 76.774c-5.543 0-11.569 9.1719-15.343 15.34-19.906 32.555-54.395 88.559-61.364 99.715-6.9687 11.16-7.793 23.011 7.711 23.011h45.974c-0.0153 33.723 0.18332 63.535 0.0103 95.524 0 6.6367 2.1294 11.862 7.6684 11.862 5.543 0 11.569-9.1719 15.343-15.34 19.906-32.555 54.395-88.559 61.364-99.715 6.9687-11.16 7.793-23.011-7.711-23.011h-45.974c0.0153-33.723-0.18331-63.535-0.0103-95.524 0-6.6367-2.1294-11.862-7.6684-11.862z"
     fill-rule="evenodd"
     opacity=".3"
     id="path18" />
  <path
     d="m199.67 69.274c-5.543 0-11.569 9.1719-15.343 15.34-19.906 32.555-54.395 88.559-61.364 99.715-6.9688 11.16-7.793 23.011 7.711 23.011h45.974c-0.0153 33.723 0.18331 63.535 0.0103 95.524 0 6.6367 2.1294 11.862 7.6685 11.862 5.543 0 11.569-9.1719 15.343-15.34 19.906-32.555 54.395-88.559 61.364-99.715 6.9688-11.16 7.793-23.011-7.7109-23.011h-45.974c0.0153-33.723-0.18332-63.535-0.0103-95.524 0-6.6367-2.1294-11.862-7.6685-11.862z"
     fill="#333542"
     fill-rule="evenodd"
     id="path20" />
  <path
     transform="scale(.75)"
     d="m31.064 251c-0.036282 1.6632-0.064453 3.3281-0.064453 5 0 124.27 100.73 225 225 225 124.27 0 225-100.73 225-225 0-1.6719-0.02817-3.3368-0.06445-5-2.6604 121.96-102.34 220-224.94 220-122.59 0-222.28-98.045-224.94-220z"
     fill="#181100"
     opacity=".3"
     stroke-width="1.3333"
     id="path22" />
  <path
     transform="scale(.75)"
     d="m256 31c-124.27 0-225 100.73-225 225 0 1.6719 0.028171 3.3368 0.064453 5 2.6604-121.96 102.34-220 224.94-220s222.28 98.045 224.94 220c0.03628-1.6632 0.06445-3.3281 0.06445-5 0-124.27-100.73-225-225-225z"
     fill="#fff"
     opacity=".3"
     stroke-width="1.3333"
     id="path24" />
</svg>
