<?xml version="1.0" encoding="UTF-8" standalone="no"?>
<svg
   xmlns:dc="http://purl.org/dc/elements/1.1/"
   xmlns:cc="http://creativecommons.org/ns#"
   xmlns:rdf="http://www.w3.org/1999/02/22-rdf-syntax-ns#"
   xmlns:svg="http://www.w3.org/2000/svg"
   xmlns="http://www.w3.org/2000/svg"
   xmlns:xlink="http://www.w3.org/1999/xlink"
   xmlns:sodipodi="http://sodipodi.sourceforge.net/DTD/sodipodi-0.dtd"
   xmlns:inkscape="http://www.inkscape.org/namespaces/inkscape"
   width="512"
   height="512"
   version="1.1"
   viewBox="0 0 384 384"
   id="svg37"
   sodipodi:docname="preferences-web-browser-cookies.svg"
   inkscape:version="0.92.4 (5da689c313, 2019-01-14)">
  <metadata
     id="metadata41">
    <rdf:RDF>
      <cc:Work
         rdf:about="">
        <dc:format>image/svg+xml</dc:format>
        <dc:type
           rdf:resource="http://purl.org/dc/dcmitype/StillImage" />
      </cc:Work>
    </rdf:RDF>
  </metadata>
  <sodipodi:namedview
     pagecolor="#ffffff"
     bordercolor="#666666"
     borderopacity="1"
     objecttolerance="10"
     gridtolerance="10"
     guidetolerance="10"
     inkscape:pageopacity="0"
     inkscape:pageshadow="2"
     inkscape:window-width="1366"
     inkscape:window-height="682"
     id="namedview39"
     showgrid="false"
     inkscape:zoom="0.4609375"
     inkscape:cx="-33.627119"
     inkscape:cy="321.08475"
     inkscape:window-x="0"
     inkscape:window-y="0"
     inkscape:window-maximized="1"
     inkscape:current-layer="svg37" />
  <defs
     id="defs27">
    <filter
       id="alpha"
       width="100%"
       height="100%"
       x="0%"
       y="0%"
       filterUnits="objectBoundingBox">
      <feColorMatrix
         in="SourceGraphic"
         type="matrix"
         values="0 0 0 0 1 0 0 0 0 1 0 0 0 0 1 0 0 0 1 0"
         id="feColorMatrix2" />
    </filter>
    <mask
       id="mask0">
      <g
         filter="url(#alpha)"
         id="g7">
        <rect
           width="384"
           height="384"
           x="0"
           y="0"
           style="fill:rgb(0%,0%,0%);fill-opacity:0.2"
           id="rect5" />
      </g>
    </mask>
    <clipPath
       id="clip1">
      <rect
         width="384"
         height="384"
         x="0"
         y="0"
         id="rect10" />
    </clipPath>
    <g
       id="surface5"
       clip-path="url(#clip1)">
      <path
         style="fill:rgb(100.000%,100.000%,100.000%)"
         d="M 264 12 C 246.007812 60.605469 202.855469 95.601562 151.40625 103.3125 C 151.671875 105.265625 151.898438 107.222656 152.085938 109.183594 C 203.25 101.269531 246.085938 66.367188 264 18 C 326.929688 47.96875 370.527344 111.183594 371.871094 185.179688 C 371.929688 184.351562 372 183.519531 372 182.671875 C 372 107.164062 327.921875 42.445312 264 12 Z M 153.070312 130.59375 C 150.5 206.542969 88.324219 267.015625 12 267.796875 C 13.015625 269.816406 14.167969 271.742188 15.257812 273.714844 C 90.28125 271.238281 150.535156 211.285156 153.070312 136.59375 C 153.140625 138.085938 153.1875 139.578125 153.210938 141.070312 C 153.253906 140.007812 153.285156 138.945312 153.304688 137.882812 C 153.289062 135.453125 153.210938 133.019531 153.070312 130.59375 Z M 153.070312 130.59375"
         id="path13" />
    </g>
    <mask
       id="mask1">
      <g
         filter="url(#alpha)"
         id="g18">
        <rect
           width="384"
           height="384"
           x="0"
           y="0"
           style="fill:rgb(0%,0%,0%);fill-opacity:0.2"
           id="rect16" />
      </g>
    </mask>
    <clipPath
       id="clip2">
      <rect
         width="384"
         height="384"
         x="0"
         y="0"
         id="rect21" />
    </clipPath>
    <g
       id="surface8"
       clip-path="url(#clip2)">
      <path
         style="fill:rgb(0%,0%,0%)"
         d="M 152.085938 109.195312 C 151.863281 109.238281 151.640625 109.28125 151.417969 109.324219 C 152.25 114.378906 152.804688 119.476562 153.082031 124.59375 C 153.1875 123.023438 153.265625 121.453125 153.316406 119.882812 C 153.277344 118.90625 153.226562 117.929688 153.164062 116.953125 C 153.140625 117.5 153.113281 118.046875 153.082031 118.59375 C 152.855469 115.449219 152.523438 112.316406 152.085938 109.195312 Z M 371.90625 186.246094 C 369.996094 289.457031 285.984375 372 181.828125 372 C 109.714844 372 47.464844 332.285156 15.222656 273.667969 C 14.148438 273.722656 13.074219 273.765625 12 273.796875 C 43.21875 335.65625 107.308594 378 181.828125 378 C 287.1875 378 372 293.550781 372 188.671875 C 372 187.855469 371.9375 187.054688 371.90625 186.246094 Z M 371.90625 186.246094"
         id="path24" />
    </g>
  </defs>
  <g
     id="g35">
    <path
       style="fill:rgb(100.000%,82.352%,34.901%)"
       d="M 264.011719 12 C 246.023438 60.609375 202.871094 95.605469 151.417969 103.316406 C 152.648438 110.773438 153.285156 118.316406 153.3125 125.871094 C 153.273438 203.757812 90.226562 267.078125 12 267.792969 C 43.21875 329.652344 107.308594 372 181.835938 372 C 287.183594 372 372 287.558594 372 182.679688 C 372 107.171875 327.933594 42.449219 264.011719 12.007812 Z M 264.011719 12"
       id="path29" />
    <use
       mask="url(#mask0)"
       xlink:href="#surface5"
       id="use31" />
    <use
       mask="url(#mask1)"
       xlink:href="#surface8"
       id="use33" />
  </g>
  <circle
     style="opacity:1;fill:#735700;fill-opacity:1;stroke:none;stroke-width:7.5;stroke-linecap:round;stroke-linejoin:round;stroke-miterlimit:4;stroke-dasharray:none;stroke-opacity:1;paint-order:stroke fill markers"
     id="path848"
     cx="137.49153"
     cy="308.33899"
     r="30.101696" />
  <circle
     style="opacity:1;fill:#735700;fill-opacity:1;stroke:none;stroke-width:7.5;stroke-linecap:round;stroke-linejoin:round;stroke-miterlimit:4;stroke-dasharray:none;stroke-opacity:1;paint-order:stroke fill markers"
     id="path848-3"
     cx="208.27119"
     cy="219.66101"
     r="30.101696" />
  <circle
     style="opacity:1;fill:#735700;fill-opacity:1;stroke:none;stroke-width:7.5;stroke-linecap:round;stroke-linejoin:round;stroke-miterlimit:4;stroke-dasharray:none;stroke-opacity:1;paint-order:stroke fill markers"
     id="path848-6"
     cx="297.76273"
     cy="120.40678"
     r="30.101696" />
  <circle
     style="opacity:1;fill:#735700;fill-opacity:1;stroke:none;stroke-width:7.5;stroke-linecap:round;stroke-linejoin:round;stroke-miterlimit:4;stroke-dasharray:none;stroke-opacity:1;paint-order:stroke fill markers"
     id="path848-7"
     cx="291.25424"
     cy="271.72882"
     r="30.101696" />
</svg>
