<?xml version="1.0" encoding="UTF-8" standalone="no"?>
<svg
   xmlns:dc="http://purl.org/dc/elements/1.1/"
   xmlns:cc="http://creativecommons.org/ns#"
   xmlns:rdf="http://www.w3.org/1999/02/22-rdf-syntax-ns#"
   xmlns:svg="http://www.w3.org/2000/svg"
   xmlns="http://www.w3.org/2000/svg"
   xmlns:sodipodi="http://sodipodi.sourceforge.net/DTD/sodipodi-0.dtd"
   xmlns:inkscape="http://www.inkscape.org/namespaces/inkscape"
   width="512"
   height="512"
   version="1.1"
   viewBox="0 0 384 384"
   id="svg39"
   sodipodi:docname="preferences-desktop-notification.svg"
   inkscape:version="0.92.4 (5da689c313, 2019-01-14)">
  <metadata
     id="metadata43">
    <rdf:RDF>
      <cc:Work
         rdf:about="">
        <dc:format>image/svg+xml</dc:format>
        <dc:type
           rdf:resource="http://purl.org/dc/dcmitype/StillImage" />
      </cc:Work>
    </rdf:RDF>
  </metadata>
  <sodipodi:namedview
     pagecolor="#ffffff"
     bordercolor="#666666"
     borderopacity="1"
     objecttolerance="10"
     gridtolerance="10"
     guidetolerance="10"
     inkscape:pageopacity="0"
     inkscape:pageshadow="2"
     inkscape:window-width="1366"
     inkscape:window-height="682"
     id="namedview41"
     showgrid="false"
     inkscape:zoom="0.4609375"
     inkscape:cx="27.118644"
     inkscape:cy="256"
     inkscape:window-x="0"
     inkscape:window-y="0"
     inkscape:window-maximized="1"
     inkscape:current-layer="svg39" />
  <defs
     id="defs27">
    <clipPath
       id="clipPath4">
      <rect
         width="384"
         height="384"
         id="rect2" />
    </clipPath>
    <clipPath
       id="clipPath8">
      <rect
         width="384"
         height="384"
         id="rect6" />
    </clipPath>
    <clipPath
       id="clipPath12">
      <rect
         width="384"
         height="384"
         id="rect10" />
    </clipPath>
    <linearGradient
       id="a"
       x1="1"
       x2="47"
       gradientTransform="matrix(0 -8 8 0 -1.2e-5 384)"
       gradientUnits="userSpaceOnUse">
      <stop
         stop-color="#22b9c1"
         offset="0"
         id="stop14" />
      <stop
         stop-color="#38c0c7"
         offset="1"
         id="stop16" />
    </linearGradient>
    <clipPath
       id="clipPath21">
      <rect
         width="384"
         height="384"
         id="rect19" />
    </clipPath>
    <clipPath
       id="clipPath25">
      <rect
         width="384"
         height="384"
         id="rect23" />
    </clipPath>
  </defs>
  <path
     d="m192 8c101.62 0 184 82.375 184 184s-82.375 184-184 184-184-82.375-184-184 82.375-184 184-184z"
     fill="url(#a)"
     id="path29"
     style="fill:#e57c00;fill-opacity:1" />
  <path
     d="m107.5 111.5c-6.4727 0-11.504 5.0312-11.504 11.504v127c0 6.4726 5.0313 11.504 11.504 11.504h36.504v42l48-42h84.504c6.4726 0 11.527-5.0312 11.527-11.504v-127c0-6.4727-5.2773-11.504-11.781-11.504"
     fill="#060000"
     opacity=".3"
     id="path31" />
  <path
     d="m107.5 104c-6.4727 0-11.504 5.0312-11.504 11.504v127c0 6.4726 5.0312 11.504 11.504 11.504h36.504v42l48-42h84.504c6.4726 0 11.527-5.0312 11.527-11.504v-127c0-6.4727-5.2773-11.504-11.781-11.504"
     fill="#fff"
     id="path33" />
  <path
     transform="scale(.75)"
     d="m10.742 250c-0.04788 1.9946-0.076172 3.9938-0.076172 6 0 135.5 109.83 245.33 245.33 245.33 135.5 0 245.33-109.83 245.33-245.33 0-2.0062-0.02829-4.0054-0.07617-6-3.186 132.73-111.76 239.33-245.26 239.33-133.49 0-242.07-106.61-245.26-239.33z"
     opacity=".3"
     stroke-width="1.3333"
     id="path35" />
  <path
     transform="scale(.75)"
     d="m256 10.666c-135.5 0-245.33 109.83-245.33 245.33 0 1.6718 0.029218 3.3362 0.0625 5 2.6642-133.19 111.44-240.33 245.27-240.33 133.83 0 242.61 107.14 245.27 240.33 0.03329-1.6638 0.0625-3.3282 0.0625-5 0-135.5-109.83-245.33-245.33-245.33z"
     fill="#fff"
     opacity=".3"
     stroke-width="1.3333"
     id="path37" />
</svg>
