<?xml version="1.0" encoding="UTF-8" standalone="no"?>
<svg
   xmlns:dc="http://purl.org/dc/elements/1.1/"
   xmlns:cc="http://creativecommons.org/ns#"
   xmlns:rdf="http://www.w3.org/1999/02/22-rdf-syntax-ns#"
   xmlns:svg="http://www.w3.org/2000/svg"
   xmlns="http://www.w3.org/2000/svg"
   xmlns:sodipodi="http://sodipodi.sourceforge.net/DTD/sodipodi-0.dtd"
   xmlns:inkscape="http://www.inkscape.org/namespaces/inkscape"
   width="512"
   height="512"
   version="1.1"
   viewBox="0 0 384 384"
   id="svg80"
   sodipodi:docname="rhythmbox.svg"
   inkscape:version="0.92.4 (5da689c313, 2019-01-14)">
  <metadata
     id="metadata84">
    <rdf:RDF>
      <cc:Work
         rdf:about="">
        <dc:format>image/svg+xml</dc:format>
        <dc:type
           rdf:resource="http://purl.org/dc/dcmitype/StillImage" />
        <dc:title></dc:title>
      </cc:Work>
    </rdf:RDF>
  </metadata>
  <sodipodi:namedview
     pagecolor="#ffffff"
     bordercolor="#666666"
     borderopacity="1"
     objecttolerance="10"
     gridtolerance="10"
     guidetolerance="10"
     inkscape:pageopacity="0"
     inkscape:pageshadow="2"
     inkscape:window-width="1366"
     inkscape:window-height="682"
     id="namedview82"
     showgrid="false"
     inkscape:zoom="0.65186406"
     inkscape:cx="41.738064"
     inkscape:cy="512.61788"
     inkscape:window-x="0"
     inkscape:window-y="0"
     inkscape:window-maximized="1"
     inkscape:current-layer="svg80" />
  <defs
     id="defs34">
    <clipPath
       id="clipPath4">
      <rect
         width="384"
         height="384"
         id="rect2" />
    </clipPath>
    <clipPath
       id="clipPath8">
      <rect
         width="384"
         height="384"
         id="rect6" />
    </clipPath>
    <clipPath
       id="clipPath12">
      <rect
         width="384"
         height="384"
         id="rect10" />
    </clipPath>
    <clipPath
       id="clipPath16">
      <rect
         width="384"
         height="384"
         id="rect14" />
    </clipPath>
    <clipPath
       id="clipPath20">
      <rect
         width="384"
         height="384"
         id="rect18" />
    </clipPath>
    <clipPath
       id="clipPath24">
      <rect
         width="384"
         height="384"
         id="rect22" />
    </clipPath>
    <clipPath
       id="clipPath28">
      <rect
         width="384"
         height="384"
         id="rect26" />
    </clipPath>
    <clipPath
       id="clipPath32">
      <rect
         width="384"
         height="384"
         id="rect30" />
    </clipPath>
  </defs>
  <path
     d="m84.418 23.422h214.66c12.703 0 23 10.297 23 23v291.33c0 12.703-10.297 23-23 23h-214.66c-12.703 0-23-10.297-23-23v-291.33c0-12.703 10.297-23 23-23z"
     fill="#333"
     id="path36"
     style="fill:#c8c8c8;fill-opacity:1" />
  <g
     fill="#171717"
     id="g48">
    <path
       d="m96.887 41.949c-4.4922-4.4883-11.773-4.4883-16.262 0-4.4922 4.4922-4.4922 11.773 0 16.266 4.4883 4.4922 11.77 4.4922 16.262 0 4.4922-4.4922 4.4922-11.773 0-16.266zm-4.0664 1.3555 2.7109 2.7109-4.0664 4.0664 4.0664 4.0664-2.7109 2.7109-4.0664-4.0664-4.0664 4.0664-2.707-2.7109 4.0625-4.0664-4.0625-4.0664 2.707-2.7109 4.0664 4.0664z"
       id="path38" />
    <path
       d="m303.89 41.949c-4.4922-4.4883-11.773-4.4883-16.266 0-4.4922 4.4922-4.4922 11.773 0 16.266 4.4922 4.4922 11.773 4.4922 16.266 0 4.4883-4.4922 4.4883-11.773 0-16.266zm-4.0664 1.3555 2.7109 2.7109-4.0664 4.0664 4.0664 4.0664-2.7109 2.7109-4.0664-4.0664-4.0664 4.0664-2.7109-2.7109 4.0664-4.0664-4.0664-4.0664 2.7109-2.7109 4.0664 4.0664z"
       id="path40" />
    <path
       d="m303.89 325.62c-4.4922-4.4922-11.773-4.4922-16.266 0-4.4922 4.4883-4.4922 11.77 0 16.262 4.4922 4.4922 11.773 4.4922 16.266 0 4.4883-4.4922 4.4883-11.773 0-16.262zm-4.0664 1.3555 2.7109 2.7109-4.0664 4.0625 4.0664 4.0664-2.7109 2.7109-4.0664-4.0664-4.0664 4.0664-2.7109-2.7109 4.0664-4.0664-4.0664-4.0625 2.7109-2.7109 4.0664 4.0625z"
       id="path42" />
    <path
       d="m96.887 325.62c-4.4922-4.4922-11.773-4.4922-16.262 0-4.4922 4.4883-4.4922 11.77 0 16.262 4.4883 4.4922 11.77 4.4922 16.262 0 4.4922-4.4922 4.4922-11.773 0-16.262zm-4.0664 1.3555 2.7109 2.7109-4.0664 4.0625 4.0664 4.0664-2.7109 2.7109-4.0664-4.0664-4.0664 4.0664-2.707-2.7109 4.0625-4.0664-4.0625-4.0625 2.707-2.7109 4.0664 4.0625z"
       id="path44" />
    <path
       d="m226.75 80.75c0 19.055-15.445 34.5-34.5 34.5-19.055 0-34.5-15.445-34.5-34.5s15.445-34.5 34.5-34.5c19.055 0 34.5 15.445 34.5 34.5z"
       id="path46" />
  </g>
  <path
     d="m211.42 80.75c0 10.586-8.582 19.164-19.168 19.164-10.586 0-19.164-8.5781-19.164-19.164s8.5781-19.168 19.164-19.168c10.586 0 19.168 8.582 19.168 19.168z"
     fill="#333"
     id="path50"
     style="fill:#646464;fill-opacity:1" />
  <path
     d="m288.09 237.91c0 52.93-42.906 95.832-95.832 95.832-52.926 0-95.832-42.902-95.832-95.832 0-52.926 42.906-95.832 95.832-95.832 52.926 0 95.832 42.906 95.832 95.832z"
     fill="#ffc72e"
     id="path52" />
  <path
     transform="scale(.75)"
     d="m128.76 310.22c-0.12515 2.3176-0.19336 4.6511-0.19336 7 0 70.573 57.208 127.78 127.78 127.78s127.78-57.202 127.78-127.78c0-2.3489-0.06821-4.6824-0.19335-7-3.6345 67.317-59.365 120.78-127.58 120.78-68.219 0-123.95-53.459-127.58-120.78z"
     fill="#fff"
     opacity=".3"
     stroke-width="1.3333"
     id="path54" />
  <path
     d="m288.09 237.91c0 52.93-42.906 95.832-95.832 95.832-52.926 0-95.832-42.902-95.832-95.832 0-52.926 42.906-95.832 95.832-95.832 52.926 0 95.832 42.906 95.832 95.832z"
     fill="none"
     stroke="#171717"
     stroke-width="7.6666"
     id="path56" />
  <path
     d="m222.92 237.91c0-16.938-13.73-30.664-30.668-30.664s-30.668 13.727-30.668 30.664 13.73 30.668 30.668 30.668 30.668-13.73 30.668-30.668z"
     fill="#171717"
     id="path58" />
  <path
     d="m219.09 237.91c0-14.82-12.012-26.832-26.832-26.832-14.82 0-26.832 12.012-26.832 26.832s12.012 26.832 26.832 26.832c14.82 0 26.832-12.012 26.832-26.832z"
     fill="#333"
     id="path60" />
  <path
     transform="scale(.75)"
     d="m112.56 31.229c-16.938 0-30.666 13.73-30.666 30.668v10c0-16.937 13.729-30.668 30.666-30.668h286.22c16.937 0 30.668 13.73 30.668 30.668v-10c0-16.938-13.73-30.668-30.668-30.668h-286.22z"
     fill="#fff"
     opacity=".3"
     stroke-width="1.3333"
     id="path62" />
  <g
     id="g70">
    <path
       d="m84.417 360.75c-12.703 0-23-10.298-23-23.001v-7.5c0 12.703 10.296 23.001 23 23.001h214.66c12.703 0 23.001-10.298 23.001-23.001v7.5c0 12.703-10.298 23.001-23.001 23.001z"
       opacity=".3"
       id="path64" />
    <path
       transform="scale(.75)"
       d="m256.34 189.44c-70.568 0-127.78 57.208-127.78 127.78 0 2.349 0.06822 4.6823 0.19336 7 3.6347-67.312 59.363-120.78 127.58-120.78 68.219 0 123.95 53.463 127.58 120.78 0.12513-2.3177 0.19335-4.651 0.19335-7 0-70.568-57.21-127.78-127.78-127.78z"
       opacity=".3"
       stroke-width="1.3333"
       id="path66" />
    <path
       transform="scale(.75)"
       d="m220.62 315.22c-0.03648 0.66216-0.05859 1.3287-0.05859 2 0 19.76 16.015 35.775 35.775 35.775 19.76 0 35.777-16.015 35.777-35.775 0-0.67129-0.0221-1.3378-0.05859-2-1.0375 18.83-16.63 33.775-35.719 33.775-19.089 0-34.679-14.946-35.717-33.775z"
       opacity=".3"
       stroke-width="1.3333"
       id="path68" />
  </g>
  <g
     stroke-width="1.3333"
     id="g78">
    <path
       transform="scale(.75)"
       d="m256.34 281.44c-19.76 0-35.775 16.015-35.775 35.775 0 0.67129 0.02211 1.3378 0.05859 2 1.0375-18.83 16.628-33.775 35.717-33.775 19.089 0 34.681 14.946 35.719 33.775 0.03649-0.66216 0.05859-1.3287 0.05859-2 0-19.76-16.017-35.775-35.777-35.775z"
       fill="#fff"
       opacity=".3"
       id="path72" />
    <path
       transform="scale(.75)"
       d="m230.81 106.67c-0.01281 0.33242-0.02539 0.66443-0.02539 1 0 14.115 11.436 25.553 25.551 25.553 14.115 0 25.559-11.438 25.559-25.553 0-0.33557-0.01257-0.66758-0.02539-1-0.52555 13.651-11.754 24.553-25.533 24.553-13.78 0-25-10.902-25.525-24.553z"
       opacity=".3"
       id="path74" />
    <path
       transform="scale(.75)"
       d="m256.34 82.109c-14.115 0-25.551 11.442-25.551 25.557 0 0.33506 0.01262 0.66806 0.02539 1 0.52607-13.65 11.746-24.557 25.525-24.557 13.779 0 25.007 10.906 25.533 24.557 0.01278-0.33194 0.02539-0.66494 0.02539-1 0-14.115-11.444-25.557-25.559-25.557z"
       fill="#fff"
       opacity=".3"
       id="path76" />
  </g>
</svg>
