<?xml version="1.0" encoding="UTF-8" standalone="no"?>
<svg
   xmlns:dc="http://purl.org/dc/elements/1.1/"
   xmlns:cc="http://creativecommons.org/ns#"
   xmlns:rdf="http://www.w3.org/1999/02/22-rdf-syntax-ns#"
   xmlns:svg="http://www.w3.org/2000/svg"
   xmlns="http://www.w3.org/2000/svg"
   xmlns:sodipodi="http://sodipodi.sourceforge.net/DTD/sodipodi-0.dtd"
   xmlns:inkscape="http://www.inkscape.org/namespaces/inkscape"
   width="512"
   height="512"
   version="1.1"
   viewBox="0 0 384 384"
   id="svg18"
   sodipodi:docname="sound-juicer.svg"
   inkscape:version="0.92.4 (5da689c313, 2019-01-14)">
  <metadata
     id="metadata22">
    <rdf:RDF>
      <cc:Work
         rdf:about="">
        <dc:format>image/svg+xml</dc:format>
        <dc:type
           rdf:resource="http://purl.org/dc/dcmitype/StillImage" />
      </cc:Work>
    </rdf:RDF>
  </metadata>
  <sodipodi:namedview
     pagecolor="#ffffff"
     bordercolor="#666666"
     borderopacity="1"
     objecttolerance="10"
     gridtolerance="10"
     guidetolerance="10"
     inkscape:pageopacity="0"
     inkscape:pageshadow="2"
     inkscape:window-width="1366"
     inkscape:window-height="682"
     id="namedview20"
     showgrid="false"
     inkscape:zoom="0.4609375"
     inkscape:cx="27.118644"
     inkscape:cy="256"
     inkscape:window-x="0"
     inkscape:window-y="0"
     inkscape:window-maximized="1"
     inkscape:current-layer="svg18" />
  <defs
     id="defs6">
    <clipPath
       id="clipPath4">
      <rect
         width="384"
         height="384"
         id="rect2" />
    </clipPath>
  </defs>
  <path
     d="m192 33.059c-87.781 0-158.95 71.16-158.95 158.94s71.164 158.94 158.95 158.94c87.777 0 158.94-71.16 158.94-158.94s-71.164-158.94-158.94-158.94zm0 115.59c23.941 0 43.348 19.406 43.348 43.348s-19.406 43.348-43.348 43.348c-23.945 0-43.348-19.406-43.348-43.348s19.402-43.348 43.348-43.348z"
     fill="#e6e6e6"
     stroke="#ccc"
     stroke-width="1.9868"
     id="path8"
     style="stroke:#000000;stroke-opacity:0.58823532" />
  <path
     d="m310.82 187.5c-21.434 30.008-94.262 114.62-63.242 163.55 24.004 37.848 105.59 38.043 129.31 0 30.875-49.488-47.82-133.55-66.059-163.55z"
     fill="#271d00"
     opacity=".3"
     id="path10" />
  <path
     d="m192 124.14c-37.48 0-67.863 30.379-67.863 67.859s30.383 67.859 67.863 67.859c37.477 0 67.859-30.379 67.859-67.859s-30.383-67.859-67.859-67.859zm0 31.848c19.887 0 36.012 16.125 36.012 36.012s-16.125 36.012-36.012 36.012c-19.887 0-36.016-16.125-36.016-36.012s16.129-36.012 36.016-36.012z"
     fill="#fff"
     stroke="#e6e6e6"
     stroke-width="3.5188"
     id="path12"
     style="stroke:#000000;stroke-opacity:0.58823532" />
  <path
     d="m310.82 180c-21.434 30.008-94.262 114.62-63.242 163.55 24.004 37.848 105.59 38.043 129.31 0 30.875-49.488-47.82-133.55-66.059-163.55z"
     fill="#ffc62f"
     id="path14" />
  <path
     transform="scale(.75)"
     d="m414.43 240c-24.287 34.003-98.049 120.59-94.27 185.87 3.5146-63.851 71.204-143.57 94.27-175.87h0.01563c19.888 32.713 93.673 113.63 97.385 178.12 4.1849-65.872-76.455-153.69-97.385-188.12h-0.01563z"
     fill="#fff"
     opacity=".3"
     stroke-width="1.3333"
     id="path16" />
</svg>
