<?xml version="1.0" encoding="UTF-8" standalone="no"?>
<svg
   xmlns:dc="http://purl.org/dc/elements/1.1/"
   xmlns:cc="http://creativecommons.org/ns#"
   xmlns:rdf="http://www.w3.org/1999/02/22-rdf-syntax-ns#"
   xmlns:svg="http://www.w3.org/2000/svg"
   xmlns="http://www.w3.org/2000/svg"
   xmlns:sodipodi="http://sodipodi.sourceforge.net/DTD/sodipodi-0.dtd"
   xmlns:inkscape="http://www.inkscape.org/namespaces/inkscape"
   width="512"
   height="512"
   version="1.1"
   viewBox="0 0 384 384"
   id="svg26"
   sodipodi:docname="10B4_steam.0.svg"
   inkscape:version="0.92.4 (5da689c313, 2019-01-14)">
  <metadata
     id="metadata30">
    <rdf:RDF>
      <cc:Work
         rdf:about="">
        <dc:format>image/svg+xml</dc:format>
        <dc:type
           rdf:resource="http://purl.org/dc/dcmitype/StillImage" />
      </cc:Work>
    </rdf:RDF>
  </metadata>
  <sodipodi:namedview
     pagecolor="#ffffff"
     bordercolor="#666666"
     borderopacity="1"
     objecttolerance="10"
     gridtolerance="10"
     guidetolerance="10"
     inkscape:pageopacity="0"
     inkscape:pageshadow="2"
     inkscape:window-width="1366"
     inkscape:window-height="682"
     id="namedview28"
     showgrid="false"
     inkscape:zoom="0.4609375"
     inkscape:cx="27.118644"
     inkscape:cy="256"
     inkscape:window-x="0"
     inkscape:window-y="0"
     inkscape:window-maximized="1"
     inkscape:current-layer="svg26" />
  <defs
     id="defs10">
    <clipPath
       id="clipPath4">
      <rect
         width="384"
         height="384"
         id="rect2" />
    </clipPath>
    <clipPath
       id="clipPath8">
      <rect
         width="384"
         height="384"
         id="rect6" />
    </clipPath>
    <linearGradient
       gradientUnits="userSpaceOnUse"
       y1="2.1683273"
       gradientTransform="matrix(0.74959757,0,0,0.75040267,-2.5850597e-6,5e-7)"
       id="a"
       x2="231.73351"
       x1="257.78137"
       y2="499.57922">
      <stop
         stop-color="#111D2E"
         offset="0"
         id="stop905" />
      <stop
         stop-color="#051839"
         offset=".21248"
         id="stop907" />
      <stop
         stop-color="#0A1B48"
         offset=".40695"
         id="stop909" />
      <stop
         stop-color="#132E62"
         offset=".58110"
         id="stop911" />
      <stop
         stop-color="#144B7E"
         offset=".73760"
         id="stop913" />
      <stop
         stop-color="#136497"
         offset=".87279"
         id="stop915" />
      <stop
         stop-color="#1387B8"
         offset="1"
         id="stop917" />
    </linearGradient>
    <linearGradient
       gradientUnits="userSpaceOnUse"
       y1="2.1683273"
       gradientTransform="matrix(0.74959755,0,0,0.75040267,-5.9322034e-6,4.2372881e-7)"
       id="a-3"
       x2="231.73351"
       x1="257.78137"
       y2="499.57922">
      <stop
         stop-color="#111D2E"
         offset="0"
         id="stop905-6" />
      <stop
         stop-color="#051839"
         offset=".21248"
         id="stop907-7" />
      <stop
         stop-color="#0A1B48"
         offset=".40695"
         id="stop909-5" />
      <stop
         stop-color="#132E62"
         offset=".58110"
         id="stop911-3" />
      <stop
         stop-color="#144B7E"
         offset=".73760"
         id="stop913-5" />
      <stop
         stop-color="#136497"
         offset=".87279"
         id="stop915-6" />
      <stop
         stop-color="#1387B8"
         offset="1"
         id="stop917-2" />
    </linearGradient>
  </defs>
  <path
     inkscape:connector-curvature="0"
     style="fill:#000000;fill-opacity:0.58823529;stroke-width:0.75"
     d="M 22.850348,250.94646 C 44.639158,323.57961 112.04014,376.5 191.81077,376.5 c 97.40089,0 176.36312,-78.9116 176.36312,-176.25 0,-97.33992 -78.96223,-176.249995 -176.36312,-176.249995 -93.466388,0 -169.944412,72.6619 -175.984662,164.540335 11.41305,19.15302 15.86663,30.99882 7.02592,62.40612 z"
     id="path922-9" />
  <path
     inkscape:connector-curvature="0"
     style="fill:url(#a);stroke-width:0.75"
     d="M 22.926453,242.69646 C 44.715263,315.32962 112.11624,368.25 191.88688,368.25 289.28777,368.25 368.25,289.33841 368.25,192 368.25,94.660076 289.28777,15.75 191.88688,15.75 98.420483,15.75 21.942463,88.4119 15.902213,180.29034 c 11.41305,19.15301 15.86663,30.99882 7.02592,62.40612 z"
     id="path922" />
  <path
     inkscape:connector-curvature="0"
     style="fill:#ffffff;stroke-width:0.75"
     d="m 182.80214,147.85732 c 0,0.29652 0,0.59305 0.0161,0.87141 l -43.15674,62.65121 c -6.99095,-0.31771 -14.00612,0.90772 -20.65795,3.64603 -2.93233,1.19517 -5.67996,2.66266 -8.25804,4.35708 l -94.765247,-38.9868 c 7.5e-4,0 -2.19282,36.05182 6.94553,62.92049 l 66.99376,27.62511 c 3.36377,15.02285 13.676097,28.2 28.890247,34.53895 24.89216,10.39345 53.59319,-1.45236 63.94792,-26.33917 2.69463,-6.50536 3.95113,-13.32843 3.76947,-20.13637 l 61.74978,-44.10032 c 0.49957,0.0161 1.01427,0.0303 1.51384,0.0303 36.953,0 66.98772,-30.10622 66.98772,-67.07787 0,-36.97468 -30.03472,-67.053672 -66.98772,-67.053672 -36.93783,0 -66.98768,30.078992 -66.98768,67.053672 z m -10.35471,126.95749 c -8.01433,19.22865 -30.12557,28.35129 -49.34534,20.34817 -8.8666,-3.69141 -15.56083,-10.45397 -19.42266,-18.51759 l 21.80696,9.03186 c 14.17414,5.90022 30.43588,-0.81695 36.32776,-14.97746 5.91008,-14.17565 -0.79477,-30.45419 -14.96135,-36.3544 l -22.54267,-9.33444 c 8.69857,-3.29807 18.58699,-3.4191 27.82599,0.4236 9.31471,3.87296 16.54183,11.16502 20.37186,20.48434 3.83003,9.31931 3.8149,19.60686 -0.0606,28.89592 m 77.34241,-82.27017 c -24.60002,0 -44.62818,-20.0456 -44.62818,-44.68732 0,-24.62205 20.02816,-44.6737 44.62818,-44.6737 24.61514,0 44.64333,20.05165 44.64333,44.6737 0,24.64172 -20.02819,44.68732 -44.64333,44.68732 m -33.44085,-44.7554 c 0,-18.53727 15.01734,-33.57222 33.51655,-33.57222 18.51434,0 33.53169,15.03495 33.53169,33.57222 0,18.53878 -15.01735,33.56012 -33.53169,33.56012 -18.49921,0 -33.51655,-15.02134 -33.51655,-33.56012 z"
     id="path924" />
</svg>
