<?xml version="1.0" encoding="UTF-8" standalone="no"?>
<svg
   xmlns:dc="http://purl.org/dc/elements/1.1/"
   xmlns:cc="http://creativecommons.org/ns#"
   xmlns:rdf="http://www.w3.org/1999/02/22-rdf-syntax-ns#"
   xmlns:svg="http://www.w3.org/2000/svg"
   xmlns="http://www.w3.org/2000/svg"
   xmlns:sodipodi="http://sodipodi.sourceforge.net/DTD/sodipodi-0.dtd"
   xmlns:inkscape="http://www.inkscape.org/namespaces/inkscape"
   width="512"
   height="512"
   version="1.1"
   viewBox="0 0 384 384"
   id="svg26"
   sodipodi:docname="system-suspend.svg"
   inkscape:version="0.92.4 (5da689c313, 2019-01-14)">
  <metadata
     id="metadata30">
    <rdf:RDF>
      <cc:Work
         rdf:about="">
        <dc:format>image/svg+xml</dc:format>
        <dc:type
           rdf:resource="http://purl.org/dc/dcmitype/StillImage" />
      </cc:Work>
    </rdf:RDF>
  </metadata>
  <sodipodi:namedview
     pagecolor="#ffffff"
     bordercolor="#666666"
     borderopacity="1"
     objecttolerance="10"
     gridtolerance="10"
     guidetolerance="10"
     inkscape:pageopacity="0"
     inkscape:pageshadow="2"
     inkscape:window-width="1366"
     inkscape:window-height="682"
     id="namedview28"
     showgrid="false"
     inkscape:zoom="0.4609375"
     inkscape:cx="27.118644"
     inkscape:cy="256"
     inkscape:window-x="0"
     inkscape:window-y="0"
     inkscape:window-maximized="1"
     inkscape:current-layer="svg26" />
  <defs
     id="defs14">
    <clipPath
       id="clipPath4">
      <rect
         width="384"
         height="384"
         id="rect2" />
    </clipPath>
    <clipPath
       id="clipPath8">
      <rect
         width="384"
         height="384"
         id="rect6" />
    </clipPath>
    <clipPath
       id="clipPath12">
      <rect
         width="384"
         height="384"
         id="rect10" />
    </clipPath>
  </defs>
  <path
     d="m360 192c0 92.785-75.215 168-168 168-92.785 0-168-75.215-168-168 0-92.785 75.215-168 168-168 92.785 0 168 75.215 168 168z"
     fill="#4cc7cc"
     id="path16" />
  <path
     d="m300 199.5c0-59.648-48.352-108-108-108s-108 48.352-108 108 48.352 108 108 108 108-48.352 108-108zm-24 0c0 46.391-37.609 84-84 84-46.391 0-84-37.609-84-84 0-46.391 37.609-84 84-84 46.391 0 84 37.609 84 84zm-36 0c0-6.6484-5.3516-12-12-12h-72c-6.6484 0-12 5.3516-12 12 0 6.6484 5.3516 12 12 12h72c6.6484 0 12-5.3516 12-12z"
     opacity=".3"
     id="path18" />
  <path
     d="m300 192c0-59.648-48.352-108-108-108s-108 48.352-108 108 48.352 108 108 108 108-48.352 108-108zm-24 0c0 46.391-37.609 84-84 84-46.391 0-84-37.609-84-84 0-46.391 37.609-84 84-84 46.391 0 84 37.609 84 84zm-36 0c0-6.6484-5.3516-12-12-12h-72c-6.6484 0-12 5.3516-12 12s5.3516 12 12 12h72c6.6484 0 12-5.3516 12-12z"
     fill="#fff"
     id="path20"
     style="fill:#000000;fill-opacity:1" />
  <path
     transform="scale(.75)"
     d="m32.062 251c-0.036438 1.6631-0.0625 3.3282-0.0625 5 0 123.71 100.29 224 224 224 123.71 0 224-100.29 224-224 0-1.6718-0.02606-3.3369-0.0625-5-2.66 121.4-101.9 219-223.94 219s-221.28-97.597-223.94-219z"
     opacity=".3"
     stroke-width="1.3333"
     id="path22" />
  <path
     transform="scale(.75)"
     d="m256 32c-123.71 0-224 100.29-224 224 0 1.6718 0.026062 3.3369 0.0625 5 2.66-121.4 101.9-219 223.94-219 122.04 0 221.28 97.597 223.94 219 0.03644-1.6631 0.0625-3.3282 0.0625-5 0-123.71-100.29-224-224-224z"
     fill="#fff"
     opacity=".3"
     stroke-width="1.3333"
     id="path24" />
</svg>
