<?xml version="1.0" encoding="UTF-8" standalone="no"?>
<svg
   xmlns:dc="http://purl.org/dc/elements/1.1/"
   xmlns:cc="http://creativecommons.org/ns#"
   xmlns:rdf="http://www.w3.org/1999/02/22-rdf-syntax-ns#"
   xmlns:svg="http://www.w3.org/2000/svg"
   xmlns="http://www.w3.org/2000/svg"
   xmlns:xlink="http://www.w3.org/1999/xlink"
   xmlns:sodipodi="http://sodipodi.sourceforge.net/DTD/sodipodi-0.dtd"
   xmlns:inkscape="http://www.inkscape.org/namespaces/inkscape"
   width="512"
   height="512"
   version="1.1"
   viewBox="0 0 384 384"
   id="svg26"
   sodipodi:docname="system-reboot.svg"
   inkscape:version="0.92.4 (5da689c313, 2019-01-14)">
  <metadata
     id="metadata30">
    <rdf:RDF>
      <cc:Work
         rdf:about="">
        <dc:format>image/svg+xml</dc:format>
        <dc:type
           rdf:resource="http://purl.org/dc/dcmitype/StillImage" />
      </cc:Work>
    </rdf:RDF>
  </metadata>
  <sodipodi:namedview
     pagecolor="#ffffff"
     bordercolor="#666666"
     borderopacity="1"
     objecttolerance="10"
     gridtolerance="10"
     guidetolerance="10"
     inkscape:pageopacity="0"
     inkscape:pageshadow="2"
     inkscape:window-width="1366"
     inkscape:window-height="682"
     id="namedview28"
     showgrid="false"
     inkscape:zoom="0.4609375"
     inkscape:cx="46.644068"
     inkscape:cy="256"
     inkscape:window-x="0"
     inkscape:window-y="0"
     inkscape:window-maximized="1"
     inkscape:current-layer="svg26" />
  <defs
     id="defs14">
    <linearGradient
       inkscape:collect="always"
       id="linearGradient852">
      <stop
         style="stop-color:#00ee38;stop-opacity:1;"
         offset="0"
         id="stop848" />
      <stop
         style="stop-color:#00da33;stop-opacity:1"
         offset="1"
         id="stop850" />
    </linearGradient>
    <clipPath
       id="clipPath4">
      <rect
         width="384"
         height="384"
         id="rect2" />
    </clipPath>
    <clipPath
       id="clipPath8">
      <rect
         width="384"
         height="384"
         id="rect6" />
    </clipPath>
    <clipPath
       id="clipPath12">
      <rect
         width="384"
         height="384"
         id="rect10" />
    </clipPath>
    <linearGradient
       inkscape:collect="always"
       xlink:href="#linearGradient852"
       id="linearGradient854"
       x1="192"
       y1="24"
       x2="192.40678"
       y2="366.10168"
       gradientUnits="userSpaceOnUse" />
  </defs>
  <path
     d="m360 192c0 92.785-75.215 168-168 168-92.785 0-168-75.215-168-168 0-92.785 75.215-168 168-168 92.785 0 168 75.215 168 168z"
     fill="#ffc72e"
     id="path16"
     style="fill-opacity:1;fill:url(#linearGradient854)" />
  <path
     d="m168 55.5v38.813c-49.098 11.191-83.945 54.824-84 105.19 0 59.648 48.352 108 108 108 54.953-0.0664 101.1-41.387 107.2-96 0 0 0.79687-12-11.203-12s-12.961 12-12.961 12c-5.9648 41.293-41.316 71.953-83.039 72-46.395 0-84-37.609-84-84 0.0352-37.117 24.43-69.805 60-80.41v32.41l48-48z"
     opacity=".3"
     id="path18" />
  <path
     d="m168 48v38.812c-49.098 11.191-83.945 54.824-84 105.19 0 59.648 48.352 108 108 108 54.953-0.0664 101.1-41.387 107.2-96 0 0 0.79688-12-11.203-12s-12.961 12-12.961 12c-5.9648 41.293-41.316 71.953-83.039 72-46.395 0-84-37.609-84-84 0.0352-37.117 24.43-69.805 60-80.41v32.41l48-48z"
     fill="#fff"
     id="path20" />
  <path
     transform="scale(.75)"
     d="m32.07 240.37c-0.35613 5.1655-0.55078 10.375-0.55078 15.631 0 123.71 100.29 224 224 224 121.82 0 220.92-97.237 223.93-218.33-8.0454 116.4-105 208.33-223.45 208.33-123.71 0-224-100.29-224-224 0-1.8827 0.02413-3.7592 0.070312-5.6309z"
     opacity=".3"
     stroke-width="1.3333"
     id="path22" />
  <path
     transform="scale(.75)"
     d="m256 32c-123.71 0-224 100.29-224 224 0 1.6718 0.026062 3.3369 0.0625 5 2.66-121.4 101.9-219 223.94-219 122.04 0 221.28 97.597 223.94 219 0.03644-1.6631 0.0625-3.3282 0.0625-5 0-123.71-100.29-224-224-224z"
     fill="#fff"
     opacity=".3"
     stroke-width="1.3333"
     id="path24"
     style="opacity:0.4" />
</svg>
