<?xml version="1.0" encoding="UTF-8" standalone="no"?>
<svg
   xmlns:dc="http://purl.org/dc/elements/1.1/"
   xmlns:cc="http://creativecommons.org/ns#"
   xmlns:rdf="http://www.w3.org/1999/02/22-rdf-syntax-ns#"
   xmlns:svg="http://www.w3.org/2000/svg"
   xmlns="http://www.w3.org/2000/svg"
   xmlns:sodipodi="http://sodipodi.sourceforge.net/DTD/sodipodi-0.dtd"
   xmlns:inkscape="http://www.inkscape.org/namespaces/inkscape"
   width="512"
   height="512"
   version="1.1"
   viewBox="0 0 384 384"
   id="svg18"
   sodipodi:docname="calamares.svg"
   inkscape:version="0.92.4 (5da689c313, 2019-01-14)">
  <metadata
     id="metadata24">
    <rdf:RDF>
      <cc:Work
         rdf:about="">
        <dc:format>image/svg+xml</dc:format>
        <dc:type
           rdf:resource="http://purl.org/dc/dcmitype/StillImage" />
      </cc:Work>
    </rdf:RDF>
  </metadata>
  <defs
     id="defs22" />
  <sodipodi:namedview
     pagecolor="#ffffff"
     bordercolor="#666666"
     borderopacity="1"
     objecttolerance="10"
     gridtolerance="10"
     guidetolerance="10"
     inkscape:pageopacity="0"
     inkscape:pageshadow="2"
     inkscape:window-width="1366"
     inkscape:window-height="682"
     id="namedview20"
     showgrid="false"
     inkscape:zoom="0.4609375"
     inkscape:cx="27.118644"
     inkscape:cy="256"
     inkscape:window-x="0"
     inkscape:window-y="0"
     inkscape:window-maximized="1"
     inkscape:current-layer="g6" />
  <g
     transform="translate(6e-4 .098419)"
     id="g8">
    <g
       transform="translate(16.314 -.099008)"
       id="g6">
      <path
         transform="matrix(7.9471,0,0,7.9471,-15.045,1.2686)"
         d="m24 4.0002c-11.046 0-20 8.9542-20 20s8.9547 20 20 20c11.045 0 20-8.9542 20-20s-8.9547-20-20-20zm0 14.545c3.0126 0 5.4545 2.4419 5.4545 5.4545s-2.4419 5.4545-5.4545 5.4545c-3.0131 0-5.4545-2.4419-5.4545-5.4545s2.4414-5.4545 5.4545-5.4545z"
         fill="#e5e5e5"
         stroke="#ccc"
         stroke-width=".25"
         id="path2"
         style="stroke:#000000;stroke-opacity:0.58823532" />
      <path
         transform="matrix(7.9471,0,0,7.9471,-15.045,1.2686)"
         d="m24 15.461c-4.7162 0-8.5393 3.8226-8.5393 8.5388s3.8231 8.5388 8.5393 8.5388c4.7157 0 8.5388-3.8226 8.5388-8.5388s-3.8231-8.5388-8.5388-8.5388zm0 4.0074c2.5024 0 4.5314 2.029 4.5314 4.5314s-2.029 4.5314-4.5314 4.5314-4.5319-2.029-4.5319-4.5314 2.0295-4.5314 4.5319-4.5314z"
         fill="#fff"
         stroke="#e5e5e5"
         stroke-width=".44277"
         id="path4"
         style="stroke:#000000;stroke-opacity:0.58823532" />
    </g>
  </g>
  <path
     d="m384 294c0 49.706-40.294 90-90 90s-90-40.294-90-90 40.294-90 90-90 90 40.294 90 90z"
     fill-opacity=".98431"
     opacity=".3"
     stroke-width=".9375"
     id="path10" />
  <path
     d="m384 286.5c0 49.706-40.294 90-90 90s-90-40.294-90-90 40.294-90 90-90 90 40.294 90 90z"
     fill="#49ade5"
     fill-opacity=".98431"
     stroke-width=".9375"
     id="path12"
     style="fill:#0083d7" />
  <path
     d="m293.79 339-35.793-45h24v-45h24v45h24z"
     opacity=".3"
     stroke-width=".96825"
     id="path14" />
  <path
     d="m293.79 331.5-35.793-45h24v-45h24v45h24z"
     fill="#fff"
     stroke-width=".96825"
     id="path16" />
</svg>
