<?xml version="1.0" encoding="UTF-8" standalone="no"?>
<svg
   xmlns:dc="http://purl.org/dc/elements/1.1/"
   xmlns:cc="http://creativecommons.org/ns#"
   xmlns:rdf="http://www.w3.org/1999/02/22-rdf-syntax-ns#"
   xmlns:svg="http://www.w3.org/2000/svg"
   xmlns="http://www.w3.org/2000/svg"
   xmlns:xlink="http://www.w3.org/1999/xlink"
   xmlns:sodipodi="http://sodipodi.sourceforge.net/DTD/sodipodi-0.dtd"
   xmlns:inkscape="http://www.inkscape.org/namespaces/inkscape"
   width="512"
   height="512"
   version="1.1"
   viewBox="0 0 384 384"
   id="svg14"
   sodipodi:docname="deepin-terminal.svg"
   inkscape:version="0.92.4 (5da689c313, 2019-01-14)">
  <metadata
     id="metadata20">
    <rdf:RDF>
      <cc:Work
         rdf:about="">
        <dc:format>image/svg+xml</dc:format>
        <dc:type
           rdf:resource="http://purl.org/dc/dcmitype/StillImage" />
      </cc:Work>
    </rdf:RDF>
  </metadata>
  <defs
     id="defs18">
    <linearGradient
       inkscape:collect="always"
       id="linearGradient878">
      <stop
         style="stop-color:#282828;stop-opacity:1;"
         offset="0"
         id="stop874" />
      <stop
         style="stop-color:#141414;stop-opacity:1"
         offset="1"
         id="stop876" />
    </linearGradient>
    <linearGradient
       inkscape:collect="always"
       id="linearGradient846">
      <stop
         style="stop-color:#ffffff;stop-opacity:1;"
         offset="0"
         id="stop842" />
      <stop
         style="stop-color:#ffffff;stop-opacity:0;"
         offset="1"
         id="stop844" />
    </linearGradient>
    <linearGradient
       inkscape:collect="always"
       xlink:href="#linearGradient846"
       id="linearGradient848"
       x1="184.25063"
       y1="21.75"
       x2="183.99936"
       y2="42.75"
       gradientUnits="userSpaceOnUse" />
    <linearGradient
       inkscape:collect="always"
       xlink:href="#linearGradient878"
       id="linearGradient880"
       x1="191.965"
       y1="58.296616"
       x2="178.96399"
       y2="335.04663"
       gradientUnits="userSpaceOnUse" />
  </defs>
  <sodipodi:namedview
     pagecolor="#ffffff"
     bordercolor="#666666"
     borderopacity="1"
     objecttolerance="10"
     gridtolerance="10"
     guidetolerance="10"
     inkscape:pageopacity="0"
     inkscape:pageshadow="2"
     inkscape:window-width="1366"
     inkscape:window-height="682"
     id="namedview16"
     showgrid="false"
     inkscape:zoom="1"
     inkscape:cx="205.38645"
     inkscape:cy="244.0263"
     inkscape:window-x="0"
     inkscape:window-y="45"
     inkscape:window-maximized="1"
     inkscape:current-layer="g8" />
  <g
     fill-rule="evenodd"
     id="g8">
    <path
       d="M 35.508115,29.65847 H 348.02503 c 8.3863,0 15.18296,8.292688 15.18296,18.524227 V 339.47534 c 0,10.23185 -6.79692,18.52891 -15.18296,18.52891 H 35.508115 c -8.386297,0 -15.186792,-8.29754 -15.186792,-18.52891 V 48.182697 c 0,-10.231819 6.800879,-18.524227 15.186792,-18.524227 z"
       id="path6-3-3"
       style="opacity:0.4;fill:none;fill-opacity:1;stroke:#000000;stroke-width:7.5;stroke-linecap:round;stroke-linejoin:miter;stroke-miterlimit:4;stroke-dasharray:none;stroke-opacity:1;paint-order:stroke fill markers"
       inkscape:connector-curvature="0" />
    <path
       d="M 31.993159,16.245754 H 352.01077 c 8.58757,0 15.54735,8.514518 15.54735,19.019756 v 299.08478 c 0,10.50553 -6.96002,19.02453 -15.54735,19.02453 H 31.993159 c -8.587567,0 -15.551282,-8.51949 -15.551282,-19.02453 V 35.26551 c 0,-10.505525 6.964103,-19.019756 15.551282,-19.019756 z"
       id="path6"
       style="fill:url(#linearGradient880);fill-opacity:1;stroke:none;stroke-width:15.00000286;stroke-linejoin:round;stroke-miterlimit:4;stroke-dasharray:none"
       inkscape:connector-curvature="0" />
    <path
       d="M 35.508108,20.87558 H 348.02502 c 8.3863,0 15.18297,8.292688 15.18297,18.524229 V 330.69246 c 0,10.23184 -6.79692,18.52889 -15.18297,18.52889 H 35.508108 c -8.386296,0 -15.186788,-8.29752 -15.186788,-18.52889 V 39.399809 c 0,-10.231821 6.800878,-18.524229 15.186788,-18.524229 z"
       id="path6-3"
       style="opacity:0.4;fill:none;fill-opacity:1;stroke:url(#linearGradient848);stroke-width:7.5;stroke-linecap:round;stroke-linejoin:miter;stroke-miterlimit:4;stroke-dasharray:none;stroke-opacity:1;paint-order:stroke fill markers"
       inkscape:connector-curvature="0" />
  </g>
  <path
     d="m 140.82,135.07 v 5.4141 H 100.523 V 135.07 Z"
     id="path10"
     inkscape:connector-curvature="0"
     style="fill:#ffffff" />
  <path
     d="m 72.859,63.62 v 9.043 c -4.418,0.5 -7.875,1.8086 -10.355,3.9453 -2.75,2.375 -4.1289,5.6211 -4.1289,9.7344 0,3.7891 1.2656,6.7695 3.7891,8.9414 2.3125,1.9688 5.8906,3.4141 10.695,4.3438 v 17.48 c -2.2773,-0.13672 -4.5039,-0.52344 -6.6797,-1.1836 -2.625,-0.83593 -5.2266,-2.0586 -7.8047,-3.6758 v 6.8203 c 2.6797,1.1367 5.3438,1.9922 7.9922,2.5742 2.1641,0.45313 4.3281,0.73047 6.4922,0.84766 v 11.461 h 6.7891 v -11.621 c 4.668,-0.51953 8.3047,-1.8789 10.887,-4.0938 2.8789,-2.4766 4.3164,-5.8476 4.3164,-10.113 0,-3.9414 -1.3516,-7.0469 -4.0508,-9.3203 -2.4609,-2.0664 -6.1875,-3.5508 -11.152,-4.4688 v -16.332 c 1.7969,0.16016 3.5586,0.46094 5.2812,0.91797 2.2188,0.58203 4.3789,1.3984 6.4727,2.4609 v -6.6289 c -2.0938,-0.68359 -4.2383,-1.2109 -6.4375,-1.5898 -1.7227,-0.31641 -3.4961,-0.53907 -5.3164,-0.66797 v -8.875 z m 0,14.469 v 15.004 c -2.3906,-0.53906 -4.1914,-1.3086 -5.3906,-2.3164 -1.4141,-1.2148 -2.1211,-2.9062 -2.1211,-5.0781 0,-2.2188 0.76953,-4 2.3086,-5.3398 1.2656,-1.0977 3.0039,-1.8516 5.2031,-2.2695 z m 6.7891,22.887 c 2.5938,0.60156 4.5469,1.457 5.8477,2.5625 1.5664,1.3125 2.3477,3.082 2.3477,5.3047 0,2.2695 -0.82031,4.1016 -2.4609,5.4922 -1.3516,1.1602 -3.2695,1.9805 -5.7344,2.4727 z"
     id="path12"
     inkscape:connector-curvature="0"
     style="fill:#ffffff" />
</svg>
