/* XPM */
static char * close_prelight_xpm[] = {
"32 34 4 1",
" 	c None",
".	c #000000",
"+	c #2D2D2D",
"@	c #BBB6B4",
"................................",
"++++++++++++++++++++++++++++++++",
"++++++++++++++++++++++++++++++++",
"++++++++++++++++++++++++++++++++",
"++++++++++++++++++++++++++++++++",
"++++++++++++++++++++++++++++++++",
"++++++++++++++++++++++++++++++++",
"++++++++++++++++++++++++++++++++",
"++++++++++++++++++++++++++++++++",
"++++++++++++++++++++++++++++++++",
"++++++++++++++++++++++++++++++++",
"++++++++++++++++++++++++++++++++",
"++++++++++++++++++++++++++++++++",
"++++++++++++@@++++@@++++++++++++",
"++++++++++++@@@++@@@++++++++++++",
"+++++++++++++@@@@@@+++++++++++++",
"++++++++++++++@@@@++++++++++++++",
"++++++++++++++@@@@++++++++++++++",
"+++++++++++++@@@@@@+++++++++++++",
"++++++++++++@@@++@@@++++++++++++",
"++++++++++++@@++++@@++++++++++++",
"++++++++++++++++++++++++++++++++",
"++++++++++++++++++++++++++++++++",
"++++++++++++++++++++++++++++++++",
"++++++++++++++++++++++++++++++++",
"++++++++++++++++++++++++++++++++",
"++++++++++++++++++++++++++++++++",
"++++++++++++++++++++++++++++++++",
"++++++++++++++++++++++++++++++++",
"++++++++++++++++++++++++++++++++",
"++++++++++++++++++++++++++++++++",
"++++++++++++++++++++++++++++++++",
"++++++++++++++++++++++++++++++++",
"++++++++++++++++++++++++++++++++"};
