/* XPM */
static char * maximize_pressed_xpm[] = {
"32 34 4 1",
" 	c None",
".	c #000000",
"+	c #414141",
"@	c #BBB6B4",
"................................",
"++++++++++++++++++++++++++++++++",
"++++++++++++++++++++++++++++++++",
"++++++++++++++++++++++++++++++++",
"++++++++++++++++++++++++++++++++",
"++++++++++++++++++++++++++++++++",
"++++++++++++++++++++++++++++++++",
"++++++++++++++++++++++++++++++++",
"++++++++++++++++++++++++++++++++",
"++++++++++++++++++++++++++++++++",
"++++++++++++++++++++++++++++++++",
"++++++++++++++++++++++++++++++++",
"++++++++++++++++++++++++++++++++",
"++++++++++++@@@@@@@@++++++++++++",
"++++++++++++@@@@@@@@++++++++++++",
"++++++++++++@@++++@@++++++++++++",
"++++++++++++@@++++@@++++++++++++",
"++++++++++++@@++++@@++++++++++++",
"++++++++++++@@++++@@++++++++++++",
"++++++++++++@@@@@@@@++++++++++++",
"++++++++++++@@@@@@@@++++++++++++",
"++++++++++++++++++++++++++++++++",
"++++++++++++++++++++++++++++++++",
"++++++++++++++++++++++++++++++++",
"++++++++++++++++++++++++++++++++",
"++++++++++++++++++++++++++++++++",
"++++++++++++++++++++++++++++++++",
"++++++++++++++++++++++++++++++++",
"++++++++++++++++++++++++++++++++",
"++++++++++++++++++++++++++++++++",
"++++++++++++++++++++++++++++++++",
"++++++++++++++++++++++++++++++++",
"++++++++++++++++++++++++++++++++",
"++++++++++++++++++++++++++++++++"};
