/* XPM */
static char * stick_inactive_xpm[] = {
"32 34 8 1",
" 	c None",
".	c #000000",
"+	c #171717",
"@	c #50504F",
"#	c #726F6E",
"$	c #73706F",
"%	c #535252",
"&	c #535353",
"................................",
"++++++++++++++++++++++++++++++++",
"++++++++++++++++++++++++++++++++",
"++++++++++++++++++++++++++++++++",
"++++++++++++++++++++++++++++++++",
"++++++++++++++++++++++++++++++++",
"++++++++++++++++++++++++++++++++",
"++++++++++++++++++++++++++++++++",
"++++++++++++++++++++++++++++++++",
"++++++++++++++++++++++++++++++++",
"++++++++++++@######@++++++++++++",
"+++++++++++$########$+++++++++++",
"++++++++++$##########$++++++++++",
"+++++++++@#####%%#####@+++++++++",
"+++++++++####&++++&####+++++++++",
"+++++++++####++++++####+++++++++",
"+++++++++###%++++++%###+++++++++",
"+++++++++###%++++++%###+++++++++",
"+++++++++####++++++####+++++++++",
"+++++++++####&++++&####+++++++++",
"+++++++++@#####%%#####@+++++++++",
"++++++++++$##########$++++++++++",
"+++++++++++$########$+++++++++++",
"++++++++++++@######@++++++++++++",
"++++++++++++++++++++++++++++++++",
"++++++++++++++++++++++++++++++++",
"++++++++++++++++++++++++++++++++",
"++++++++++++++++++++++++++++++++",
"++++++++++++++++++++++++++++++++",
"++++++++++++++++++++++++++++++++",
"++++++++++++++++++++++++++++++++",
"++++++++++++++++++++++++++++++++",
"++++++++++++++++++++++++++++++++",
"++++++++++++++++++++++++++++++++"};
