/* XPM */
static char * stick_toggled_inactive_xpm[] = {
"32 34 6 1",
" 	c None",
".	c #000000",
"+	c #171717",
"@	c #50504F",
"#	c #726F6E",
"$	c #73706F",
"................................",
"++++++++++++++++++++++++++++++++",
"++++++++++++++++++++++++++++++++",
"++++++++++++++++++++++++++++++++",
"++++++++++++++++++++++++++++++++",
"++++++++++++++++++++++++++++++++",
"++++++++++++++++++++++++++++++++",
"++++++++++++++++++++++++++++++++",
"++++++++++++++++++++++++++++++++",
"++++++++++++++++++++++++++++++++",
"++++++++++++@######@++++++++++++",
"+++++++++++$########$+++++++++++",
"++++++++++$##########$++++++++++",
"+++++++++@############@+++++++++",
"+++++++++##############+++++++++",
"+++++++++##############+++++++++",
"+++++++++##############+++++++++",
"+++++++++##############+++++++++",
"+++++++++##############+++++++++",
"+++++++++##############+++++++++",
"+++++++++@############@+++++++++",
"++++++++++$##########$++++++++++",
"+++++++++++$########$+++++++++++",
"++++++++++++@######@++++++++++++",
"++++++++++++++++++++++++++++++++",
"++++++++++++++++++++++++++++++++",
"++++++++++++++++++++++++++++++++",
"++++++++++++++++++++++++++++++++",
"++++++++++++++++++++++++++++++++",
"++++++++++++++++++++++++++++++++",
"++++++++++++++++++++++++++++++++",
"++++++++++++++++++++++++++++++++",
"++++++++++++++++++++++++++++++++",
"++++++++++++++++++++++++++++++++"};
