<?xml version="1.0" encoding="UTF-8" standalone="no"?>
<svg
   xmlns:dc="http://purl.org/dc/elements/1.1/"
   xmlns:cc="http://creativecommons.org/ns#"
   xmlns:rdf="http://www.w3.org/1999/02/22-rdf-syntax-ns#"
   xmlns:svg="http://www.w3.org/2000/svg"
   xmlns="http://www.w3.org/2000/svg"
   xmlns:sodipodi="http://sodipodi.sourceforge.net/DTD/sodipodi-0.dtd"
   xmlns:inkscape="http://www.inkscape.org/namespaces/inkscape"
   width="48"
   height="48"
   version="1"
   id="svg24"
   sodipodi:docname="battery-missing.svg"
   inkscape:version="0.92.2 2405546, 2018-03-11">
  <metadata
     id="metadata30">
    <rdf:RDF>
      <cc:Work
         rdf:about="">
        <dc:format>image/svg+xml</dc:format>
        <dc:type
           rdf:resource="http://purl.org/dc/dcmitype/StillImage" />
      </cc:Work>
    </rdf:RDF>
  </metadata>
  <defs
     id="defs28" />
  <sodipodi:namedview
     pagecolor="#ffffff"
     bordercolor="#666666"
     borderopacity="1"
     objecttolerance="10"
     gridtolerance="10"
     guidetolerance="10"
     inkscape:pageopacity="0"
     inkscape:pageshadow="2"
     inkscape:window-width="1366"
     inkscape:window-height="706"
     id="namedview26"
     showgrid="false"
     inkscape:zoom="4.9166667"
     inkscape:cx="-0.61016949"
     inkscape:cy="22.372881"
     inkscape:window-x="0"
     inkscape:window-y="25"
     inkscape:window-maximized="1"
     inkscape:current-layer="svg24" />
  <rect
     style="opacity:0.2"
     width="32"
     height="36"
     x="8"
     y="9"
     rx="2"
     ry="2"
     id="rect2" />
  <rect
     style="fill:#4f4f4f"
     width="32"
     height="36"
     x="8"
     y="8"
     rx="2"
     ry="2"
     id="rect4" />
  <rect
     style="fill:#8e8e8e"
     width="20"
     height="4"
     x="14"
     y="4"
     id="rect6" />
  <path
     style="opacity:0.2;fill:#ffffff"
     d="M 14,4 V 5 H 34 V 4 Z"
     id="path12" />
  <rect
     style="fill:none;stroke:#000000;stroke-width:0.97133082;stroke-opacity:1"
     width="31.028669"
     height="35.028667"
     x="8.4856653"
     y="7.4856672"
     rx="1.9392918"
     ry="1.9460371"
     id="rect4-9" />
  <circle
     cx="36"
     cy="36"
     r="10"
     style="fill:#db3c30"
     id="circle16" />
  <path
     d="M 45.979,36.414 A 10,10 0 0 1 36,46 10,10 0 0 1 26.021,36.586 10,10 0 0 0 26,37 10,10 0 0 0 36,47 10,10 0 0 0 46,37 10,10 0 0 0 45.979,36.414 Z"
     style="opacity:0.2"
     id="path18" />
  <rect
     width="12"
     height="2"
     x="-6.18"
     y="50.1"
     transform="rotate(-45)"
     style="fill:#ffffff"
     id="rect20" />
  <rect
     width="12"
     height="2"
     x="-57.1"
     y="-1.18"
     transform="rotate(-135)"
     style="fill:#ffffff"
     id="rect22" />
</svg>
