<?xml version="1.0" encoding="UTF-8" standalone="no"?>
<svg
   xmlns:dc="http://purl.org/dc/elements/1.1/"
   xmlns:cc="http://creativecommons.org/ns#"
   xmlns:rdf="http://www.w3.org/1999/02/22-rdf-syntax-ns#"
   xmlns:svg="http://www.w3.org/2000/svg"
   xmlns="http://www.w3.org/2000/svg"
   xmlns:sodipodi="http://sodipodi.sourceforge.net/DTD/sodipodi-0.dtd"
   xmlns:inkscape="http://www.inkscape.org/namespaces/inkscape"
   width="48"
   height="48"
   version="1"
   id="svg26"
   sodipodi:docname="battery-low-charging.svg"
   inkscape:version="0.92.3 (2405546, 2018-03-11)">
  <metadata
     id="metadata32">
    <rdf:RDF>
      <cc:Work
         rdf:about="">
        <dc:format>image/svg+xml</dc:format>
        <dc:type
           rdf:resource="http://purl.org/dc/dcmitype/StillImage" />
      </cc:Work>
    </rdf:RDF>
  </metadata>
  <defs
     id="defs30" />
  <sodipodi:namedview
     pagecolor="#ffffff"
     bordercolor="#666666"
     borderopacity="1"
     objecttolerance="10"
     gridtolerance="10"
     guidetolerance="10"
     inkscape:pageopacity="0"
     inkscape:pageshadow="2"
     inkscape:window-width="1366"
     inkscape:window-height="705"
     id="namedview28"
     showgrid="false"
     inkscape:zoom="4.9166667"
     inkscape:cx="-3.661017"
     inkscape:cy="14.237288"
     inkscape:window-x="0"
     inkscape:window-y="30"
     inkscape:window-maximized="1"
     inkscape:current-layer="svg26" />
  <rect
     style="opacity:0.2"
     width="32"
     height="36"
     x="8"
     y="9"
     rx="2"
     ry="2"
     id="rect2" />
  <rect
     style="fill:#4f4f4f"
     width="32"
     height="36"
     x="8"
     y="8"
     rx="2"
     ry="2"
     id="rect4" />
  <rect
     style="fill:#8e8e8e"
     width="20"
     height="4"
     x="14"
     y="4"
     id="rect6" />
  <path
     d="m 11,33 v 8 h 26 v -8 z"
     style="opacity:0.2"
     id="path8" />
  <path
     style="fill:#66cc33;fill-opacity:1"
     d="m 11,32 v 8 h 26 v -8 z"
     id="path14" />
  <path
     style="opacity:0.2;fill:#ffffff"
     d="M 14,4 V 5 H 34 V 4 Z"
     id="path16" />
  <path
     d="M 35.999,27 C 30.46,27 26,31.46 26,37 c 0,5.54 4.4596,10 9.9991,10 5.5395,0 9.9991,-4.46 9.9991,-10 0,-5.54 -4.459,-10 -9.999,-10 z"
     style="opacity:0.2"
     id="path20" />
  <rect
     style="fill:none;stroke:#000000;stroke-width:0.97133082;stroke-opacity:1"
     width="31.028669"
     height="35.028667"
     x="8.4856653"
     y="8.4856672"
     rx="1.9392918"
     ry="1.9460371"
     id="rect4-4" />
  <path
     d="M 35.999,26 C 30.46,26 26,30.46 26,36 c 0,5.54 4.4596,10 9.9991,10 5.5395,0 9.9991,-4.46 9.9991,-10 0,-5.54 -4.459,-10 -9.999,-10 z"
     style="fill:#fecd38"
     id="path22" />
  <path
     d="m 35.999,30 v 4 h 4 l -5,8 v -4 h -4 z"
     style="fill:#3f3f3f"
     id="path24" />
</svg>
