<?xml version="1.0" encoding="UTF-8" standalone="no"?>
<svg
   xmlns:dc="http://purl.org/dc/elements/1.1/"
   xmlns:cc="http://creativecommons.org/ns#"
   xmlns:rdf="http://www.w3.org/1999/02/22-rdf-syntax-ns#"
   xmlns:svg="http://www.w3.org/2000/svg"
   xmlns="http://www.w3.org/2000/svg"
   xmlns:xlink="http://www.w3.org/1999/xlink"
   xmlns:sodipodi="http://sodipodi.sourceforge.net/DTD/sodipodi-0.dtd"
   xmlns:inkscape="http://www.inkscape.org/namespaces/inkscape"
   width="36pt"
   height="36pt"
   version="1.1"
   viewBox="0 0 36 36"
   id="svg71"
   sodipodi:docname="bluetooth-disabled.svg"
   inkscape:version="0.92.4 (5da689c313, 2019-01-14)">
  <metadata
     id="metadata75">
    <rdf:RDF>
      <cc:Work
         rdf:about="">
        <dc:format>image/svg+xml</dc:format>
        <dc:type
           rdf:resource="http://purl.org/dc/dcmitype/StillImage" />
      </cc:Work>
    </rdf:RDF>
  </metadata>
  <sodipodi:namedview
     pagecolor="#ffffff"
     bordercolor="#666666"
     borderopacity="1"
     objecttolerance="10"
     gridtolerance="10"
     guidetolerance="10"
     inkscape:pageopacity="0"
     inkscape:pageshadow="2"
     inkscape:window-width="1366"
     inkscape:window-height="682"
     id="namedview73"
     showgrid="false"
     inkscape:zoom="4.9166667"
     inkscape:cx="-5.5786396"
     inkscape:cy="24"
     inkscape:window-x="0"
     inkscape:window-y="0"
     inkscape:window-maximized="1"
     inkscape:current-layer="g69" />
  <defs
     id="defs49">
    <filter
       id="alpha"
       width="100%"
       height="100%"
       x="0%"
       y="0%"
       filterUnits="objectBoundingBox">
      <feColorMatrix
         in="SourceGraphic"
         type="matrix"
         values="0 0 0 0 1 0 0 0 0 1 0 0 0 0 1 0 0 0 1 0"
         id="feColorMatrix2" />
    </filter>
    <mask
       id="mask0">
      <g
         filter="url(#alpha)"
         id="g7">
        <rect
           width="36"
           height="36"
           x="0"
           y="0"
           style="fill:rgb(0%,0%,0%);fill-opacity:0.2"
           id="rect5" />
      </g>
    </mask>
    <clipPath
       id="clip1">
      <rect
         width="36"
         height="36"
         x="0"
         y="0"
         id="rect10" />
    </clipPath>
    <g
       id="surface5"
       clip-path="url(#clip1)">
      <path
         style="fill:none;stroke-width:2;stroke-linecap:square;stroke:rgb(0%,0%,0%)"
         d="M 17 19 L 31 32 L 24 39 L 24 12 L 31 19 L 17 32"
         transform="matrix(0.75,0,0,0.75,0,0)"
         id="path13" />
    </g>
    <mask
       id="mask1">
      <g
         filter="url(#alpha)"
         id="g18">
        <rect
           width="36"
           height="36"
           x="0"
           y="0"
           style="fill:rgb(0%,0%,0%);fill-opacity:0.101961"
           id="rect16" />
      </g>
    </mask>
    <clipPath
       id="clip2">
      <rect
         width="36"
         height="36"
         x="0"
         y="0"
         id="rect21" />
    </clipPath>
    <g
       id="surface8"
       clip-path="url(#clip2)">
      <path
         style="fill:rgb(100.000%,100.000%,100.000%)"
         d="M 18 3 C 12.183594 3 7.5 7.683594 7.5 13.5 L 7.5 14.25 C 7.5 8.433594 12.183594 3.75 18 3.75 C 23.816406 3.75 28.5 8.433594 28.5 14.25 L 28.5 13.5 C 28.5 7.683594 23.816406 3 18 3 Z M 18 3"
         id="path24" />
    </g>
    <mask
       id="mask2">
      <g
         filter="url(#alpha)"
         id="g29">
        <rect
           width="36"
           height="36"
           x="0"
           y="0"
           style="fill:rgb(0%,0%,0%);fill-opacity:0.2"
           id="rect27" />
      </g>
    </mask>
    <clipPath
       id="clip3">
      <rect
         width="36"
         height="36"
         x="0"
         y="0"
         id="rect32" />
    </clipPath>
    <g
       id="surface11"
       clip-path="url(#clip3)">
      <path
         style="fill:rgb(0%,0%,0%)"
         d="M 7.5 22.5 L 7.5 23.25 C 7.5 29.066406 12.183594 33.75 18 33.75 C 23.816406 33.75 28.5 29.066406 28.5 23.25 L 28.5 22.5 C 28.5 28.316406 23.816406 33 18 33 C 12.183594 33 7.5 28.316406 7.5 22.5 Z M 7.5 22.5"
         id="path35" />
    </g>
    <mask
       id="mask3">
      <g
         filter="url(#alpha)"
         id="g40">
        <rect
           width="36"
           height="36"
           x="0"
           y="0"
           style="fill:rgb(0%,0%,0%);fill-opacity:0.2"
           id="rect38" />
      </g>
    </mask>
    <clipPath
       id="clip4">
      <rect
         width="36"
         height="36"
         x="0"
         y="0"
         id="rect43" />
    </clipPath>
    <g
       id="surface14"
       clip-path="url(#clip4)">
      <path
         style="fill:rgb(0%,0%,0%)"
         d="M 35.234375 27.308594 C 35.066406 31.324219 31.769531 34.496094 27.75 34.5 C 23.78125 34.5 20.5 31.402344 20.265625 27.441406 C 20.257812 27.542969 20.253906 27.644531 20.25 27.75 C 20.25 31.890625 23.609375 35.25 27.75 35.25 C 31.890625 35.25 35.25 31.890625 35.25 27.75 C 35.25 27.601562 35.242188 27.457031 35.234375 27.308594 Z M 35.234375 27.308594"
         id="path46" />
    </g>
  </defs>
  <g
     id="g69">
    <path
       style="fill:#363636;fill-opacity:1"
       d="M 28.5 22.5 L 28.5 13.5 C 28.5 7.699219 23.800781 3 18 3 C 12.199219 3 7.5 7.699219 7.5 13.5 L 7.5 22.5 C 7.5 28.300781 12.199219 33 18 33 C 23.800781 33 28.5 28.300781 28.5 22.5 Z M 28.5 22.5"
       id="path51" />
    <use
       mask="url(#mask0)"
       xlink:href="#surface5"
       id="use53" />
    <path
       style="fill:none;stroke-width:2;stroke-linecap:square;stroke:rgb(100.000%,100.000%,100.000%)"
       d="M 17 18 L 31 31 L 24 38 L 24 11 L 31 18 L 17 31"
       transform="matrix(0.75,0,0,0.75,0,0)"
       id="path55" />
    <use
       mask="url(#mask1)"
       xlink:href="#surface8"
       id="use57" />
    <use
       mask="url(#mask2)"
       xlink:href="#surface11"
       id="use59" />
    <path
       style="fill:rgb(99.215%,28.627%,28.627%)"
       d="M 35.25 27 C 35.25 31.140625 31.890625 34.5 27.75 34.5 C 23.609375 34.5 20.25 31.140625 20.25 27 C 20.25 22.859375 23.609375 19.5 27.75 19.5 C 31.890625 19.5 35.25 22.859375 35.25 27 Z M 35.25 27"
       id="path61" />
    <use
       mask="url(#mask3)"
       xlink:href="#surface14"
       id="use63" />
    <path
       style="fill:rgb(100.000%,100.000%,100.000%)"
       d="M 24.035156 29.847656 L 30.398438 23.484375 L 31.460938 24.542969 L 25.09375 30.90625 Z M 24.035156 29.847656"
       id="path65" />
    <path
       style="fill:rgb(100.000%,100.000%,100.000%)"
       d="M 30.398438 30.90625 L 24.035156 24.542969 L 25.09375 23.484375 L 31.460938 29.847656 Z M 30.398438 30.90625"
       id="path67" />
  </g>
</svg>
