<?xml version="1.0" encoding="UTF-8" standalone="no"?>
<svg
   xmlns:dc="http://purl.org/dc/elements/1.1/"
   xmlns:cc="http://creativecommons.org/ns#"
   xmlns:rdf="http://www.w3.org/1999/02/22-rdf-syntax-ns#"
   xmlns:svg="http://www.w3.org/2000/svg"
   xmlns="http://www.w3.org/2000/svg"
   xmlns:xlink="http://www.w3.org/1999/xlink"
   xmlns:sodipodi="http://sodipodi.sourceforge.net/DTD/sodipodi-0.dtd"
   xmlns:inkscape="http://www.inkscape.org/namespaces/inkscape"
   id="svg3759"
   height="48"
   width="48"
   version="1.1"
   sodipodi:docname="dialog-question.svg"
   inkscape:version="0.92.4 (5da689c313, 2019-01-14)">
  <sodipodi:namedview
     pagecolor="#ffffff"
     bordercolor="#666666"
     borderopacity="1"
     objecttolerance="10"
     gridtolerance="10"
     guidetolerance="10"
     inkscape:pageopacity="0"
     inkscape:pageshadow="2"
     inkscape:window-width="1366"
     inkscape:window-height="682"
     id="namedview24"
     showgrid="false"
     inkscape:zoom="13.906433"
     inkscape:cx="26.080213"
     inkscape:cy="6.42625"
     inkscape:window-x="0"
     inkscape:window-y="0"
     inkscape:window-maximized="1"
     inkscape:current-layer="layer1" />
  <metadata
     id="metadata37">
    <rdf:RDF>
      <cc:Work
         rdf:about="">
        <dc:format>image/svg+xml</dc:format>
        <dc:type
           rdf:resource="http://purl.org/dc/dcmitype/StillImage" />
        <dc:title />
      </cc:Work>
    </rdf:RDF>
  </metadata>
  <defs
     id="defs3761">
    <linearGradient
       y2="24"
       x2="43.500004"
       y1="24"
       x1="4.5000033"
       gradientTransform="matrix(0,-1,-1,0,48.000003,48.000003)"
       gradientUnits="userSpaceOnUse"
       id="linearGradient3874"
       xlink:href="#outerBackgroundGradient-0-8" />
    <linearGradient
       id="outerBackgroundGradient-0-8">
      <stop
         id="stop3864-8-6-3-9"
         offset="0"
         style="stop-color:#1cba1c;stop-opacity:1" />
      <stop
         id="stop3866-9-1-7-5"
         offset="1"
         style="stop-color:#41ec41;stop-opacity:1" />
    </linearGradient>
    <linearGradient
       id="linearGradient3904-6">
      <stop
         style="stop-color:#234683;stop-opacity:1;"
         offset="0"
         id="stop3906-8" />
      <stop
         style="stop-color:#30589e;stop-opacity:1;"
         offset="1"
         id="stop3908-2" />
    </linearGradient>
    <linearGradient
       xlink:href="#linearGradient3904-6"
       id="linearGradient3946"
       gradientUnits="userSpaceOnUse"
       gradientTransform="matrix(0,-1,1,0,0,48.000003)"
       x1="4.0000033"
       y1="24"
       x2="44.000004"
       y2="24" />
  </defs>
  <g
     id="layer1">
    <path
       d="M 4.5000031,23.999309 C 4.5000031,34.769208 13.231094,43.5 23.999758,43.5 c 10.769649,0 19.500245,-8.730891 19.500245,-19.500691 0,-10.769405 -8.730596,-19.4993089 -19.500245,-19.4993089 -10.768664,0 -19.4997549,8.7299039 -19.4997549,19.4993089 l 0,0 z"
       id="path6495"
       style="fill:url(#linearGradient3874);fill-opacity:1.0;fill-rule:nonzero;stroke:none" />
    <path
       id="path3872"
       d="m 23.999999,4.5 c -10.63994,0 -19.254237,8.500823 -19.254237,19 0,0.169463 0.027207,0.331605 0.031668,0.5 0.2718933,-10.264588 8.754358,-18.5 19.222569,-18.5 10.467204,0 18.950644,8.235427 19.222569,18.5 0.0045,-0.168396 0.03167,-0.330535 0.03167,-0.5 0,-10.499161 -8.61532,-19 -19.254237,-19 z"
       style="opacity:0.4;fill:#ffffff;fill-opacity:1;fill-rule:nonzero;stroke:none;stroke-width:1"
       inkscape:connector-curvature="0" />
    <path
       id="path3872-3"
       d="m 23.999998,44.475 c -10.63994,0 -19.2542374,-8.500823 -19.2542374,-19 0,-0.169463 0.02721,-0.331605 0.03167,-0.5 0.271893,10.264588 8.7543584,18.5 19.2225694,18.5 10.467204,0 18.950644,-8.235427 19.222569,-18.5 0.0045,0.168396 0.03167,0.330535 0.03167,0.5 0,10.499161 -8.61532,19 -19.254237,19 z"
       style="opacity:0.15;fill:#000000;fill-opacity:1;fill-rule:nonzero;stroke:none;stroke-width:1"
       inkscape:connector-curvature="0" />
  </g>
  <g
     id="layer2">
    <path
       id="path4065"
       style="opacity:0.3;fill:#000000;fill-opacity:1;fill-rule:nonzero;stroke:none;display:inline;enable-background:new"
       d="m 20.565372,35.071824 c 0,-0.539658 0.07744,-0.995623 0.232357,-1.369141 0.154895,-0.372264 0.369757,-0.673335 0.64584,-0.903184 0.274829,-0.229859 0.599625,-0.396008 0.973143,-0.499683 0.372264,-0.10244 0.77077,-0.154905 1.195498,-0.154905 0.402257,0 0.784513,0.05246 1.145532,0.154905 0.361029,0.103675 0.679585,0.269824 0.955658,0.499683 0.274829,0.229849 0.492199,0.53092 0.653343,0.903184 0.161144,0.373518 0.241094,0.829483 0.241094,1.369141 0,0.517177 -0.07995,0.9594 -0.241094,1.326669 -0.161144,0.366024 -0.378514,0.672081 -0.653343,0.913185 -0.276073,0.23985 -0.594629,0.414746 -0.955658,0.524671 C 24.396723,37.945029 24.014467,38 23.61221,38 c -0.424728,0 -0.823234,-0.05497 -1.195498,-0.163651 -0.373518,-0.109925 -0.698314,-0.284821 -0.973143,-0.524671 -0.276083,-0.241104 -0.490945,-0.547161 -0.64584,-0.913185 -0.154905,-0.367269 -0.232357,-0.809492 -0.232357,-1.326669 m 0.568388,-5.888814 0,-1.272951 c 0,-0.585891 0.05999,-1.116811 0.181137,-1.59276 0.119925,-0.477202 0.303559,-0.929416 0.550912,-1.360403 0.24609,-0.429725 0.564645,-0.849467 0.954395,-1.25671 0.391012,-0.407253 0.861965,-0.829484 1.412877,-1.265457 0.482198,-0.378514 0.889441,-0.717053 1.221731,-1.01687 0.333552,-0.29731 0.602122,-0.593375 0.8095,-0.886943 0.206115,-0.292315 0.356024,-0.598372 0.447219,-0.919425 0.09239,-0.322298 0.138663,-0.695816 0.138663,-1.1193 0,-0.654597 -0.222365,-1.195508 -0.663334,-1.618992 -0.442223,-0.424739 -1.116811,-0.637094 -2.023738,-0.637094 -0.790762,0 -1.64398,0.16614 -2.557155,0.498439 -0.910678,0.333534 -1.856335,0.740787 -2.831976,1.222975 L 17.018833,14.1524 c 0.492189,-0.287319 1.029359,-0.55965 1.609001,-0.816985 0.580886,-0.258598 1.183,-0.488447 1.807613,-0.689567 0.625857,-0.199875 1.26047,-0.35853 1.902559,-0.47346 0.643351,-0.11492 1.274204,-0.172389 1.895075,-0.172389 1.170511,0 2.226101,0.141161 3.166763,0.422231 0.941915,0.281078 1.74017,0.69082 2.393513,1.230487 0.655836,0.539658 1.156766,1.195498 1.506556,1.963771 0.35103,0.769516 0.52592,1.646469 0.52592,2.633355 0,0.723301 -0.0812,1.369141 -0.24109,1.937538 -0.1599,0.568398 -0.39975,1.09682 -0.71331,1.584013 -0.31731,0.488438 -0.71331,0.9594 -1.189254,1.411615 -0.475957,0.453467 -1.030612,0.933167 -1.661465,1.437855 -0.482197,0.378505 -0.875707,0.70955 -1.180511,0.990619 -0.303559,0.281088 -0.542165,0.548414 -0.713301,0.7995 -0.172398,0.253593 -0.289825,0.514688 -0.353535,0.784513 -0.06249,0.268589 -0.09494,0.587135 -0.09494,0.954413 l 0,1.033101 -4.544661,0 z" />
    <path
       d="m 20.565372,34.071824 c 0,-0.539658 0.07744,-0.995623 0.232357,-1.369141 0.154895,-0.372264 0.369757,-0.673335 0.64584,-0.903184 0.274829,-0.229859 0.599625,-0.396008 0.973143,-0.499683 0.372264,-0.10244 0.77077,-0.154905 1.195498,-0.154905 0.402257,0 0.784513,0.05246 1.145532,0.154905 0.361029,0.103675 0.679585,0.269824 0.955658,0.499683 0.274829,0.229849 0.492199,0.53092 0.653343,0.903184 0.161144,0.373518 0.241094,0.829483 0.241094,1.369141 0,0.517177 -0.07995,0.9594 -0.241094,1.326669 -0.161144,0.366024 -0.378514,0.672081 -0.653343,0.913185 -0.276073,0.23985 -0.594629,0.414746 -0.955658,0.524671 C 24.396723,36.945029 24.014467,37 23.61221,37 c -0.424728,0 -0.823234,-0.05497 -1.195498,-0.163651 -0.373518,-0.109925 -0.698314,-0.284821 -0.973143,-0.524671 -0.276083,-0.241104 -0.490945,-0.547161 -0.64584,-0.913185 -0.154905,-0.367269 -0.232357,-0.809492 -0.232357,-1.326669 m 0.568388,-5.888814 0,-1.272951 c 0,-0.585891 0.05999,-1.116811 0.181137,-1.59276 0.119925,-0.477202 0.303559,-0.929416 0.550912,-1.360403 0.24609,-0.429725 0.564645,-0.849467 0.954395,-1.25671 0.391012,-0.407253 0.861965,-0.829484 1.412877,-1.265457 0.482198,-0.378514 0.889441,-0.717053 1.221731,-1.01687 0.333552,-0.29731 0.602122,-0.593375 0.8095,-0.886943 0.206115,-0.292315 0.356024,-0.598372 0.447219,-0.919425 0.09239,-0.322298 0.138663,-0.695816 0.138663,-1.1193 0,-0.654597 -0.222365,-1.195508 -0.663334,-1.618992 -0.442223,-0.424738 -1.116811,-0.637093 -2.023738,-0.637093 -0.790762,0 -1.64398,0.16614 -2.557155,0.498438 -0.910678,0.333534 -1.856335,0.740787 -2.831976,1.222975 L 17.018833,13.1524 c 0.492189,-0.287319 1.029359,-0.55965 1.609001,-0.816985 0.580886,-0.258598 1.183,-0.488447 1.807613,-0.689567 0.625857,-0.199875 1.26047,-0.35853 1.902559,-0.47346 0.643351,-0.11492 1.274204,-0.172389 1.895075,-0.172389 1.170511,0 2.226101,0.141161 3.166763,0.422231 0.941915,0.281078 1.74017,0.69082 2.393513,1.230487 0.655836,0.539658 1.156766,1.195498 1.506556,1.963772 0.35103,0.769516 0.52592,1.646468 0.52592,2.633354 0,0.723301 -0.0812,1.369141 -0.24109,1.937538 -0.1599,0.568398 -0.39975,1.09682 -0.71331,1.584013 -0.31731,0.488438 -0.71331,0.9594 -1.189254,1.411615 -0.475957,0.453467 -1.030612,0.933167 -1.661465,1.437855 -0.482197,0.378505 -0.875707,0.70955 -1.180511,0.990619 -0.303559,0.281088 -0.542165,0.548414 -0.713301,0.7995 -0.172398,0.253593 -0.289825,0.514688 -0.353535,0.784513 -0.06249,0.268589 -0.09494,0.587135 -0.09494,0.954413 l 0,1.033101 -4.544661,0 z"
       style="fill:#ffffff;fill-opacity:1;fill-rule:nonzero;stroke:none;display:inline;enable-background:new"
       id="path4055" />
  </g>
</svg>
