<?xml version="1.0" encoding="UTF-8" standalone="no"?>
<svg
   xmlns:dc="http://purl.org/dc/elements/1.1/"
   xmlns:cc="http://creativecommons.org/ns#"
   xmlns:rdf="http://www.w3.org/1999/02/22-rdf-syntax-ns#"
   xmlns:svg="http://www.w3.org/2000/svg"
   xmlns="http://www.w3.org/2000/svg"
   xmlns:xlink="http://www.w3.org/1999/xlink"
   xmlns:sodipodi="http://sodipodi.sourceforge.net/DTD/sodipodi-0.dtd"
   xmlns:inkscape="http://www.inkscape.org/namespaces/inkscape"
   width="512"
   height="512"
   version="1"
   id="svg24"
   sodipodi:docname="user-trash.svg"
   inkscape:version="0.92.4 (5da689c313, 2019-01-14)">
  <metadata
     id="metadata30">
    <rdf:RDF>
      <cc:Work
         rdf:about="">
        <dc:format>image/svg+xml</dc:format>
        <dc:type
           rdf:resource="http://purl.org/dc/dcmitype/StillImage" />
        <dc:title></dc:title>
      </cc:Work>
    </rdf:RDF>
  </metadata>
  <defs
     id="defs28">
    <linearGradient
       inkscape:collect="always"
       id="linearGradient1481">
      <stop
         style="stop-color:#000000;stop-opacity:1;"
         offset="0"
         id="stop1477" />
      <stop
         style="stop-color:#000000;stop-opacity:0;"
         offset="1"
         id="stop1479" />
    </linearGradient>
    <linearGradient
       inkscape:collect="always"
       id="linearGradient1425">
      <stop
         style="stop-color:#ffffff;stop-opacity:1;"
         offset="0"
         id="stop1421" />
      <stop
         style="stop-color:#ffffff;stop-opacity:0;"
         offset="1"
         id="stop1423" />
    </linearGradient>
    <linearGradient
       inkscape:collect="always"
       xlink:href="#linearGradient849"
       id="linearGradient851"
       x1="17.426399"
       y1="136"
       x2="238.57359"
       y2="136"
       gradientUnits="userSpaceOnUse"
       gradientTransform="matrix(0.08580278,0,0,0.08754008,19.295668,30.231905)" />
    <linearGradient
       inkscape:collect="always"
       id="linearGradient849">
      <stop
         style="stop-color:#d6d6d6;stop-opacity:1"
         offset="0"
         id="stop845" />
      <stop
         style="stop-color:#eaeaea;stop-opacity:1"
         offset="1"
         id="stop847" />
    </linearGradient>
    <linearGradient
       inkscape:collect="always"
       xlink:href="#linearGradient1425"
       id="linearGradient1427"
       x1="130.78624"
       y1="46.669899"
       x2="130.75026"
       y2="66.303192"
       gradientUnits="userSpaceOnUse" />
    <linearGradient
       inkscape:collect="always"
       xlink:href="#linearGradient1481"
       id="linearGradient1483"
       x1="124.48611"
       y1="231.85847"
       x2="124.72912"
       y2="211.17752"
       gradientUnits="userSpaceOnUse" />
  </defs>
  <sodipodi:namedview
     pagecolor="#ffffff"
     bordercolor="#666666"
     borderopacity="1"
     objecttolerance="10"
     gridtolerance="10"
     guidetolerance="10"
     inkscape:pageopacity="0"
     inkscape:pageshadow="2"
     inkscape:window-width="1366"
     inkscape:window-height="682"
     id="namedview26"
     showgrid="false"
     inkscape:zoom="0.86915206"
     inkscape:cx="262.83379"
     inkscape:cy="228.2003"
     inkscape:window-x="0"
     inkscape:window-y="0"
     inkscape:window-maximized="1"
     inkscape:current-layer="user-trash" />
  <g
     style="fill:none;fill-rule:evenodd;stroke:none;stroke-width:0.08848412"
     id="user-trash"
     transform="matrix(2.374092,0,0,2.4478583,-47.883767,-79.146276)">
    <path
       inkscape:connector-curvature="0"
       style="opacity:0.9;fill:url(#linearGradient851);fill-opacity:1;stroke:none;stroke-width:0.4063001;stroke-linecap:round;stroke-linejoin:round;stroke-miterlimit:4;stroke-dasharray:none;stroke-opacity:0.39215686"
       id="path15"
       d="m 55.206894,216.67353 c 0.766118,8.98533 8.227732,16.24284 16.668771,16.24284 H 184.12433 c 8.39552,0 15.90391,-7.27216 16.66877,-16.24284 L 214.14321,62.463331 c 6.0649,0 10.7679,-5.748367 10.7679,-11.755382 0,-6.048895 -5.12589,-9.796152 -10.7679,-9.796152 H 41.856787 c -5.615787,0 -10.767902,3.789137 -10.767902,9.796152 0,6.048894 5.125897,11.755382 10.767902,11.755382 z" />
    <path
       style="fill:#ffffff;stroke-width:0.08848412"
       inkscape:connector-curvature="0"
       id="Fill-1"
       d="m 127.63413,118.62061 c -10.25461,-22.528866 -21.04162,-4.38746 -21.04162,-4.38746 l -8.178997,15.43827 16.836377,10.47567 z m 36.41196,-6.90162 -9.07406,5.472 -3.3256,-6.25254 c 0,0 -2.56944,-6.50725 -15.24689,-5.8253 0,0 -15.70985,0.46832 -17.34564,0.14789 0,0 4.45215,0.93665 6.66665,4.6093 l 10.03085,18.8973 -7.33024,4.40389 24.59871,0.56692 z M 103.753,166.20893 c -12.723729,21.0253 7.44598,21.42789 7.44598,21.42789 l 16.61262,-0.58335 -0.33179,-20.76237 z m -24.444384,-29.52908 9.104919,5.40627 -3.302462,6.26897 c 0,0 -3.873449,5.73492 3.263882,16.89254 0,0 8.557078,14.06617 9.128068,15.71763 0,0 -1.56636,-4.53535 0.23148,-8.46271 l 9.953677,-18.94659 7.35338,4.36281 -12.33793,-22.66032 z M 156.06,163.06212 c 23.44902,1.57751 13.93515,-17.35265 13.93515,-17.35265 l -8.58794,-15.17535 -16.85182,10.45103 z m -24.86878,16.07914 12.57713,-22.52065 v 8.98032 h 20.37805 c 4.09721,-0.24648 7.05245,-3.91913 7.05245,-3.91913 -1.07252,1.33102 -8.43363,16.15308 -8.43363,16.15308 -5.66356,12.07784 -12.25306,11.27265 -12.25306,11.27265 h -6.74381 v 11.09189 z" />
    <path
       inkscape:connector-curvature="0"
       style="fill:#007dcb;fill-opacity:1;stroke-width:0.08848412"
       id="path18"
       d="m 127.63413,116.62061 c -10.25461,-22.528866 -21.04162,-4.38746 -21.04162,-4.38746 l -8.178997,15.43827 16.836377,10.47567 z m 36.41196,-6.90162 -9.07406,5.472 -3.3256,-6.25254 c 0,0 -2.56944,-6.50725 -15.24689,-5.8253 0,0 -15.70985,0.46832 -17.34564,0.14789 0,0 4.45215,0.93665 6.66665,4.6093 l 10.03085,18.8973 -7.33024,4.40389 24.59871,0.56692 z M 103.753,164.20893 c -12.723729,21.0253 7.44598,21.42789 7.44598,21.42789 l 16.61262,-0.58335 -0.33179,-20.76237 z m -24.444384,-29.52908 9.104919,5.40627 -3.302462,6.26897 c 0,0 -3.873449,5.73492 3.263882,16.89254 0,0 8.557078,14.06617 9.128068,15.71763 0,0 -1.56636,-4.53535 0.23148,-8.46271 l 9.953677,-18.94659 7.35338,4.36281 -12.33793,-22.66032 z M 156.06,161.06212 c 23.44902,1.57751 13.93515,-17.35265 13.93515,-17.35265 l -8.58794,-15.17535 -16.85182,10.45103 z m -24.86878,16.07914 12.57713,-22.52065 v 8.98032 h 20.37805 c 4.09721,-0.24648 7.05245,-3.91913 7.05245,-3.91913 -1.07252,1.33102 -8.43363,16.15308 -8.43363,16.15308 -5.66356,12.07784 -12.25306,11.27265 -12.25306,11.27265 h -6.74381 v 11.09189 z" />
    <g
       transform="matrix(0.91627898,0,0,1,78.520937,103)"
       id="Group"
       style="stroke-width:0.0924382">
      <path
         inkscape:connector-curvature="0"
         style="fill:#005285;fill-opacity:1;stroke-width:0.0924382"
         id="path20"
         d="m 98.627559,60.782404 c 1.190715,-2.074987 2.165851,-3.699715 2.518411,-4.100606 0,0 -3.225268,3.672648 -7.696847,3.919135 h -22.24 v -8.980325 l -13.726316,22.520649 0.629954,0.96644 13.096362,-21.487089 v 8.980325 h 22.24 c 2.05254,-0.113142 3.842483,-0.948172 5.178436,-1.818529 z" />
      <path
         inkscape:connector-curvature="0"
         style="fill:#005285;fill-opacity:1;stroke-width:0.0924382"
         id="path22"
         d="m 101.87349,49.538031 c 0.38982,-4.396404 -2.041209,-8.828558 -2.041209,-8.828558 L 90.459649,25.534122 72.06807,35.985149 l 0.859638,1.51151 17.531941,-9.962537 9.372632,15.175351 c 0,0 1.745459,3.182261 2.041209,6.828558 z" />
      <path
         inkscape:connector-curvature="0"
         style="fill:#005285;fill-opacity:1;stroke-width:0.0924382"
         id="path24"
         d="m 22.990685,74.032242 c -0.311157,-3.059027 0.836105,-7.204849 4.546859,-12.823309 l 25.894737,0.08216 0.362105,20.762378 -0.03486,0.0011 -0.327244,-18.7635 -25.894737,-0.08216 c -2.957659,4.478196 -4.286757,8.020841 -4.546859,10.823309 z" />
      <polygon
         style="fill:#005285;fill-opacity:1;stroke-width:0.0924382"
         points="57.958577,28.245415 62.459649,25.767635 61.581178,24.251222 54.459649,28.171527 "
         id="Path" />
      <path
         inkscape:connector-curvature="0"
         style="fill:#005285;fill-opacity:1;stroke-width:0.0924382"
         id="path27"
         d="m 7.1922807,43.355095 c 0,0 -1.3989572,1.897849 -1.10444,5.634109 0.2039637,-2.412508 1.10444,-3.634109 1.10444,-3.634109 L 10.796491,39.086122 10.900002,37 Z" />
      <path
         inkscape:connector-curvature="0"
         style="fill:#005285;fill-opacity:1;stroke-width:0.0924382"
         id="path29"
         d="m 22.579878,25.167248 -0.869703,-0.495829 8.926316,-15.43827 c 0,0 11.772632,-18.1414055 22.964211,4.387459 l -0.564387,0.898895 C 42.016955,-6.3039334 30.636491,11.233149 30.636491,11.233149 Z" />
      <polygon
         style="fill:#005285;fill-opacity:1;stroke-width:0.0924382"
         points="26.392281,30.258446 39.857544,52.918771 38.101985,51.964388 26.392281,32.258446 4.1944644,33.494202 0.85964912,31.679852 "
         id="polygon31" />
      <path
         inkscape:connector-curvature="0"
         style="fill:#005589;fill-opacity:1;stroke-width:0.0924382"
         id="path33"
         d="M 49.041794,2.3707458 C 46.736367,0.74293632 44.236491,0.26104084 44.236491,0.26104084 46.021754,0.58147327 63.167017,0.11314895 63.167017,0.11314895 c 13.83579,-0.68194594 16.64,5.82529725 16.64,5.82529725 l 3.629474,6.2525408 9.903158,-5.4720002 -1.565842,2.8652079 -8.337316,4.6067923 -3.629474,-6.2525408 c 0,0 -2.80421,-6.5072432 -16.64,-5.8252973 0,0 -8.471807,0.2314082 -14.125223,0.2575969 z" />
    </g>
    <path
       inkscape:connector-curvature="0"
       style="opacity:0.8;fill:none;fill-opacity:1;fill-rule:evenodd;stroke:url(#linearGradient1427);stroke-width:4.14818478;stroke-linecap:round;stroke-linejoin:round;stroke-miterlimit:4;stroke-dasharray:none;stroke-opacity:1"
       id="path15-5"
       d="m 55.206888,214.95036 c 0.766119,8.79121 8.227732,15.89192 16.668771,15.89192 H 184.12433 c 8.39552,0 15.90391,-7.11505 16.66877,-15.89192 L 214.14321,64.071807 c 6.0649,0 10.7679,-5.624175 10.7679,-11.50141 0,-5.918211 -5.12589,-9.58451 -10.7679,-9.58451 H 41.856782 c -5.615787,0 -10.767902,3.707274 -10.767902,9.58451 0,5.91821 5.125896,11.50141 10.767902,11.50141 z" />
    <path
       inkscape:connector-curvature="0"
       style="opacity:0.4;fill:none;fill-opacity:1;fill-rule:evenodd;stroke:url(#linearGradient1483);stroke-width:4.14818478;stroke-linecap:round;stroke-linejoin:round;stroke-miterlimit:4;stroke-dasharray:none;stroke-opacity:1"
       id="path15-5-7"
       d="m 55.206891,214.95036 c 0.76612,8.79121 8.22773,15.89192 16.66877,15.89192 H 184.12433 c 8.39552,0 15.90391,-7.11505 16.66877,-15.89192 L 214.14321,64.071806 c 6.0649,0 10.7679,-5.624175 10.7679,-11.50141 0,-5.918211 -5.12589,-9.58451 -10.7679,-9.58451 H 41.856781 c -5.61578,0 -10.7679,3.707274 -10.7679,9.58451 0,5.91821 5.1259,11.50141 10.7679,11.50141 z" />
  </g>
</svg>
