/* XPM */
static char * maximize_prelight_xpm[] = {
"32 34 4 1",
" 	c None",
".	c #8E8E8E",
"+	c #A1A1A1",
"@	c #44494B",
"................................",
"++++++++++++++++++++++++++++++++",
"++++++++++++++++++++++++++++++++",
"++++++++++++++++++++++++++++++++",
"++++++++++++++++++++++++++++++++",
"++++++++++++++++++++++++++++++++",
"++++++++++++++++++++++++++++++++",
"++++++++++++++++++++++++++++++++",
"++++++++++++++++++++++++++++++++",
"++++++++++++++++++++++++++++++++",
"++++++++++++++++++++++++++++++++",
"++++++++++++++++++++++++++++++++",
"++++++++++++++++++++++++++++++++",
"++++++++++++@@@@@@@@++++++++++++",
"++++++++++++@@@@@@@@++++++++++++",
"++++++++++++@@++++@@++++++++++++",
"++++++++++++@@++++@@++++++++++++",
"++++++++++++@@++++@@++++++++++++",
"++++++++++++@@++++@@++++++++++++",
"++++++++++++@@@@@@@@++++++++++++",
"++++++++++++@@@@@@@@++++++++++++",
"++++++++++++++++++++++++++++++++",
"++++++++++++++++++++++++++++++++",
"++++++++++++++++++++++++++++++++",
"++++++++++++++++++++++++++++++++",
"++++++++++++++++++++++++++++++++",
"++++++++++++++++++++++++++++++++",
"++++++++++++++++++++++++++++++++",
"++++++++++++++++++++++++++++++++",
"++++++++++++++++++++++++++++++++",
"++++++++++++++++++++++++++++++++",
"++++++++++++++++++++++++++++++++",
"++++++++++++++++++++++++++++++++",
"++++++++++++++++++++++++++++++++"};
