/* XPM */
static char * stick_prelight_xpm[] = {
"32 34 18 1",
" 	c None",
".	c #808080",
"+	c #A1A1A1",
"@	c #9D9D9E",
"#	c #626567",
"$	c #494E50",
"%	c #44494B",
"&	c #7D8080",
"*	c #7E8081",
"=	c #55595B",
"-	c #818283",
";	c #9B9C9C",
">	c #9B9B9B",
",	c #626667",
"'	c #626566",
")	c #7D7F80",
"!	c #7D8081",
"~	c #7C7F80",
"................................",
"++++++++++++++++++++++++++++++++",
"++++++++++++++++++++++++++++++++",
"++++++++++++++++++++++++++++++++",
"++++++++++++++++++++++++++++++++",
"++++++++++++++++++++++++++++++++",
"++++++++++++++++++++++++++++++++",
"++++++++++++++++++++++++++++++++",
"++++++++++++++++++++++++++++++++",
"++++++++++++++++++++++++++++++++",
"++++++++++++@#$%%$#@++++++++++++",
"+++++++++++&%%%%%%%%*+++++++++++",
"++++++++++&%%%%%%%%%%*++++++++++",
"+++++++++@%%%=-;;-=%%%@+++++++++",
"+++++++++#%%=>++++>=%%,+++++++++",
"+++++++++$%%-++++++-%%$+++++++++",
"+++++++++%%%;++++++;%%%+++++++++",
"+++++++++%%%;++++++;%%%+++++++++",
"+++++++++$%%-++++++-%%$+++++++++",
"+++++++++'%%=>++++>=%%#+++++++++",
"+++++++++@%%%=-;;-=%%%@+++++++++",
"++++++++++)%%%%%%%%%%!++++++++++",
"+++++++++++~%%%%%%%%)+++++++++++",
"++++++++++++@'$%%$'@++++++++++++",
"++++++++++++++++++++++++++++++++",
"++++++++++++++++++++++++++++++++",
"++++++++++++++++++++++++++++++++",
"++++++++++++++++++++++++++++++++",
"++++++++++++++++++++++++++++++++",
"++++++++++++++++++++++++++++++++",
"++++++++++++++++++++++++++++++++",
"++++++++++++++++++++++++++++++++",
"++++++++++++++++++++++++++++++++",
"++++++++++++++++++++++++++++++++"};
