/* XPM */
static char * stick_toggled_pressed_xpm[] = {
"32 34 14 1",
" 	c None",
".	c #8E8E8E",
"+	c #919191",
"@	c #8D8D8E",
"#	c #6B6F71",
"$	c #494E50",
"%	c #44494B",
"&	c #8B8E8F",
"*	c #8C8E90",
"=	c #6B7071",
"-	c #6B6F70",
";	c #8B8D8F",
">	c #8B8E90",
",	c #8A8D8E",
"................................",
"++++++++++++++++++++++++++++++++",
"++++++++++++++++++++++++++++++++",
"++++++++++++++++++++++++++++++++",
"++++++++++++++++++++++++++++++++",
"++++++++++++++++++++++++++++++++",
"++++++++++++++++++++++++++++++++",
"++++++++++++++++++++++++++++++++",
"++++++++++++++++++++++++++++++++",
"++++++++++++++++++++++++++++++++",
"++++++++++++@#$%%$#@++++++++++++",
"+++++++++++&%%%%%%%%*+++++++++++",
"++++++++++&%%%%%%%%%%*++++++++++",
"+++++++++@%%%%%%%%%%%%@+++++++++",
"+++++++++#%%%%%%%%%%%%=+++++++++",
"+++++++++$%%%%%%%%%%%%$+++++++++",
"+++++++++%%%%%%%%%%%%%%+++++++++",
"+++++++++%%%%%%%%%%%%%%+++++++++",
"+++++++++$%%%%%%%%%%%%$+++++++++",
"+++++++++-%%%%%%%%%%%%#+++++++++",
"+++++++++@%%%%%%%%%%%%@+++++++++",
"++++++++++;%%%%%%%%%%>++++++++++",
"+++++++++++,%%%%%%%%;+++++++++++",
"++++++++++++@-$%%$-@++++++++++++",
"++++++++++++++++++++++++++++++++",
"++++++++++++++++++++++++++++++++",
"++++++++++++++++++++++++++++++++",
"++++++++++++++++++++++++++++++++",
"++++++++++++++++++++++++++++++++",
"++++++++++++++++++++++++++++++++",
"++++++++++++++++++++++++++++++++",
"++++++++++++++++++++++++++++++++",
"++++++++++++++++++++++++++++++++",
"++++++++++++++++++++++++++++++++"};
