/* XPM */
static char * stick_toggled_inactive_xpm[] = {
"32 34 10 1",
" 	c None",
".	c #8E8E8E",
"+	c #B3B3B3",
"@	c #AFAFB0",
"#	c #8D9091",
"$	c #8B8E8F",
"%	c #8C8E90",
"&	c #8B8D8F",
"*	c #8B8E90",
"=	c #8A8D8E",
"................................",
"++++++++++++++++++++++++++++++++",
"++++++++++++++++++++++++++++++++",
"++++++++++++++++++++++++++++++++",
"++++++++++++++++++++++++++++++++",
"++++++++++++++++++++++++++++++++",
"++++++++++++++++++++++++++++++++",
"++++++++++++++++++++++++++++++++",
"++++++++++++++++++++++++++++++++",
"++++++++++++++++++++++++++++++++",
"++++++++++++@######@++++++++++++",
"+++++++++++$########%+++++++++++",
"++++++++++$##########%++++++++++",
"+++++++++@############@+++++++++",
"+++++++++##############+++++++++",
"+++++++++##############+++++++++",
"+++++++++##############+++++++++",
"+++++++++##############+++++++++",
"+++++++++##############+++++++++",
"+++++++++##############+++++++++",
"+++++++++@############@+++++++++",
"++++++++++&##########*++++++++++",
"+++++++++++=########&+++++++++++",
"++++++++++++@######@++++++++++++",
"++++++++++++++++++++++++++++++++",
"++++++++++++++++++++++++++++++++",
"++++++++++++++++++++++++++++++++",
"++++++++++++++++++++++++++++++++",
"++++++++++++++++++++++++++++++++",
"++++++++++++++++++++++++++++++++",
"++++++++++++++++++++++++++++++++",
"++++++++++++++++++++++++++++++++",
"++++++++++++++++++++++++++++++++",
"++++++++++++++++++++++++++++++++"};
