/* XPM */
static char * top_left_inactive_xpm[] = {
"5 34 4 1",
" 	c None",
".	c #8E8E8E",
"+	c #A2A2A2",
"@	c #B3B3B3",
"  ...",
" +@@@",
".@@@@",
".@@@@",
".@@@@",
".@@@@",
".@@@@",
".@@@@",
".@@@@",
".@@@@",
".@@@@",
".@@@@",
".@@@@",
".@@@@",
".@@@@",
".@@@@",
".@@@@",
".@@@@",
".@@@@",
".@@@@",
".@@@@",
".@@@@",
".@@@@",
".@@@@",
".@@@@",
".@@@@",
".@@@@",
".@@@@",
".@@@@",
".@@@@",
".@@@@",
".@@@@",
".@@@@",
".@@@@"};
