<?xml version="1.0" encoding="UTF-8" standalone="no"?>
<svg
   xmlns:dc="http://purl.org/dc/elements/1.1/"
   xmlns:cc="http://creativecommons.org/ns#"
   xmlns:rdf="http://www.w3.org/1999/02/22-rdf-syntax-ns#"
   xmlns:svg="http://www.w3.org/2000/svg"
   xmlns="http://www.w3.org/2000/svg"
   xmlns:sodipodi="http://sodipodi.sourceforge.net/DTD/sodipodi-0.dtd"
   xmlns:inkscape="http://www.inkscape.org/namespaces/inkscape"
   width="16"
   height="16"
   version="1.1"
   id="svg838"
   sodipodi:docname="phone-symbolic.svg"
   inkscape:version="0.92.4 (5da689c313, 2019-01-14)">
  <metadata
     id="metadata844">
    <rdf:RDF>
      <cc:Work
         rdf:about="">
        <dc:format>image/svg+xml</dc:format>
        <dc:type
           rdf:resource="http://purl.org/dc/dcmitype/StillImage" />
      </cc:Work>
    </rdf:RDF>
  </metadata>
  <defs
     id="defs842" />
  <sodipodi:namedview
     pagecolor="#ffffff"
     bordercolor="#666666"
     borderopacity="1"
     objecttolerance="10"
     gridtolerance="10"
     guidetolerance="10"
     inkscape:pageopacity="0"
     inkscape:pageshadow="2"
     inkscape:window-width="1060"
     inkscape:window-height="480"
     id="namedview840"
     showgrid="false"
     inkscape:zoom="14.75"
     inkscape:cx="0.84745763"
     inkscape:cy="8"
     inkscape:window-x="201"
     inkscape:window-y="79"
     inkscape:window-maximized="0"
     inkscape:current-layer="svg838" />
  <path
     style="fill:#d3dae3;fill-opacity:1"
     d="M 4,0 C 3,0 3,1 3,1 V 15 C 3,15 3,16 4,16 H 12 C 13,16 13,15 13,15 V 1 C 13,1 13,0 12,0 Z M 5,2 H 11 V 12 H 5 Z M 8,13 A 1,1 0 0 1 9,14 1,1 0 0 1 8,15 1,1 0 0 1 7,14 1,1 0 0 1 8,13 Z"
     id="path836" />
</svg>
