<?xml version="1.0" encoding="UTF-8" standalone="no"?>
<svg
   xmlns:dc="http://purl.org/dc/elements/1.1/"
   xmlns:cc="http://creativecommons.org/ns#"
   xmlns:rdf="http://www.w3.org/1999/02/22-rdf-syntax-ns#"
   xmlns:svg="http://www.w3.org/2000/svg"
   xmlns="http://www.w3.org/2000/svg"
   xmlns:sodipodi="http://sodipodi.sourceforge.net/DTD/sodipodi-0.dtd"
   xmlns:inkscape="http://www.inkscape.org/namespaces/inkscape"
   width="48"
   height="48"
   version="1"
   id="svg26"
   sodipodi:docname="application-video.svg"
   inkscape:version="0.92.4 (5da689c313, 2019-01-14)">
  <metadata
     id="metadata32">
    <rdf:RDF>
      <cc:Work
         rdf:about="">
        <dc:format>image/svg+xml</dc:format>
        <dc:type
           rdf:resource="http://purl.org/dc/dcmitype/StillImage" />
        <dc:title></dc:title>
      </cc:Work>
    </rdf:RDF>
  </metadata>
  <defs
     id="defs30" />
  <sodipodi:namedview
     pagecolor="#ffffff"
     bordercolor="#666666"
     borderopacity="1"
     objecttolerance="10"
     gridtolerance="10"
     guidetolerance="10"
     inkscape:pageopacity="0"
     inkscape:pageshadow="2"
     inkscape:window-width="1366"
     inkscape:window-height="682"
     id="namedview28"
     showgrid="false"
     inkscape:zoom="10.935998"
     inkscape:cx="24.484426"
     inkscape:cy="29.809849"
     inkscape:window-x="0"
     inkscape:window-y="0"
     inkscape:window-maximized="1"
     inkscape:current-layer="svg26" />
  <rect
     style="fill:#4a4a4a;fill-opacity:1"
     width="40"
     height="40"
     x="-44"
     y="-44"
     rx="2"
     ry="2"
     transform="matrix(0,-1,-1,0,0,0)"
     id="rect2" />
  <path
     style="opacity:0.1;fill:#ffffff"
     d="m 6,3.9 c -1.108,0 -2,0.892 -2,2 v 1 c 0,-1.108 0.892,-2 2,-2 h 36 c 1.108,0 2,0.892 2,2 v -1 c 0,-1.108 -0.892,-2 -2,-2 z"
     id="path4"
     inkscape:connector-curvature="0" />
  <path
     style="opacity:0.2"
     d="M 6,45 C 4.892,45 4,44.108 4,43 l 0,-1 c 0,1.108 0.892,2 2,2 l 36,0 c 1.108,0 2,-0.892 2,-2 l 0,1 c 0,1.108 -0.892,2 -2,2 L 6,45 Z"
     id="path6" />
  <path
     style="opacity:0.2"
     d="m 6,7 0,4 4,0 0,-4 -4,0 z m 32,0 0,4 4,0 0,-4 -4,0 z m -32,8 0,4 4,0 0,-4 -4,0 z m 32,0 0,4 4,0 0,-4 -4,0 z m -32,8 0,4 4,0 0,-4 -4,0 z m 32,0 0,4 4,0 0,-4 -4,0 z m -32,8 0,4 4,0 0,-4 -4,0 z m 32,0 0,4 4,0 0,-4 -4,0 z m -32,8 0,4 4,0 0,-4 -4,0 z m 32,0 0,4 4,0 0,-4 -4,0 z"
     id="path8" />
  <path
     style="fill:#ffffff"
     d="m 6,6 0,4 4,0 0,-4 -4,0 z m 32,0 0,4 4,0 0,-4 -4,0 z m -32,8 0,4 4,0 0,-4 -4,0 z m 32,0 0,4 4,0 0,-4 -4,0 z m -32,8 0,4 4,0 0,-4 -4,0 z m 32,0 0,4 4,0 0,-4 -4,0 z m -32,8 0,4 4,0 0,-4 -4,0 z m 32,0 0,4 4,0 0,-4 -4,0 z m -32,8 0,4 4,0 0,-4 -4,0 z m 32,0 0,4 4,0 0,-4 -4,0 z"
     id="path10" />
  <rect
     style="opacity:0.2"
     width="20"
     height="14"
     x="14"
     y="9"
     id="rect12" />
  <rect
     style="fill:#0083d7"
     width="20"
     height="14"
     x="14"
     y="8"
     id="rect14" />
  <rect
     style="opacity:0.2"
     width="20"
     height="14"
     x="14"
     y="27"
     id="rect16" />
  <rect
     style="fill:#0083d7"
     width="20"
     height="14"
     x="14"
     y="26"
     id="rect18" />
</svg>
